<svg width="13" height="13" viewBox="0 0 13 13" fill="none" xmlns="http://www.w3.org/2000/svg">
<path d="M0 2.43478C0 1.3142 0.895431 0.405792 2 0.405792C3.10457 0.405792 4 1.3142 4 2.43478C4 3.55536 3.10457 4.46376 2 4.46376C0.895431 4.46376 0 3.55536 0 2.43478Z" fill="#C4C4C4"/>
<path d="M0 10.5507C0 9.43014 0.895431 8.52173 2 8.52173C3.10457 8.52173 4 9.43014 4 10.5507C4 11.6713 3.10457 12.5797 2 12.5797C0.895431 12.5797 0 11.6713 0 10.5507Z" fill="#C4C4C4"/>
<path d="M9 2.43478C9 1.3142 9.89543 0.405792 11 0.405792C12.1046 0.405792 13 1.3142 13 2.43478C13 3.55536 12.1046 4.46376 11 4.46376C9.89543 4.46376 9 3.55536 9 2.43478Z" fill="#C4C4C4"/>
<path d="M9 10.5507C9 9.43014 9.89543 8.52173 11 8.52173C12.1046 8.52173 13 9.43014 13 10.5507C13 11.6713 12.1046 12.5797 11 12.5797C9.89543 12.5797 9 11.6713 9 10.5507Z" fill="#C4C4C4"/>
</svg>
