<svg width="101" height="20" viewBox="0 0 101 20" fill="none" xmlns="http://www.w3.org/2000/svg">
<path d="M3.64199 15.1471V5.61876H-0.00012207V3.20112H9.92641V5.61876H6.2843V15.1471H3.64199Z" fill="#5F6A7C"/>
<path d="M21.7098 13.5823C20.4957 14.7911 18.996 15.3599 17.1393 15.3599C15.2825 15.3599 13.7828 14.7911 12.6402 13.5823C11.4976 12.3734 10.8549 10.9513 10.8549 9.17362C10.8549 7.46705 11.4262 5.9738 12.6402 4.76498C13.8542 3.55616 15.3539 2.9873 17.2107 2.9873C19.0675 2.9873 20.5672 3.55616 21.7098 4.76498C22.9238 5.9738 23.4951 7.39594 23.4951 9.17362C23.5665 10.8802 22.9238 12.3734 21.7098 13.5823ZM14.6398 11.8046C15.3539 12.5157 16.2109 12.8712 17.2107 12.8712C18.2105 12.8712 19.1389 12.5157 19.7816 11.8046C20.4243 11.0935 20.7814 10.1691 20.7814 9.10252C20.7814 8.03591 20.4243 7.18262 19.7816 6.47155C19.1389 5.76048 18.2105 5.40495 17.2107 5.40495C16.2109 5.40495 15.2825 5.76048 14.6398 6.47155C13.9971 7.18262 13.64 8.10702 13.64 9.17362C13.64 10.2402 13.9257 11.0935 14.6398 11.8046Z" fill="#5F6A7C"/>
<path d="M25.8517 15.1465V3.20051H30.7078C32.1361 3.20051 33.2073 3.55604 34.0643 4.33822C34.8499 5.1204 35.2783 6.1159 35.2783 7.32472C35.2783 8.67575 34.8499 9.67125 33.9215 10.4534C32.9931 11.1645 31.8505 11.52 30.4936 11.52H28.494V15.0754H25.8517V15.1465ZM28.494 9.24461H30.565C31.2077 9.24461 31.7076 9.10239 32.0647 8.74686C32.4218 8.39132 32.636 7.96468 32.636 7.39582C32.636 6.82697 32.4218 6.40032 32.0647 6.04479C31.7076 5.76036 31.1363 5.54704 30.4936 5.54704H28.494V9.24461Z" fill="#5F6A7C"/>
<path fill-rule="evenodd" clip-rule="evenodd" d="M74.8417 6.25732C74.199 6.25732 73.6991 6.54175 73.2706 7.11061C72.8421 7.67947 72.6993 8.46164 72.6993 9.38604C72.6993 10.3104 72.9135 11.0926 73.2706 11.6615C73.6277 12.2303 74.199 12.5859 74.8417 12.5859C75.4844 12.5859 75.9843 12.3014 76.4128 11.7326C76.7699 11.1637 76.9841 10.3815 76.9841 9.45714C76.9841 8.53275 76.7699 7.82168 76.3414 7.18172C75.9843 6.54175 75.4844 6.25732 74.8417 6.25732Z" fill="#5F6A7C"/>
<path fill-rule="evenodd" clip-rule="evenodd" d="M85.1968 6.25732C84.5541 6.25732 84.0542 6.54175 83.6257 7.11061C83.1972 7.67947 83.0544 8.46164 83.0544 9.38604C83.0544 10.3104 83.2686 11.0926 83.6257 11.6615C83.9828 12.2303 84.5541 12.5859 85.1968 12.5859C85.8395 12.5859 86.3394 12.3014 86.7679 11.7326C87.125 11.1637 87.3392 10.3815 87.3392 9.45714C87.3392 8.53275 87.125 7.82168 86.6965 7.18172C86.3394 6.54175 85.8395 6.25732 85.1968 6.25732Z" fill="#5F6A7C"/>
<path fill-rule="evenodd" clip-rule="evenodd" d="M64.4152 6.25732C63.7725 6.25732 63.2726 6.54175 62.8441 7.11061C62.4156 7.67947 62.2728 8.46164 62.2728 9.38604C62.2728 10.3104 62.487 11.0926 62.8441 11.6615C63.2012 12.2303 63.7725 12.5859 64.4152 12.5859C65.0579 12.5859 65.5578 12.3014 65.9863 11.7326C66.3434 11.1637 66.5576 10.3815 66.5576 9.45714C66.5576 8.53275 66.3434 7.82168 65.9149 7.18172C65.6292 6.54175 65.0579 6.25732 64.4152 6.25732Z" fill="#5F6A7C"/>
<path fill-rule="evenodd" clip-rule="evenodd" d="M96.9086 0H47.2045C45.205 0 43.6339 1.56436 43.6339 3.55535V15.7147C43.6339 17.7057 45.205 19.27 47.2045 19.27H96.9086C98.9082 19.27 100.479 17.7057 100.479 15.7147V3.55535C100.479 1.56436 98.8368 0 96.9086 0ZM57.988 14.3636H55.8456V6.54185L54.1317 6.9685L53.7032 5.19082L56.5598 4.33753H58.0595V14.3636H57.988ZM67.6289 13.0837C66.772 14.0792 65.7722 14.577 64.4153 14.577C63.1299 14.577 62.0586 14.0792 61.2017 13.0837C60.4161 12.0882 59.9876 10.8794 59.9876 9.38614C59.9876 7.89289 60.4161 6.68407 61.2017 5.68857C61.9872 4.69307 63.1299 4.26643 64.4867 4.26643C65.7722 4.26643 66.8434 4.76418 67.6289 5.75968C68.4145 6.75517 68.843 7.96399 68.843 9.45724C68.843 10.8794 68.4859 12.0882 67.6289 13.0837ZM77.9839 13.0837C77.127 14.0792 76.1272 14.577 74.7703 14.577C73.4849 14.577 72.4137 14.0792 71.5567 13.0837C70.7711 12.0882 70.3427 10.8794 70.3427 9.38614C70.3427 7.89289 70.7711 6.68407 71.5567 5.68857C72.3422 4.69307 73.5563 4.26643 74.8417 4.26643C76.1272 4.26643 77.1984 4.76418 77.9839 5.75968C78.7695 6.75517 79.198 7.96399 79.198 9.45724C79.2694 10.8794 78.8409 12.0882 77.9839 13.0837ZM88.4104 13.0837C87.5534 14.0792 86.5536 14.577 85.1968 14.577C83.9113 14.577 82.8401 14.0792 81.9831 13.0837C81.1976 12.0882 80.7691 10.8794 80.7691 9.38614C80.7691 7.89289 81.1976 6.68407 81.9831 5.68857C82.7687 4.69307 83.8399 4.19532 85.1968 4.19532C86.4822 4.19532 87.5534 4.69307 88.339 5.68857C89.1245 6.68407 89.553 7.89289 89.553 9.38614C89.6244 10.8794 89.1959 12.0882 88.4104 13.0837Z" fill="#5F6A7C"/>
</svg>
