<svg width="43" height="32" viewBox="0 0 43 32" fill="none" xmlns="http://www.w3.org/2000/svg">
<path d="M4.54197 10.076C3.93333 9.54849 3.62901 8.76775 3.62901 7.7549C3.62901 7.43839 3.64803 7.14297 3.68607 6.88976C3.87627 5.8558 4.04745 5.03286 4.18059 4.39983C4.46589 3.07046 4.97943 2.07871 5.72121 1.40348C6.46299 0.728242 7.43301 0.390625 8.61225 0.390625C9.60129 0.390625 10.4001 0.664939 11.0088 1.21357C11.6174 1.76219 11.9217 2.54293 11.9217 3.53469C11.9217 3.7879 11.9027 4.08331 11.8457 4.39983C11.7315 5.15947 11.5794 6.00351 11.3702 6.88976C11.0658 8.21912 10.5523 9.23198 9.82954 9.88611C9.08775 10.5402 8.13675 10.8779 6.95751 10.8779C5.94945 10.8779 5.15061 10.6035 4.54197 10.076ZM8.59323 8.59894C9.01167 8.21913 9.316 7.60719 9.48717 6.80535C9.67737 5.94021 9.82953 5.13837 9.94366 4.44203C9.9817 4.12552 10.0007 3.8723 10.0007 3.68239C10.0007 2.60624 9.5062 2.05761 8.49813 2.05761C7.88949 2.05761 7.37595 2.24752 6.95751 2.64844C6.53907 3.02826 6.23475 3.64019 6.06357 4.44203C5.87337 5.32828 5.72121 6.10902 5.62611 6.80535C5.58807 7.05857 5.56905 7.31178 5.56905 7.58609C5.56905 8.13472 5.70219 8.53564 5.94945 8.78885C6.19671 9.04207 6.57711 9.16867 7.07163 9.16867C7.64223 9.18977 8.15577 8.99987 8.59323 8.59894Z" fill="#5F6A7C"/>
<path d="M12.3212 10.6248C12.2641 10.5615 12.2641 10.4771 12.2831 10.3716L13.5955 3.51376C13.6145 3.40825 13.6526 3.32385 13.7287 3.26055C13.8047 3.19724 13.8808 3.17614 13.9759 3.17614H15.0601C15.1552 3.17614 15.2312 3.21834 15.2693 3.28165C15.3073 3.34495 15.3263 3.42935 15.3073 3.53486L15.1932 4.12569C15.4785 3.78807 15.8209 3.53486 16.2013 3.32385C16.5817 3.13394 17.0001 3.02843 17.4756 3.02843C18.1984 3.02843 18.7309 3.21834 19.1113 3.61926C19.4917 4.02018 19.6819 4.56881 19.6819 5.28625C19.6819 5.56056 19.6439 5.89818 19.5868 6.2991L18.807 10.3927C18.788 10.4982 18.75 10.5826 18.6739 10.6459C18.5978 10.7092 18.5217 10.7303 18.4266 10.7303H17.2664C17.1713 10.7303 17.0952 10.6881 17.0572 10.6248C17.0001 10.5615 17.0001 10.4771 17.0191 10.3716L17.7799 6.3624C17.837 6.02479 17.875 5.77157 17.875 5.60277C17.875 5.24405 17.799 4.99083 17.6278 4.82203C17.4566 4.65322 17.1903 4.56881 16.8099 4.56881C16.3154 4.56881 15.916 4.71652 15.5736 5.03304C15.2312 5.34955 15.003 5.79268 14.8889 6.3413L14.1281 10.3505C14.1091 10.456 14.071 10.5404 13.9949 10.6037C13.8618 10.6881 13.7857 10.7303 13.6906 10.7303H12.5304C12.4353 10.7303 12.3592 10.6881 12.3212 10.6248Z" fill="#5F6A7C"/>
<path d="M21.5268 10.1814C21.0704 9.71721 20.8421 9.04198 20.8421 8.17683C20.8421 7.83921 20.8611 7.5438 20.8992 7.29059C20.8992 7.22728 20.9562 6.97407 21.0513 6.57315C21.2986 5.47589 21.7741 4.58965 22.4588 3.95662C23.1435 3.32358 23.9804 3.00707 24.9314 3.00707C25.7873 3.00707 26.453 3.26028 26.8905 3.74561C27.328 4.23093 27.5562 4.90617 27.5562 5.77131C27.5562 6.08783 27.5182 6.44654 27.4611 6.86857L27.404 7.16398C27.385 7.26949 27.347 7.35389 27.2709 7.41719C27.1948 7.4805 27.1187 7.5227 27.0236 7.5227H22.7061L22.6871 7.64931C22.668 7.81811 22.649 7.98692 22.649 8.13463C22.649 8.53555 22.7441 8.87317 22.9343 9.12638C23.1245 9.37959 23.3908 9.5062 23.7522 9.5062C24.2467 9.5062 24.7032 9.27409 25.1026 8.83097C25.1977 8.72546 25.2738 8.66216 25.3308 8.64106C25.3879 8.61995 25.464 8.59885 25.5591 8.59885H26.7003C26.7764 8.59885 26.8334 8.61995 26.8905 8.68326C26.9285 8.74656 26.9476 8.80986 26.9285 8.89427C26.8715 9.12638 26.6813 9.40069 26.377 9.71721C26.0726 10.0337 25.6542 10.2869 25.1597 10.5191C24.6651 10.7512 24.1136 10.8567 23.5049 10.8567C22.63 10.8778 21.9833 10.6457 21.5268 10.1814ZM25.7683 6.25663C25.8064 6.06672 25.8254 5.87681 25.8254 5.68691C25.8254 5.28598 25.7303 4.94837 25.5401 4.71626C25.3499 4.48414 25.0646 4.35754 24.7032 4.35754C24.2657 4.35754 23.8853 4.52635 23.562 4.86396C23.2386 5.20158 23.0294 5.6658 22.9153 6.23553V6.25663H25.7683Z" fill="#5F6A7C"/>
<path d="M1.63147 21.1751C1.57441 21.1118 1.57441 21.0274 1.59343 20.9219L2.90581 14.043C2.92483 13.9375 2.96287 13.8531 3.03895 13.7898C3.11503 13.7265 3.19111 13.7054 3.28621 13.7054H4.31329C4.40839 13.7054 4.46545 13.7265 4.50349 13.7898C4.54153 13.8531 4.56055 13.9375 4.54153 14.043L4.44643 14.5283C4.73173 14.2118 5.01703 13.9586 5.32135 13.7898C5.62567 13.6209 5.98706 13.5365 6.4055 13.5365C6.90002 13.5365 7.31846 13.642 7.6418 13.8742C7.96514 14.1063 8.19338 14.4228 8.32652 14.8237C8.95418 13.9586 9.69596 13.5365 10.5519 13.5365C11.1605 13.5365 11.674 13.7265 12.0354 14.1063C12.4158 14.4861 12.606 15.0558 12.606 15.7944C12.606 16.1109 12.568 16.4063 12.5109 16.7228L11.6931 20.9008C11.674 21.0063 11.636 21.0907 11.5599 21.154C11.4838 21.2173 11.4078 21.2384 11.3317 21.2384H10.2666C10.1715 21.2384 10.0954 21.1962 10.0573 21.1329C10.0003 21.0696 10.0003 20.9852 10.0193 20.8797L10.7991 16.8072C10.8372 16.5962 10.8562 16.3852 10.8562 16.1531C10.8562 15.4356 10.5519 15.0769 9.94322 15.0769C9.60086 15.0769 9.2585 15.2246 8.95418 15.4989C8.64986 15.7733 8.42162 16.2164 8.3075 16.8072L7.52768 20.8797C7.50866 20.9852 7.47062 21.0696 7.39454 21.1329C7.31846 21.1962 7.24238 21.2173 7.1663 21.2173H6.06314C5.96804 21.2173 5.91097 21.1751 5.85391 21.1118C5.79685 21.0485 5.79685 20.9641 5.81587 20.8586L6.5957 16.7861C6.63374 16.5751 6.65276 16.3641 6.65276 16.132C6.65276 15.7733 6.57668 15.4989 6.4055 15.309C6.23432 15.1402 6.02509 15.0558 5.73979 15.0558C5.39743 15.0558 5.05507 15.2035 4.75075 15.4778C4.44643 15.7522 4.21819 16.1953 4.10407 16.7861L3.32425 20.9219C3.30523 21.0274 3.26719 21.1118 3.19111 21.1751C3.11503 21.2384 3.03895 21.2806 2.94385 21.2806H1.84069C1.74559 21.2806 1.66951 21.2384 1.63147 21.1751Z" fill="#5F6A7C"/>
<path d="M14.1849 22.688C14.1468 22.6458 14.1278 22.5825 14.1278 22.5192C14.1278 22.4137 14.1468 22.3503 14.1849 22.287L15.1357 20.7954L13.8614 14.1064C13.8423 14.0009 13.8614 13.8954 13.9184 13.8321C13.9755 13.7477 14.0706 13.7055 14.2037 13.7055H15.1928C15.3639 13.7055 15.4781 13.7899 15.4971 13.9798L16.353 18.7275L19.0538 13.9798C19.1489 13.7899 19.2821 13.7055 19.4723 13.7055H20.6135C20.6895 13.7055 20.7466 13.7266 20.7846 13.7688C20.8227 13.811 20.8417 13.8743 20.8417 13.9587C20.8417 14.022 20.8227 14.0853 20.7846 14.1486L15.8587 22.477C15.7636 22.6669 15.6304 22.7513 15.4402 22.7513H14.337C14.261 22.7513 14.2229 22.7302 14.1849 22.688Z" fill="#5F6A7C"/>
<path d="M19.6717 26.6347C19.6146 26.5714 19.6146 26.487 19.6337 26.3815L22.2872 13.0188C22.3062 12.9133 22.3442 12.8289 22.4203 12.7655C22.4964 12.7022 22.5725 12.6811 22.6486 12.6811H23.7517C23.8468 12.6811 23.9039 12.7233 23.961 12.7866C24.018 12.85 24.018 12.9344 23.999 13.0399L21.3455 26.4026C21.3264 26.5081 21.2884 26.5925 21.2123 26.6558C21.1362 26.7191 21.0602 26.7613 20.9841 26.7613H19.8809C19.7858 26.7402 19.7097 26.698 19.6717 26.6347Z" fill="#5F6A7C"/>
<path d="M24.1702 21.1751C24.1131 21.1118 24.1131 21.0274 24.1321 20.9219L25.2828 15.4984C25.3018 15.3929 25.3398 15.3085 25.4159 15.2452C25.492 15.1819 25.5681 15.1608 25.6632 15.1608H26.7663C26.8614 15.1608 26.9185 15.203 26.9565 15.2663C26.9946 15.3296 27.0136 15.414 26.9946 15.5195L25.8629 20.9219C25.8439 21.0274 25.8059 21.1118 25.7298 21.1751C25.6537 21.2384 25.5776 21.2806 25.5016 21.2806H24.3984C24.3033 21.2806 24.2272 21.2384 24.1702 21.1751ZM25.4824 14.4783C25.4254 14.415 25.4254 14.3306 25.4444 14.2251L25.5961 13.4603C25.6343 13.2672 25.6355 13.0427 25.7868 12.9168C25.8628 12.8535 25.9389 12.8113 26.034 12.8113H27.2323C27.3274 12.8113 27.3844 12.8535 27.4415 12.9168C27.4986 12.9801 27.5176 13.0645 27.4986 13.17L27.2893 14.2251C27.2703 14.3306 27.2323 14.415 27.1562 14.4783C27.0801 14.5416 27.004 14.5838 26.9089 14.5838H25.9306C25.7718 14.5838 25.5888 14.5963 25.4824 14.4783Z" fill="#5F6A7C"/>
<path d="M27.6319 21.1754C27.5748 21.1121 27.5748 21.0277 27.5938 20.9222L28.9062 14.0432C28.9252 13.9377 28.9633 13.8533 29.0393 13.79C29.1154 13.7267 29.1915 13.7056 29.2866 13.7056H30.3707C30.4658 13.7056 30.5419 13.7478 30.58 13.8111C30.618 13.8744 30.637 13.9588 30.618 14.0643L30.5039 14.6552C30.7892 14.3175 31.1315 14.0643 31.5119 13.8533C31.8923 13.6634 32.3108 13.5579 32.7863 13.5579C33.509 13.5579 34.0416 13.7478 34.422 14.1487C34.8024 14.5497 34.9926 15.0983 34.9926 15.8157C34.9926 16.09 34.9546 16.4277 34.8785 16.8286L34.0987 20.9222C34.0797 21.0277 34.0416 21.1121 33.9655 21.1754C33.8895 21.2387 33.8134 21.2598 33.7183 21.2598H32.558C32.4629 21.2598 32.3869 21.2176 32.3488 21.1543C32.2918 21.091 32.2918 21.0066 32.3108 20.9011L33.0716 16.8919C33.1286 16.5543 33.1667 16.301 33.1667 16.1322C33.1667 15.7735 33.0906 15.5203 32.9194 15.3515C32.7482 15.1827 32.482 15.0983 32.1016 15.0983C31.607 15.0983 31.2076 15.246 30.8653 15.5625C30.5229 15.879 30.2947 16.3221 30.1805 16.8708L29.4197 20.88C29.4007 20.9855 29.3627 21.0699 29.2866 21.1332C29.2105 21.1965 29.1344 21.2176 29.0393 21.2176H27.8791C27.746 21.2809 27.6889 21.2387 27.6319 21.1754Z" fill="#5F6A7C"/>
<path d="M35.7914 21.1751C35.7344 21.1118 35.7344 21.0274 35.7534 20.9219L37.5983 11.2787C37.6174 11.1732 37.6554 11.0888 37.7315 11.0255C37.8076 10.9622 37.8836 10.9411 37.9597 10.9411H39.0439C39.139 10.9411 39.215 10.9833 39.2531 11.0466C39.3101 11.1099 39.3101 11.1943 39.2911 11.2998L38.3591 16.2163L40.8888 13.9796C40.9078 13.9585 40.9649 13.9163 41.0219 13.8741C41.079 13.8108 41.1551 13.7897 41.2121 13.7686C41.2692 13.7475 41.3453 13.7475 41.4214 13.7475H42.7718C42.8479 13.7475 42.9049 13.7686 42.943 13.8108C42.981 13.853 43 13.9163 43 13.9796C43 14.1062 42.943 14.2328 42.8098 14.3383L39.5954 17.2503L41.8778 20.8164C41.9159 20.8797 41.9349 20.943 41.9349 21.0063C41.9349 21.0907 41.8969 21.1751 41.8398 21.2384C41.7827 21.3017 41.7067 21.3228 41.6116 21.3228H40.3943C40.2041 21.3228 40.0709 21.2384 39.9949 21.0907L38.0358 17.9466L37.4652 20.9219C37.4462 21.0274 37.4081 21.1118 37.3321 21.1751C37.256 21.2384 37.1799 21.2595 37.1038 21.2595H36.0197C35.9246 21.2806 35.8485 21.2384 35.7914 21.1751Z" fill="#5F6A7C"/>
<path d="M0.0999451 31.7258C0.061905 31.6625 0.042885 31.5781 0.061905 31.4726L0.328185 29.9955C0.347205 29.89 0.385245 29.8056 0.461325 29.7423C0.537406 29.679 0.613486 29.6368 0.708586 29.6368H2.02097C2.11607 29.6368 2.17313 29.679 2.23019 29.7423C2.28725 29.8056 2.28725 29.89 2.26823 29.9955L2.00195 31.4726C1.98293 31.5781 1.94489 31.6625 1.86881 31.7258C1.79273 31.7891 1.71665 31.8102 1.62155 31.8102H0.309165C0.214065 31.8313 0.157005 31.7891 0.0999451 31.7258Z" fill="#5F6A7C"/>
<path d="M4.43649 31.2614C3.92295 30.776 3.67569 30.1219 3.67569 29.2779C3.67569 29.0457 3.69471 28.8347 3.73275 28.6448C3.82785 28.1173 3.90393 27.7375 3.96099 27.4843C4.20825 26.4081 4.64571 25.5852 5.2924 25.0154C5.93908 24.4246 6.73792 24.1503 7.70794 24.1503C8.35462 24.1503 8.88718 24.2769 9.30562 24.5301C9.72406 24.7833 10.0284 25.0787 10.2186 25.4586C10.4088 25.8173 10.5039 26.1971 10.5039 26.5347C10.5039 26.6191 10.5039 26.6824 10.4849 26.7246C10.4658 26.8301 10.4278 26.9145 10.3707 26.9778C10.3137 27.0411 10.2376 27.0833 10.1425 27.0833H8.94424C8.84914 27.0833 8.77306 27.0622 8.73502 27.02C8.69698 26.9778 8.65894 26.8934 8.63992 26.7879C8.63992 26.0494 8.27854 25.6907 7.5748 25.6907C7.13734 25.6907 6.73792 25.8384 6.41458 26.1549C6.09124 26.4714 5.863 26.9356 5.71084 27.5687C5.69182 27.632 5.63476 27.9696 5.52064 28.5815C5.4826 28.7925 5.46358 29.0035 5.46358 29.2146C5.46358 30.0586 5.82496 30.4595 6.54772 30.4595C7.25146 30.4595 7.78402 30.1008 8.10736 29.4045C8.16442 29.2779 8.22148 29.2146 8.27854 29.1723C8.3356 29.1301 8.39266 29.109 8.48776 29.109H9.68602C9.78112 29.109 9.83818 29.1512 9.89524 29.2146C9.9523 29.2779 9.9523 29.3623 9.93328 29.4678C9.83818 29.8265 9.64798 30.2063 9.3817 30.5861C9.11542 30.9659 8.716 31.3036 8.22148 31.5779C7.70794 31.8522 7.0993 31.9999 6.39556 31.9999C5.61574 31.9788 4.95004 31.7256 4.43649 31.2614Z" fill="#5F6A7C"/>
<path d="M11.8733 31.2616C11.3788 30.7974 11.1315 30.1433 11.1315 29.3414C11.1315 29.1093 11.1506 28.8983 11.1886 28.6873C11.2647 28.1809 11.3408 27.7377 11.4359 27.4001C11.6641 26.3662 12.1016 25.5432 12.7483 24.9735C13.3759 24.4038 14.2128 24.1084 15.2209 24.1084C16.0958 24.1084 16.7805 24.3405 17.275 24.8258C17.7695 25.3111 18.0168 25.9441 18.0168 26.7671C18.0168 26.8937 17.9978 27.1047 17.9597 27.4001C17.8266 28.0965 17.7505 28.5185 17.7125 28.6873C17.4652 29.7212 17.0278 30.5442 16.4001 31.1139C15.7724 31.6836 14.9356 31.9791 13.9085 31.9791C13.0526 31.9791 12.3679 31.7469 11.8733 31.2616ZM15.2589 30.0167C15.5822 29.7001 15.8105 29.2359 15.9626 28.6029C16.0197 28.3286 16.0958 27.9487 16.1909 27.4634C16.2289 27.2524 16.2479 27.0414 16.2479 26.8304C16.2479 25.9863 15.8675 25.5432 15.1258 25.5432C14.6693 25.5432 14.2699 25.712 13.9465 26.0286C13.6232 26.3662 13.3949 26.8304 13.2618 27.4423C13.1667 27.7799 13.0906 28.1598 13.0336 28.5818C12.9955 28.7928 12.9765 29.0038 12.9765 29.2148C12.9765 30.0589 13.3379 30.4598 14.0797 30.4598C14.5361 30.502 14.9165 30.3543 15.2589 30.0167Z" fill="#5F6A7C"/>
<path d="M18.7015 31.7256C18.6444 31.6623 18.6444 31.5779 18.6635 31.4724L19.9758 24.5934C19.9949 24.4879 20.0329 24.4035 20.109 24.3402C20.1851 24.2769 20.2611 24.2558 20.3562 24.2558H21.3833C21.4784 24.2558 21.5355 24.2769 21.5735 24.3402C21.6116 24.4035 21.6306 24.4879 21.6116 24.5934L21.5165 25.0787C21.8018 24.7622 22.0871 24.509 22.3914 24.3402C22.6957 24.1714 23.0571 24.087 23.4755 24.087C23.9701 24.087 24.3885 24.1925 24.7118 24.4246C25.0352 24.6567 25.2634 24.9732 25.3966 25.3742C26.0242 24.509 26.766 24.087 27.6219 24.087C28.2305 24.087 28.7441 24.2769 29.1055 24.6567C29.4859 25.0365 29.6761 25.6063 29.6761 26.3448C29.6761 26.6613 29.638 26.9567 29.581 27.2733L28.7631 31.4513C28.7441 31.5568 28.706 31.6412 28.63 31.7045C28.5539 31.7678 28.4778 31.7889 28.4017 31.7889H27.3176C27.2225 31.7889 27.1464 31.7467 27.1084 31.6834C27.0513 31.6201 27.0513 31.5357 27.0703 31.4302L27.8501 27.3577C27.8882 27.1466 27.9072 26.9356 27.9072 26.7035C27.9072 25.9861 27.6029 25.6274 26.9942 25.6274C26.6519 25.6274 26.3095 25.7751 26.0052 26.0494C25.7009 26.3237 25.4726 26.7668 25.3585 27.3577L24.5787 31.4302C24.5597 31.5357 24.5216 31.6201 24.4456 31.6834C24.3695 31.7467 24.2934 31.7678 24.2173 31.7678H23.1142C23.0191 31.7678 22.962 31.7256 22.9049 31.6623C22.8479 31.599 22.8479 31.5146 22.8669 31.4091L23.6467 27.3366C23.6848 27.1255 23.7038 26.9145 23.7038 26.6824C23.7038 26.3237 23.6277 26.0494 23.4565 25.8595C23.2853 25.6907 23.0761 25.6063 22.7908 25.6063C22.4485 25.6063 22.1061 25.754 21.8018 26.0283C21.4975 26.3026 21.2692 26.7457 21.1551 27.3366L20.3753 31.4091C20.3563 31.5146 20.3182 31.599 20.2421 31.6623C20.166 31.7256 20.09 31.7467 19.9949 31.7467H18.8917C18.8156 31.8311 18.7395 31.7889 18.7015 31.7256Z" fill="#5F6A7C"/>
</svg>
