<svg width="18" height="18" viewBox="0 0 18 18" fill="none" xmlns="http://www.w3.org/2000/svg">
<path fill-rule="evenodd" clip-rule="evenodd" d="M15.4076 0.3075C14.4348 0 13.5315 0 11.7245 0H6.27555C4.4685 0 3.56505 0 2.59245 0.3075C1.53045 0.69405 0.69405 1.53045 0.3075 2.59245C0 3.56505 0 4.46865 0 6.27555V11.7245C0 13.5315 0 14.4348 0.3075 15.4076C0.69405 16.4696 1.53045 17.306 2.59245 17.6924C3.56505 18 4.4685 18 6.27555 18H11.7245C13.5315 18 14.4348 18 15.4076 17.6924C16.4696 17.306 17.306 16.4696 17.6925 15.4076C18 14.4348 18 13.5315 18 11.7245V6.27555C18 4.46865 18 3.56505 17.6925 2.59245C17.306 1.53045 16.4696 0.69405 15.4076 0.3075ZM6.01985 7.56856C4.99421 8.01637 3.94037 8.47649 2.97674 9.00729L2.97665 9.00737C2.47343 9.37579 3.14235 9.63639 3.7698 9.88085C3.86953 9.9197 3.96821 9.95815 4.06097 9.99655C4.13816 10.0203 4.21668 10.0453 4.29623 10.0706C4.99405 10.293 5.77218 10.5409 6.44965 10.168C7.56253 9.52869 8.61277 8.78958 9.66221 8.05104C10.006 7.80907 10.3498 7.56717 10.6956 7.32885C10.7118 7.3185 10.73 7.30667 10.75 7.29374C11.0445 7.10276 11.7073 6.6731 11.4622 7.26503C10.8827 7.89869 10.2621 8.4596 9.63811 9.02357C9.21735 9.40386 8.79504 9.78554 8.38278 10.1919C8.0239 10.4835 7.65111 11.0699 8.05308 11.4784C8.97791 12.1258 9.91719 12.7576 10.8559 13.389C11.1626 13.5952 11.4693 13.8015 11.7753 14.0082C12.2925 14.4211 13.1007 14.087 13.2144 13.4419C13.2654 13.1423 13.3167 12.8428 13.3679 12.5432C13.648 10.9057 13.9281 9.26766 14.1756 7.62485C14.2093 7.36682 14.2475 7.1088 14.2857 6.85064C14.3783 6.22464 14.4711 5.59787 14.5 4.9685C14.4253 4.3405 13.6639 4.47856 13.2402 4.61977C11.0622 5.44854 8.90591 6.33874 6.75818 7.24464C6.51485 7.35244 6.26818 7.46014 6.01985 7.56856Z" fill="#5F6A7C"/>
</svg>
