<svg width="75" height="30" viewBox="0 0 75 30" fill="none" xmlns="http://www.w3.org/2000/svg">
<path d="M12.1262 13.0518L12.0997 5.96229L8.6872 11.7556C8.47557 12.126 8.07877 12.3376 7.68197 12.3376C7.25871 12.3376 6.88836 12.126 6.67673 11.7556L3.23778 6.12101V13.0518C3.23778 13.4222 2.94679 13.6867 2.6029 13.6867H1.25377C0.830513 13.6867 0.460164 13.3428 0.460164 12.8931V1.862C0.460164 1.28002 0.936327 0.803859 1.5183 0.803859H2.44418C2.73516 0.803859 2.9997 0.962579 3.15842 1.20066L7.73487 8.81927L12.232 1.20066C12.3907 0.962579 12.6552 0.803859 12.9462 0.803859H13.8456C14.4276 0.803859 14.9038 1.28002 14.9038 1.862L14.9302 12.9196C14.9302 13.3428 14.5863 13.7132 14.1366 13.7132H12.7875C12.4171 13.7132 12.1262 13.4222 12.1262 13.0518Z" fill="#5F6A7C"/>
<path d="M19.6654 13.1841C18.8453 12.7608 18.184 12.1524 17.7343 11.3588C17.2581 10.5917 17.0465 9.71868 17.0465 8.71345C17.0465 7.73467 17.2846 6.86171 17.7343 6.0681C18.2105 5.30095 18.8453 4.69252 19.6654 4.24281C20.4855 3.81956 21.4113 3.58147 22.4695 3.58147C23.5012 3.58147 24.427 3.7931 25.2471 4.24281C26.0671 4.66607 26.702 5.2745 27.1782 6.0681C27.6544 6.83525 27.866 7.70822 27.866 8.71345C27.866 9.69223 27.6279 10.5652 27.1782 11.3588C26.702 12.126 26.0671 12.7344 25.2471 13.1841C24.427 13.6073 23.5012 13.8454 22.4695 13.8454C21.4113 13.8454 20.4855 13.6338 19.6654 13.1841ZM24.2683 10.7504C24.7445 10.2478 24.9825 9.58642 24.9825 8.7399C24.9825 7.89339 24.7445 7.23206 24.2683 6.72944C23.7921 6.22682 23.1837 5.98874 22.4695 5.98874C21.7288 5.98874 21.1203 6.22682 20.6442 6.72944C20.168 7.23206 19.9299 7.89339 19.9299 8.7399C19.9299 9.58642 20.168 10.2478 20.6442 10.7504C21.1203 11.253 21.7288 11.4911 22.4695 11.4911C23.1837 11.4911 23.7921 11.253 24.2683 10.7504Z" fill="#5F6A7C"/>
<path d="M39.823 0.909673V13.0783C39.823 13.4222 39.532 13.7132 39.1881 13.7132H37.7331C37.3892 13.7132 37.0982 13.4222 37.0982 13.0783V12.5492C36.384 13.4222 35.3523 13.8454 34.0296 13.8454C33.1038 13.8454 32.2573 13.6338 31.5166 13.2105C30.7759 12.7873 30.1674 12.2053 29.7442 11.4117C29.3209 10.6446 29.1093 9.74514 29.1093 8.71345C29.1093 7.68177 29.3209 6.8088 29.7442 6.0152C30.1674 5.24804 30.7494 4.63961 31.5166 4.21636C32.2837 3.7931 33.1038 3.58148 34.0296 3.58148C35.2994 3.58148 36.2782 3.97828 36.9924 4.77188V0.909673C36.9924 0.407056 37.3892 0.0102539 37.8918 0.0102539H38.9764C39.4262 0.0367074 39.823 0.43351 39.823 0.909673ZM36.3046 10.7504C36.7808 10.2478 37.0189 9.58642 37.0189 8.73991C37.0189 7.89339 36.7808 7.23206 36.3046 6.72944C35.8285 6.22682 35.22 5.98874 34.5058 5.98874C33.7651 5.98874 33.1567 6.22682 32.6805 6.72944C32.2043 7.23206 31.9663 7.89339 31.9663 8.73991C31.9663 9.58642 32.2043 10.2478 32.6805 10.7504C33.1567 11.253 33.7651 11.4911 34.5058 11.4911C35.22 11.4911 35.8285 11.253 36.3046 10.7504Z" fill="#5F6A7C"/>
<path d="M51.436 9.55999H44.611C44.7433 10.1684 45.0607 10.671 45.5634 11.0149C46.066 11.3588 46.7009 11.544 47.4416 11.544C47.9442 11.544 48.4203 11.4646 48.8171 11.3059C49.0817 11.2001 49.3198 11.0678 49.5578 10.8827C49.7695 10.7239 50.0869 10.7504 50.2721 10.962L51.0921 11.8614C51.3038 12.0731 51.2773 12.417 51.0657 12.6286C50.1663 13.4487 48.923 13.8455 47.3622 13.8455C46.2512 13.8455 45.2724 13.6338 44.3994 13.1841C43.5529 12.7609 42.8916 12.1524 42.4154 11.3588C41.9392 10.5917 41.7276 9.71871 41.7276 8.71348C41.7276 7.7347 41.9657 6.86173 42.4154 6.09458C42.8651 5.32743 43.5 4.719 44.2936 4.26929C45.0872 3.84604 45.9866 3.60795 46.9918 3.60795C47.9442 3.60795 48.8436 3.81958 49.6107 4.24284C50.3779 4.66609 51.0128 5.24807 51.4625 6.04167C51.9122 6.83528 52.1238 7.7347 52.1238 8.76638C52.1238 8.79284 52.1238 8.81929 52.1238 8.89865C52.0974 9.269 51.8064 9.55999 51.436 9.55999ZM45.3782 6.35912C44.9285 6.72947 44.6639 7.23208 44.5846 7.86697H49.452C49.3462 7.23208 49.0817 6.72947 48.6584 6.35912C48.2087 5.98877 47.6796 5.80359 47.0448 5.80359C46.357 5.80359 45.8279 5.98877 45.3782 6.35912Z" fill="#5F6A7C"/>
<path d="M54.7956 0.0367332H56.1183C56.5416 0.0367332 56.8855 0.380629 56.8855 0.803885V12.946C56.8855 13.3693 56.5416 13.7132 56.1183 13.7132H54.7956C54.3724 13.7132 54.0285 13.3693 54.0285 12.946V0.803885C54.0285 0.380629 54.3724 0.0367332 54.7956 0.0367332Z" fill="#5F6A7C"/>
<path d="M21.1997 29.2149C20.3796 28.7916 19.7447 28.1832 19.295 27.416C18.8453 26.6489 18.6073 25.7759 18.6073 24.8236C18.6073 23.8448 18.8453 22.9983 19.295 22.2311C19.7447 21.464 20.3796 20.882 21.1997 20.4323C22.0198 20.009 22.9192 19.7974 23.9509 19.7974C24.9825 19.7974 25.882 20.009 26.702 20.4323C27.4956 20.8556 28.1305 21.464 28.6067 22.2311C29.0564 22.9983 29.2945 23.8712 29.2945 24.8236C29.2945 25.8024 29.0564 26.6489 28.6067 27.416C28.157 28.1832 27.5221 28.7651 26.702 29.2149C25.882 29.6381 24.9825 29.8497 23.9509 29.8497C22.9192 29.8497 22.0198 29.6381 21.1997 29.2149ZM25.7232 26.7811C26.1994 26.2785 26.411 25.6436 26.411 24.8236C26.411 24.0035 26.1729 23.3422 25.7232 22.866C25.2471 22.3634 24.6651 22.1253 23.9509 22.1253C23.2366 22.1253 22.6282 22.3634 22.152 22.866C21.6759 23.3686 21.4378 24.0035 21.4378 24.8236C21.4378 25.6436 21.6759 26.305 22.152 26.7811C22.6282 27.2837 23.2102 27.5218 23.9509 27.5218C24.6916 27.5218 25.2735 27.2837 25.7232 26.7811Z" fill="#5F6A7C"/>
<path d="M39.9817 20.882C40.7224 21.5962 41.0927 22.6808 41.0927 24.1093V29.0826C41.0927 29.4265 40.8282 29.691 40.4843 29.691H38.8971C38.5532 29.691 38.2887 29.4265 38.2887 29.0826V24.5326C38.2887 23.7654 38.1299 23.1835 37.786 22.7867C37.4421 22.3899 36.966 22.2047 36.3311 22.2047C35.6169 22.2047 35.0613 22.4163 34.6381 22.866C34.2148 23.3157 34.0032 23.9771 34.0032 24.8236V29.0297C34.0032 29.3736 33.7387 29.6381 33.3948 29.6381H31.8076C31.4637 29.6381 31.1991 29.3736 31.1991 29.0297V20.5117C31.1991 20.1942 31.4637 19.9561 31.7546 19.9561H33.3154C33.6328 19.9561 33.8709 20.2207 33.8709 20.5117V21.0936C34.2413 20.6704 34.7174 20.3529 35.273 20.1413C35.8285 19.9297 36.4369 19.7974 37.0982 19.7974C38.2622 19.7974 39.241 20.1678 39.9817 20.882Z" fill="#5F6A7C"/>
<path d="M43.791 18.1309C43.4735 17.84 43.3148 17.4432 43.3148 16.9934C43.3148 16.5437 43.4735 16.1734 43.791 15.8559C44.1084 15.565 44.5317 15.4062 45.0607 15.4062C45.5105 15.4062 45.9073 15.512 46.2247 15.7501C46.7009 16.094 46.9125 16.7289 46.7802 17.3109C46.7009 17.6019 46.5686 17.8664 46.3305 18.1045C46.0131 18.4219 45.5898 18.5542 45.0607 18.5542C44.5317 18.5807 44.1084 18.4219 43.791 18.1309ZM44.2936 19.9298H45.8014C46.1718 19.9298 46.4628 20.2208 46.4628 20.5911V29.0562C46.4628 29.4266 46.1718 29.7176 45.8014 29.7176H44.2936C43.9232 29.7176 43.6323 29.4266 43.6323 29.0562V20.5911C43.6323 20.2208 43.9497 19.9298 44.2936 19.9298Z" fill="#5F6A7C"/>
<path d="M55.2189 28.8711C55.2982 29.0827 55.2189 29.3472 55.0073 29.453C54.7956 29.5589 54.584 29.6382 54.3459 29.6911C53.9491 29.7969 53.5259 29.8498 53.0762 29.8498C51.9122 29.8498 51.0128 29.5589 50.4044 28.9504C49.7695 28.3684 49.452 27.4955 49.452 26.3315V22.337H48.4732C48.1823 22.337 47.9442 22.099 47.9442 21.808V20.6969C47.9442 20.4059 48.1823 20.1679 48.4732 20.1679H49.452V18.369C49.452 18.0516 49.7166 17.7871 50.034 17.7871H51.7006C52.018 17.7871 52.2825 18.0516 52.2825 18.369V20.1679H54.1872C54.4782 20.1679 54.7163 20.4059 54.7163 20.6969V21.808C54.7163 22.099 54.4782 22.337 54.1872 22.337H52.2825V26.3051C52.2825 26.7283 52.3884 27.0458 52.6 27.2574C52.8116 27.469 53.1026 27.6013 53.4994 27.6013C53.7639 27.6013 54.002 27.5484 54.2137 27.469C54.4517 27.3632 54.7427 27.4955 54.8485 27.7336L55.2189 28.8711Z" fill="#5F6A7C"/>
<path d="M58.4991 29.2149C57.6791 28.7916 57.0442 28.1832 56.5945 27.416C56.1448 26.6489 55.9067 25.7759 55.9067 24.8236C55.9067 23.8448 56.1448 22.9983 56.5945 22.2311C57.0442 21.464 57.6791 20.882 58.4991 20.4323C59.3192 20.009 60.2186 19.7974 61.2503 19.7974C62.282 19.7974 63.1814 20.009 64.0014 20.4323C64.795 20.8556 65.4299 21.464 65.9061 22.2311C66.3558 22.9983 66.5939 23.8712 66.5939 24.8236C66.5939 25.8024 66.3558 26.6489 65.9061 27.416C65.4564 28.1832 64.8215 28.7651 64.0014 29.2149C63.1814 29.6381 62.282 29.8497 61.2503 29.8497C60.245 29.8497 59.3192 29.6381 58.4991 29.2149ZM63.0227 26.7811C63.4988 26.2785 63.7104 25.6436 63.7104 24.8236C63.7104 24.0035 63.4724 23.3422 63.0227 22.866C62.5465 22.3634 61.9645 22.1253 61.2503 22.1253C60.536 22.1253 59.9276 22.3634 59.4514 22.866C58.9753 23.3686 58.7372 24.0035 58.7372 24.8236C58.7372 25.6436 58.9753 26.305 59.4514 26.7811C59.9276 27.2573 60.5096 27.5218 61.2503 27.5218C61.991 27.5218 62.5729 27.2837 63.0227 26.7811Z" fill="#5F6A7C"/>
<path d="M72.5195 20.1678C72.9692 19.9827 73.4453 19.8768 74.0009 19.8239C74.2654 19.7975 74.5035 20.0091 74.5035 20.2736V21.9138C74.5035 22.1783 74.2918 22.3899 74.0273 22.3635C73.9744 22.3635 73.9215 22.3635 73.8686 22.3635C73.0485 22.3635 72.4401 22.6015 71.9639 23.0513C71.5142 23.501 71.2762 24.1888 71.2762 25.0882V29.1885C71.2762 29.4795 71.0381 29.7175 70.7471 29.7175H68.9747C68.6837 29.7175 68.4456 29.4795 68.4456 29.1885V20.4059C68.4456 20.1414 68.6573 19.9297 68.9218 19.9297H70.6677C70.9323 19.9297 71.1439 20.1414 71.1439 20.4059V21.226C71.4878 20.7498 71.9375 20.4059 72.5195 20.1678Z" fill="#5F6A7C"/>
<path d="M74.2125 7.60232L70.2709 9.55988C70.1915 9.61279 70.0857 9.61279 70.0064 9.55988L66.1177 7.62878C65.8796 7.52296 65.5886 7.52296 65.377 7.62878L61.5412 9.53343C61.4354 9.58634 61.3825 9.69215 61.3825 9.79796V11.5703C61.3825 11.7026 61.5148 11.8084 61.6471 11.7291L65.6151 9.6657C65.6944 9.61279 65.8003 9.61279 65.9061 9.6657L69.6889 11.6233C69.9799 11.782 70.3238 11.782 70.6148 11.6233L74.3447 9.69215C74.4505 9.63924 74.5299 9.50698 74.5299 9.40116V7.7875C74.5034 7.62878 74.3447 7.52296 74.2125 7.60232Z" fill="#5F6A7C"/>
<path d="M74.2125 3.10523L70.2709 5.06279C70.1915 5.1157 70.0857 5.1157 70.0064 5.06279L66.1177 3.13169C65.8796 3.02587 65.5886 3.02587 65.377 3.13169L61.5412 5.03634C61.4354 5.08924 61.3825 5.19506 61.3825 5.30087V7.07326C61.3825 7.20552 61.5148 7.31134 61.6471 7.23198L65.6151 5.1686C65.6944 5.1157 65.8003 5.1157 65.9061 5.1686L69.6889 7.12616C69.9799 7.28488 70.3238 7.28488 70.6148 7.12616L74.3447 5.19506C74.4505 5.14215 74.5299 5.00988 74.5299 4.90407V3.29041C74.5034 3.15814 74.3447 3.05232 74.2125 3.10523Z" fill="#5F6A7C"/>
<path d="M15.8032 20.8026C16.5174 21.5169 16.8878 22.6015 16.8878 24.0299V28.9503C16.8878 29.3206 16.5968 29.6116 16.2264 29.6116H14.7186C14.3482 29.6116 14.0572 29.3206 14.0572 28.9503V24.4532C14.0572 23.686 13.8985 23.1041 13.5811 22.7337C13.2636 22.3634 12.8139 22.1517 12.2055 22.1517C11.5441 22.1517 11.0151 22.3634 10.6447 22.7866C10.2479 23.2099 10.0627 23.8448 10.0627 24.6913V28.9238C10.0627 29.2942 9.77176 29.5852 9.40141 29.5852H7.89356C7.52322 29.5852 7.23223 29.2942 7.23223 28.9238V24.4532C7.23223 22.9189 6.6238 22.1517 5.38048 22.1517C4.71914 22.1517 4.21653 22.3634 3.81973 22.7866C3.42292 23.2099 3.23775 23.8448 3.23775 24.6913V28.9238C3.23775 29.2942 2.94676 29.5852 2.57641 29.5852H1.06856C0.698215 29.5852 0.407227 29.2942 0.407227 28.9238V20.4323C0.407227 20.1148 0.671761 19.8767 0.96275 19.8767H2.52351C2.84095 19.8767 3.07903 20.1413 3.07903 20.4323V20.9878C3.44938 20.591 3.87263 20.2735 4.4017 20.0355C4.93077 19.8238 5.51275 19.718 6.12118 19.718C6.80897 19.718 7.4174 19.8503 7.97292 20.1148C8.52845 20.3794 8.97816 20.7762 9.32205 21.3052C9.71885 20.8026 10.2215 20.4058 10.8299 20.1413C11.4383 19.8767 12.0997 19.718 12.8404 19.718C14.1101 19.718 15.0889 20.0884 15.8032 20.8026Z" fill="#5F6A7C"/>
</svg>
