<svg width="98" height="14" viewBox="0 0 98 14" fill="none" xmlns="http://www.w3.org/2000/svg">
<path d="M0 0.962407H5.51026C7.14572 0.962407 8.32829 1.1637 9.05795 1.56627C9.78762 1.95627 10.1525 2.61674 10.1525 3.5477V5.69896C10.1525 6.41605 9.89456 6.98217 9.37876 7.39733C8.87554 7.7999 8.20248 8.0578 7.35959 8.17103L10.9073 13.2095H7.51055L4.30253 8.39748H2.94384V13.2095H0V0.962407ZM5.47251 6.45379C6.16444 6.45379 6.63621 6.36573 6.88782 6.1896C7.13943 6.00089 7.26523 5.64235 7.26523 5.11397V4.24592C7.26523 3.79302 7.12685 3.4848 6.85008 3.32125C6.58589 3.14512 6.1267 3.05706 5.47251 3.05706H2.94384V6.45379H5.47251Z" fill="#5F6A7C"/>
<path d="M17.0774 13.3982C13.8442 13.3982 12.2276 12.4107 12.2276 10.4355V7.15201C12.2276 6.00718 12.5925 5.17687 13.3222 4.66107C14.0644 4.14527 15.2029 3.88737 16.7378 3.88737C18.1845 3.88737 19.2413 4.13898 19.908 4.6422C20.5874 5.13284 20.9271 5.96944 20.9271 7.15201V9.37876H15.0016V10.2091C15.0016 10.7374 15.1904 11.1149 15.5678 11.3413C15.9452 11.5678 16.6245 11.681 17.6058 11.681C18.5116 11.681 19.5306 11.5489 20.6629 11.2847V13.0397C19.5432 13.2787 18.3481 13.3982 17.0774 13.3982ZM18.304 7.81249V6.49153C18.304 6.1896 18.1782 5.96315 17.9266 5.81219C17.6876 5.66122 17.2787 5.58574 16.7 5.58574C16.0332 5.58574 15.5866 5.66122 15.3602 5.81219C15.1212 5.97573 15.0016 6.20218 15.0016 6.49153V7.81249H18.304Z" fill="#5F6A7C"/>
<path d="M23.1084 0H25.8635V13.2095H23.1084V0Z" fill="#5F6A7C"/>
<path d="M28.4342 0.7737H31.1893V3.00045H28.4342V0.7737ZM28.4342 4.07608H31.1893V13.2095H28.4342V4.07608Z" fill="#5F6A7C"/>
<path d="M32.4768 4.07608H35.4018L37.4021 10.3978L39.3269 4.07608H42.1009L38.7419 13.2095H35.949L32.4768 4.07608Z" fill="#5F6A7C"/>
<path d="M47.8898 13.3982C44.6566 13.3982 43.04 12.4107 43.04 10.4355V7.15201C43.04 6.00718 43.4049 5.17687 44.1345 4.66107C44.8768 4.14527 46.0153 3.88737 47.5501 3.88737C48.9969 3.88737 50.0536 4.13898 50.7204 4.6422C51.3998 5.13284 51.7394 5.96944 51.7394 7.15201V9.37876H45.814V10.2091C45.814 10.7374 46.0027 11.1149 46.3801 11.3413C46.7576 11.5678 47.4369 11.681 48.4182 11.681C49.324 11.681 50.343 11.5489 51.4752 11.2847V13.0397C50.3556 13.2787 49.1604 13.3982 47.8898 13.3982ZM49.1164 7.81249V6.49153C49.1164 6.1896 48.9906 5.96315 48.739 5.81219C48.5 5.66122 48.0911 5.58574 47.5124 5.58574C46.8456 5.58574 46.399 5.66122 46.1726 5.81219C45.9335 5.97573 45.814 6.20218 45.814 6.49153V7.81249H49.1164Z" fill="#5F6A7C"/>
<path d="M58.2988 13.3982C57.8207 13.3982 57.4433 13.3856 57.1665 13.3605C56.8898 13.3479 56.5501 13.3165 56.1475 13.2661C55.7449 13.2158 55.4116 13.1277 55.1474 13.0019C54.8958 12.8761 54.6316 12.6874 54.3548 12.4358C53.839 12.0081 53.5811 11.2784 53.5811 10.2468V7.20862C53.5811 6.37831 53.7698 5.68638 54.1472 5.13284C54.2856 4.93155 54.4869 4.74914 54.7511 4.58559C55.0279 4.40946 55.3046 4.27108 55.5814 4.17043C55.8078 4.09495 56.1098 4.03205 56.4872 3.98173C56.8646 3.9314 57.198 3.89995 57.4873 3.88737H58.4875C59.192 3.88737 60.1167 4.0006 61.2615 4.22705V6.03864C59.9657 5.7367 58.9718 5.58574 58.2799 5.58574C57.0093 5.58574 56.374 6.01348 56.374 6.86895V10.2279C56.374 11.1966 57.0722 11.681 58.4686 11.681C59.148 11.681 60.123 11.5426 61.3936 11.2658V13.0774C60.2488 13.2913 59.2172 13.3982 58.2988 13.3982Z" fill="#5F6A7C"/>
<path d="M65.5342 13.3982C64.6788 13.3982 64.0372 13.3227 63.6094 13.1718C63.1943 13.0082 62.8986 12.7252 62.7225 12.3226C62.5589 11.9074 62.4772 11.291 62.4772 10.4733C62.4772 9.74359 62.5652 9.17118 62.7414 8.75602C62.9301 8.34087 63.2257 8.04523 63.6283 7.8691C64.0434 7.68039 64.6096 7.58604 65.3267 7.58604H68.4215V6.9633C68.4215 6.57331 68.3648 6.28396 68.2516 6.09525C68.151 5.90654 67.956 5.77445 67.6666 5.69896C67.3899 5.62348 66.9684 5.58574 66.4023 5.58574C65.6223 5.58574 64.553 5.66122 63.1943 5.81219V4.07608C64.1881 3.95027 65.3518 3.88737 66.6853 3.88737C67.8553 3.88737 68.7548 3.97544 69.3839 4.15156C70.0255 4.32769 70.4847 4.62962 70.7614 5.05736C71.0382 5.48509 71.1766 6.10783 71.1766 6.92556V13.2095H68.4781V12.3792C68.2642 12.744 67.9748 13.0019 67.61 13.1529C67.2452 13.3165 66.5533 13.3982 65.5342 13.3982ZM66.6099 11.681C67.1634 11.681 67.5597 11.6621 67.7987 11.6244C67.9748 11.5992 68.0944 11.5615 68.1573 11.5112C68.2327 11.4608 68.2956 11.3791 68.346 11.2658C68.3963 11.1778 68.4215 11.0457 68.4215 10.8695V9.0957H66.5344C66.1067 9.0957 65.8047 9.12715 65.6286 9.19005C65.4525 9.24037 65.3329 9.3536 65.27 9.52972C65.2071 9.69327 65.1757 9.98891 65.1757 10.4166C65.1757 10.8318 65.2071 11.1212 65.27 11.2847C65.3329 11.4482 65.4525 11.5552 65.6286 11.6055C65.8173 11.6558 66.1444 11.681 66.6099 11.681Z" fill="#5F6A7C"/>
<path d="M73.6006 4.07608H76.3557V5.18945C76.5318 4.3214 77.4314 3.88737 79.0542 3.88737C79.9097 3.88737 80.5576 4.0006 80.9979 4.22705C81.4382 4.44091 81.7339 4.78059 81.8848 5.24607C82.0358 4.76801 82.3252 4.42204 82.7529 4.20817C83.1932 3.99431 83.8537 3.88737 84.7343 3.88737C85.5269 3.88737 86.137 3.98173 86.5648 4.17043C86.9925 4.34656 87.2882 4.62333 87.4517 5.00074C87.6278 5.37816 87.7159 5.88138 87.7159 6.51041V13.2095H84.9608V6.88782C84.9608 6.48524 84.9356 6.20218 84.8853 6.03864C84.835 5.86251 84.7217 5.74299 84.5456 5.68009C84.3821 5.61719 84.0927 5.58574 83.6776 5.58574C83.1618 5.58574 82.7906 5.61719 82.5642 5.68009C82.3503 5.74299 82.2056 5.86251 82.1302 6.03864C82.0673 6.20218 82.0358 6.48524 82.0358 6.88782V13.2095H79.2807V6.88782C79.2807 6.48524 79.2555 6.20218 79.2052 6.03864C79.1549 5.86251 79.0416 5.74299 78.8655 5.68009C78.702 5.61719 78.4126 5.58574 77.9975 5.58574C77.4817 5.58574 77.1105 5.61719 76.8841 5.68009C76.6702 5.74299 76.5256 5.86251 76.4501 6.03864C76.3872 6.20218 76.3557 6.48524 76.3557 6.88782V13.2095H73.6006V4.07608Z" fill="#5F6A7C"/>
<path d="M93.5465 13.3982C92.5652 13.3982 91.3638 13.3039 89.9422 13.1152V11.2847C91.6909 11.5489 92.9049 11.681 93.5842 11.681C94.1629 11.681 94.5907 11.6244 94.8675 11.5112C95.1442 11.3979 95.2826 11.1903 95.2826 10.8884V10.3223C95.2826 10.0078 95.1945 9.78762 95.0184 9.66182C94.8423 9.52343 94.4963 9.45424 93.9805 9.45424H92.7917C91.823 9.45424 91.0744 9.26553 90.5461 8.88812C90.0177 8.49812 89.7535 7.932 89.7535 7.18975V6.07638C89.7535 5.28381 90.1309 4.72397 90.8857 4.39688C91.6406 4.05721 92.7791 3.88737 94.3013 3.88737C94.9052 3.88737 95.9871 3.94398 97.5471 4.05721V5.81219C95.5845 5.66122 94.4775 5.58574 94.2259 5.58574C93.4836 5.58574 92.9993 5.63606 92.7728 5.7367C92.5715 5.84993 92.4709 6.05751 92.4709 6.35944V6.85008C92.4709 7.01362 92.5527 7.1583 92.7162 7.28411C92.8797 7.39733 93.1188 7.45394 93.4333 7.45394H94.641C96.8803 7.45394 98 8.18361 98 9.64295V10.7941C98 11.2344 97.9182 11.6181 97.7547 11.9452C97.5911 12.2723 97.3773 12.5302 97.1131 12.7189C96.8615 12.895 96.5344 13.0334 96.1318 13.134C95.7418 13.2347 95.3329 13.3039 94.9052 13.3416C94.5152 13.3794 94.0623 13.3982 93.5465 13.3982Z" fill="#5F6A7C"/>
</svg>
