<svg width="180" height="155" viewBox="-10 55 180 150" fill="none" xmlns="http://www.w3.org/2000/svg">
<path d="M35 150.036C35 151.678 33.6421 153.036 32 153.036C30.3579 153.036 29 151.678 29 150.036C29 148.394 30.3579 147.036 32 147.036C33.6421 147.036 35 148.394 35 150.036Z" fill="#AFBCD0"/>
<path d="M41 156.036C41 157.678 39.6421 159.036 38 159.036C36.3579 159.036 35 157.678 35 156.036C35 154.394 36.3579 153.036 38 153.036C39.6421 153.036 41 154.394 41 156.036Z" fill="#AFBCD0"/>
<path d="M95.0234 197.167L14.3316 116.476C8.22208 110.366 10.775 99.9538 19.0176 97.3633L136.693 60.3795C145.565 57.5912 153.908 65.934 151.12 74.8057L114.136 192.481C111.545 200.724 101.133 203.277 95.0234 197.167Z" fill="#F0F4F9"/>
<rect x="120" y="93.0356" width="17" height="17" rx="3" fill="#3C4352"/>
<rect x="110" y="83.0356" width="10" height="10" rx="2" fill="#3C4352"/>
<rect x="56.9854" y="100.021" width="3" height="21" rx="1.5" fill="#96A4BB"/>
<rect x="48" y="117.036" width="97.92" height="34" rx="9.52" fill="#96A4BB"/>
<mask id="mask0" mask-type="alpha" maskUnits="userSpaceOnUse" x="48" y="117" width="98" height="35">
<rect x="48" y="117.036" width="97.92" height="34" rx="9.52" fill="#96A4BB"/>
</mask>
<g mask="url(#mask0)">
<path d="M97 130.5C97 149.932 80.9316 166 61.5 166C42.0684 166 26 149.932 26 130.5C26 111.068 42.0684 95 61.5 95C80.9316 95 97 111.068 97 130.5Z" fill="#AFBCD0"/>
</g>
<path d="M59.2279 96C61.5596 96 63.5263 94.1038 63.5263 91.7721C63.5263 89.4404 61.5596 87.4737 59.2279 87.4737C56.8962 87.4737 55 89.4404 55 91.7721C55 94.1038 56.8962 96 59.2279 96Z" fill="#F03382"/>
<path d="M56.0544 81.0979H58.1632C64.5686 81.0979 69.9021 86.4311 69.9021 92.8368V94.9456C69.9021 95.528 70.3741 96 70.9564 96H73.0652C73.6476 96 74.1196 95.528 74.1196 94.9456V92.8368C74.1196 84.1019 66.8981 76.8804 58.1632 76.8804H56.0544C55.472 76.8804 55 77.3524 55 77.9348V80.0436C55 80.6259 55.472 81.0979 56.0544 81.0979Z" fill="#F03382"/>
<path d="M56.0546 72.6585H58.1638C69.23 72.6585 78.3415 81.7699 78.3415 92.8362V94.9454C78.3415 95.5279 78.8136 95.9999 79.3961 95.9999H81.5052C82.0877 95.9999 82.5598 95.5279 82.5598 94.9454V92.8362C82.5598 79.4402 71.5597 68.4401 58.1638 68.4401H56.0546C55.4721 68.4401 55 68.9122 55 69.4947V71.6039C55 72.1864 55.4721 72.6585 56.0546 72.6585Z" fill="#F03382"/>
<path d="M58.1641 60H56.0547C55.4721 60 55 60.4721 55 61.0547V63.1641C55 63.7466 55.4721 64.2188 56.0547 64.2188H58.1641C73.8913 64.2188 86.7813 77.1087 86.7813 92.8359V94.9453C86.7813 95.5279 87.2534 96 87.8359 96H89.9453C90.5279 96 91 95.5279 91 94.9453V92.8359C91 74.7788 76.2212 60 58.1641 60Z" fill="#F03382"/>
<rect x="110" y="132.036" width="3" height="6" rx="1.5" transform="rotate(90 110 132.036)" fill="white"/>
<rect x="100" y="132.036" width="3" height="6" rx="1.5" transform="rotate(90 100 132.036)" fill="white"/>
<rect x="90" y="132.036" width="3" height="6" rx="1.5" transform="rotate(90 90 132.036)" fill="white"/>
</svg>
