<svg width="100" height="101" viewBox="0 0 100 101" fill="none" xmlns="http://www.w3.org/2000/svg">
<path fill-rule="evenodd" clip-rule="evenodd" d="M65.1358 0.54541C75.175 0.54541 80.1933 0.54541 85.5975 2.25334C91.4975 4.40033 96.1442 9.04589 98.2917 14.9445C100 20.3465 100 25.3653 100 35.4013V65.6657C100 75.7025 100 80.7197 98.2917 86.1225C96.1442 92.0211 91.4975 96.6667 85.5975 98.8128C80.1933 100.522 75.175 100.522 65.1358 100.522H34.8642C24.825 100.522 19.8058 100.522 14.4025 98.8128C8.5025 96.6667 3.85583 92.0211 1.70833 86.1225C0 80.7197 0 75.7025 0 65.6657V35.4013C0 25.3653 0 20.3465 1.70833 14.9445C3.85583 9.04589 8.5025 4.40033 14.4025 2.25334C19.8058 0.54541 24.825 0.54541 34.8642 0.54541H65.1358Z" fill="url(#paint0_linear)"/>
<path d="M16.5375 50.574C23.1872 46.9121 30.61 43.8558 37.5456 40.7839C49.4774 35.7523 61.4566 30.8079 73.5567 26.2048C75.9108 25.4205 80.141 24.6537 80.5558 28.1417C80.3287 33.0789 79.3944 37.9873 78.7535 42.8956C77.1271 53.6895 75.2466 64.4465 73.4136 75.2048C72.7817 78.7881 68.2917 80.6435 65.4186 78.3502C58.5138 73.6874 51.556 69.07 44.7395 64.2991C42.5063 62.0305 44.5773 58.7732 46.5711 57.1534C52.2581 51.5498 58.2892 46.7898 63.6789 40.8971C65.1327 37.3868 60.8371 40.345 59.4202 41.2516C51.6347 46.6154 44.0398 52.3067 35.8315 57.0207C31.6387 59.3282 26.7519 57.3562 22.561 56.0686C18.8034 54.5132 13.297 52.946 16.537 50.5745L16.5375 50.574Z" fill="white"/>
<defs>
<linearGradient id="paint0_linear" x1="0" y1="0.54541" x2="0" y2="100.522" gradientUnits="userSpaceOnUse">
<stop stop-color="#37AEE2"/>
<stop offset="1" stop-color="#1E96C8"/>
</linearGradient>
</defs>
</svg>
