<svg width="384" height="323" viewBox="0 0 384 323" fill="none" xmlns="http://www.w3.org/2000/svg">
<path fill-rule="evenodd" clip-rule="evenodd" d="M194.21 1.04431C226.261 -3.7575 257.751 8.68944 286.168 24.2711C318.088 41.7738 350.08 62.2455 365.75 95.104C382.611 130.46 390.201 173.539 374.461 209.408C359.161 244.275 319.765 259.632 285.908 277.052C257.022 291.914 226.267 296.892 194.21 302.148C154.809 308.608 106.384 338.973 77.7111 311.188C47.6878 282.093 90.8087 228.392 77.2783 188.834C63.3445 148.097 -11.2291 129.355 1.44307 88.207C14.0268 47.3465 81.3487 66.7355 120.306 49.1204C147.756 36.7084 164.417 5.50788 194.21 1.04431Z" fill="#F0F4F9"/>
</svg>
