<svg width="138" height="136" viewBox="0 0 138 136" fill="none" xmlns="http://www.w3.org/2000/svg">
<path d="M107 24C111.379 24 115 27.6211 115 32C115 36.3789 111.379 40 107 40C102.621 40 98.9998 36.3789 98.9998 32C98.9998 27.6211 102.621 24 107 24Z" fill="#AFBCD0"/>
<path d="M7.87702 113.151C3.56533 112.386 0.632087 108.189 1.3966 103.877C2.16112 99.5654 6.35876 96.6321 10.6704 97.3966C14.9821 98.1611 17.9154 102.359 17.1509 106.67C16.3863 110.982 12.1887 113.915 7.87702 113.151Z" fill="#3C4352"/>
<path d="M94.4113 19.285C96.2111 20.5318 97.9014 23.9053 96.6545 25.7051C95.4077 27.5049 91.6553 27.1079 89.8556 25.8611C88.0558 24.6142 87.5986 22.0949 88.8454 20.2951C90.0922 18.4954 92.6116 18.0381 94.4113 19.285Z" fill="#AFBCD0"/>
<path d="M28.3047 116.993C27.2582 118.916 24.8025 119.641 22.8793 118.595C20.9562 117.548 18.1986 114.239 19.2451 112.316C20.2916 110.393 24.7798 110.521 26.703 111.568C28.6262 112.614 29.3512 115.07 28.3047 116.993Z" fill="#3C4352"/>
<rect x="38.9998" y="62" width="37" height="2" rx="1" fill="#F03382"/>
<path d="M14.9998 78.2928V49.4899C14.9998 26.9619 38.9038 12.4717 58.8768 22.8924L86.4795 37.2938C107.977 48.5098 107.977 79.2729 86.4794 90.4889L58.8767 104.89C38.9038 115.311 14.9998 100.821 14.9998 78.2928Z" fill="#343A44"/>
<rect x="35.8167" y="38.7605" width="56.3662" height="78.4225" rx="2.4507" stroke="#AFBCD0" stroke-width="1.6338"/>
<path d="M57.1243 63.6308V50.0118C57.1243 48.9807 58.2184 48.3174 59.1326 48.7944L72.1841 55.6039C73.1681 56.1173 73.1681 57.5253 72.1841 58.0387L59.1326 64.8482C58.2184 65.3252 57.1243 64.6619 57.1243 63.6308Z" fill="#AFBCD0"/>
<mask id="mask0" mask-type="alpha" maskUnits="userSpaceOnUse" x="57" y="48" width="16" height="18">
<path d="M57.1243 63.6308V50.0118C57.1243 48.9807 58.2184 48.3174 59.1326 48.7944L72.1841 55.6039C73.1681 56.1173 73.1681 57.5253 72.1841 58.0387L59.1326 64.8482C58.2184 65.3252 57.1243 64.6619 57.1243 63.6308Z" fill="#AFBCD0"/>
</mask>
<g mask="url(#mask0)">
<path d="M69.4582 53.5023C75.0519 53.5023 79.5994 58.0499 79.5994 63.6436C79.5994 69.2373 75.0519 73.7849 69.4582 73.7849C63.8645 73.7849 59.3169 69.2373 59.3169 63.6436C59.3169 58.0499 63.8645 53.5023 69.4582 53.5023Z" fill="#8B9BB3"/>
</g>
<path d="M57.1243 105.293V91.6737C57.1243 90.6425 58.2184 89.9793 59.1326 90.4563L72.1841 97.2657C73.1681 97.7791 73.1681 99.1872 72.1841 99.7006L59.1326 106.51C58.2184 106.987 57.1243 106.324 57.1243 105.293Z" fill="#AFBCD0"/>
<mask id="mask1" mask-type="alpha" maskUnits="userSpaceOnUse" x="57" y="90" width="16" height="17">
<path d="M57.1243 105.293V91.6737C57.1243 90.6425 58.2184 89.9793 59.1326 90.4563L72.1841 97.2657C73.1681 97.7791 73.1681 99.1872 72.1841 99.7006L59.1326 106.51C58.2184 106.987 57.1243 106.324 57.1243 105.293Z" fill="#AFBCD0"/>
</mask>
<g mask="url(#mask1)">
<path d="M69.4582 95.1643C75.0519 95.1643 79.5994 99.7119 79.5994 105.306C79.5994 110.899 75.0519 115.447 69.4582 115.447C63.8645 115.447 59.3169 110.899 59.3169 105.306C59.3169 99.7119 63.8645 95.1643 69.4582 95.1643Z" fill="#8B9BB2"/>
</g>
<line x1="43.9856" y1="37.9436" x2="43.9856" y2="116.366" stroke="#AFBCD0" stroke-width="1.6338"/>
<line x1="36.6335" y1="45.2959" x2="43.1688" y2="45.2959" stroke="#AFBCD0" stroke-width="1.6338"/>
<line x1="84.8308" y1="45.2959" x2="91.366" y2="45.2959" stroke="#AFBCD0" stroke-width="1.6338"/>
<line x1="36.6335" y1="69.8027" x2="43.1688" y2="69.8027" stroke="#AFBCD0" stroke-width="1.6338"/>
<line x1="84.8308" y1="69.8027" x2="91.366" y2="69.8027" stroke="#AFBCD0" stroke-width="1.6338"/>
<line x1="84.8308" y1="53.4648" x2="91.366" y2="53.4648" stroke="#AFBCD0" stroke-width="1.6338"/>
<line x1="36.6335" y1="77.9719" x2="84.8307" y2="77.9719" stroke="#AFBCD0" stroke-width="1.6338"/>
<line x1="84.8308" y1="77.9719" x2="91.366" y2="77.9719" stroke="#AFBCD0" stroke-width="1.6338"/>
<line x1="36.6335" y1="61.6338" x2="43.1688" y2="61.6338" stroke="#AFBCD0" stroke-width="1.6338"/>
<line x1="84.8308" y1="61.6338" x2="91.366" y2="61.6338" stroke="#AFBCD0" stroke-width="1.6338"/>
<line x1="36.6335" y1="86.1409" x2="43.1688" y2="86.1409" stroke="#AFBCD0" stroke-width="1.6338"/>
<line x1="84.8308" y1="86.1409" x2="91.366" y2="86.1409" stroke="#AFBCD0" stroke-width="1.6338"/>
<line x1="36.6335" y1="94.3098" x2="43.1688" y2="94.3098" stroke="#AFBCD0" stroke-width="1.6338"/>
<line x1="84.8308" y1="94.3098" x2="91.366" y2="94.3098" stroke="#AFBCD0" stroke-width="1.6338"/>
<line x1="36.6335" y1="102.479" x2="43.1688" y2="102.479" stroke="#AFBCD0" stroke-width="1.6338"/>
<line x1="84.8308" y1="102.479" x2="91.366" y2="102.479" stroke="#AFBCD0" stroke-width="1.6338"/>
<line x1="36.6335" y1="110.648" x2="43.1688" y2="110.648" stroke="#AFBCD0" stroke-width="1.6338"/>
<line x1="84.8308" y1="110.648" x2="91.366" y2="110.648" stroke="#AFBCD0" stroke-width="1.6338"/>
<line x1="84.0139" y1="37.9436" x2="84.0139" y2="116.366" stroke="#AFBCD0" stroke-width="1.6338"/>
<path d="M120 78.0001L7.99953 78.0001" stroke="#3C4352" stroke-width="2" stroke-linecap="round" stroke-linejoin="round"/>
<line x1="36.6335" y1="53.4648" x2="43.1688" y2="53.4648" stroke="#AFBCD0" stroke-width="1.6338"/>
<rect x="39.9998" y="77" width="14" height="2" rx="1" fill="#F03382"/>
<rect x="56.9998" y="77" width="14" height="2" rx="1" fill="#F03382"/>
<rect x="73.9998" y="77" width="14" height="2" rx="1" fill="#F03382"/>
<rect x="98" y="71" width="14" height="2" rx="1" transform="rotate(90 98 71)" fill="white"/>
<rect x="103" y="75" width="6" height="2" rx="1" transform="rotate(90 103 75)" fill="white"/>
<rect x="27" y="75" width="6" height="2" rx="1" transform="rotate(90 27 75)" fill="white"/>
<rect x="31.9998" y="71" width="14" height="2" rx="1" transform="rotate(90 31.9998 71)" fill="white"/>
</svg>
