<svg width="50" height="50" viewBox="0 0 50 50" fill="none" xmlns="http://www.w3.org/2000/svg">
<path fill-rule="evenodd" clip-rule="evenodd" d="M32.5679 0C37.5875 0 40.0967 0 42.7988 0.854167C45.7487 1.92792 48.0721 4.25125 49.1458 7.20125C50 9.90292 50 12.4129 50 17.4321V32.5679C50 37.5875 50 40.0967 49.1458 42.7988C48.0721 45.7487 45.7487 48.0721 42.7988 49.1454C40.0967 50 37.5875 50 32.5679 50H17.4321C12.4125 50 9.90292 50 7.20125 49.1454C4.25125 48.0721 1.92792 45.7487 0.854167 42.7988C0 40.0967 0 37.5875 0 32.5679V17.4321C0 12.4129 0 9.90292 0.854167 7.20125C1.92792 4.25125 4.25125 1.92792 7.20125 0.854167C9.90292 0 12.4125 0 17.4321 0H32.5679Z" fill="black"/>
<path d="M40.6253 12.9211C40.5483 12.5935 40.4118 12.3002 40.2163 12.0421C40.0197 11.7841 39.7305 11.5716 39.3481 11.4054C38.9656 11.2392 38.5438 11.1563 38.0818 11.1563C37.2447 11.1086 35.8859 11.4282 35.4755 12.0784V11.3346H33.5318V19.2434H35.6244V15.6618C35.6244 14.778 35.678 14.1721 35.7847 13.8445C35.8911 13.5167 36.0887 13.2538 36.3769 13.0551C36.6647 12.8564 36.9898 12.7569 37.3522 12.7569C37.6351 12.7569 37.8773 12.8271 38.0784 12.9656C38.2795 13.1045 38.4249 13.2997 38.514 13.5502C38.6035 13.8013 38.6481 14.3534 38.6481 15.2071V19.2434H40.7407V14.3286C40.7407 13.7177 40.7024 13.2486 40.6253 12.9211ZM30.6542 11.1864C30.0351 11.2655 29.4433 11.7651 29.1842 12.0832V11.3349H27.2405V19.2438H29.3331V16.8012C29.3331 15.4555 29.3915 14.5721 29.5083 14.1499C29.6247 13.7278 29.785 13.4365 29.9885 13.2748C30.192 13.1135 30.4404 13.0326 30.7334 13.0326C31.036 13.0326 31.3635 13.1467 31.7163 13.375L32.3644 11.5505C31.9225 11.2876 31.463 11.1563 30.9866 11.1563C30.8716 11.1563 30.761 11.1667 30.6542 11.1864ZM22.1194 11.156C21.3448 11.156 20.6435 11.327 20.0157 11.67C19.3873 12.0121 18.9022 12.5085 18.5595 13.1591C18.2171 13.8096 18.0457 14.4823 18.0457 15.1774C18.0457 16.086 18.2171 16.8568 18.5595 17.4894C18.9022 18.123 19.4021 18.6033 20.0603 18.9304C20.7181 19.258 21.4094 19.4224 22.1342 19.4224C23.3058 19.4224 24.2776 19.0289 25.0498 18.2419C25.8219 17.4549 26.2078 16.4633 26.2078 15.2662C26.2078 14.0802 25.8257 13.0983 25.0612 12.3213C24.2963 11.5446 23.3158 11.156 22.1194 11.156ZM23.501 17.0914C23.1309 17.5084 22.6728 17.7171 22.1266 17.7171C21.5804 17.7171 21.1213 17.5084 20.7492 17.0914C20.3767 16.6741 20.1905 16.0733 20.1905 15.289C20.1905 14.5048 20.3767 13.9036 20.7492 13.4866C21.1213 13.07 21.5804 12.8613 22.1266 12.8613C22.6728 12.8613 23.1309 13.07 23.501 13.4866C23.8706 13.9036 24.0558 14.4999 24.0558 15.2742C24.0558 16.0688 23.8706 16.6741 23.501 17.0914ZM15.3928 8.48985C14.9858 8.38033 14.112 8.32574 12.7716 8.32574H9.23413V19.2434H11.4383V15.1253H12.8756C13.8737 15.1253 14.6358 15.0731 15.162 14.9687C15.5496 14.8844 15.9303 14.7117 16.3052 14.4512C16.68 14.1907 16.9889 13.8321 17.2325 13.375C17.4757 12.9186 17.5973 12.3548 17.5973 11.6846C17.5973 10.8157 17.3862 10.1071 16.9644 9.55809C16.5422 9.00981 16.0184 8.65327 15.3928 8.48985ZM15.0763 12.5635C14.9101 12.807 14.6807 12.9857 14.3877 13.0997C14.0948 13.2137 13.5133 13.2707 12.6448 13.2707H11.4383V10.1727H12.5035C13.2977 10.1727 13.8267 10.1976 14.0896 10.2473C14.4472 10.3119 14.7426 10.4733 14.9761 10.7314C15.209 10.9894 15.3261 11.317 15.3261 11.7143C15.3261 12.037 15.2425 12.3203 15.0763 12.5635Z" fill="white"/>
<path d="M39.279 22.175H10.7407C9.85276 22.2747 9.36446 22.8176 9.2782 23.8084V40.2083C9.36327 41.1979 9.85077 41.7388 10.7328 41.8421H39.2858C40.1682 41.7388 40.6553 41.1975 40.7407 40.2083V23.8084C40.6549 22.8176 40.1662 22.2747 39.279 22.175Z" fill="#F7971D"/>
<path d="M37.8504 29.8123C37.3661 29.2774 36.7156 28.9339 36.0069 28.776C35.8039 28.7222 35.572 28.6838 35.314 28.6723C34.377 28.5872 33.1733 28.962 32.6137 29.4317L32.7495 25.5918H30.4706V37.4802H32.5876V36.8253C33.0755 37.2183 33.859 37.6745 35.0524 37.6745C35.0991 37.6745 35.1434 37.6741 35.1866 37.6733C35.2174 37.6741 35.2487 37.6745 35.2796 37.6745C36.2799 37.6745 37.1303 37.2772 37.8299 36.4827C38.5299 35.6873 38.88 34.5556 38.88 33.0852C38.88 31.663 38.5366 30.5725 37.8504 29.8123ZM36.0136 35.2299C35.6598 35.6596 35.2313 35.8741 34.7284 35.8741C34.0739 35.8741 33.5496 35.5714 33.1551 34.9659C32.8741 34.539 32.7332 33.8797 32.7332 32.9874C32.7332 32.1224 32.9145 31.4778 33.2765 31.0537C33.639 30.6295 34.0929 30.417 34.6389 30.417C35.1961 30.417 35.6527 30.6346 36.0096 31.0695C36.3662 31.5047 36.545 32.2146 36.545 33.198C36.545 34.1231 36.3677 34.7997 36.0136 35.2299ZM26.7981 32.5007C26.7981 33.7333 26.7415 34.5077 26.628 34.8243C26.5144 35.1404 26.3035 35.4056 25.9952 35.6185C25.6874 35.8325 25.3384 35.939 24.9494 35.939C24.6087 35.939 24.3274 35.8594 24.1058 35.7C23.8842 35.5405 23.731 35.3241 23.6476 35.051C23.5637 34.778 23.5221 34.0364 23.5221 32.8248V28.8678H21.2437V34.3174C21.2437 35.1282 21.3462 35.7633 21.5515 36.2231C21.7569 36.6825 22.0893 37.0394 22.5487 37.2935C23.0085 37.5475 23.5273 37.6745 24.1058 37.6745C24.1924 37.6745 24.2783 37.6713 24.3634 37.6654C24.3673 37.6654 24.3677 37.6654 24.3701 37.6646C25.8203 37.6227 26.5757 36.965 26.9604 36.5313V37.4798H29.0766V28.8678H26.7981V32.5007ZM19.3629 29.7114C19.1492 29.4091 18.8319 29.1602 18.4105 28.9655C18.029 28.7895 17.606 28.6941 17.1407 28.6771C17.1327 28.6767 17.1256 28.6759 17.1177 28.6755C16.1573 28.6244 14.9291 28.9046 14.3557 29.4562V25.5918H12.0773V37.4798H14.3557V33.1663C14.3557 32.4418 14.425 31.8941 14.5627 31.5241C14.7008 31.1534 14.918 30.8764 15.2156 30.6924C15.5127 30.5092 15.8503 30.417 16.2294 30.417C16.5586 30.417 16.8336 30.4886 17.052 30.6318C17.2708 30.7751 17.424 30.9686 17.5102 31.2115C17.5965 31.4553 17.64 32.0279 17.64 32.9305V37.4798H19.9185V32.4279C19.9185 31.6551 19.8789 31.0845 19.8006 30.7173C19.7226 30.3489 19.5762 30.0141 19.3629 29.7114Z" fill="black"/>
</svg>
