<svg width="192" height="192" viewBox="0 0 192 192" fill="none" xmlns="http://www.w3.org/2000/svg">
<g filter="url(#filter0_d)">
<ellipse cx="96" cy="95.8548" rx="66" ry="65.8885" fill="#CFD6E0"/>
</g>
<path d="M103.602 30.6903C103.53 30.7618 103.477 30.7618 103.423 30.6724C103.495 30.6903 103.548 30.6903 103.602 30.6903Z" fill="#01ACF2"/>
<path d="M105.571 154.683C105.75 154.611 105.929 154.575 106.108 154.665C105.947 154.862 105.768 154.862 105.571 154.683Z" fill="#01ACF2"/>
<path d="M101.114 132.425C94.5641 132.801 88.0138 132.908 81.9825 129.759C72.2286 124.695 66.9311 116.716 66.6269 105.604C66.5553 103.189 66.6269 100.774 66.609 98.3582C66.609 97.6962 66.7164 97.1057 67.0922 96.5869C69.2577 93.6883 69.8483 90.4499 69.6694 86.8535C69.4367 82.1837 70.7611 77.818 73.3383 73.8996C77.9736 66.8322 84.5239 62.9138 93.0071 62.4486C96.7833 62.2339 100.577 62.1266 104.318 62.9854C104.891 63.1106 105.481 63.2001 106.018 63.5043C105.803 63.6295 105.714 63.8621 105.893 64.0231C106.448 64.5062 106.34 65.1504 106.34 65.7587C106.34 68.2815 106.305 70.8043 106.358 73.3092C106.376 74.168 106.215 74.7227 105.302 74.8658C104.121 74.3111 102.904 73.7923 101.616 73.5597C98.4477 72.9871 95.2621 72.9871 92.0943 73.4344C86.3494 74.2396 81.7498 78.9094 80.8729 84.6528C80.515 86.9967 80.8013 89.3584 80.7297 91.7023C80.7118 92.2927 81.1413 92.1675 81.4635 92.1675C84.685 92.1675 87.9064 92.1675 91.11 92.1675C93.9735 92.1675 96.837 92.1854 99.6826 92.2033C99.7184 92.3464 99.7005 92.579 99.7721 92.6148C100.47 93.0084 100.416 93.6525 100.399 94.3145C100.381 96.1217 100.399 97.9288 100.399 99.7359C100.399 100.684 100.631 101.722 99.6647 102.402C99.3605 102.312 99.0383 102.223 98.7341 102.116C95.7632 101.185 92.1301 102.169 90.3762 104.674C87.1547 109.29 89.2308 114.139 92.9892 116.036C93.5261 116.304 93.705 116.608 93.6871 117.199C93.6334 119.22 93.6513 121.26 93.6334 123.282C93.6334 123.532 93.705 123.747 93.8124 123.944C94.4388 125.107 95.9064 125.787 97.1413 125.483C98.4835 125.161 99.3247 124.069 99.3426 122.602C99.3605 121.117 99.45 119.614 99.3068 118.129C99.1815 116.805 99.611 116 100.846 115.588C100.882 115.57 100.9 115.57 100.935 115.57C101.025 116.036 101.311 116.393 101.311 116.912C101.275 121.564 101.275 126.216 101.329 130.868C101.311 131.459 100.774 131.87 101.114 132.425Z" fill="#F03382"/>
<path d="M99.6469 102.437C100.613 101.74 100.363 100.72 100.381 99.7715C100.399 97.9643 100.381 96.1572 100.381 94.3501C100.381 93.6881 100.452 93.044 99.7542 92.6504C99.6647 92.5967 99.6826 92.382 99.6647 92.2389C103.566 92.221 107.468 92.1852 111.369 92.221C112.193 92.221 112.354 91.9705 112.336 91.219C112.282 89.6445 112.336 88.07 112.318 86.4776C112.3 85.2251 112.103 83.9906 111.727 82.7918C110.618 79.3028 108.398 76.7443 105.267 74.8835C106.179 74.7403 106.34 74.1857 106.322 73.3269C106.251 70.8041 106.305 68.2813 106.305 65.7764C106.305 65.168 106.412 64.5418 105.857 64.0408C105.678 63.8798 105.786 63.6472 105.982 63.522C110.009 64.7744 113.607 66.7783 116.47 69.8916C119.029 72.6827 120.944 75.8676 122.161 79.5176C123.414 83.2391 123.325 87.0322 123.325 90.8433C123.325 91.6484 123.468 92.3462 123.879 93.044C124.506 94.0818 125.007 95.209 125.669 96.2288C126.26 97.1234 126.403 98.0717 126.367 99.1095C126.26 102.33 126.582 105.551 126.152 108.753C125.615 112.815 124.309 116.572 121.947 119.99C119.047 124.176 115.521 127.576 110.904 129.777C107.951 131.172 104.855 132.031 101.598 132.353C101.526 132.281 101.472 132.299 101.419 132.371C101.293 132.371 101.186 132.389 101.061 132.389C100.721 131.834 101.275 131.423 101.275 130.886C101.222 126.234 101.24 121.582 101.258 116.93C101.258 116.411 100.971 116.035 100.882 115.588C102.743 114.085 103.96 112.224 104.085 109.791C104.282 106.392 102.618 104.012 99.6469 102.437Z" fill="#D82E75"/>
<path d="M101.455 132.407C101.508 132.335 101.562 132.317 101.634 132.389C101.58 132.389 101.526 132.389 101.455 132.407Z" fill="#01ACF2"/>
<path d="M158.544 95.8548C158.544 130.33 130.548 158.287 96 158.287C61.4524 158.287 33.4561 130.33 33.4561 95.8548C33.4561 61.3798 61.4524 33.4224 96 33.4224C130.548 33.4224 158.544 61.3798 158.544 95.8548Z" stroke="#A0ACBA" stroke-width="6.91216"/>
<mask id="path-8-inside-1" fill="white">
<path d="M112.814 35.7371C113.331 33.8911 112.253 31.9668 110.382 31.5497C102.637 29.8232 94.6328 29.5034 86.7558 30.6158C77.7315 31.8902 69.0693 35.0167 61.3152 39.7984C53.5611 44.5801 46.883 50.9132 41.7018 58.3988C36.5206 65.8843 32.9486 74.3601 31.2108 83.292C29.473 92.2238 29.6071 101.418 31.6047 110.296C33.6023 119.173 37.42 127.542 42.8174 134.873C48.2147 142.205 55.0746 148.342 62.965 152.896C69.8535 156.872 77.397 159.567 85.2286 160.86C87.1181 161.172 88.8355 159.793 89.0487 157.889C89.2621 155.985 87.8885 154.279 86.0001 153.955C79.1227 152.776 72.4997 150.387 66.4428 146.891C59.3831 142.816 53.2454 137.326 48.4162 130.766C43.5871 124.206 40.1713 116.718 38.384 108.775C36.5967 100.833 36.4767 92.6061 38.0316 84.6145C39.5864 76.623 42.7824 69.0395 47.4181 62.342C52.0539 55.6445 58.0289 49.9781 64.9667 45.6998C71.9045 41.4215 79.6547 38.6242 87.729 37.4839C94.6577 36.5054 101.696 36.7655 108.517 38.2424C110.388 38.6475 112.299 37.5808 112.814 35.7371Z"/>
</mask>
<path d="M112.814 35.7371C113.331 33.8911 112.253 31.9668 110.382 31.5497C102.637 29.8232 94.6328 29.5034 86.7558 30.6158C77.7315 31.8902 69.0693 35.0167 61.3152 39.7984C53.5611 44.5801 46.883 50.9132 41.7018 58.3988C36.5206 65.8843 32.9486 74.3601 31.2108 83.292C29.473 92.2238 29.6071 101.418 31.6047 110.296C33.6023 119.173 37.42 127.542 42.8174 134.873C48.2147 142.205 55.0746 148.342 62.965 152.896C69.8535 156.872 77.397 159.567 85.2286 160.86C87.1181 161.172 88.8355 159.793 89.0487 157.889C89.2621 155.985 87.8885 154.279 86.0001 153.955C79.1227 152.776 72.4997 150.387 66.4428 146.891C59.3831 142.816 53.2454 137.326 48.4162 130.766C43.5871 124.206 40.1713 116.718 38.384 108.775C36.5967 100.833 36.4767 92.6061 38.0316 84.6145C39.5864 76.623 42.7824 69.0395 47.4181 62.342C52.0539 55.6445 58.0289 49.9781 64.9667 45.6998C71.9045 41.4215 79.6547 38.6242 87.729 37.4839C94.6577 36.5054 101.696 36.7655 108.517 38.2424C110.388 38.6475 112.299 37.5808 112.814 35.7371Z" stroke="#CFD6E0" stroke-width="13.8243" mask="url(#path-8-inside-1)"/>
<defs>
<filter id="filter0_d" x="0" y="-0.0336914" width="192" height="191.777" filterUnits="userSpaceOnUse" color-interpolation-filters="sRGB">
<feFlood flood-opacity="0" result="BackgroundImageFix"/>
<feColorMatrix in="SourceAlpha" type="matrix" values="0 0 0 0 0 0 0 0 0 0 0 0 0 0 0 0 0 0 127 0"/>
<feOffset/>
<feGaussianBlur stdDeviation="15"/>
<feColorMatrix type="matrix" values="0 0 0 0 0 0 0 0 0 0 0 0 0 0 0 0 0 0 0.05 0"/>
<feBlend mode="normal" in2="BackgroundImageFix" result="effect1_dropShadow"/>
<feBlend mode="normal" in="SourceGraphic" in2="effect1_dropShadow" result="shape"/>
</filter>
</defs>
</svg>
