<svg width="959" height="234" viewBox="0 0 959 234" fill="none" xmlns="http://www.w3.org/2000/svg">
<path d="M0.631959 4.43083V230H97.0811C165.393 230 205.723 187.794 205.723 115.574C205.723 43.3544 165.549 4.43083 97.0811 4.43083H0.631959ZM66.9115 57.1105H87.702C119.435 57.1105 138.193 77.5884 138.193 115.574C138.193 157.155 120.842 177.32 87.702 177.32H66.9115V57.1105ZM486.942 230V4.43083H410.346L360.011 136.052H358.76L308.269 4.43083H231.672V230H289.511V99.3168H290.761L341.565 227.343H377.05L427.853 99.3168H429.104V230H486.942ZM624.816 233.908C685.624 233.908 729.55 195.297 729.863 139.022H666.397C664.365 165.127 647.795 181.854 624.972 181.854C597.46 181.854 580.421 157.78 580.421 116.981C580.421 76.6505 597.616 52.5773 624.816 52.5773C647.795 52.5773 664.521 69.6161 666.084 95.2525H729.55C729.394 39.2901 684.374 0.522844 624.816 0.522844C555.879 0.522844 512.891 42.7291 512.891 117.137C512.891 191.545 555.723 233.908 624.816 233.908ZM888.215 230H958.871L885.244 4.43083H802.082L728.456 230H795.986L807.71 185.136H876.491L888.215 230ZM841.475 56.4853H842.726L864.454 138.397H819.747L841.475 56.4853Z" fill="#EAEFF5"/>
</svg>
