<svg width="153" height="164" viewBox="0 0 153 164" fill="none" xmlns="http://www.w3.org/2000/svg">
<path d="M67.5835 19.8978C104.164 14.893 138.551 41.0034 143.556 77.5835C148.561 114.164 122.45 148.551 85.8703 153.556C49.2902 158.561 14.9026 132.45 9.89782 95.8703C4.893 59.2902 31.0033 24.9027 67.5835 19.8978Z" fill="#343A44"/>
<path d="M151 1L6 163" stroke="#3C4352" stroke-width="2"/>
<path d="M47.385 126.463C49.2378 126.21 50.9796 127.532 51.2331 129.385C51.4866 131.238 50.1641 132.98 48.3113 133.233C46.4584 133.487 44.7166 132.164 44.4631 130.311C44.2096 128.458 45.5322 126.717 47.385 126.463Z" fill="#F03382"/>
<rect x="28" y="60" width="96" height="54" rx="3" fill="#AFBCD0" stroke="#AFBCD0" stroke-width="2"/>
<path d="M28.0047 102.779C35.1231 101.805 41.8148 106.886 42.7887 114.005C43.7626 121.123 38.6816 127.815 31.5633 128.789C24.4449 129.763 17.7532 124.682 16.7793 117.563C15.8054 110.445 20.8863 103.753 28.0047 102.779Z" fill="#F03382"/>
<rect x="66" y="76" width="18" height="2" rx="1" fill="#9EAABE"/>
<rect x="59" y="80" width="32" height="2" rx="1" fill="#9EAABE"/>
<rect x="45" y="87" width="18" height="18" rx="2" fill="#9EAABE"/>
<path d="M140.08 45.7281C145.232 45.0232 150.075 48.7006 150.78 53.8526C151.485 59.0046 147.808 63.8478 142.656 64.5527C137.504 65.2576 132.661 61.5802 131.956 56.4282C131.251 51.2762 134.928 46.433 140.08 45.7281Z" fill="white"/>
<path d="M123.884 41.5729C125.766 41.3154 127.568 42.6837 127.826 44.5662C128.083 46.4486 126.715 48.2508 124.833 48.5083C122.95 48.7659 121.148 47.3975 120.89 45.5151C120.633 43.6326 122.001 41.8305 123.884 41.5729Z" fill="white"/>
<rect x="67" y="88" width="16" height="16" rx="1" stroke="#9EAABE" stroke-width="2"/>
<rect x="87.9" y="87.9" width="16.2" height="16.2" rx="1.8" stroke="#9EAABE" stroke-width="1.8"/>
<path d="M87.9001 101.85L91.5008 98.9696C92.0491 98.531 92.8023 98.4512 93.4303 98.7652L94.7805 99.4403C95.5018 99.8009 96.3749 99.6378 96.9174 99.0411L99.1532 96.5817C99.8728 95.7902 101.12 95.7972 101.83 96.5967L104.1 99.1501" stroke="#9EAABE" stroke-width="1.8"/>
<circle cx="92.85" cy="92.85" r="1.89" stroke="#9EAABE" stroke-width="1.08"/>
<rect x="29" y="61" width="94" height="6" rx="3" fill="#2E343F"/>
<circle cx="32" cy="64" r="1" fill="#AFBCD0"/>
<circle cx="35" cy="64" r="1" fill="#AFBCD0"/>
<circle cx="38" cy="64" r="1" fill="#AFBCD0"/>
<rect x="108" y="63" width="13" height="2" rx="1" fill="#AFBCD0"/>
<rect x="121" y="98" width="19" height="2" rx="1" transform="rotate(-90 121 98)" fill="white"/>
<path d="M46.5962 36.5962C46.9867 36.2057 47.6199 36.2057 48.0104 36.5962L55.7886 44.3744C56.1791 44.7649 56.1791 45.3981 55.7886 45.7886C55.3981 46.1791 54.7649 46.1791 54.3744 45.7886L46.5962 38.0104C46.2057 37.6199 46.2057 36.9867 46.5962 36.5962Z" fill="#AFBCD0"/>
<path d="M55.7886 36.5962C56.1791 36.9867 56.1791 37.6199 55.7886 38.0104L48.0104 45.7886C47.6199 46.1791 46.9867 46.1791 46.5962 45.7886C46.2057 45.3981 46.2057 44.7649 46.5962 44.3744L54.3744 36.5962C54.7649 36.2057 55.3981 36.2057 55.7886 36.5962Z" fill="#AFBCD0"/>
<g filter="url(#filter0_d)">
<path d="M115 122.02V106L126.59 117.62H119.81L115 122.02Z" fill="white"/>
<path d="M116 108.41V119.6L119.4 116.59H124.16L116 108.41Z" fill="#3C4352"/>
</g>
<path d="M96.7445 138.261C97.3787 137.704 97.447 136.73 96.8169 136.168C95.3636 134.873 93.6221 133.93 91.7278 133.424C89.3394 132.786 86.8153 132.87 84.4747 133.666C82.1341 134.462 80.0822 135.934 78.5784 137.896C77.0745 139.859 76.1864 142.223 76.0262 144.69C75.866 147.157 76.4409 149.616 77.6784 151.757C78.9158 153.897 80.7601 155.622 82.9781 156.714C85.196 157.806 87.6881 158.216 90.139 157.892C92.0829 157.635 93.9316 156.925 95.5402 155.829C96.2377 155.353 96.2959 154.379 95.739 153.745C95.1821 153.11 94.2215 153.06 93.5058 153.507C92.3661 154.22 91.0822 154.684 89.7382 154.862C87.8866 155.107 86.0039 154.797 84.3283 153.972C82.6527 153.147 81.2594 151.844 80.3245 150.227C79.3897 148.61 78.9553 146.752 79.0763 144.888C79.1974 143.024 79.8684 141.238 81.0045 139.756C82.1406 138.273 83.6908 137.161 85.459 136.56C87.2272 135.958 89.1341 135.895 90.9385 136.377C92.2483 136.727 93.4613 137.353 94.4993 138.207C95.1511 138.743 96.1102 138.818 96.7445 138.261Z" fill="url(#paint0_linear)"/>
<defs>
<filter id="filter0_d" x="113" y="106" width="15.59" height="20.02" filterUnits="userSpaceOnUse" color-interpolation-filters="sRGB">
<feFlood flood-opacity="0" result="BackgroundImageFix"/>
<feColorMatrix in="SourceAlpha" type="matrix" values="0 0 0 0 0 0 0 0 0 0 0 0 0 0 0 0 0 0 127 0"/>
<feOffset dy="2"/>
<feGaussianBlur stdDeviation="1"/>
<feColorMatrix type="matrix" values="0 0 0 0 0 0 0 0 0 0 0 0 0 0 0 0 0 0 0.25 0"/>
<feBlend mode="normal" in2="BackgroundImageFix" result="effect1_dropShadow"/>
<feBlend mode="normal" in="SourceGraphic" in2="effect1_dropShadow" result="shape"/>
</filter>
<linearGradient id="paint0_linear" x1="80.2524" y1="136.107" x2="96.7474" y2="154.893" gradientUnits="userSpaceOnUse">
<stop stop-color="#AFBCD0"/>
<stop offset="1" stop-color="white" stop-opacity="0"/>
</linearGradient>
</defs>
</svg>
