<svg width="100" height="101" viewBox="0 0 100 101" fill="none" xmlns="http://www.w3.org/2000/svg">
<path d="M0 75.0928V75.0973C0.0598953 77.3166 0.0783698 79.5488 0.453104 81.7545C0.850203 84.088 1.41785 86.3635 2.50082 88.4814C3.96495 91.348 5.97572 93.7688 8.51388 95.7463C10.3362 97.1662 12.327 98.2933 14.5306 99.0043C17.744 100.04 21.059 100.437 24.4225 100.456C26.521 100.469 28.6181 100.522 30.7173 100.513C45.9624 100.449 61.2079 100.623 76.4534 100.419C78.4765 100.392 80.4664 100.145 82.4519 99.7824C86.2574 99.0865 89.6207 97.4644 92.4982 94.8998C95.8517 91.9118 98.1143 88.2549 99.1357 83.8413C99.804 80.9564 99.9713 78.0296 99.9999 75.0925V74.5065C99.9999 74.2792 99.9133 24.6006 99.9054 23.944C99.883 22.1402 99.75 20.3501 99.4114 18.5752C98.9997 16.4124 98.4181 14.305 97.3814 12.3484C96.2868 10.2812 94.9156 8.4224 93.2197 6.79812C90.6218 4.30955 87.6239 2.54967 84.1339 1.61874C80.9816 0.778143 77.7657 0.592035 74.5263 0.594949C74.521 0.594172 74.5088 0.56134 74.508 0.54541H25.4763C25.4753 0.562117 25.4748 0.578824 25.4736 0.594949C23.6351 0.628557 21.7939 0.614764 19.9648 0.84128C17.961 1.09014 15.9765 1.46488 14.0799 2.16463C11.0925 3.26846 8.49697 4.98774 6.27987 7.28301C3.76796 9.88348 1.99735 12.8909 1.05789 16.393C0.219746 19.5176 0.0373386 22.7044 0.0328659 25.9137" fill="#FF4181"/>
<path d="M50.6374 47.5315C51.6807 46.0209 52.5082 44.5821 53.5515 43.2873C59.1279 36.3454 69.4533 36.3454 75.1376 43.1794C80.2104 49.33 80.9659 57.0631 77.2243 64.1129C73.9144 70.3714 69.0575 75.335 63.5531 79.6512C59.8834 82.5287 55.9979 85.1184 52.1124 87.7081C51.4649 88.1397 50.1697 88.2117 49.5581 87.852C41.1755 82.9603 33.6563 76.9536 27.5043 69.4003C23.9786 65.0841 21.6041 60.1204 21.784 54.2936C21.9998 46.9201 27.2884 39.9782 34.0161 38.3237C39.9523 36.849 46.2122 39.5826 49.1623 44.9418C49.666 45.7691 50.1337 46.5604 50.6374 47.5315ZM45.5647 72.8892C49.2703 72.8892 52.5801 72.8892 56.1059 72.8892C55.3144 70.0117 54.6668 67.2781 53.8753 64.6165C53.4436 63.2137 53.4436 62.0987 54.4869 60.8398C56.0339 58.9695 55.4943 56.3797 53.5515 54.7971C51.7167 53.2865 49.2343 53.4303 47.5434 55.1209C45.8885 56.7754 45.5647 59.473 47.1476 61.1276C48.2269 62.2426 48.155 63.1777 47.7952 64.4726C46.9678 67.1702 46.3202 69.9398 45.5647 72.8892Z" fill="white"/>
<path d="M39.3046 20.2675C40.6717 21.5264 42.0388 22.7853 43.406 24.0083C44.5212 25.0154 45.3127 24.6917 45.9243 23.4687C46.5 22.3537 47.1476 21.2747 47.7592 20.1596C48.5147 18.7928 49.1982 17.6059 48.011 15.9154C47.1476 14.6924 47.6153 13.0738 49.0184 12.1387C50.2775 11.3114 51.6447 11.3114 52.8319 12.3545C54.0911 13.4695 54.271 14.9442 53.3716 16.2391C52.5441 17.3901 52.652 18.2173 53.3356 19.2964C54.0911 20.5193 54.7387 21.8142 55.4582 23.0371C56.5015 24.7636 57.1131 24.9075 58.6961 23.5766C59.9193 22.5335 61.0346 21.3466 62.1859 20.2675C61.8981 19.5482 61.6103 19.0086 61.4304 18.4331C60.8907 16.8146 61.3944 15.4478 62.7975 14.8003C64.2725 14.1169 66.1074 14.6205 66.8989 15.9513C67.6903 17.2822 67.4385 19.1165 66.0714 19.9079C64.7762 20.6632 64.3445 21.7782 64.0207 23.0731C63.4091 25.5549 62.6896 28.0367 62.1859 30.5545C61.9341 31.7415 61.3584 32.1731 60.2431 32.1731C53.9472 32.1731 47.6512 32.1731 41.3553 32.1731C40.312 32.1731 39.7363 31.7415 39.5205 30.6624C38.8729 27.8569 38.1893 25.0873 37.3619 22.3537C37.146 21.5624 36.5344 20.7711 35.8868 20.3035C34.2319 19.0446 33.7282 17.5339 34.6276 15.9873C35.4551 14.5845 37.4338 14.045 38.8729 14.8003C40.4199 15.6276 40.8516 17.498 39.9162 19.2604C39.6284 19.6201 39.4845 19.8719 39.3046 20.2675Z" fill="white"/>
</svg>
