<svg x="30" y="30" width="200" height="200" viewBox="0 0 200 200" fill="none" xmlns="http://www.w3.org/2000/svg">
<path opacity="0.1" d="M185.984 72.3124L154.983 79.3126L140.483 90.3126L126.983 73.3564L102.983 84.3126L95.4832 92.3126L89.4833 88.3126L81.9833 106.813L53.9833 91.8126L23.9834 92.3128L23.9837 140.312L185.984 140.312L185.984 72.3124Z" fill="url(#paint0_linear)"/>
<path d="M24.9399 92.2013L53.4314 90.8388C53.793 90.8215 54.1524 90.9026 54.4714 91.0736L80.0221 104.761C81.07 105.323 82.3734 104.852 82.82 103.75L88.4664 89.8221C88.972 88.575 90.5401 88.173 91.5833 89.023L93.9598 90.9594C94.8057 91.6487 96.048 91.5327 96.7517 90.6987L102.694 83.6556C102.885 83.4296 103.123 83.2487 103.392 83.1259L125.501 73.033C126.365 72.6389 127.386 72.9057 127.946 73.6716L139.205 89.0637C139.894 90.006 141.241 90.16 142.125 89.3977L154.583 78.6582C154.846 78.4316 155.163 78.2772 155.504 78.2104L185.35 72.3561" stroke="#3C4352" stroke-width="2" stroke-linecap="round" stroke-linejoin="round"/>
<path d="M84.9839 22.3124C98.4976 22.3124 109.484 33.2987 109.484 46.8124C109.484 60.3261 98.4976 71.3124 84.9839 71.3124C71.4702 71.3124 60.4839 60.3261 60.4839 46.8124C60.4839 33.2987 71.4702 22.3124 84.9839 22.3124Z" fill="#3C4352"/>
<path d="M140.984 22.3124C146.184 22.3124 150.484 26.6124 150.484 31.8124C150.484 37.0124 146.184 41.3124 140.984 41.3124C135.784 41.3124 131.484 37.0124 131.484 31.8124C131.484 26.6124 135.784 22.3124 140.984 22.3124Z" fill="white"/>
<path d="M109.984 12.3126C111.884 12.3126 113.484 13.9126 113.484 15.8126C113.484 17.7126 111.884 19.3126 109.984 19.3126C108.084 19.3126 106.484 17.7126 106.484 15.8126C106.484 13.9126 108.084 12.3126 109.984 12.3126Z" fill="white"/>
<path d="M128.484 116.312C133.984 116.312 138.484 120.812 138.484 126.312C138.484 131.812 133.984 136.312 128.484 136.312C122.984 136.312 118.484 131.812 118.484 126.312C118.484 120.812 122.984 116.312 128.484 116.312Z" fill="#F03382"/>
<path d="M142.684 132.312C143.784 132.312 144.884 132.712 145.684 133.512C146.484 134.312 146.884 135.412 146.884 136.512C146.884 137.612 146.484 138.712 145.684 139.512C144.884 140.312 143.784 140.712 142.684 140.712C141.584 140.712 140.484 140.312 139.684 139.512C138.884 138.712 138.484 137.612 138.484 136.512C138.484 135.412 138.884 134.312 139.684 133.512C140.484 132.712 141.584 132.312 142.684 132.312Z" fill="#F03382"/>
<path d="M112.927 104.828C112.927 101.788 112.075 99.3785 110.369 97.599C108.701 95.7824 105.846 94.1141 101.805 92.5941C97.7643 91.074 94.2794 89.5726 91.3506 88.0896C88.4217 86.5696 85.9007 84.8457 83.7875 82.9178C81.7114 80.9529 80.0802 78.6544 78.8938 76.0222C77.7445 73.3899 77.1699 70.2572 77.1699 66.624C77.1699 60.3586 79.1719 55.2239 83.1758 51.2199C87.1798 47.216 92.4998 44.8803 99.136 44.213V36.7612C99.136 34.3042 101.128 32.3124 103.585 32.3124C106.042 32.3124 108.034 34.3042 108.034 36.7612V44.3798C114.596 45.3067 119.73 48.0501 123.438 52.6102C126.252 56.0441 127.999 60.2581 128.676 65.2521C129.048 67.9885 126.76 70.2387 123.999 70.2387H117.927C115.166 70.2387 113.039 67.9679 112.446 65.271C111.995 63.2235 111.229 61.5613 110.147 60.2844C108.33 58.06 105.883 56.9478 102.806 56.9478C99.7663 56.9478 97.4121 57.819 95.7438 59.5615C94.0755 61.2669 93.2413 63.6396 93.2413 66.6796C93.2413 69.4972 94.0569 71.7587 95.6882 73.4641C97.3194 75.1695 100.341 76.9119 104.753 78.6915C109.201 80.471 112.853 82.1578 115.708 83.752C118.563 85.3091 120.972 87.0886 122.937 89.0906C124.902 91.0555 126.404 93.317 127.442 95.8751C128.48 98.3961 128.999 101.343 128.999 104.717C128.999 111.02 127.034 116.136 123.104 120.066C119.174 123.995 113.762 126.313 106.866 127.017V133.662C106.866 136.104 104.886 138.083 102.445 138.083C100.003 138.083 98.0238 136.104 98.0238 133.662V127.073C90.4237 126.257 84.529 123.569 80.3397 119.009C77.1386 115.465 75.1714 111.028 74.4381 105.699C74.0617 102.964 76.3499 100.713 79.1114 100.713H85.1827C87.9441 100.713 90.0701 102.989 90.7177 105.673C91.2215 107.762 92.0813 109.501 93.2969 110.89C95.4101 113.226 98.4316 114.393 102.361 114.393C105.624 114.393 108.201 113.541 110.091 111.835C111.982 110.093 112.927 107.757 112.927 104.828Z" fill="#AFBCD0"/>
<g opacity="0.3">
<path d="M139.914 56.7167C139.63 55.8295 140.292 54.9229 141.223 54.9229H155.744C156.676 54.9229 157.338 55.8295 157.054 56.7167L154.583 64.4409C154.401 65.0105 153.872 65.397 153.274 65.397H143.694C143.096 65.397 142.567 65.0105 142.384 64.4409L139.914 56.7167Z" stroke="#AFBCD0" stroke-width="1.25" stroke-linecap="round" stroke-linejoin="round"/>
<path d="M154.483 54.3124C154.483 52.7211 153.851 51.195 152.726 50.0697C151.601 48.9445 150.075 48.3124 148.483 48.3124C146.892 48.3124 145.366 48.9445 144.241 50.0697C143.116 51.195 142.483 52.7211 142.483 54.3124L143.93 54.3124C143.93 53.1048 144.41 51.9467 145.264 51.0929C146.118 50.239 147.276 49.7593 148.483 49.7593C149.691 49.7593 150.849 50.239 151.703 51.0929C152.557 51.9467 153.036 53.1048 153.036 54.3124H154.483Z" fill="#AFBCD0"/>
<rect x="152.277" y="58.7462" width="2" height="8" rx="1" transform="rotate(90 152.277 58.7462)" fill="#AFBCD0"/>
</g>
<path d="M60.4839 96.8801V86.962C60.4839 86.2111 61.2807 85.7281 61.9465 86.0755L71.4513 91.0345C72.1678 91.4084 72.1678 92.4338 71.4513 92.8077L61.9465 97.7667C61.2807 98.114 60.4839 97.631 60.4839 96.8801Z" stroke="#AFBCD0" stroke-width="1.10145" stroke-linecap="round" stroke-linejoin="round"/>
<defs>
<linearGradient id="paint0_linear" x1="123.984" y1="74.8124" x2="126.484" y2="140.312" gradientUnits="userSpaceOnUse">
<stop stop-color="white" stop-opacity="0.32"/>
<stop offset="1" stop-color="white" stop-opacity="0"/>
</linearGradient>
</defs>
</svg>
