<svg width="144" height="137" viewBox="0 0 144 137" fill="none" xmlns="http://www.w3.org/2000/svg">
<path d="M97.2264 0H46.6176L0.638672 114.309L38.7948 107.444L33.0474 136.5L71.8422 108.561L111.276 136.5L105.049 107.444L143.844 114.309L97.2264 0Z" fill="#A0ACBA"/>
<path d="M94 8.81299H49.9264L9.88477 108.361L43.1137 102.382L38.1085 127.687L71.8937 103.356L106.235 127.687L100.813 102.382L134.598 108.361L94 8.81299Z" fill="#CFD6E0"/>
<path d="M88.6612 23.397H55.4018L25.1851 98.5192L50.2608 94.0077L46.4837 113.103L71.9791 94.7421L97.8941 113.103L93.8023 94.0077L119.298 98.5192L88.6612 23.397Z" fill="#F03382"/>
<path d="M72.1887 48.0532L78.8785 68.6425H100.527L83.0131 81.3674L89.703 101.957L72.1887 89.2318L54.6744 101.957L61.3643 81.3674L43.85 68.6425H65.4988L72.1887 48.0532Z" fill="white"/>
</svg>
