<svg width="180" height="150" viewBox="15 38 180 150" fill="none" xmlns="http://www.w3.org/2000/svg">
<path fill-rule="evenodd" clip-rule="evenodd" d="M38.1235 56.8802C22.4567 76.2091 39.9646 103.252 46.0137 127.386C49.6731 141.987 54.0243 155.818 65.3936 165.681C77.7884 176.435 92.902 184.282 109.177 182.186C127.901 179.774 144.446 169.699 155.118 154.126C168.935 133.96 183.147 109.913 174.319 87.1174C164.876 62.7351 138.36 50.6127 112.835 44.9457C86.9323 39.195 54.8309 36.2675 38.1235 56.8802Z" fill="#F0F4F9"/>
<path d="M73.828 130.608L46.1716 153.088" stroke="#AFBCD0" stroke-width="2.02705" stroke-linecap="round"/>
<path d="M148 66.0358L133 79.6601" stroke="#AFBCD0" stroke-width="2.02705" stroke-linecap="round"/>
<path d="M135.5 133.348L145.5 144.036" stroke="#AFBCD0" stroke-width="2.02705" stroke-linecap="round"/>
<path d="M62.4999 56.0356L77.3122 71.3477" stroke="#AFBCD0" stroke-width="2.02705" stroke-linecap="round"/>
<path d="M75 93.2609C75 88.7182 79.2415 85.0356 84.4737 85.0356H125.526C130.758 85.0356 135 88.7182 135 93.2609V119.308C135 123.85 130.758 127.533 125.526 127.533H84.4737C79.2415 127.533 75 123.85 75 119.308V93.2609Z" fill="#AFBCD0"/>
<path d="M99.8249 109.122C104.999 132.304 74.6113 139.637 82.5802 132.304C90.0003 125.477 85.2771 117.951 83.5279 116.047L99.8249 109.122Z" fill="#AFBCD0"/>
<mask id="mask0" mask-type="alpha" maskUnits="userSpaceOnUse" x="75" y="85" width="60" height="51">
<path d="M75 93.2609C75 88.7182 79.2415 85.0356 84.4737 85.0356H125.526C130.758 85.0356 135 88.7182 135 93.2609V119.308C135 123.85 130.758 127.533 125.526 127.533H84.4737C79.2415 127.533 75 123.85 75 119.308V93.2609Z" fill="#AFBCD0"/>
<path d="M99.8249 109.122C104.999 132.304 74.6113 139.637 82.5802 132.304C90.0003 125.477 85.2771 117.951 83.5279 116.047L99.8249 109.122Z" fill="#AFBCD0"/>
</mask>
<g mask="url(#mask0)">
<circle cx="130.5" cy="120.536" r="35.5" fill="#96A4BB"/>
</g>
<path d="M84.7094 78.7454C85.2708 78.1841 86.1809 78.1841 86.7423 78.7454L97.9234 89.9265C98.4848 90.4879 98.4848 91.3981 97.9234 91.9595C97.362 92.5208 96.4519 92.5208 95.8905 91.9595L84.7094 80.7784C84.148 80.217 84.148 79.3068 84.7094 78.7454Z" fill="#F03382"/>
<path d="M97.9234 78.7454C98.4848 79.3068 98.4848 80.217 97.9234 80.7784L86.7423 91.9595C86.1809 92.5208 85.2708 92.5208 84.7094 91.9595C84.148 91.3981 84.148 90.4879 84.7094 89.9265L95.8905 78.7454C96.4519 78.1841 97.362 78.1841 97.9234 78.7454Z" fill="#F03382"/>
<path d="M103.077 75.9612L104.387 77.2708C108.365 81.2488 108.365 87.8733 104.387 91.8515L103.077 93.1611C102.716 93.5228 102.716 94.1091 103.077 94.4708L104.387 95.7804C104.749 96.1421 105.335 96.1421 105.697 95.7804L107.006 94.4708C112.431 89.046 112.431 80.0763 107.006 74.6515L105.697 73.3419C105.335 72.9802 104.749 72.9802 104.387 73.3419L103.077 74.6515C102.716 75.0132 102.716 75.5995 103.077 75.9612Z" fill="#4B5565"/>
<path d="M108.319 70.72L109.629 72.0299C116.501 78.9025 116.501 90.2197 109.629 97.0923L108.319 98.4022C107.957 98.764 107.957 99.3504 108.319 99.7121L109.629 101.022C109.991 101.384 110.577 101.384 110.939 101.022L112.249 99.7121C120.568 91.3926 120.568 77.7296 112.249 69.4101L110.939 68.1002C110.577 67.7385 109.991 67.7385 109.629 68.1002L108.319 69.4101C107.957 69.7719 107.957 70.3583 108.319 70.72Z" fill="#4B5565"/>
<path d="M117.49 64.1686L116.18 62.8586C115.819 62.4968 115.232 62.4968 114.87 62.8586L113.56 64.1686C113.199 64.5304 113.199 65.1169 113.56 65.4786L114.87 66.7887C124.638 76.5559 124.638 92.5664 114.87 102.334L113.56 103.644C113.199 104.005 113.199 104.592 113.56 104.954L114.87 106.264C115.232 106.625 115.819 106.625 116.18 106.264L117.49 104.954C128.705 93.7394 128.705 75.3829 117.49 64.1686Z" fill="#4B5565"/>
<path d="M145 123.536C145 124.916 143.881 126.036 142.5 126.036C141.119 126.036 140 124.916 140 123.536C140 122.155 141.119 121.036 142.5 121.036C143.881 121.036 145 122.155 145 123.536Z" fill="#96A4BB"/>
<path d="M163 123.536C163 124.916 161.881 126.036 160.5 126.036C159.119 126.036 158 124.916 158 123.536C158 122.155 159.119 121.036 160.5 121.036C161.881 121.036 163 122.155 163 123.536Z" fill="#96A4BB"/>
<path d="M154 123.536C154 124.916 152.881 126.036 151.5 126.036C150.119 126.036 149 124.916 149 123.536C149 122.155 150.119 121.036 151.5 121.036C152.881 121.036 154 122.155 154 123.536Z" fill="#96A4BB"/>
</svg>
