<svg width="50" height="50" viewBox="0 0 50 50" fill="none" xmlns="http://www.w3.org/2000/svg">
<path d="M25.0082 0C14.5709 0 11.5184 0.0107701 10.925 0.0600051C8.78314 0.238097 7.45031 0.575433 5.99827 1.29857C4.87925 1.85439 3.99673 2.49867 3.12574 3.40183C1.5395 5.04889 0.578139 7.07521 0.230128 9.48388C0.0609287 10.6532 0.0117072 10.8917 0.00170908 16.8645C-0.00213635 18.8554 0.00170908 21.4757 0.00170908 24.9902C0.00170908 35.4218 0.0132454 38.4721 0.063236 39.0645C0.23628 41.1493 0.563142 42.4609 1.25532 43.8956C2.57815 46.642 5.1046 48.7037 8.08096 49.473C9.11154 49.7384 10.2498 49.8846 11.711 49.9538C12.3302 49.9808 18.6405 50 24.9547 50C31.2689 50 37.5831 49.9923 38.1868 49.9615C39.8788 49.8819 40.8613 49.75 41.9477 49.4692C44.9433 48.696 47.4236 46.6651 48.7733 43.8803C49.452 42.4801 49.7962 41.1185 49.9519 39.1425C49.9858 38.7117 50 31.8431 50 24.9837C50 18.1231 49.9846 11.2671 49.9508 10.8363C49.7931 8.82844 49.4489 7.47833 48.7483 6.05128C48.1734 4.88311 47.5351 4.01072 46.6083 3.11873C44.9544 1.53859 42.9317 0.576972 40.5214 0.22925C39.3535 0.0603897 39.1209 0.0103855 33.1451 0H25.0082Z" fill="#41ABE1"/>
<path fill-rule="evenodd" clip-rule="evenodd" d="M41.8574 15.0004C40.7085 15.5074 39.4757 15.8516 38.1826 16.0051C39.5037 15.2143 40.5177 13.9584 40.9922 12.4652C39.7549 13.2001 38.3872 13.7304 36.9313 14.0188C35.7637 12.7768 34.103 12 32.2609 12C28.7303 12 25.8648 14.8655 25.8648 18.3961C25.8648 18.8985 25.9207 19.3869 26.0323 19.8521C20.7154 19.5869 16.0032 17.0378 12.8494 13.1676C12.3004 14.1119 11.9841 15.2097 11.9841 16.3819C11.9841 18.6008 13.1145 20.5591 14.831 21.7035C13.7843 21.6709 12.7982 21.3825 11.933 20.9034C11.933 20.9313 11.933 20.9545 11.933 20.9825C11.933 24.0805 14.1379 26.6668 17.0638 27.253C16.5289 27.3972 15.9613 27.4762 15.3799 27.4762C14.9659 27.4762 14.5658 27.4344 14.1751 27.36C14.9891 29.8998 17.3522 31.7512 20.1479 31.8023C17.9569 33.5188 15.2031 34.5422 12.2028 34.5422C11.6864 34.5422 11.1794 34.5096 10.677 34.4538C13.5052 36.268 16.8684 37.3286 20.4828 37.3286C32.247 37.3286 38.6803 27.5832 38.6803 19.1311C38.6803 18.852 38.6757 18.5775 38.6617 18.3031C39.913 17.4006 40.9969 16.2749 41.8528 14.9911L41.8574 15.0004Z" fill="white"/>
</svg>
