<svg width="93" height="24" viewBox="0 0 93 24" fill="none" xmlns="http://www.w3.org/2000/svg">
<path d="M74.0161 0.801926C70.1827 0.937375 67.7165 1.75009 66.4699 3.26711C65.6925 4.21524 65.21 5.43422 64.9687 7.07314C64.8347 7.9671 64.8481 7.8452 64.8481 12.2879C64.8481 16.094 64.8481 16.4191 64.8883 16.7848C65.143 19.1822 65.84 20.618 67.3546 21.837C68.1454 22.4871 69.164 22.9342 70.3704 23.178C71.0271 23.3134 71.8447 23.3946 73.1583 23.4624C73.8419 23.503 82.2995 23.5166 83.7337 23.4895C86.6422 23.4218 88.0496 23.2457 89.3497 22.7716C90.4622 22.3653 91.3602 21.6745 91.95 20.8076C92.4191 20.0898 92.781 18.9656 92.915 17.7872C93.0089 16.988 93.0223 16.3649 92.9687 15.3626C92.9552 15.0104 92.9285 14.6854 92.9285 14.6719C92.9285 14.6312 92.7542 14.6311 89.524 14.6311H86.1195V14.902C86.1195 15.9856 85.7978 16.8119 85.208 17.2318C84.6183 17.6516 83.5728 17.8549 81.7097 17.9226C80.8117 17.9497 77.1793 17.9497 76.4019 17.9226C75.2894 17.882 74.5522 17.7872 73.8687 17.584C73.3191 17.4215 72.9304 17.2182 72.6356 16.9337C72.1396 16.4597 71.8447 15.7689 71.7107 14.726C71.6839 14.4822 71.6705 14.1164 71.6571 12.4911C71.6437 10.0665 71.6705 9.56536 71.8313 8.80685C71.9386 8.26506 72.1396 7.79102 72.3809 7.47949C72.85 6.84288 73.8285 6.51786 75.705 6.38241C76.0132 6.35532 77.0051 6.3553 79.5652 6.3553C82.7418 6.3553 83.0367 6.35527 83.345 6.3959C84.176 6.50426 84.7523 6.70746 85.1812 7.03254C85.3957 7.19507 85.5565 7.38465 85.6771 7.65555C85.838 7.96708 85.8916 8.25154 85.905 8.69852L85.9184 9.06426H92.6738L92.6872 8.79336C92.714 8.37347 92.6872 6.8023 92.647 6.38241C92.4861 4.74349 92.0304 3.56507 91.2396 2.6982C90.6633 2.06159 89.8054 1.57393 88.7734 1.28949C87.8619 1.03214 86.8433 0.910285 84.94 0.801926C84.3502 0.788381 74.8069 0.774836 74.0161 0.801926Z" fill="#19903C"/>
<path d="M0.0134111 12.1524V23.2457H6.52751V15.3761L6.54092 7.5066L15.4945 23.2186H17.6926L19.8908 23.2321L28.898 7.49311L28.9114 15.3626V23.2321H35.4255V1.0457H25.6677L21.7003 7.94006C19.5155 11.7326 17.7328 14.8343 17.7194 14.8343C17.706 14.8343 15.9502 11.7326 13.819 7.94006L9.9186 1.0457H7.62939e-06V12.1524H0.0134111Z" fill="#19903C"/>
<path d="M39.3315 12.1524V23.2457H46.0601V15.8232H62.3051V10.4322H46.0601V6.50424H63.297V1.08631H39.3047V12.1524H39.3315Z" fill="#19903C"/>
</svg>
