<svg width="154" height="154" viewBox="0 0 154 154" fill="none" xmlns="http://www.w3.org/2000/svg">
<path d="M67.7329 9.2671C104.808 4.19459 139.66 30.6581 144.733 67.7329C149.805 104.808 123.342 139.66 86.2671 144.733C49.1922 149.805 14.3396 123.342 9.26708 86.2671C4.19457 49.1922 30.6581 14.3396 67.7329 9.2671Z" fill="#F0F4F9"/>
<path d="M31.1899 8.63216L123.785 111.949" stroke="#AFBCD0" stroke-width="2.02705"/>
<path d="M27.4243 47.6197L120.019 150.936" stroke="#AFBCD0" stroke-width="2.02705"/>
<rect x="59.4561" y="94.4048" width="31.1899" height="17.5443" rx="4.0541" fill="#4B5565"/>
<rect x="26.3553" y="49.6078" width="96.416" height="54.5046" rx="3.04057" fill="#AFBCD0" stroke="#AFBCD0" stroke-width="2.02705"/>
<path d="M25.3418 96.354H123.785V101.072C123.785 103.311 121.97 105.126 119.731 105.126H29.3959C27.1569 105.126 25.3418 103.311 25.3418 101.072V96.354Z" fill="#96A4BB"/>
<path d="M126.393 29.5665C128.271 29.3096 130.036 30.65 130.293 32.5279C130.55 34.4058 129.209 36.1711 127.331 36.4281C125.454 36.685 123.688 35.3446 123.431 33.4667C123.174 31.5888 124.515 29.8234 126.393 29.5665Z" fill="#F03382"/>
<path d="M106.75 5.56263C113.965 4.57553 120.747 9.72523 121.734 16.9399C122.721 24.1545 117.571 30.9367 110.357 31.9238C103.142 32.9109 96.3598 27.7612 95.3727 20.5465C94.3856 13.3319 99.5353 6.54972 106.75 5.56263Z" fill="#F03382"/>
<path d="M131.922 68.0879C133.185 68.0879 134.25 67.0611 134.25 65.7986C134.25 64.536 133.185 63.471 131.922 63.471C130.66 63.471 129.633 64.536 129.633 65.7986C129.633 67.0611 130.66 68.0879 131.922 68.0879Z" fill="#F03382"/>
<path d="M130.204 60.0186H131.346C134.814 60.0186 137.702 62.9065 137.702 66.3751V67.517C137.702 67.8323 137.958 68.0879 138.273 68.0879H139.415C139.73 68.0879 139.986 67.8323 139.986 67.517V66.3751C139.986 61.6452 136.076 57.7348 131.346 57.7348H130.204C129.888 57.7348 129.633 57.9904 129.633 58.3058V59.4476C129.633 59.763 129.888 60.0186 130.204 60.0186Z" fill="#F03382"/>
<path d="M130.204 55.4487H131.346C137.338 55.4487 142.272 60.3825 142.272 66.3747V67.5168C142.272 67.8322 142.528 68.0879 142.843 68.0879H143.985C144.301 68.0879 144.556 67.8322 144.556 67.5168V66.3747C144.556 59.1209 138.6 53.1645 131.346 53.1645H130.204C129.888 53.1645 129.633 53.4201 129.633 53.7355V54.8776C129.633 55.1931 129.888 55.4487 130.204 55.4487Z" fill="#F03382"/>
<path d="M131.346 48.5942H130.204C129.888 48.5942 129.633 48.8499 129.633 49.1653V50.3075C129.633 50.623 129.888 50.8787 130.204 50.8787H131.346C139.862 50.8787 146.842 57.8585 146.842 66.3746V67.5168C146.842 67.8323 147.098 68.0879 147.413 68.0879H148.555C148.871 68.0879 149.126 67.8323 149.126 67.5168V66.3746C149.126 56.5968 141.124 48.5942 131.346 48.5942Z" fill="#F03382"/>
<path d="M49.1887 126.957C54.2889 125.628 59.6048 128.747 60.9332 133.848C62.2615 138.948 59.1424 144.264 54.0423 145.592C48.9421 146.92 43.6262 143.801 42.2979 138.701C40.9695 133.601 44.0886 128.285 49.1887 126.957Z" fill="#AFBCD0"/>
<path d="M32.3889 124.721C34.2524 124.236 36.2304 125.396 36.7158 127.26C37.2011 129.123 36.0405 131.101 34.177 131.587C32.3135 132.072 30.3355 130.912 29.8501 129.048C29.3648 127.185 30.5253 125.207 32.3889 124.721Z" fill="#AFBCD0"/>
<rect x="27.3682" y="50.9248" width="95.2713" height="6.08115" rx="3.04057" fill="#2E343F"/>
<circle cx="30.409" cy="53.9654" r="1.01352" fill="white"/>
<circle cx="33.45" cy="53.9654" r="1.01352" fill="white"/>
<circle cx="36.4901" cy="53.9654" r="1.01352" fill="white"/>
<rect x="107.438" y="52.9519" width="13.1758" height="2.02705" rx="1.01352" fill="white"/>
<path d="M46.4618 26.1913C46.8576 25.7955 47.4993 25.7955 47.8951 26.1913L55.7785 34.0747C56.1743 34.4705 56.1743 35.1122 55.7785 35.508C55.3827 35.9038 54.7409 35.9038 54.3451 35.508L46.4618 27.6247C46.066 27.2288 46.066 26.5871 46.4618 26.1913Z" fill="#F03382"/>
<path d="M55.7785 26.1913C56.1743 26.5871 56.1743 27.2288 55.7785 27.6247L47.8951 35.508C47.4993 35.9038 46.8576 35.9038 46.4618 35.508C46.066 35.1122 46.066 34.4705 46.4618 34.0747L54.3451 26.1913C54.7409 25.7955 55.3827 25.7955 55.7785 26.1913Z" fill="#F03382"/>
<g filter="url(#filter0_d)">
<path d="M106.24 100.894V84.6577L117.987 96.4349H111.115L106.24 100.894Z" fill="white"/>
<path d="M107.254 87.1003V98.4417L110.7 95.391H115.524L107.254 87.1003Z" fill="#3C4352"/>
</g>
<path d="M74.824 78.4707C75.2699 78.4707 75.6314 78.1093 75.6314 77.6633C75.6314 77.2174 75.2699 76.856 74.824 76.856C74.3781 76.856 74.0166 77.2174 74.0166 77.6633C74.0166 78.1093 74.3781 78.4707 74.824 78.4707Z" fill="#2E343F"/>
<path d="M74.8241 88.1597C80.6115 88.1597 85.3202 83.451 85.3202 77.6636C85.3202 73.9577 83.3844 70.6477 80.4759 68.7795V77.6636C80.4759 80.7797 77.9402 83.3153 74.8241 83.3153C71.7081 83.3153 69.1724 80.7797 69.1724 77.6636V68.7795C66.2639 70.6477 64.3281 73.9577 64.3281 77.6636C64.3281 83.451 69.0368 88.1597 74.8241 88.1597Z" fill="#2E343F"/>
<path d="M74.824 81.7006C77.0499 81.7006 78.861 79.8895 78.861 77.6636V67.9235C77.6174 67.4032 76.2541 67.1138 74.824 67.1138C73.3939 67.1138 72.0307 67.4032 70.7871 67.9235V77.6636C70.7871 79.8895 72.5982 81.7006 74.824 81.7006ZM74.824 75.2415C76.1597 75.2415 77.2462 76.328 77.2462 77.6636C77.2462 78.9993 76.1597 80.0858 74.824 80.0858C73.4884 80.0858 72.4019 78.9993 72.4019 77.6636C72.4019 76.328 73.4884 75.2415 74.824 75.2415Z" fill="#2E343F"/>
<defs>
<filter id="filter0_d" x="104.213" y="84.6577" width="15.8008" height="20.2908" filterUnits="userSpaceOnUse" color-interpolation-filters="sRGB">
<feFlood flood-opacity="0" result="BackgroundImageFix"/>
<feColorMatrix in="SourceAlpha" type="matrix" values="0 0 0 0 0 0 0 0 0 0 0 0 0 0 0 0 0 0 127 0"/>
<feOffset dy="2.02705"/>
<feGaussianBlur stdDeviation="1.01352"/>
<feColorMatrix type="matrix" values="0 0 0 0 0 0 0 0 0 0 0 0 0 0 0 0 0 0 0.25 0"/>
<feBlend mode="normal" in2="BackgroundImageFix" result="effect1_dropShadow"/>
<feBlend mode="normal" in="SourceGraphic" in2="effect1_dropShadow" result="shape"/>
</filter>
</defs>
</svg>
