<svg width="116" height="137" viewBox="0 0 116 137" fill="none" xmlns="http://www.w3.org/2000/svg">
<path fill-rule="evenodd" clip-rule="evenodd" d="M53.2307 16.1726C71.6734 13.2022 93.226 3.64968 106.493 16.8003C120.308 30.4935 116.953 54.1122 109.724 72.1698C103.69 87.2405 86.7021 91.6361 73.0286 100.386C54.8278 112.034 37.3713 141.69 19.0896 130.171C0.312414 118.338 20.1443 89.0823 19.8706 66.8898C19.7155 54.3107 10.9542 41.5845 17.8674 31.0743C25.2632 19.8306 39.944 18.3126 53.2307 16.1726Z" fill="#F0F4F9"/>
<path d="M13.658 122.694C14.0539 122.298 14.6956 122.298 15.0914 122.694L22.9748 130.577C23.3706 130.973 23.3706 131.615 22.9748 132.011C22.579 132.407 21.9372 132.407 21.5414 132.011L13.658 124.127C13.2622 123.732 13.2622 123.09 13.658 122.694Z" fill="#F03382"/>
<path d="M22.9748 122.694C23.3706 123.09 23.3706 123.732 22.9748 124.127L15.0914 132.011C14.6956 132.407 14.0539 132.407 13.658 132.011C13.2622 131.615 13.2622 130.973 13.658 130.577L21.5414 122.694C21.9372 122.298 22.579 122.298 22.9748 122.694Z" fill="#F03382"/>
<path d="M46 11.5356C32.7133 13.6756 16.2632 15.6937 8.86745 26.9374C1.95418 37.4476 10.7155 50.1738 10.8706 62.7529C11.1443 84.9453 -8.68759 114.201 10.0896 126.034" stroke="#AFBCD0" stroke-width="3" stroke-linecap="round" stroke-dasharray="2 10"/>
<path d="M96.8562 1.79451C103.893 0.831705 110.509 5.85467 111.471 12.8918C112.434 19.9288 107.411 26.5441 100.374 27.5069C93.3371 28.4697 86.7218 23.4468 85.759 16.4097C84.7962 9.37259 89.8191 2.75731 96.8562 1.79451Z" fill="#F03382"/>
<path d="M73.432 107.6C79.6895 106.744 85.572 111.21 86.4281 117.468C87.2842 123.725 82.8177 129.608 76.5602 130.464C70.3027 131.32 64.4202 126.853 63.5641 120.596C62.708 114.338 67.1745 108.456 73.432 107.6Z" fill="#AFBCD0"/>
<path d="M87.3704 100.471C89.1137 100.233 90.7525 101.477 90.991 103.221C91.2296 104.964 89.9852 106.603 88.2419 106.841C86.4986 107.08 84.8598 105.835 84.6213 104.092C84.3828 102.349 85.6271 100.71 87.3704 100.471Z" fill="#AFBCD0"/>
<path d="M91 55.0356C91 65.9445 85.5058 78.0336 78.6325 87.4843C75.2134 92.1857 71.5168 96.1441 68.1148 98.9045C66.4137 100.285 64.8205 101.338 63.4035 102.037C61.9667 102.747 60.8277 103.036 60 103.036C59.1723 103.036 58.0333 102.747 56.5965 102.037C55.1795 101.338 53.5863 100.285 51.8852 98.9045C48.4832 96.1441 44.7866 92.1857 41.3675 87.4843C34.4942 78.0336 29 65.9445 29 55.0356C29 37.9148 42.8792 24.0356 60 24.0356C77.1208 24.0356 91 37.9148 91 55.0356Z" fill="#AFBCD0" stroke="#AFBCD0" stroke-width="4"/>
<mask id="mask0" mask-type="alpha" maskUnits="userSpaceOnUse" x="27" y="22" width="66" height="84">
<path d="M91 55.0356C91 65.9445 85.5058 78.0336 78.6325 87.4843C75.2134 92.1857 71.5168 96.1441 68.1148 98.9045C66.4137 100.285 64.8205 101.338 63.4035 102.037C61.9667 102.747 60.8277 103.036 60 103.036C59.1723 103.036 58.0333 102.747 56.5965 102.037C55.1795 101.338 53.5863 100.285 51.8852 98.9045C48.4832 96.1441 44.7866 92.1857 41.3675 87.4843C34.4942 78.0336 29 65.9445 29 55.0356C29 37.9148 42.8792 24.0356 60 24.0356C77.1208 24.0356 91 37.9148 91 55.0356Z" fill="#AFBCD0" stroke="#AFBCD0" stroke-width="4"/>
</mask>
<g mask="url(#mask0)">
<path fill-rule="evenodd" clip-rule="evenodd" d="M81.2307 33.1726C99.6734 30.2022 121.226 20.6497 134.493 33.8003C148.308 47.4935 144.953 71.1122 137.724 89.1698C131.69 104.24 114.702 108.636 101.029 117.386C82.8278 129.034 65.3713 158.69 47.0896 147.171C28.3124 135.338 48.1443 106.082 47.8706 83.8898C47.7155 71.3107 38.9542 58.5845 45.8674 48.0743C53.2632 36.8306 67.944 35.3126 81.2307 33.1726Z" fill="#96A4BB"/>
</g>
<circle cx="59.5" cy="56.5356" r="17.5" fill="white"/>
</svg>
