<svg id="Слой_1" xmlns="http://www.w3.org/2000/svg" width="127.73" height="120" viewBox="0 0 127.73 120"><defs><style>.cls-1{fill:#737e93;}.cls-2{fill:#fff;}</style></defs><path class="cls-1" d="M65.22,3c4.79,0,21.26,1.28,29,18.68,2.56,5.73,1.9,16.1,1.37,24.44-.08,1.32-.16,2.6-.22,3.82l0,.53.35.39a6.23,6.23,0,0,0,4.43,1.66h.09a17.19,17.19,0,0,0,6.55-1.8,3.28,3.28,0,0,1,1.32-.24,4.41,4.41,0,0,1,1.66.31l.07,0c1.26.44,2.14,1.27,2.16,2,0,.42-.32,2-4.76,3.7-.43.17-1,.35-1.67.56-2.89.92-7.26,2.3-8.73,5.77-.83,2-.6,4.25.68,6.84.52,1.22,8.77,19.8,27.35,22.85a1,1,0,0,1-.08.3c-.31.74-2.31,3.3-14.76,5.22-2,.3-2.43,2.48-3,5-.19.91-.4,1.83-.68,2.77-.08.29-.1.31-.4.31h-.15a13.88,13.88,0,0,1-2.36-.31,36.16,36.16,0,0,0-7.28-.77,31.91,31.91,0,0,0-5.28.45c-3.81.63-6.91,2.82-10.19,5.14-4.41,3.11-9,6.33-15.92,6.33l-.89,0h-.16l-.52,0c-7,0-11.5-3.22-15.91-6.33-3.28-2.32-6.38-4.51-10.19-5.14a31.91,31.91,0,0,0-5.28-.45,36.31,36.31,0,0,0-7.28.82,14.75,14.75,0,0,1-2.36.35c-.45,0-.46,0-.56-.35-.27-1-.48-1.88-.68-2.79-.55-2.54-1-4.74-3-5C5.52,96.16,3.52,93.6,3.2,92.86a1,1,0,0,1-.07-.3C21.7,89.5,30,70.92,30.48,69.7c1.28-2.59,1.5-4.89.67-6.84-1.47-3.46-5.84-4.85-8.73-5.77-.66-.21-1.23-.39-1.67-.56-3.75-1.48-4.9-3-4.73-3.88s2-2.1,3.59-2.1a2.28,2.28,0,0,1,.89.16,16.81,16.81,0,0,0,7,1.81c3.23,0,4.66-1.5,4.82-1.67l.35-.39,0-.52c-.06-1.23-.15-2.51-.23-3.83-.52-8.33-1.18-18.7,1.38-24.43C41.48,4.35,57.88,3,62.72,3l2.22,0Zm0-3h-.31l-2.2,0a37,37,0,0,0-14.6,3.09,32.61,32.61,0,0,0-9.32,6.17A34.9,34.9,0,0,0,31,20.46c-2.85,6.4-2.18,17.17-1.63,25.83h0c.06.93.12,1.89.17,2.84a5,5,0,0,1-2.09.39A13.88,13.88,0,0,1,21.77,48a5.07,5.07,0,0,0-2.17-.45,7.66,7.66,0,0,0-3.82,1.07,5.27,5.27,0,0,0-2.7,3.46,4.74,4.74,0,0,0,1.81,4.49,15.35,15.35,0,0,0,4.76,2.73c.54.22,1.19.42,1.87.63,2.36.76,5.94,1.89,6.88,4.09.47,1.11.26,2.57-.61,4.34l-.06.15a42.46,42.46,0,0,1-6.43,10,36.55,36.55,0,0,1-7.76,6.87,28.68,28.68,0,0,1-10.9,4.25,3,3,0,0,0-2.5,3.11A4.08,4.08,0,0,0,.44,94h0c.61,1.42,2,2.63,4.32,3.7A49.79,49.79,0,0,0,17.26,101a15.29,15.29,0,0,1,.77,2.75c.2,1,.42,2,.73,3a3.27,3.27,0,0,0,3.43,2.5,17.06,17.06,0,0,0,2.93-.4,32.61,32.61,0,0,1,6.7-.77,29.45,29.45,0,0,1,4.8.41c3.13.52,5.82,2.42,9,4.63,4.57,3.23,9.74,6.88,17.64,6.88l.65,0,.92,0c7.91,0,13.08-3.65,17.64-6.88h0c3.12-2.2,5.82-4.1,8.94-4.62a29.45,29.45,0,0,1,4.8-.41,33.47,33.47,0,0,1,6.7.71,15.37,15.37,0,0,0,2.94.36H106a3.22,3.22,0,0,0,3.28-2.45c.31-1,.52-2,.74-3a14.77,14.77,0,0,1,.76-2.74,49.66,49.66,0,0,0,12.49-3.26c2.29-1.06,3.71-2.27,4.32-3.69a3.85,3.85,0,0,0,.31-1.32,3,3,0,0,0-2.5-3.12c-17.07-2.81-24.77-20.34-25.08-21.08l-.07-.15c-.87-1.77-1.08-3.23-.6-4.35.93-2.19,4.51-3.33,6.87-4.08.69-.21,1.33-.42,1.87-.63a14.31,14.31,0,0,0,5.09-3.05A4.84,4.84,0,0,0,115,52.77c0-2.05-1.61-3.87-4.1-4.76a7.36,7.36,0,0,0-2.78-.53,6.32,6.32,0,0,0-2.59.52,14.38,14.38,0,0,1-5.32,1.52,4.73,4.73,0,0,1-1.76-.39c0-.79.1-1.62.15-2.47l0-.37c.55-8.66,1.23-19.44-1.63-25.84A34.8,34.8,0,0,0,89.17,9.24a32.55,32.55,0,0,0-9.35-6.17A37.18,37.18,0,0,0,65.22,0Z"/><path class="cls-2" d="M64.78,118.51c-.35,0-.69,0-1,0s-.41,0-.62,0c-7.43,0-12.39-3.51-16.78-6.61-3.14-2.22-6.1-4.31-9.57-4.89a31.16,31.16,0,0,0-5-.42,33.9,33.9,0,0,0-7,.79,16.1,16.1,0,0,1-2.65.38,1.84,1.84,0,0,1-2-1.43c-.29-1-.5-2-.7-2.89-.51-2.33-.88-3.74-1.75-3.88C8.42,98.12,2.92,96,1.82,93.45a2.39,2.39,0,0,1-.19-.81,1.51,1.51,0,0,1,1.25-1.56c7.4-1.22,14-5.12,19.55-11.61A44,44,0,0,0,29.1,69.11l0-.07c1.08-2.18,1.29-4.07.64-5.6-1.2-2.83-5.17-4.09-7.8-4.92-.66-.21-1.28-.4-1.77-.6C17.87,57,14,55.06,14.55,52.37c.37-1.95,3-3.32,5.05-3.32a3.48,3.48,0,0,1,1.53.31A15.28,15.28,0,0,0,27.45,51a5.29,5.29,0,0,0,3.65-1.12c-.07-1.21-.15-2.49-.23-3.7v0c-.53-8.49-1.2-19.06,1.51-25.12C40.47,2.93,57.64,1.52,62.71,1.52l2.21,0h.3c5.09,0,22.29,1.42,30.39,19.57,2.71,6.06,2,16.64,1.51,25.14l0,.41c-.07,1.15-.14,2.24-.2,3.3A5.14,5.14,0,0,0,100.2,51a15.92,15.92,0,0,0,6-1.66,4.76,4.76,0,0,1,2-.39,5.82,5.82,0,0,1,2.22.43h0c1.88.67,3.1,2,3.13,3.39s-.94,3.24-5.7,5.12c-.49.19-1.11.39-1.77.6-2.63.83-6.6,2.09-7.8,4.92-.65,1.53-.44,3.42.64,5.59l0,.08c.33.77,8.34,19,26.22,22a1.5,1.5,0,0,1,1.25,1.56,2.35,2.35,0,0,1-.2.81c-1.09,2.55-6.59,4.66-15.91,6.1-.87.14-1.24,1.55-1.74,3.86-.21,1-.42,1.89-.71,2.87a1.75,1.75,0,0,1-1.85,1.38h-.14a14.79,14.79,0,0,1-2.65-.33,34.42,34.42,0,0,0-7-.74,31.25,31.25,0,0,0-5,.42c-3.47.58-6.43,2.67-9.56,4.88C77.17,115,72.21,118.51,64.78,118.51Z"/></svg>
