<svg width="135" height="128" viewBox="0 0 135 128" fill="none" xmlns="http://www.w3.org/2000/svg">
<path d="M18.5 0C24.8432 0 30 5.15684 30 11.5C30 17.8432 24.8432 23 18.5 23C12.1568 23 7 17.8432 7 11.5C7 5.15684 12.1568 0 18.5 0Z" fill="white"/>
<path d="M3.5 23C5.43053 23 7 24.5695 7 26.5C7 28.4305 5.43053 30 3.5 30C1.56947 30 0 28.4305 0 26.5C0 24.5695 1.56947 23 3.5 23Z" fill="white"/>
<path d="M102.5 7L9 111.5" stroke="#3C4352" stroke-width="2"/>
<path d="M12 78.2928V49.4899C12 26.9619 35.904 12.4717 55.877 22.8924L83.4797 37.2938C104.977 48.5098 104.977 79.2729 83.4797 90.4889L55.877 104.89C35.904 115.311 12 100.821 12 78.2928Z" fill="#343A44"/>
<path d="M24 60.9528V11.2646C24 7.50252 27.9919 5.08271 31.3273 6.82292L78.9451 31.667C82.5351 33.54 82.5351 38.6773 78.9451 40.5504L31.3273 65.3945C27.9919 67.1347 24 64.7149 24 60.9528Z" fill="#AFBCD0"/>
<mask id="mask0" mask-type="alpha" maskUnits="userSpaceOnUse" x="24" y="6" width="58" height="60">
<path d="M24 60.9528V11.2646C24 7.50252 27.9919 5.08271 31.3273 6.82292L78.9451 31.667C82.5351 33.54 82.5351 38.6773 78.9451 40.5504L31.3273 65.3945C27.9919 67.1347 24 64.7149 24 60.9528Z" fill="#AFBCD0"/>
</mask>
<g mask="url(#mask0)">
<path d="M69 24C89.4084 24 106 40.5916 106 61C106 81.4084 89.4084 98 69 98C48.5916 98 32 81.4084 32 61C32 40.5916 48.5916 24 69 24Z" fill="#9EAABE"/>
</g>
<rect x="24" y="82" width="57" height="4" rx="2" fill="#F03382"/>
<rect x="24" y="90" width="27" height="4" rx="2" fill="#F03382"/>
<rect x="24" y="98" width="37" height="4" rx="2" fill="#F03382"/>
<rect x="54" y="90" width="8" height="4" rx="2" fill="#F03382"/>
<rect x="65" y="90" width="16" height="4" rx="2" fill="#F03382"/>
<g opacity="0.3">
<rect x="90.9" y="53.9" width="16.2" height="16.2" rx="1.8" stroke="#AFBCD0" stroke-width="1.8"/>
<path d="M90.9001 67.8501L94.5008 64.9696C95.0491 64.531 95.8023 64.4512 96.4303 64.7652L97.7805 65.4403C98.5018 65.8009 99.3749 65.6378 99.9174 65.0411L102.153 62.5817C102.873 61.7902 104.12 61.7972 104.83 62.5967L107.1 65.1501" stroke="#AFBCD0" stroke-width="1.8"/>
<circle cx="95.85" cy="58.85" r="1.89" stroke="#AFBCD0" stroke-width="1.08"/>
</g>
</svg>
