<svg width="91" height="63" viewBox="0 0 91 63" fill="none" xmlns="http://www.w3.org/2000/svg">
<path fill-rule="evenodd" clip-rule="evenodd" d="M43.2617 38.3524C53.8524 38.3524 62.4379 29.7669 62.4379 19.1762C62.4379 8.58548 53.8524 0 43.2617 0C32.671 0 24.0855 8.58548 24.0855 19.1762C24.0855 29.7669 32.671 38.3524 43.2617 38.3524ZM28.9728 21.6618C30.1516 28.4863 36.1005 33.6773 43.2617 33.6773C49.3215 33.6773 54.5132 29.9603 56.6811 24.6819C55.2062 23.2367 51.1953 19.3846 50.3486 19.3846C49.6943 19.3846 47.7849 21.3243 45.9934 23.1443C44.3605 24.8031 42.8255 26.3625 42.428 26.2631C41.7805 26.1012 42.0664 23.3175 42.323 20.8187C42.5198 18.903 42.6993 17.1548 42.428 16.8834C41.9628 16.4182 39.2269 19.197 36.754 21.7087C34.7945 23.6989 33 25.5215 32.6314 25.4293C32.1563 25.3105 32.5612 23.2285 32.9202 21.3824C33.1912 19.9891 33.436 18.7302 33.2567 18.5509C32.9437 18.2379 30.2805 20.5101 28.9728 21.6618ZM28.7813 18.3948C28.8929 18.302 28.9968 18.2138 29.088 18.134C29.2183 18.02 29.3753 17.8818 29.5544 17.7242C31.6671 15.8649 36.849 11.3045 37.4255 11.8809C37.7697 12.2252 37.6718 13.8959 37.5837 15.398C37.5118 16.6243 37.4465 17.7382 37.6339 17.9256C37.7898 18.0814 38.8196 17.037 40.1245 15.7137C42.3098 13.4974 45.2663 10.499 46.1798 11.0472C46.8156 11.4286 46.6757 13.9042 46.5645 15.8717C46.4935 17.1296 46.4341 18.1799 46.5967 18.3425C46.7766 18.5224 47.3836 17.9258 48.1327 17.1896C49.1195 16.2198 50.353 15.0075 51.1823 15.0075C52.6414 15.0075 57.4354 20.6353 57.4354 20.6353L57.6689 20.8354C57.7309 20.2909 57.7628 19.7373 57.7628 19.1762C57.7628 11.1675 51.2704 4.67511 43.2617 4.67511C35.5151 4.67511 29.1873 10.7494 28.7813 18.3948Z" fill="#22639E"/>
<path d="M61.1037 61.7857C60.4534 61.7857 59.8994 61.7857 59.2008 61.7857C59.2008 59.9792 59.2249 58.2449 59.2008 56.4865C59.2008 55.8843 59.1767 55.2821 59.0322 54.704C58.7191 53.3069 58.0446 52.777 56.7921 52.8252C55.5877 52.8733 54.6242 53.7646 54.576 55.0653C54.4797 56.8237 54.5278 58.5821 54.5037 60.3646C54.5037 60.7981 54.5037 61.2317 54.5037 61.7376C53.8052 61.7376 53.2271 61.7376 52.5045 61.7376C52.5045 60.0033 52.5045 58.293 52.5045 56.5828C52.5045 56.1733 52.5045 55.7879 52.4804 55.3784C52.4081 53.7164 51.7096 52.8252 50.4089 52.8252C49.0359 52.8011 47.9037 53.9573 47.8556 55.4748C47.8074 57.3295 47.8556 59.1602 47.8315 61.0149C47.8315 61.2558 47.8074 61.4726 47.7833 61.7857C47.1811 61.7857 46.6271 61.7857 45.9286 61.7857C45.9286 58.4135 45.9286 55.0171 45.9286 51.5244C46.3381 51.5244 46.868 51.5244 47.4943 51.5244C47.5424 51.9098 47.5906 52.3193 47.687 52.9215C48.7709 51.5485 50.0957 50.8982 51.6373 51.2836C52.5286 51.5244 53.2753 52.2471 54.1665 52.8252C54.6483 52.4879 55.3227 51.8135 56.1176 51.4763C58.4782 50.4646 60.887 52.0062 61.0556 54.704C61.2242 56.9923 61.1037 59.3288 61.1037 61.7857Z" fill="black"/>
<path d="M32.8008 56.9682C30.3921 56.9682 27.9592 56.9682 25.5505 56.9682C25.43 60.0273 27.5738 61.0631 31.8614 60.1478C32.5359 61.3281 32.4877 61.569 31.187 61.7857C30.0549 61.9784 28.8746 62.0989 27.7424 62.0025C24.7797 61.7376 22.949 58.7748 23.6235 55.4507C24.2497 52.3193 26.9716 50.5368 29.8381 51.3558C32.0782 51.958 33.2585 54.1259 32.8008 56.9682ZM30.9461 55.4748C30.9461 53.7887 30.103 52.7288 28.7059 52.6084C26.9716 52.4638 25.8395 53.4996 25.5746 55.523C27.1403 55.523 28.7059 55.523 30.2476 55.523C30.4884 55.5471 30.7052 55.4989 30.9461 55.4748Z" fill="black"/>
<path d="M83.0957 56.92C83.168 60.0514 84.9023 60.8704 89.6475 60.1237C89.7439 60.5332 89.8402 60.9186 89.9366 61.4003C87.9614 62.1711 86.0344 62.3638 84.1315 61.6653C81.6023 60.75 80.4942 57.8113 81.3855 54.7763C82.1563 52.1748 84.5169 50.7055 87.1183 51.2113C89.4307 51.6449 90.7315 53.8128 90.4183 56.896C88.0096 56.92 85.6008 56.92 83.0957 56.92ZM88.5395 55.4989C88.5395 53.7646 87.6964 52.7288 86.2753 52.6325C84.541 52.512 83.4088 53.5478 83.1921 55.4989C84.9504 55.4989 86.7329 55.4989 88.5395 55.4989Z" fill="black"/>
<path d="M71.7264 61.7857C71.2687 61.7857 70.7629 61.7857 70.1607 61.7857C70.0884 61.4726 70.0402 61.1354 69.9439 60.7741C69.7994 60.8463 69.703 60.8945 69.5826 60.9427C68.595 61.3281 67.6315 61.9062 66.6439 62.0025C65.0541 62.1711 63.9461 61.304 63.5366 59.931C63.103 58.5339 63.5848 57.0405 64.9096 56.2938C65.8008 55.7879 66.8366 55.5711 67.8242 55.3062C68.4264 55.1376 69.0767 55.1617 69.703 55.1135C69.7271 52.6084 68.041 52.0303 64.5964 53.331C64.4519 52.9215 64.3315 52.5361 64.187 52.1025C65.7526 51.1631 67.3665 50.9704 69.0045 51.3076C70.7388 51.669 71.7264 52.9938 71.7505 54.9208C71.7505 57.1609 71.7264 59.4011 71.7264 61.7857ZM69.5585 56.4142C68.6432 56.6069 67.6796 56.6792 66.7884 56.9923C65.584 57.4018 65.1023 58.5098 65.5118 59.5938C65.8249 60.4609 66.957 60.8463 68.065 60.485C69.6307 59.9551 70.2088 58.4857 69.5585 56.4142Z" fill="black"/>
<path d="M40.8702 55.0894C40.557 52.4879 39.0395 52.0062 35.6673 53.331C35.5227 52.9215 35.4023 52.5361 35.2578 52.1025C36.8475 51.1631 38.4855 50.9463 40.1716 51.3558C41.8819 51.7653 42.7972 53.066 42.8213 55.0171C42.8454 57.2091 42.8213 59.4252 42.8213 61.7376C42.4359 61.7376 41.9059 61.7376 41.2556 61.7376C41.2074 61.4967 41.1351 61.1595 41.0388 60.7981C40.8943 60.8704 40.7979 60.8945 40.6775 60.9427C39.6899 61.304 38.7505 61.9062 37.7388 62.0025C36.149 62.1711 35.0651 61.3281 34.6315 59.9551C34.1979 58.558 34.6556 57.0646 35.9804 56.3179C36.8475 55.812 37.9074 55.5711 38.895 55.3062C39.4731 55.1617 40.1475 55.1617 40.8702 55.0894ZM40.7257 56.3901C39.6658 56.631 38.5578 56.7755 37.5461 57.1609C36.5585 57.5463 36.2213 58.6544 36.5826 59.5938C36.968 60.5332 37.787 60.7018 38.6782 60.5814C40.4366 60.3646 41.1592 58.9675 40.7257 56.3901Z" fill="black"/>
<path d="M7.21983 51.8617C7.0753 52.2952 6.93078 52.7047 6.81034 53.0901C5.99136 52.9215 5.24465 52.5843 4.54611 52.6806C3.94392 52.777 3.1972 53.2587 2.95633 53.7887C2.8118 54.1018 3.43808 54.9208 3.89574 55.3062C4.40158 55.7157 5.12421 55.8602 5.7264 56.1733C7.14757 56.896 7.74976 57.8836 7.62932 59.2084C7.50888 60.5332 6.59355 61.6171 5.10012 61.9062C3.60669 62.2193 2.08918 62.1952 0.643921 61.304C0.788446 60.8463 0.908884 60.4368 1.02932 60.0273C1.96874 60.22 2.83589 60.485 3.70304 60.5573C4.61837 60.6536 5.41326 60.3164 5.63005 59.3288C5.84684 58.3653 5.17239 57.8595 4.40158 57.4982C3.82348 57.2332 3.22129 57.0164 2.64319 56.7273C1.34246 56.0288 0.764359 55.0894 0.932972 53.885C1.12567 52.5602 1.96874 51.7412 3.22129 51.404C4.59428 51.0186 5.9191 51.0909 7.21983 51.8617Z" fill="black"/>
<path d="M77.2183 52.8252C77.2183 55.0171 77.1461 57.0887 77.2424 59.1602C77.2906 60.6777 78.5431 60.3405 79.5067 60.3887C79.9402 61.858 79.8439 62.0025 78.3986 62.0507C76.2548 62.123 75.2913 61.2317 75.1709 58.9675C75.0986 57.4018 75.1468 55.8361 75.1468 54.2945C75.1468 53.8609 75.1468 53.4274 75.1468 52.9456C74.5687 52.8974 74.111 52.8733 73.5811 52.8492C73.5811 52.3675 73.5811 51.958 73.5811 51.5003C74.0629 51.4522 74.4964 51.4281 75.0986 51.3799C75.0023 50.0792 75.2191 48.923 77.0738 49.0916C77.122 49.7901 77.1702 50.5368 77.2183 51.3799C78.0855 51.3799 78.9045 51.3799 79.868 51.3799C79.8921 51.9098 79.9161 52.3193 79.9402 52.8733C79.0008 52.8252 78.1337 52.8252 77.2183 52.8252Z" fill="black"/>
<path d="M14.9279 60.4127C15.2169 61.9303 15.1687 61.9784 13.7476 62.0507C11.6038 62.123 10.5921 61.2558 10.5439 59.112C10.4957 57.0646 10.5439 55.0412 10.5439 52.9456C9.94173 52.8974 9.48406 52.8733 8.93005 52.8252C8.93005 52.3675 8.93005 51.958 8.93005 51.4522C9.4118 51.4281 9.86946 51.3799 10.3271 51.3558C10.8811 49.1638 10.8811 49.1638 12.4227 49.0434C12.4468 49.7901 12.495 50.5368 12.5191 51.404C13.4103 51.404 14.2534 51.404 15.1446 51.404C15.1687 51.9098 15.1928 52.2952 15.2169 52.8252C14.3016 52.8252 13.4585 52.8252 12.495 52.8252C12.495 55.0171 12.4468 57.0405 12.5191 59.0879C12.5432 60.22 12.9768 60.3887 14.9279 60.4127Z" fill="black"/>
<path d="M22.5636 51.2836C22.5636 51.8617 22.5636 52.3916 22.5636 52.9456C19.9862 53.3792 19.3841 54.0536 19.3359 56.6551C19.3118 58.3171 19.3359 60.0033 19.3359 61.7617C18.6373 61.7617 18.0592 61.7617 17.3848 61.7617C17.3848 58.3412 17.3848 54.9208 17.3848 51.4522C17.8906 51.4522 18.3483 51.4522 18.9023 51.4522C18.9505 51.9098 19.0227 52.3675 19.095 52.9938C20.0585 51.9098 20.9738 50.9222 22.5636 51.2836Z" fill="black"/>
</svg>
