<svg width="147" height="116" viewBox="0 0 147 116" fill="none" xmlns="http://www.w3.org/2000/svg">
<path d="M34.3767 79.0135C34.3767 90.1368 30.669 98.9427 23.2534 105.431C15.3744 112.383 5.40984 115.859 -6.6404 115.859C-21.4714 115.859 -33.2899 111.456 -42.0959 102.65C-51.3653 93.8445 -56 80.8673 -56 63.7189C-56 47.4975 -53.4509 33.5934 -48.3527 22.0066C-43.2545 10.4199 -36.9977 0.686996 -29.5822 -7.19201C-22.6301 -15.071 -15.2146 -21.3278 -7.33559 -25.9626C0.543409 -30.1338 7.26373 -33.1463 12.8254 -35.0002L32.2911 -6.49678C21.1678 -1.39859 12.1302 5.08998 5.17811 12.969C-2.2374 21.3114 -5.71343 31.5078 -5.24998 43.558C6.80025 41.2407 16.5331 43.558 23.9487 50.51C30.9007 57.4621 34.3767 66.9633 34.3767 79.0135ZM147 79.0135C147 90.1368 143.292 98.9427 135.877 105.431C127.998 112.383 118.033 115.859 105.983 115.859C91.1518 115.859 79.3333 111.456 70.5274 102.65C61.258 93.8445 56.6233 80.8674 56.6233 63.719C56.6233 47.4975 59.1724 33.5934 64.2706 22.0066C69.3687 10.4199 75.6256 0.687005 83.0411 -7.192C89.9932 -15.071 97.4087 -21.3278 105.288 -25.9625C113.167 -30.1338 119.887 -33.1463 125.449 -35.0002L144.914 -6.49677C133.791 -1.39858 124.753 5.08999 117.801 12.969C110.386 21.3114 106.91 31.5078 107.373 43.558C119.424 41.2407 129.156 43.558 136.572 50.5101C143.524 57.4621 147 66.9633 147 79.0135Z" fill="#F8F9FA"/>
</svg>
