<svg width="100" height="101" viewBox="0 0 100 101" fill="none" xmlns="http://www.w3.org/2000/svg">
<path d="M50.0163 0.54541C29.1418 0.54541 23.0368 0.566945 21.8501 0.665392C17.5663 1.02149 14.9006 1.696 11.9965 3.14193C9.75851 4.2533 7.99345 5.54157 6.25147 7.34744C3.07899 10.6408 1.15628 14.6925 0.460255 19.5087C0.121857 21.8468 0.0234144 22.3236 0.00341816 34.2664C-0.0042727 38.2473 0.00341816 43.4865 0.00341816 50.5139C0.00341816 71.3722 0.0264908 77.4713 0.126472 78.6557C0.472561 82.8243 1.12628 85.447 2.51064 88.3158C5.1563 93.8073 10.2092 97.9297 16.1619 99.4679C18.2231 99.9986 20.4996 100.291 23.4221 100.429C24.6603 100.483 37.281 100.522 49.9094 100.522C62.5378 100.522 75.1662 100.506 76.3737 100.445C79.7577 100.285 81.7227 100.022 83.8953 99.4602C89.8865 97.9143 94.8471 93.8534 97.5466 88.285C98.9041 85.4855 99.5924 82.7628 99.9039 78.8119C99.9715 77.9505 100 64.2164 100 50.5008C100 36.7829 99.9692 23.0743 99.9016 22.2129C99.5862 18.1981 98.8979 15.4985 97.4966 12.6451C96.3468 10.3093 95.0702 8.56495 93.2167 6.78138C89.9088 3.62186 85.8634 1.69908 81.0428 1.0038C78.7071 0.666161 78.2418 0.566176 66.2902 0.54541H50.0163Z" fill="url(#paint0_linear)"/>
<path d="M61.2865 21.8969H39.3626L19.4443 71.4158L35.9737 68.4419L33.4839 81.0291L50.29 68.926L67.3726 81.0291L64.6754 68.4419L81.4814 71.4158L61.2865 21.8969Z" fill="#FFCD00"/>
<path d="M50.4277 38.1496L54.8375 51.7216H69.108L57.563 60.1096L61.9728 73.6816L50.4277 65.2936L38.8827 73.6816L43.2925 60.1096L31.7475 51.7216H46.0179L50.4277 38.1496Z" fill="#8C3798"/>
<defs>
<linearGradient id="paint0_linear" x1="26.5626" y1="207.306" x2="26.5626" y2="9.13807" gradientUnits="userSpaceOnUse">
<stop stop-color="#782185"/>
<stop offset="1" stop-color="#913D9C"/>
</linearGradient>
</defs>
</svg>
