<svg width="50" height="50" viewBox="0 0 50 50" fill="none" xmlns="http://www.w3.org/2000/svg">
<path d="M0 37.2825V37.2848C0.0299476 38.3947 0.0391849 39.511 0.226552 40.6142C0.425101 41.7812 0.708923 42.9192 1.25041 43.9784C1.98247 45.4121 2.98786 46.6227 4.25694 47.6117C5.16811 48.3218 6.16348 48.8855 7.26531 49.2411C8.87199 49.759 10.5295 49.9574 12.2112 49.9672C13.2605 49.9738 14.309 50 15.3587 49.9956C22.9812 49.9636 30.604 50.0506 38.2267 49.9486C39.2382 49.9349 40.2332 49.8116 41.2259 49.6302C43.1287 49.2822 44.8103 48.471 46.2491 47.1884C47.9258 45.694 49.0571 43.8651 49.5678 41.6578C49.902 40.215 49.9856 38.7513 49.9999 37.2823V36.9893C49.9999 36.8756 49.9566 12.0305 49.9526 11.7021C49.9415 10.8 49.875 9.90467 49.7057 9.01705C49.4998 7.9354 49.209 6.88144 48.6907 5.90287C48.1433 4.86902 47.4578 3.93942 46.6098 3.1271C45.3109 1.88251 43.8119 1.00237 42.0669 0.536793C40.4908 0.116394 38.8828 0.0233178 37.2631 0.0247751C37.2605 0.0243865 37.2544 0.00796687 37.254 0H12.7381C12.7377 0.0083555 12.7374 0.0167111 12.7368 0.0247751C11.8175 0.0415833 10.897 0.0346849 9.98238 0.14797C8.9805 0.272428 7.98824 0.459844 7.03993 0.809804C5.54624 1.36185 4.24848 2.22169 3.13993 3.3696C1.88398 4.67014 0.998676 6.17423 0.528945 7.92568C0.109873 9.48835 0.0186693 11.0821 0.0164329 12.6872" fill="#FFFC00"/>
<path d="M25.227 42.1857C25.1232 42.1857 25.0241 42.1819 24.9487 42.1783C24.8889 42.1835 24.8272 42.1857 24.7654 42.1857C22.5838 42.1857 21.1251 41.1552 19.8378 40.2452C18.9152 39.5939 18.045 38.9791 17.0256 38.8097C16.525 38.7267 16.027 38.6846 15.5458 38.6846C14.6787 38.6846 13.9935 38.819 13.4933 38.9167C13.1854 38.9767 12.92 39.0283 12.7148 39.0283C12.5 39.0283 12.2389 38.9807 12.1301 38.6094C12.0438 38.3166 11.982 38.0329 11.9223 37.7597C11.7729 37.077 11.6646 36.6603 11.4088 36.6207C8.67259 36.1989 7.05591 35.5775 6.73387 34.8249C6.70013 34.7458 6.68127 34.6662 6.67709 34.5875C6.66454 34.3632 6.82303 34.1665 7.04433 34.1298C9.21729 33.7723 11.1494 32.6247 12.7873 30.7178C14.0561 29.2415 14.6791 27.8309 14.746 27.6752C14.7489 27.6682 14.7523 27.6608 14.7558 27.6541C15.0716 27.014 15.1344 26.4609 14.9431 26.0106C14.5906 25.1798 13.4229 24.8097 12.6504 24.5647C12.4582 24.504 12.2765 24.4465 12.1317 24.3891C11.4469 24.1188 10.3207 23.5477 10.4707 22.7594C10.58 22.1847 11.3408 21.7844 11.9557 21.7844C12.1265 21.7844 12.2778 21.8143 12.4052 21.8741C13.1 22.1993 13.7251 22.3642 14.2627 22.3642C14.9313 22.3642 15.2542 22.1099 15.3322 22.0376C15.313 21.6812 15.2895 21.3044 15.2667 20.948C15.2667 20.9477 15.2662 20.9434 15.2662 20.9434C15.1093 18.4489 14.9136 15.3445 15.7082 13.5643C18.0867 8.23554 23.1309 7.82117 24.6197 7.82117C24.6594 7.82117 25.2686 7.81514 25.2686 7.81514C25.2962 7.81466 25.326 7.81427 25.3569 7.81427C26.8498 7.81427 31.9045 8.22913 34.2844 13.5611C35.0791 15.3425 34.8832 18.4495 34.7258 20.9466L34.7184 21.0661C34.6968 21.4052 34.6769 21.7261 34.66 22.0372C34.7335 22.1048 35.029 22.338 35.6302 22.3616C36.1427 22.342 36.7317 22.1779 37.3802 21.8744C37.5807 21.7804 37.8027 21.7609 37.9534 21.7609C38.1812 21.7609 38.413 21.8052 38.6062 21.8857L38.6165 21.8897C39.1669 22.0849 39.5273 22.475 39.5351 22.8848C39.542 23.2668 39.2579 23.8378 37.8605 24.3893C37.7173 24.4459 37.5347 24.5038 37.3418 24.5649C36.5686 24.8101 35.4019 25.1801 35.0494 26.0104C34.8578 26.4607 34.9208 27.0137 35.2366 27.6535C35.2401 27.6605 35.2431 27.6676 35.2465 27.675C35.3438 27.9027 37.6973 33.2649 42.9482 34.1293C43.1694 34.1662 43.3282 34.3631 43.3156 34.587C43.3109 34.6675 43.2915 34.7479 43.2574 34.8265C42.9376 35.5749 41.3211 36.1955 38.5841 36.6179C38.3272 36.6576 38.2189 37.0724 38.071 37.7515C38.0097 38.032 37.9474 38.307 37.8623 38.5959C37.7827 38.8677 37.6055 39.0005 37.321 39.0005H37.2781C37.0929 39.0005 36.8305 38.9669 36.4995 38.9022C35.921 38.7897 35.2721 38.6849 34.447 38.6849C33.9659 38.6849 33.468 38.7271 32.9667 38.81C31.9484 38.9794 31.0784 39.5933 30.1574 40.2438C28.8676 41.1551 27.4084 42.1857 25.227 42.1857Z" fill="white"/>
<path d="M25.3565 8.25338C26.762 8.25338 31.6018 8.63064 33.8826 13.74C34.6336 15.4225 34.4411 18.4702 34.2867 20.9185C34.2626 21.307 34.2387 21.6836 34.2192 22.0432L34.2111 22.1977L34.3143 22.3129C34.356 22.3591 34.7464 22.7668 35.6147 22.8003L35.6287 22.8011L35.6433 22.8008C36.2174 22.7789 36.864 22.6007 37.5662 22.2721C37.6696 22.2237 37.8073 22.2001 37.953 22.2001C38.1189 22.2001 38.2953 22.2313 38.4408 22.2925L38.4628 22.3012C38.831 22.4301 39.0913 22.6732 39.0953 22.8932C39.0974 23.0176 39.0044 23.4655 37.6991 23.9808C37.5715 24.0311 37.4036 24.0846 37.209 24.1459C36.3595 24.4154 35.0763 24.8221 34.6443 25.8391C34.4012 26.4119 34.4678 27.0879 34.8421 27.8481C34.9961 28.2073 37.4207 33.6644 42.8765 34.5627C42.8755 34.5886 42.8689 34.6168 42.8543 34.6502C42.7618 34.8678 42.174 35.6197 38.5165 36.1836C37.9442 36.2712 37.804 36.9123 37.6414 37.6575C37.5827 37.9243 37.523 38.1936 37.4409 38.4717C37.4159 38.5558 37.4112 38.5605 37.3211 38.5605C37.3086 38.5605 37.294 38.5605 37.2781 38.5605C37.1159 38.5605 36.8697 38.5269 36.5843 38.471C36.0646 38.3698 35.3546 38.2457 34.447 38.2457C33.9404 38.2457 33.4185 38.2898 32.8949 38.3771C31.7757 38.5631 30.8655 39.2063 29.9015 39.8872C28.607 40.8013 27.269 41.7471 25.2275 41.7471C25.1383 41.7471 25.0513 41.7441 24.9641 41.7397L24.9411 41.7387L24.9181 41.7405C24.868 41.7449 24.8175 41.7471 24.766 41.7471C22.7248 41.7471 21.3862 40.8016 20.0922 39.8872C19.1281 39.2063 18.2174 38.5631 17.0983 38.3771C16.5752 38.29 16.0529 38.2457 15.5466 38.2457C14.6391 38.2457 13.9283 38.3845 13.4096 38.4858C13.1242 38.5416 12.8772 38.5894 12.7155 38.5894C12.5831 38.5894 12.5805 38.5816 12.5525 38.486C12.4705 38.2077 12.4105 37.9319 12.352 37.6655C12.1891 36.9196 12.0488 36.275 11.4767 36.1873C7.81953 35.6229 7.23166 34.8697 7.1389 34.6527C7.12442 34.6185 7.1179 34.5893 7.11644 34.5635C12.5722 33.666 14.9963 28.2086 15.1508 27.8481C15.5258 27.0885 15.5923 26.4126 15.3483 25.8391C14.9164 24.8227 13.6334 24.4154 12.7845 24.1464C12.5894 24.0847 12.4214 24.0311 12.2937 23.9808C11.1915 23.5456 10.8524 23.1072 10.9028 22.8416C10.9612 22.5353 11.4927 22.2238 11.9565 22.2238C12.0607 22.2238 12.1521 22.2406 12.2197 22.2722C12.973 22.6249 13.6606 22.8038 14.2637 22.8038C15.2118 22.8038 15.6338 22.363 15.6791 22.3127L15.7819 22.1978L15.7736 22.044C15.7545 21.6847 15.7309 21.3082 15.706 20.9204C15.552 18.4716 15.3595 15.4259 16.1103 13.7433C18.3826 8.65269 23.1988 8.26028 24.6205 8.26028C24.6555 8.26028 25.2737 8.25396 25.2737 8.25396C25.2989 8.25377 25.327 8.25338 25.3565 8.25338ZM25.3565 7.37527H25.3548C25.3225 7.37527 25.292 7.37527 25.2631 7.37566C25.032 7.37799 24.6522 7.38169 24.6181 7.38208C23.7852 7.38208 22.1187 7.49964 20.3287 8.28913C19.3052 8.74023 18.3846 9.35019 17.5926 10.1021C16.6482 10.998 15.8789 12.1025 15.3064 13.3856C14.468 15.2642 14.667 18.4285 14.8269 20.9714L14.8275 20.9754C14.8446 21.2477 14.8626 21.5321 14.879 21.8092C14.756 21.8657 14.5566 21.9252 14.2626 21.9252C13.7897 21.9252 13.2273 21.7741 12.5915 21.4764C12.4044 21.3894 12.1909 21.3454 11.9553 21.3454C11.5768 21.3454 11.1777 21.4567 10.8316 21.6601C10.3961 21.9156 10.1147 22.2767 10.0383 22.6771C9.98792 22.942 9.99035 23.4654 10.5723 23.9963C10.8924 24.2886 11.3626 24.5581 11.9695 24.7978C12.1288 24.8604 12.3178 24.9203 12.518 24.9837C13.2127 25.2044 14.2642 25.5377 14.5384 26.1825C14.6773 26.5095 14.6175 26.9397 14.3611 27.4597C14.3544 27.4739 14.3477 27.4877 14.3416 27.5023C14.2775 27.6518 13.6797 29.0049 12.4535 30.4318C11.7568 31.2433 10.9893 31.9214 10.1737 32.448C9.17826 33.0909 8.10112 33.5112 6.97254 33.697C6.52935 33.7696 6.21286 34.1642 6.23756 34.6126C6.24514 34.7418 6.27548 34.8706 6.32808 34.9953C6.32847 34.996 6.32896 34.9968 6.32934 34.9975C6.50854 35.4163 6.92402 35.7721 7.59949 36.0859C8.4249 36.469 9.65937 36.7913 11.2683 37.0434C11.3496 37.1979 11.434 37.5861 11.4924 37.852C11.5536 38.1345 11.6173 38.425 11.7082 38.7336C11.8064 39.0679 12.0608 39.4674 12.7145 39.4674C12.9623 39.4674 13.2471 39.4116 13.5771 39.3477C14.0602 39.253 14.7209 39.1238 15.5455 39.1238C16.0027 39.1238 16.4765 39.164 16.9535 39.2432C17.8728 39.3961 18.6653 39.9555 19.5823 40.6034C20.9245 41.5514 22.4438 42.6245 24.765 42.6245C24.8283 42.6245 24.8918 42.6225 24.9545 42.6181C25.0312 42.6217 25.1263 42.6245 25.2267 42.6245C27.5486 42.6245 29.0675 41.551 30.4082 40.6037L30.4104 40.6018C31.3275 39.9547 32.1192 39.3961 33.0383 39.2432C33.515 39.1641 33.9887 39.1238 34.4461 39.1238C35.2339 39.1238 35.8576 39.2241 36.4146 39.3326C36.778 39.4041 37.0605 39.4385 37.2772 39.4385L37.2984 39.4389H37.3204C37.7985 39.4389 38.1498 39.1767 38.2839 38.7178C38.3729 38.4158 38.4365 38.1321 38.4992 37.8448C38.5539 37.5957 38.6412 37.1964 38.7225 37.0402C40.3324 36.7876 41.5664 36.466 42.3919 36.083C43.0658 35.7707 43.4808 35.4153 43.6611 34.9982C43.7152 34.8731 43.7468 34.7435 43.7539 34.6116C43.7792 34.164 43.4623 33.7687 43.0188 33.696C38.003 32.8699 35.7435 27.7202 35.65 27.5014C35.644 27.4871 35.6372 27.4728 35.6301 27.4589C35.3737 26.9387 35.3145 26.509 35.4535 26.1815C35.7271 25.5372 36.7779 25.2039 37.4731 24.9833C37.6744 24.92 37.8641 24.8597 38.0221 24.7974C38.7065 24.5273 39.1957 24.2342 39.5184 23.9015C39.9039 23.5048 39.9789 23.1247 39.9742 22.876C39.9625 22.2742 39.5021 21.7394 38.7697 21.4776C38.5224 21.3754 38.2403 21.3215 37.9531 21.3215C37.7575 21.3215 37.468 21.3483 37.1939 21.4762C36.6071 21.7505 36.0814 21.9005 35.6302 21.9219C35.3902 21.9098 35.2219 21.8578 35.1129 21.8081C35.1266 21.5734 35.1418 21.3323 35.1574 21.0808L35.164 20.9732C35.3247 18.4286 35.5244 15.2619 34.6856 13.3819C34.1106 12.0943 33.3386 10.9869 32.3905 10.0891C31.5953 9.33668 30.6716 8.72683 29.6445 8.27602C27.8569 7.49235 26.1906 7.37527 25.3565 7.37527Z" fill="#020202"/>
</svg>
