<svg width="17" height="20" viewBox="0 -5 17 20" fill="none" xmlns="http://www.w3.org/2000/svg">
<path d="M8.2255 15.2029C5.29894 15.0307 1.98489 13.0719 1.68326 9.7809C1.57156 8.67223 1.86906 7.65479 2.60806 6.81547C3.03035 6.33586 3.53593 5.96102 4.02516 5.55139C5.09207 4.61204 6.15936 3.65539 7.27608 2.78581C7.78205 2.39368 8.35496 2.07154 8.95937 1.87087C9.27014 1.77063 9.86702 1.89863 10.0161 2.12529C10.2974 2.5611 9.91296 2.88542 9.49622 3.12286C7.89899 4.02149 6.30176 4.92013 4.738 5.85376C4.18182 6.1934 3.64118 6.60244 3.18463 7.08166C1.48152 8.86152 2.26724 11.9678 4.58424 12.5655C5.07832 12.6923 5.74849 12.6135 6.21662 12.3767C7.18756 11.8861 8.07599 11.2561 8.96483 10.6089C10.3067 9.63807 12.4691 10.2513 12.9295 11.8485C13.0566 12.2825 12.8176 12.9892 12.4997 13.4008C11.4393 14.8074 9.8559 15.1006 8.2255 15.2029Z" fill="#F03382"/>
</svg>
