<svg width="50" height="50" viewBox="0 0 50 50" fill="none" xmlns="http://www.w3.org/2000/svg">
<path d="M25.0082 0C14.5709 0 11.5184 0.0107701 10.925 0.0600051C8.78314 0.238097 7.45031 0.575433 5.99827 1.29857C4.87925 1.85439 3.99673 2.49867 3.12574 3.40183C1.5395 5.04889 0.578139 7.07521 0.230128 9.48388C0.0609287 10.6532 0.0117072 10.8917 0.00170908 16.8645C-0.00213635 18.8554 0.00170908 21.4757 0.00170908 24.9902C0.00170908 35.4218 0.0132454 38.4721 0.063236 39.0645C0.23628 41.1493 0.563142 42.4609 1.25532 43.8956C2.57815 46.642 5.1046 48.7037 8.08096 49.473C9.11154 49.7384 10.2498 49.8846 11.711 49.9538C12.3302 49.9808 18.6405 50 24.9547 50C31.2689 50 37.5831 49.9923 38.1868 49.9615C39.8788 49.8819 40.8613 49.75 41.9477 49.4692C44.9433 48.696 47.4236 46.6651 48.7733 43.8803C49.452 42.4801 49.7962 41.1185 49.9519 39.1425C49.9858 38.7117 50 31.8431 50 24.9837C50 18.1231 49.9846 11.2671 49.9508 10.8363C49.7931 8.82844 49.4489 7.47833 48.7483 6.05128C48.1734 4.88311 47.5351 4.01072 46.6083 3.11873C44.9544 1.53859 42.9317 0.576972 40.5214 0.22925C39.3535 0.0603897 39.1209 0.0103855 33.1451 0H25.0082Z" fill="url(#paint0_radial)"/>
<path d="M25.0082 0C14.5709 0 11.5184 0.0107701 10.925 0.0600051C8.78314 0.238097 7.45031 0.575433 5.99827 1.29857C4.87925 1.85439 3.99673 2.49867 3.12574 3.40183C1.5395 5.04889 0.578139 7.07521 0.230128 9.48388C0.0609287 10.6532 0.0117072 10.8917 0.00170908 16.8645C-0.00213635 18.8554 0.00170908 21.4757 0.00170908 24.9902C0.00170908 35.4218 0.0132454 38.4721 0.063236 39.0645C0.23628 41.1493 0.563142 42.4609 1.25532 43.8956C2.57815 46.642 5.1046 48.7037 8.08096 49.473C9.11154 49.7384 10.2498 49.8846 11.711 49.9538C12.3302 49.9808 18.6405 50 24.9547 50C31.2689 50 37.5831 49.9923 38.1868 49.9615C39.8788 49.8819 40.8613 49.75 41.9477 49.4692C44.9433 48.696 47.4236 46.6651 48.7733 43.8803C49.452 42.4801 49.7962 41.1185 49.9519 39.1425C49.9858 38.7117 50 31.8431 50 24.9837C50 18.1231 49.9846 11.2671 49.9508 10.8363C49.7931 8.82844 49.4489 7.47833 48.7483 6.05128C48.1734 4.88311 47.5351 4.01072 46.6083 3.11873C44.9544 1.53859 42.9317 0.576972 40.5214 0.22925C39.3535 0.0603897 39.1209 0.0103855 33.1451 0H25.0082Z" fill="url(#paint1_radial)"/>
<path d="M24.9967 6.53903C19.9838 6.53903 19.3547 6.56096 17.3858 6.65058C15.4208 6.74059 14.0795 7.05177 12.9059 7.50834C11.6919 7.97992 10.6621 8.61075 9.63614 9.63737C8.60941 10.6636 7.97876 11.6937 7.50577 12.9076C7.04817 14.082 6.73669 15.424 6.64824 17.3888C6.56018 19.3582 6.53711 19.9879 6.53711 25.0021C6.53711 30.0164 6.55941 30.6438 6.64863 32.6132C6.73899 34.5787 7.05009 35.9204 7.50616 37.0943C7.97799 38.3086 8.60864 39.3387 9.63499 40.365C10.6606 41.392 11.6904 42.0243 12.9036 42.4959C14.078 42.9525 15.4197 43.2637 17.3843 43.3537C19.3532 43.4433 19.9819 43.4652 24.9944 43.4652C30.0077 43.4652 30.6349 43.4433 32.6037 43.3537C34.5688 43.2637 35.9116 42.9525 37.086 42.4959C38.2996 42.0243 39.3279 41.392 40.3534 40.365C41.3802 39.3387 42.0108 38.3086 42.4838 37.0947C42.9376 35.9204 43.2491 34.5783 43.3413 32.6135C43.4298 30.6441 43.4529 30.0164 43.4529 25.0021C43.4529 19.9879 43.4298 19.3586 43.3413 17.3892C43.2491 15.4236 42.9376 14.082 42.4838 12.908C42.0108 11.6937 41.3802 10.6636 40.3534 9.63737C39.3267 8.61036 38.3 7.97954 37.0848 7.50834C35.9081 7.05177 34.5661 6.74059 32.6011 6.65058C30.6322 6.56096 30.0054 6.53903 24.9909 6.53903H24.9967ZM23.3409 9.86624C23.8323 9.86547 24.3807 9.86624 24.9967 9.86624C29.925 9.86624 30.5091 9.88393 32.4553 9.9724C34.255 10.0547 35.2317 10.3555 35.8824 10.6082C36.7437 10.9429 37.3579 11.3429 38.0035 11.9891C38.6495 12.6353 39.0495 13.2508 39.3848 14.1124C39.6374 14.7624 39.9385 15.7394 40.0204 17.5396C40.1089 19.4859 40.1281 20.0706 40.1281 24.9979C40.1281 29.9252 40.1089 30.5099 40.0204 32.4562C39.9381 34.2564 39.6374 35.2334 39.3848 35.8834C39.0502 36.7451 38.6495 37.3586 38.0035 38.0044C37.3575 38.6506 36.7441 39.0506 35.8824 39.3853C35.2325 39.6391 34.255 39.9392 32.4553 40.0215C30.5095 40.1099 29.925 40.1292 24.9967 40.1292C20.068 40.1292 19.4839 40.1099 17.5381 40.0215C15.7385 39.9384 14.7617 39.6376 14.1107 39.3849C13.2493 39.0502 12.634 38.6502 11.988 38.004C11.342 37.3578 10.9421 36.7439 10.6067 35.8819C10.3541 35.2318 10.053 34.2548 9.97108 32.4547C9.88263 30.5084 9.86494 29.9237 9.86494 24.9933C9.86494 20.0629 9.88263 19.4813 9.97108 17.535C10.0534 15.7348 10.3541 14.7578 10.6067 14.107C10.9413 13.2454 11.342 12.6299 11.988 11.9837C12.634 11.3375 13.2493 10.9375 14.1107 10.6021C14.7613 10.3482 15.7385 10.0482 17.5381 9.96548C19.2409 9.88855 19.9008 9.86547 23.3409 9.86162V9.86624ZM34.8495 12.9319C33.6266 12.9319 32.6345 13.9231 32.6345 15.1467C32.6345 16.3699 33.6266 17.3623 34.8495 17.3623C36.0723 17.3623 37.0644 16.3699 37.0644 15.1467C37.0644 13.9235 36.0723 12.9311 34.8495 12.9311V12.9319ZM24.9967 15.5206C19.7619 15.5206 15.5177 19.7659 15.5177 25.0021C15.5177 30.2383 19.7619 34.4818 24.9967 34.4818C30.2315 34.4818 34.4742 30.2383 34.4742 25.0021C34.4742 19.7659 30.2311 15.5206 24.9963 15.5206H24.9967ZM24.9967 18.8478C28.3945 18.8478 31.1494 21.603 31.1494 25.0021C31.1494 28.4009 28.3945 31.1565 24.9967 31.1565C21.5985 31.1565 18.844 28.4009 18.844 25.0021C18.844 21.603 21.5985 18.8478 24.9967 18.8478Z" fill="white"/>
<defs>
<radialGradient id="paint0_radial" cx="0" cy="0" r="1" gradientUnits="userSpaceOnUse" gradientTransform="translate(13.2813 53.851) rotate(-90) scale(49.5537 46.0888)">
<stop stop-color="#FFDD55"/>
<stop offset="0.1" stop-color="#FFDD55"/>
<stop offset="0.5" stop-color="#FF543E"/>
<stop offset="1" stop-color="#C837AB"/>
</radialGradient>
<radialGradient id="paint1_radial" cx="0" cy="0" r="1" gradientUnits="userSpaceOnUse" gradientTransform="translate(-8.37526 3.60192) rotate(78.6806) scale(22.1507 91.3062)">
<stop stop-color="#3771C8"/>
<stop offset="0.128" stop-color="#3771C8"/>
<stop offset="1" stop-color="#6600FF" stop-opacity="0"/>
</radialGradient>
</defs>
</svg>
