<svg width="160" height="131" viewBox="0 0 160 131" fill="none" xmlns="http://www.w3.org/2000/svg">
<rect y="6" width="76" height="125" rx="15" fill="#F0F4F9"/>
<path d="M44 21.5C44 22.3284 43.3284 23 42.5 23C41.6716 23 41 22.3284 41 21.5C41 20.6716 41.6716 20 42.5 20C43.3284 20 44 20.6716 44 21.5Z" fill="#AFBCD0"/>
<path d="M54 21.5C54 22.3284 53.3284 23 52.5 23C51.6716 23 51 22.3284 51 21.5C51 20.6716 51.6716 20 52.5 20C53.3284 20 54 20.6716 54 21.5Z" fill="#AFBCD0"/>
<path d="M49 21.5C49 22.3284 48.3284 23 47.5 23C46.6716 23 46 22.3284 46 21.5C46 20.6716 46.6716 20 47.5 20C48.3284 20 49 20.6716 49 21.5Z" fill="#AFBCD0"/>
<path d="M59 21.5C59 22.3284 58.3284 23 57.5 23C56.6716 23 56 22.3284 56 21.5C56 20.6716 56.6716 20 57.5 20C58.3284 20 59 20.6716 59 21.5Z" fill="#AFBCD0"/>
<path d="M18.5 92C17.6716 92 17 91.3284 17 90.5C17 89.6716 17.6716 89 18.5 89C19.3284 89 20 89.6716 20 90.5C20 91.3284 19.3284 92 18.5 92Z" fill="#2E343F"/>
<path d="M18.5 102C17.6716 102 17 101.328 17 100.5C17 99.6716 17.6716 99 18.5 99C19.3284 99 20 99.6716 20 100.5C20 101.328 19.3284 102 18.5 102Z" fill="#2E343F"/>
<path d="M18.5 97C17.6716 97 17 96.3284 17 95.5C17 94.6716 17.6716 94 18.5 94C19.3284 94 20 94.6716 20 95.5C20 96.3284 19.3284 97 18.5 97Z" fill="#2E343F"/>
<path d="M18.5 107C17.6716 107 17 106.328 17 105.5C17 104.672 17.6716 104 18.5 104C19.3284 104 20 104.672 20 105.5C20 106.328 19.3284 107 18.5 107Z" fill="#2E343F"/>
<rect x="155" y="105" width="17" height="68" rx="6" transform="rotate(90 155 105)" fill="#F0F4F9"/>
<rect x="81" width="22" height="22" rx="6" fill="#F0F4F9"/>
<rect x="101" y="20" width="16" height="16" rx="4" fill="#F0F4F9"/>
<rect x="30.2175" y="40.5939" width="115.824" height="65.4763" rx="3.65264" fill="#AFBCD0" stroke="#AFBCD0" stroke-width="2.43509"/>
<path d="M29 96.75H147.259V102.418C147.259 105.108 145.079 107.288 142.389 107.288H33.8702C31.1805 107.288 29 105.108 29 102.418V96.75Z" fill="#96A4BB"/>
<rect x="31.4343" y="42.176" width="114.449" height="7.30527" rx="3.65264" fill="#2E343F"/>
<circle cx="35.0872" cy="45.8286" r="1.21755" fill="white"/>
<circle cx="38.7405" cy="45.8286" r="1.21755" fill="white"/>
<circle cx="42.3923" cy="45.8286" r="1.21755" fill="white"/>
<rect x="127.621" y="44.6111" width="15.8281" height="2.43509" rx="1.21755" fill="white"/>
<rect x="63.5569" y="56" width="50" height="9" rx="2" fill="white"/>
<rect x="63.5569" y="69" width="50" height="9" rx="2" fill="white"/>
<rect x="65.5569" y="59" width="15" height="3" rx="1.5" fill="#2E343F"/>
<rect x="9" y="20" width="15" height="3" rx="1.5" fill="#96A4BB"/>
<rect x="157" y="78" width="15" height="3" rx="1.5" transform="rotate(-90 157 78)" fill="#F03382"/>
<rect x="82.5569" y="59" width="9" height="3" rx="1.5" fill="#2E343F"/>
<rect x="26" y="20" width="9" height="3" rx="1.5" fill="#96A4BB"/>
<rect x="63.5569" y="82" width="50" height="9" rx="2" fill="#F03382"/>
<rect x="81.5569" y="85" width="15" height="3" rx="1.5" fill="white"/>
<circle cx="67.0569" cy="73.5" r="1.5" fill="#2E343F"/>
<circle cx="77.0569" cy="73.5" r="1.5" fill="#2E343F"/>
<circle cx="72.0569" cy="73.5" r="1.5" fill="#2E343F"/>
<circle cx="82.0569" cy="73.5" r="1.5" fill="#2E343F"/>
<g filter="url(#filter0_d)">
<path d="M116.073 91.6282C116.086 91.7763 116.108 91.2087 116.306 90.8166C116.371 90.5416 116.542 90.3036 116.782 90.155C116.901 90.0814 117.033 90.0319 117.171 90.0094C117.309 89.987 117.45 89.9919 117.587 90.0239C117.723 90.056 117.851 90.1146 117.965 90.1963C118.078 90.278 118.175 90.3813 118.248 90.5002C118.322 90.6191 118.371 90.7514 118.394 90.8895C118.416 91.0275 118.411 91.1686 118.379 91.3048C118.445 92.003 118.442 91.9712 118.486 92.4367C118.529 92.9021 118.567 93.3041 118.605 93.7061C118.622 94.3287 118.595 94.9518 118.524 95.5706C118.402 96.1007 118.214 96.6133 117.963 97.096C117.503 97.7189 117.139 98.4079 116.885 99.1395C116.834 99.4935 116.832 99.8527 116.878 100.207C116.91 100.536 116.983 100.859 117.097 101.169C116.669 101.257 116.233 101.298 115.796 101.291C115.377 101.266 114.781 100.49 114.63 100.248C114.592 100.181 114.535 100.127 114.466 100.092C114.398 100.056 114.32 100.041 114.244 100.049C114.167 100.056 114.094 100.085 114.033 100.132C113.972 100.18 113.926 100.244 113.901 100.316C113.706 100.74 113.266 101.518 112.9 101.595C112.21 101.745 110.732 101.799 109.589 101.906C109.589 101.906 109.68 100.83 109.211 100.49C108.741 100.15 108.255 99.7474 107.889 99.483L106.919 98.5923C106.247 98.0746 105.726 97.3867 105.409 96.5998C105.093 95.6263 105.069 95.1377 105.233 94.7274C105.425 94.3814 105.739 94.1196 106.114 93.9937C106.416 93.9107 106.734 93.9028 107.04 93.9707C107.256 94.0381 107.449 94.1641 107.597 94.3346C107.871 94.6397 107.96 94.7914 107.842 94.4397C107.723 94.0879 107.547 93.5709 107.254 92.8407C107.02 92.2758 106.809 91.9648 106.635 91.5863C106.46 91.2078 106.246 90.8545 105.989 90.3877C105.75 89.9089 105.543 89.415 105.369 88.9092C105.302 88.7005 105.28 88.4796 105.305 88.2617C105.331 88.0437 105.403 87.8339 105.518 87.6466C105.686 87.4462 105.905 87.2939 106.152 87.2052C106.398 87.1164 106.664 87.0944 106.922 87.1413C107.337 87.2767 107.701 87.537 107.963 87.8865C108.327 88.3684 108.634 88.8911 108.877 89.4441C109.311 90.3195 109.648 91.2397 109.882 92.1884C109.803 91.6231 109.796 91.05 109.861 90.4829C109.904 90.3085 109.985 90.1461 110.1 90.0078C110.214 89.8696 110.359 89.759 110.522 89.6844C110.827 89.5542 111.159 89.501 111.489 89.5295C111.82 89.571 112.124 89.7324 112.343 89.9829C112.644 90.5784 112.845 91.2193 112.937 91.88C112.915 91.3101 112.962 90.7395 113.077 90.1808C113.231 89.9157 113.472 89.7121 113.759 89.6045C114.103 89.5084 114.461 89.4747 114.817 89.5051C115.112 89.5753 115.379 89.7323 115.585 89.9559C115.861 90.496 116.052 91.0756 116.152 91.6741" fill="white"/>
<path d="M116.073 91.6282C116.086 91.7763 116.108 91.2087 116.306 90.8166C116.371 90.5416 116.542 90.3036 116.782 90.155C116.901 90.0814 117.033 90.0319 117.171 90.0094C117.309 89.987 117.45 89.9919 117.587 90.0239C117.723 90.056 117.851 90.1146 117.965 90.1963C118.078 90.278 118.175 90.3813 118.248 90.5002C118.322 90.6191 118.371 90.7514 118.394 90.8895C118.416 91.0275 118.411 91.1686 118.379 91.3048C118.445 92.003 118.442 91.9712 118.486 92.4367C118.529 92.9021 118.567 93.3041 118.605 93.7061C118.622 94.3287 118.595 94.9518 118.524 95.5706C118.402 96.1007 118.214 96.6133 117.963 97.096C117.503 97.7189 117.139 98.4079 116.885 99.1395C116.834 99.4935 116.832 99.8527 116.878 100.207C116.91 100.536 116.983 100.859 117.097 101.169C116.669 101.257 116.233 101.298 115.796 101.291C115.377 101.266 114.781 100.49 114.63 100.248C114.592 100.181 114.535 100.127 114.466 100.092C114.398 100.056 114.32 100.041 114.244 100.049C114.167 100.056 114.094 100.085 114.033 100.132C113.972 100.18 113.926 100.244 113.901 100.316C113.706 100.74 113.266 101.518 112.9 101.595C112.21 101.745 110.732 101.799 109.589 101.906C109.589 101.906 109.68 100.83 109.211 100.49C108.741 100.15 108.255 99.7474 107.889 99.483L106.919 98.5923C106.247 98.0746 105.726 97.3867 105.409 96.5998C105.093 95.6263 105.069 95.1377 105.233 94.7274C105.425 94.3814 105.739 94.1196 106.114 93.9937C106.416 93.9107 106.734 93.9028 107.04 93.9707C107.256 94.0381 107.449 94.1641 107.597 94.3346C107.871 94.6397 107.96 94.7914 107.842 94.4397C107.723 94.0879 107.547 93.5709 107.254 92.8407C107.02 92.2758 106.809 91.9648 106.635 91.5863C106.46 91.2078 106.246 90.8545 105.989 90.3877C105.75 89.9089 105.543 89.415 105.369 88.9092C105.302 88.7005 105.28 88.4796 105.305 88.2617C105.331 88.0437 105.403 87.8339 105.518 87.6466C105.686 87.4462 105.905 87.2939 106.152 87.2052C106.398 87.1164 106.664 87.0944 106.922 87.1413C107.337 87.2767 107.701 87.537 107.963 87.8865C108.327 88.3684 108.634 88.8911 108.877 89.4441C109.311 90.3195 109.648 91.2397 109.882 92.1884C109.803 91.6231 109.796 91.05 109.861 90.4829C109.904 90.3085 109.985 90.1461 110.1 90.0078C110.214 89.8696 110.359 89.759 110.522 89.6844C110.827 89.5542 111.159 89.501 111.489 89.5295C111.82 89.571 112.124 89.7324 112.343 89.9829C112.644 90.5784 112.845 91.2193 112.937 91.88C112.915 91.3101 112.962 90.7395 113.077 90.1808C113.231 89.9157 113.472 89.7121 113.759 89.6045C114.103 89.5084 114.461 89.4747 114.817 89.5051C115.112 89.5753 115.379 89.7323 115.585 89.9559C115.829 90.486 115.994 91.0496 116.073 91.6282V91.6282Z" stroke="black" stroke-width="0.75" stroke-linejoin="round"/>
<path d="M115.651 98.1562L115.307 94.4961" stroke="black" stroke-width="0.75" stroke-linecap="round"/>
<path d="M113.515 98.3676L113.159 94.6979" stroke="black" stroke-width="0.75" stroke-linecap="round"/>
<path d="M111.068 94.9264L111.429 98.5422" stroke="black" stroke-width="0.75" stroke-linecap="round"/>
</g>
<defs>
<filter id="filter0_d" x="102.758" y="86.7423" width="18.2269" height="19.5386" filterUnits="userSpaceOnUse" color-interpolation-filters="sRGB">
<feFlood flood-opacity="0" result="BackgroundImageFix"/>
<feColorMatrix in="SourceAlpha" type="matrix" values="0 0 0 0 0 0 0 0 0 0 0 0 0 0 0 0 0 0 127 0"/>
<feOffset dy="2"/>
<feGaussianBlur stdDeviation="1"/>
<feColorMatrix type="matrix" values="0 0 0 0 0 0 0 0 0 0 0 0 0 0 0 0 0 0 0.25 0"/>
<feBlend mode="normal" in2="BackgroundImageFix" result="effect1_dropShadow"/>
<feBlend mode="normal" in="SourceGraphic" in2="effect1_dropShadow" result="shape"/>
</filter>
</defs>
</svg>
