<svg width="201" height="129" viewBox="0 0 201 129" fill="none" xmlns="http://www.w3.org/2000/svg">
<path d="M47.5 15C73.7 15 95 36.3 95 62.5C95 88.7 73.7 110 47.5 110C21.3 110 0 88.7 0 62.5C0 36.3 21.3 15 47.5 15Z" fill="#2E343F"/>
<path d="M104.5 10C109.7 10 114 14.3 114 19.5C114 24.7 109.7 29 104.5 29C99.3 29 95 24.7 95 19.5C95 14.3 99.3 10 104.5 10Z" fill="#2E343F"/>
<path d="M76.5 0C78.4 0 80 1.6 80 3.5C80 5.4 78.4 7 76.5 7C74.6 7 73 5.4 73 3.5C73 1.6 74.6 0 76.5 0Z" fill="#2E343F"/>
<path d="M11.5 67.5L20 69.5H21V71V76V80L23 84.5L25.5 87.5L29.5 90L33.5 91L39.5 89.5L44.5 85L45.5 80.5V77L45 75L43.5 74L40.5 73.5L39.5 74L39 75.5L38.5 78L36 80.5L33 81L31 80L30 78.5V74L30.5 72L31.5 69.5H33.5L40.5 67.5L44 65L46.5 60L47 56.5L45.5 54.5L43 53L40.5 52H37C36.6 52 34.5 52.3 33.5 52.5L30 54.5L27 56.5L24.5 60L22 64C21.2 63.8 19.5 63.4 19.5 63C19.5 62.6 17.2 61.5 16 61L13.5 55.5L12.5 52.5L9.5 54.5L4.5 57.5L4 61L7.5 65.5L11.5 67.5Z" fill="#A2ACBB"/>
<path d="M47 60L45.5 65H44L43.5 66.5C43.5 66.8 43.6 67.6 44 68C44.4 68.4 45.2 69.5 45.5 70L45 75L45.5 80.5L45 82.5L44.5 85L45 87.5L46.5 89H51.5L53 90.5L56.5 91.2L60 91.5H62.5L66.5 90L67.5 88.5C68.2 88.2 69.5 87.4 69.5 87C69.5 86.6 70.2 87.2 70.5 87.5L71 89.5L72.5 91C73.2 91 74.6 91 75 91.2C75.5 91.4 77.5 91 78 91C78.4 91 79.8 90.3 80.5 90L83 89L85.5 88L88 89L91.5 89.5L94 87.5L95 88.5V90L95.5 91.5L96.5 92.5H101C101.5 92.5 104 91.5 104 91C104 90.5 106 90 106.5 90C106.9 90 107.7 89.3 108 89L112.5 88.5L114.5 89L118.5 89.5H122C123.3 88.8 126.1 87.5 126.5 87.5C126.9 87.5 127.7 86.2 128 85.5L129 86L130 88L131 89C131.5 89.2 132.6 89.5 133 89.5C133.4 89.5 135.5 88.8 136.5 88.5L138.5 86.5L139 88.5L139.5 90.5L140.5 91.5C141 92 142.5 92 143 92C143.5 92 145 91 145.5 91C146 91 147.5 90 148.5 90C149.5 90 150.5 89.5 151 89.5C151.4 89.5 152.8 88.8 153.5 88.5L155.5 87.5L157 89C157.3 89.2 158.1 89.6 158.5 90C158.9 90.4 160.7 90.2 161.5 90H163C163.5 90 165.5 89.5 166 89C166.4 88.6 167.5 88.2 168 88L169.5 86.5C169.7 86 170 84.9 170 84.5C170 84.1 169.3 83.7 169 83.5C168.7 83 167.9 81.9 167.5 81.5C167 81 168 81 168 80.5C168 80 168 80 168.5 80C169 80 169.5 79 169.5 78.5C169.5 78 170 77 170 76V74V71C170 70.6 169.3 69.8 169 69.5C168.3 69.3 166.9 69 166.5 69C166.1 69 165 68.7 164.5 68.5H161.5L159 69L157 70L155 71.5C154.7 71.8 153.9 72.5 153.5 72.5C153.1 72.5 153 71.8 153 71.5L152.5 69.5L154 67L155 66.5L158 67L163.5 67.5L168 68L170 68.5L173.5 69H176L179.5 69.5H182.5L184.5 68.5L186.5 68L187 66.5L188.5 64.5V62.5V61C188.3 60.2 187.9 58.5 187.5 58.5C187.1 58.5 186.3 57.2 186 56.5L184 55L183 55.5L182 57L180 58L178.5 59L176.5 60L173.5 61L170.5 61.5L163 62H156.5L154 61C154.2 60.2 154.5 58.4 154.5 58C154.5 57.6 153.2 56.5 152.5 56H148.5L145 57L144.5 58.5L145.5 61V62H140.5L137 63.5V65.5L138.5 67.5L140.5 68.5H142L143.5 67.5L145.5 68L146 71L145 80.5V75.5L144.5 72.5V71L142.5 70.5L140.5 70L139.5 68.5L137.5 67.5L134.5 68L131 70L130 72L127.5 70L127 68.5L125.5 67.5C126 67.3 127 66.9 127 66.5C127 66.1 128 66 128.5 66L129.5 63C129.8 62.3 130.5 60.9 130.5 60.5C130.5 60 130 58 130 57.5C130 57.1 129.7 56 129.5 55.5C129.3 55 128.9 53.9 128.5 53.5C128 53 126 52.5 126 52C126 51.6 123.7 51.8 122.5 52L120.5 53L118.5 55L117.5 56.5L116 60L114.5 61.5L113.5 62L111.5 63C111.2 63.3 110.5 64.1 110.5 64.5C110.5 64.9 109.5 65.3 109 65.5L108.5 66.5L108 65.5L106 64L104.5 63.5L101.5 64L99 65L98 67L97 68.5C96.3 68.7 95 69.1 95 69.5C95 69.9 93.7 69.7 93 69.5L91 69L90 68V66.5V64.5C90 64.1 89.3 63.3 89 63L88 62.5L85.5 63V60.5V58L84 56H81.5C80.5 56 79.5 56.5 79 56.5C78.5 56.5 76.5 57 76 57.5C75.5 58 76.5 57.5 76.5 58.5C76.5 59.3 76.8 59.8 77 60C77.2 60.7 77.5 62.1 77.5 62.5V64.5H76.5C76.1 64.5 75 64.8 74.5 65L73 66V68L75 71L72.5 69L70.5 68L67 67.5L64.5 69.5L61.5 71.5L60.5 69.5L58.5 68.5C57.5 68.5 55.6 68.4 56 68C56.4 67.6 57.5 67.5 58 67.5L60 65.5L61.5 63L62.5 60.5L62 58L61.5 56L60 53.5L57.5 52.5L55 52L53 53L49.5 55L48.5 57.5L47 60Z" fill="#A2ACBB"/>
<path d="M32.5 92L26.5 93.5L24.5 94.5L21.5 95.5L20 97.5L20.5 100.5L24 102L29.5 104L33.5 104.5L36.5 103L46.5 100.5L54.5 98.5H67H78L96.5 99.5L114 100L133 102L164.5 100.5L168.5 100L170 97.5L169.5 94.5L164.5 91.5L158 90L155.5 91L151 92L136 93.5H109L85 92H79.5H76H71.5L67 91.5H62L55 91H50.5H46L38 91.5L32.5 92Z" fill="#A2ACBB"/>
<path d="M123.2 60.9C123.2 59.3 122.6 58 122.1 58C121 58 120.1 61.6 119.5 66.3C122.4 65.4 123.2 62.9 123.2 60.9Z" fill="white"/>
<path d="M55.4 60.9C55.4 59.3 54.8 58 54.3 58C53.2 58 52.2 61.6 51.6 66.3C54.5 65.4 55.4 62.9 55.4 60.9Z" fill="white"/>
<path d="M122.8 77.4999C122.8 75.4999 122.5 73.8999 121.9 73.8999C121.1 73.8999 119.7 75.2999 119 77.7999C119 80.6999 119.2 83.4999 119.5 85.4999C121.8 85.2999 122.8 80.7999 122.8 77.4999Z" fill="white"/>
<path d="M38.5999 63.4002C38.5999 62.8002 37.9999 62.2002 37.0999 62.2002C35.2999 62.2002 33.3 64.0002 31.7 66.5002C36.8 66.1002 38.5999 64.5002 38.5999 63.4002Z" fill="white"/>
<path d="M138.6 74.5998C138.5 74.0998 138.4 73.6998 138.2 73.2998C136.1 75.1998 134.9 79.7998 134.9 82.2998C134.9 83.1998 135.1 83.8998 135.5 83.8998C136.5 83.8998 138.8 81.3998 138.8 77.0998C138.9 76.1998 138.8 75.3998 138.6 74.5998Z" fill="white"/>
<path d="M159.6 79.3999C163.3 79.0999 164.3 77.2999 164.3 75.6999C164.3 75.0999 164.2 74.4999 163.9 73.8999C161.8 74.2999 160 76.7999 159.6 79.3999Z" fill="white"/>
<path d="M185.3 54.1L183.4 53L182 54.8C178.8 59 172.8 60.9 163.2 60.9C161.4 60.9 159 60.7 156.4 60.6L155.5 60.5C155.5 60.4 155.5 60.3 155.5 60.2C155.5 56.7 153.4 54.5 150 54.5C148.7 54.5 147.2 54.8 145.4 55.4L142 56.5L144.2 59.4C144.3 59.6 144.4 59.9 144.5 60.1C140.9 60.2 135.7 60.9 135.7 65.2C135.7 65.6 135.8 66 135.9 66.3C133.7 66.8 131.9 68.2 130.4 70.1C129.7 69 128.9 68.1 127.8 67.5C130.6 65.2 132 61.9 132 58.9C132 54.1 128.7 50.7 124.1 50.7C121 50.7 116.9 52.6 114.2 60.5C112.5 60.8 110.7 61.8 109.1 64.4C107.7 63.1 105.8 62.3 103.9 62.3C100.8 62.3 97.5 64.2 96.5 67.4C95.8 67.6 95.2 67.8 94.8 68.2L93.4 67.9C93 67.8 92.6 67.8 92.2 67.7C92.2 67.5 92.2 67.3 92.2 67.1C92.2 65.1 90.3 61 87.8 61H87C87 60.6 87 60.4 87 60.2C87 56.7 84.9 54.5 81.5 54.5C80.2 54.5 78.7 54.8 76.9 55.4L73.4 56.5L75.7 59.4C75.8 59.5 76.1 60.2 76.3 63.3C75.6 63.4 74.8 63.4 74 63.5L72.5 63.6L72 64.9C71.7 65.4 71.6 65.9 71.5 66.5C70.8 66.2 70.1 66 69.3 66C66.4 66 64.1 67.5 62.3 69.7C61.7 68.5 60.9 67.8 60 67.3C62.6 65 64 61.8 64 58.9C64 54.1 60.7 50.7 56.1 50.7C53.6 50.7 50.6 51.9 48.1 56.2C47.1 53.1 43.9 50.4 38 50.4C31.2 50.4 25.2 55 22 62.6C18.8 61.4 15.2 59 15 53.9L14.9 50L11.3 51.7C5.7 54.4 3 57.3 3 60.6C3 65.6 9.2 69.2 19.8 70.5C19.6 71.8 19.5 73.1 19.5 74.3C19.5 82.9 23.4 89 29.7 91.1C23.4 92.4 19 94.6 19 98.3C19 102.9 25.7 104.6 33 105.6L33.7 105.7L34.3 105.4C41.6 102.5 54.3 99.4 68 99.4C81.5 99.4 96.7 100.4 110.1 101.3C121.8 102.1 132.9 102.8 141.4 102.8C151.7 102.8 158.6 102.7 163.2 102.2C166.1 101.9 172 101.3 172 96.7C172 93.7 169 91.7 165.3 90.4C168.6 89.6 171.5 87.5 171.5 84.6C171.5 83.1 170.7 81.6 169.4 80.8C171.2 78.9 172 76.2 172 73.6C172 72.2 171.8 70.9 171.3 69.9C174.4 70.2 177.4 70.5 180.4 70.5C187.1 70.5 190.1 66.4 190.1 62.3C190.1 59.1 188.1 55.7 185.3 54.1ZM113.3 89.7C114.1 90.2 115.3 90.6 116.8 90.6C117.7 90.6 118.7 90.5 119.6 90.4C120.2 90.6 120.8 90.6 121.4 90.6C124.1 90.6 126.3 89.2 127.9 87.1C129 89.4 131 90.8 133.5 90.8C135.2 90.8 136.8 90.2 138.1 89.1C138.5 90.3 139.2 91.4 140.1 92.2C136.9 92.4 133.3 92.5 129.2 92.5C121.8 92.5 113.8 92.2 105.2 91.8C105.9 91.2 106.3 90.7 106.4 90.6C107.7 90.6 109.1 90.5 110.4 90.2L113.3 89.7ZM110.9 82.2C110.9 81.7 110.9 81.3 110.9 80.7C110.9 81.3 110.9 81.8 110.9 82.4C110.9 82.3 110.9 82.3 110.9 82.2ZM103.6 64.9C106.1 64.9 108.5 66.5 108.5 70.5C108.5 71.3 108.5 72.2 108.4 73C109.5 67.6 111.5 63 114.8 63C115.2 63 115.5 63 115.7 63.1C117.5 56.8 120.3 53.2 123.8 53.2C127.3 53.2 129.2 55.8 129.2 58.8C129.2 62.7 126.1 67.4 119.3 68.1C119.1 69.6 119 71.2 119 72.9C121.1 69.8 123.5 69.4 125 69.4C127.8 69.4 129.1 72.3 129.1 75.7C129.1 81.1 126.1 87.9 121.4 87.9C120.9 87.9 120.3 87.8 119.9 87.6C118.9 87.8 117.9 87.8 116.8 87.9C114.3 87.9 113.5 86.9 113.5 83.9C113.5 77.9 113.9 72.7 114.7 68.3C109.2 70.6 108.4 78 108.4 82.2C108.4 84.4 109.1 86 110.1 87.6C108.9 87.8 107.7 87.9 106.5 87.9C103.9 87.9 102.8 86.9 102.8 83.9C102.8 80.6 103.7 76.7 103.7 73.7C103.7 71 103 69 100.3 69C99.8 69 99.2 69.1 98.7 69.2C98.6 66.5 101.2 64.9 103.6 64.9ZM90 70.2C90.9 70.2 91.8 70.3 92.6 70.5C92 72.8 91.7 75.1 91.7 77.4C91.7 80.6 92.5 82.5 93.4 82.5C93.9 82.5 94.4 82.1 94.9 81.1C94.9 80.4 94.9 79.7 94.9 79C94.9 75.6 95.3 72.4 95.8 70.7C95.9 70.1 97 69.8 98.2 69.8C99.6 69.8 101 70.1 101.5 70.8C101 71.4 99.9 75.7 99.9 80C99.9 84.2 100.8 88.3 104.1 89.1C104.1 89.1 102.6 91.3 99.3 91.3C96.8 91.3 95.6 88 95.1 84C94 86.8 92.6 88.5 91.3 88.5C87 88.5 86 83.3 86 78.6C86 76.2 86.2 73.9 86.6 71.6C86.7 71.5 87 70.2 90 70.2ZM94.8 91.2C93.9 91.2 93 91.1 92.1 91.1C89.1 90.9 86 90.8 83 90.6C84.5 90.1 85.7 89.5 86.1 89.3L86.5 89.1C88.1 90.7 89.9 91.1 91.4 91.1C92.4 91.1 93.4 90.7 94.2 90.1C94.4 90.5 94.6 90.9 94.8 91.2ZM69.3 68.6C71.3 68.6 72.1 70.5 72.5 71.7C73.1 71.5 73.7 71.5 74.3 71.4C75.2 71.4 75.9 71.7 75.9 72.6C75.9 75.3 75.8 77.6 75.8 79.4C75.8 83.5 76.1 85.8 78.1 87.4C78 87.2 78 87 78 86.7C78 83 78.8 75.4 79 68.8C77.1 68.8 75.7 68.8 75.7 68.8C75.1 68.8 74 68 74 66.8C74 66.5 74.1 66.2 74.2 65.9C75.8 65.8 77.4 65.7 79 65.4C79 61.7 78.7 58.7 77.8 57.6C79.3 57.1 80.5 56.8 81.5 56.8C83.4 56.8 84.4 57.7 84.4 59.9C84.4 60.4 84.2 62.1 84 64.3C85.2 64.1 86.3 63.7 87.4 63.3C87.6 63.3 89.2 65.3 89.2 66.8C89.2 67.8 88.6 68.6 86.6 68.6H83.7C83.5 71.1 83.4 73.7 83.4 76.3C83.4 80.5 83.7 84.4 84.7 86.7C84.7 86.7 81.9 88.2 79.9 88.3C79.9 88.3 77.2 90.5 75.1 90.5C72 90.5 71.4 86.7 71.1 82.4H70.9C68.6 87.1 66.7 87.9 65 87.9C62.2 87.9 60.8 84.9 60.8 81.2C61.1 75.8 64.1 68.6 69.3 68.6ZM70.2 90C69.7 90 69.1 90 68.6 89.9C69 89.7 69.4 89.4 69.8 89C69.9 89.4 70 89.7 70.2 90ZM47.1 66.7C48.8 58.2 52 53.3 56 53.3C59.5 53.3 61.4 55.9 61.4 58.9C61.4 62.8 58.3 67.5 51.5 68.2C51.3 69.6 51.2 71 51.2 72.5C53 70.2 55.3 69.2 56.6 69.2C59.9 69.2 60.6 71.4 60.6 74.3C60.6 76.9 60 80.1 60 82.8C60 85.9 60.8 88.4 64.2 88.7C64.2 88.7 61.6 90.9 59.6 90.9C55.7 90.9 55 87.9 55 84.3C55 82 55.3 79.4 55.3 77.3C55.3 74.9 54.8 73.1 53 73.1C52.4 73.1 51.8 73.5 51.2 74.2V75.8C51.2 80.8 51.8 86.1 53.1 87.5C51.9 87.7 50.7 87.8 49.5 87.8C46.9 87.8 45.8 86.8 45.8 83.8C45.8 77.7 46.2 72.5 47 68C44.9 67.7 44.5 67.1 44.5 66.6C44.5 66.4 44.6 66.3 44.7 66.1C45.4 66.5 46.3 66.6 47.1 66.7ZM45.6 89.6C44.2 89.6 42.8 89.7 41.4 89.8C42.3 89.2 43.1 88.5 43.8 87.7C44.3 88.5 44.9 89.2 45.6 89.6ZM22.1 74.4C22.1 72.3 22.4 70.3 22.8 68.3C12.9 67.4 5.6 64.5 5.6 60.6C5.6 58.6 7.6 56.4 12.3 54.1C12.5 60.4 17.2 64.4 23.5 65.9C25.8 58.9 31 53.1 38 53.1C43.2 53.1 45.9 55.6 45.9 58.5C45.9 62.6 40.9 67.5 30.8 68.3C29.5 70.9 28.6 74 28.6 76.6C28.6 79.9 30 82.4 33.5 82.4C36.3 82.4 40.1 78.7 40.7 74.9C43.6 74.9 45.1 76.4 45.1 79C45.1 83 41 89.2 34.5 89.2C25.8 89.3 22.1 82.3 22.1 74.4ZM43.9 69.9C43.8 70.9 43.7 71.9 43.6 72.9C42.7 72.6 41.8 72.4 40.7 72.4H38.5L38.2 74.6C37.8 77.4 34.7 79.9 33.5 79.9C32.6 79.9 31.2 79.9 31.2 76.6C31.2 74.9 31.7 72.8 32.5 70.7C36.4 70.2 39.5 69.1 42 67.7C42.2 68.5 42.7 69.3 43.9 69.9ZM169.4 96.9C169.4 100 161.4 100.4 141.3 100.4C123 100.4 93 96.9 67.9 96.9C54.1 96.9 41.1 100 33.2 103.1C25.4 101.9 21.4 100.4 21.4 98.3C21.4 95.2 30.3 92.1 50.5 92.1C76.1 92.1 106.2 95 129.1 95C141.5 95 151.6 94.1 157.6 91.4C165.3 92.6 169.4 94.8 169.4 96.9ZM149.2 91.2L149.3 91.1C151.6 90.8 153.9 89.5 154.4 89.2L155.4 88.7C155.7 88.9 155.9 89.1 156.2 89.3C154.3 90.1 152 90.7 149.2 91.2ZM162.8 81.1C161.7 81.1 160.6 80.9 159.6 80.6C159.6 83.9 161.2 85.4 162.7 85.4C164 85.4 165.4 84.4 166 82.6C167.9 82.8 168.8 83.8 168.8 84.9C168.8 86.8 165.6 88.5 162.1 88.5C158.2 88.5 153.9 86.3 153.9 79.6C153.9 74.2 158.4 69.3 162.9 69.3C164 69.3 165.2 69.6 166.2 70.2C166.5 70 166.9 69.8 167.3 69.8C168.5 69.8 169.3 71.7 169.3 73.9C169.4 77.1 167.7 81.1 162.8 81.1ZM154.6 70.9C154.7 69.9 154.7 68.9 154.8 68.1C155.7 68.2 156.6 68.3 157.5 68.4C156.4 69 155.4 69.9 154.6 70.9ZM180.4 68C171.1 68 160.7 65.6 152.4 65.3C152.1 68.5 151.9 72.7 151.9 76.6C151.9 80.8 152.2 84.7 153.2 87C153.2 87 150.3 88.6 148.3 88.6C148.3 88.6 145.6 90.8 143.5 90.8C140.4 90.8 139.8 87 139.5 82.7H139.3C137 87.4 135.1 88.2 133.4 88.2C130.6 88.2 129.2 85.2 129.2 81.5C129.2 75.8 132.3 68.6 137.4 68.6C139.4 68.6 140.3 70.5 140.6 71.7C141.2 71.5 141.8 71.5 142.4 71.4C143.3 71.4 144 71.7 144 72.6C144 75.3 143.9 77.6 143.9 79.4C143.9 83.6 144.2 86 146.4 87.5C146.3 87.3 146.3 87 146.3 86.7C146.3 82.5 147.3 72.9 147.3 65.8V65.3C144 65.6 141.3 66.4 139.7 67.9C138.6 66.7 138 65.8 138 65C138 63 141.5 62.5 146.1 62.5H147.2C147 60.2 146.7 58.5 146.1 57.7C147.6 57.2 148.8 56.9 149.8 56.9C151.7 56.9 152.7 57.8 152.7 60C152.7 60.3 152.6 61.3 152.5 62.7C156.4 62.9 160.3 63.3 163.1 63.3C171.5 63.3 179.5 61.9 183.9 56.2C186.1 57.4 187.4 59.9 187.4 62.3C187.5 65.3 185.5 68 180.4 68ZM143.1 69C143.6 68.8 144.1 68.6 144.8 68.5C144.8 68.8 144.8 69.2 144.8 69.5C144.3 69.2 143.7 69 143.1 69Z" fill="white"/>
<path d="M67.4 83.7998C68.4 83.7998 70.7 81.2998 70.7 76.9998C70.7 76.1998 70.6 75.3998 70.5 74.5998C70.4 74.1998 70.3 73.6998 70.1 73.2998C68 75.1998 66.8 79.7998 66.8 82.2998C66.8 83.1998 67 83.7998 67.4 83.7998Z" fill="white"/>
<path d="M92 104C97.5 104 102 108.5 102 114C102 119.5 97.5 124 92 124C86.5 124 82 119.5 82 114C82 108.5 86.5 104 92 104Z" fill="#F03382"/>
<path d="M106.2 120C107.3 120 108.4 120.4 109.2 121.2C110 122 110.4 123.1 110.4 124.2C110.4 125.3 110 126.4 109.2 127.2C108.4 128 107.3 128.4 106.2 128.4C105.1 128.4 104 128 103.2 127.2C102.4 126.4 102 125.3 102 124.2C102 123.1 102.4 122 103.2 121.2C104 120.4 105.1 120 106.2 120Z" fill="#F03382"/>
<path d="M163.3 56.9001C165.9 56.1001 167.4 53.2001 166.6 50.6001C165.8 48.0001 162.8 46.5001 160.2 47.4001C157.6 48.2001 156.2 51.1001 157 53.7001C157.9 56.3001 160.7 57.8001 163.3 56.9001Z" fill="#F03382"/>
<path d="M154.3 40.9998L156.7 40.1998C164 37.7998 172.1 41.8998 174.5 49.2998L175.3 51.6998C175.5 52.3998 176.2 52.6998 176.9 52.4998L179.3 51.6998C180 51.4998 180.3 50.7998 180.1 50.0998L179.3 47.6998C176.1 37.6998 165.1 32.0998 155.1 35.3998L152.7 36.1998C152 36.3998 151.7 37.0998 151.9 37.7998L152.7 40.1998C152.9 40.8998 153.6 41.1998 154.3 40.9998Z" fill="#F03382"/>
<path d="M150.9 30.6998L153.4 29.8998C166.4 25.6998 180.5 32.8998 184.8 45.8998L185.6 48.3998C185.8 49.0998 186.6 49.4998 187.2 49.1998L189.7 48.3998C190.4 48.1998 190.8 47.3998 190.5 46.7998L189.7 44.2998C184.6 28.5998 167.5 19.8998 151.8 24.9998L149.3 25.7998C148.6 25.9998 148.2 26.7998 148.5 27.3998L149.3 29.8998C149.5 30.4998 150.3 30.8998 150.9 30.6998Z" fill="#F03382"/>
<path d="M148.7 15.3999L146.2 16.1999C145.5 16.3999 145.2 17.0999 145.4 17.7999L146.2 20.2999C146.4 20.9999 147.1 21.2999 147.8 21.0999L150.3 20.2999C168.6 14.3999 188.4 24.4999 194.4 42.7999L195.2 45.2999C195.4 45.9999 196.1 46.2999 196.8 46.0999L199.3 45.2999C200 45.0999 200.3 44.3999 200.1 43.6999L199.3 41.1999C192.4 20.1999 169.7 8.59991 148.7 15.3999Z" fill="#F03382"/>
</svg>
