<svg width="211" height="238" viewBox="0 0 211 238" fill="none" xmlns="http://www.w3.org/2000/svg">
<path d="M31.9208 17.7718C-30.9855 73.3383 49.9707 127.2 42.2599 187.918C38.8317 214.912 49.7225 240.718 85.3532 237.769C128.776 234.175 113.013 192.582 122.107 164.892C137.753 117.245 234.008 128.374 194.108 54.9807C168.646 8.14399 75.2173 -20.4732 31.9208 17.7718Z" fill="#262C36"/>
<path d="M29.6715 145.132V177.86C29.6715 179.301 30.5375 180.574 31.8777 181.103L74.488 197.927C76.0369 198.538 77.2706 197.879 77.7294 197.567C78.1882 197.255 79.255 196.349 79.255 194.684V167.134H90.8761V194.684C90.8761 199.69 88.405 204.36 84.266 207.176C81.7224 208.906 78.7581 209.794 75.7705 209.794C73.8972 209.794 72.0151 209.445 70.2208 208.737L27.61 191.913C21.8031 189.619 18.0509 184.104 18.0509 177.861V145.132H29.6715V145.132Z" fill="#F03382"/>
<path d="M18.0518 145.132H29.6728V165.487L18.0518 161.211V145.132Z" fill="#AA235C"/>
<path d="M90.8743 167.133V188.004L79.2532 183.727V167.133H90.8743Z" fill="#AA235C"/>
<path d="M0.928345 116.114V137.752C0.928345 143.597 4.57318 148.821 10.0583 150.839L145.333 200.61V53.2549L10.0588 103.026C4.57318 105.045 0.928345 110.269 0.928345 116.114Z" fill="#D82E75"/>
<path d="M90.8729 79.1549V99.8869C90.8729 101.174 89.8317 102.211 88.5487 102.211H35.1986C30.5223 102.211 26.176 100.821 22.5409 98.4319L90.1849 73.5442C90.6358 75.3385 90.8729 77.2211 90.8729 79.1549Z" fill="#C12566"/>
<path d="M84.8126 147.363L35.5392 129.234C32.5047 128.117 29.2856 130.363 29.2856 133.596V141.889C29.2856 143.837 30.5007 145.579 32.329 146.251L81.6024 164.38C84.6369 165.497 87.8559 163.251 87.8559 160.018V151.725C87.8559 149.777 86.6408 148.035 84.8126 147.363Z" fill="#C12566"/>
<path d="M47.5679 89.2233V164.64L10.0597 150.838C4.57455 148.821 0.930176 143.596 0.930176 137.753V116.114C0.930176 110.267 4.57455 105.042 10.0597 103.024L22.5408 98.4318L47.5679 89.2233Z" fill="#F03382"/>
<path d="M47.5681 89.2233V102.211H35.1986C30.5223 102.211 26.176 100.821 22.5409 98.4318L47.5681 89.2233Z" fill="#C12566"/>
<path d="M0.930176 117.194H10.618C11.9014 117.194 12.9422 118.235 12.9422 119.518C12.9422 120.802 11.9014 121.842 10.618 121.842H0.930176V117.194Z" fill="#CFD6E0"/>
<path d="M0.930176 124.607H10.618C11.9014 124.607 12.9422 125.648 12.9422 126.931C12.9422 128.215 11.9014 129.256 10.618 129.256H0.930176V124.607Z" fill="#CFD6E0"/>
<path d="M0.930176 132.021H10.618C11.9014 132.021 12.9422 133.062 12.9422 134.345C12.9422 135.629 11.9014 136.669 10.618 136.669H0.930176V132.021Z" fill="#CFD6E0"/>
<path d="M145.333 200.611C155.518 200.611 163.774 167.624 163.774 126.933C163.774 86.2419 155.518 53.2552 145.333 53.2552C135.149 53.2552 126.893 86.2419 126.893 126.933C126.893 167.624 135.149 200.611 145.333 200.611Z" fill="#F03382"/>
<path d="M134.1 185.354C138.079 185.354 141.305 159.198 141.305 126.933C141.305 94.6676 138.079 68.5114 134.1 68.5114C130.121 68.5114 126.895 94.6676 126.895 126.933C126.895 159.198 130.121 185.354 134.1 185.354Z" fill="#D8236F"/>
<path d="M141.305 126.933C141.305 130.814 141.231 134.621 141.087 138.335C137.861 142.347 132.971 144.964 127.462 145.132C127.09 139.312 126.895 133.213 126.895 126.933C126.895 120.653 127.09 114.554 127.462 108.734C132.971 108.902 137.861 111.519 141.087 115.53C141.231 119.244 141.305 123.051 141.305 126.933Z" fill="#FE2C8F"/>
<path d="M88.55 93.6139H35.1966C22.4627 93.6139 12.1399 83.2911 12.1399 70.5572C12.1399 57.8233 22.4627 47.5005 35.1966 47.5005H67.8175C80.5514 47.5005 90.8742 57.8233 90.8742 70.5572V91.2897C90.8742 92.5731 89.8339 93.6139 88.55 93.6139Z" fill="#2E343F"/>
<path d="M74.5398 73.8107H31.9973C30.7134 73.8107 29.6731 72.7699 29.6731 71.4864C29.6731 70.203 30.7134 69.1622 31.9973 69.1622H74.5393C75.8232 69.1622 76.8636 70.203 76.8636 71.4864C76.8636 72.7699 75.8232 73.8107 74.5398 73.8107Z" fill="white"/>
<path d="M74.5398 82.483H31.9973C30.7134 82.483 29.6731 81.4422 29.6731 80.1588C29.6731 78.8754 30.7134 77.8346 31.9973 77.8346H74.5393C75.8232 77.8346 76.8636 78.8754 76.8636 80.1588C76.8636 81.4422 75.8232 82.483 74.5398 82.483Z" fill="white"/>
<path d="M47.5679 133.658V151.856L32.3304 146.25C30.4989 145.576 29.2856 143.838 29.2856 141.89V133.597C29.2856 130.362 32.507 128.117 35.5378 129.232L47.5679 133.658Z" fill="#C12566"/>
<path d="M48.6836 69.1608C45.6296 71.0248 42.0363 72.1032 38.1921 72.1032C35.2636 72.1032 32.4791 71.4757 29.969 70.3508C30.3641 69.6396 31.1265 69.1608 31.9957 69.1608H48.6836Z" fill="#DCFDEE"/>
<g opacity="0.15">
<g opacity="0.15">
<path opacity="0.15" d="M190.142 149.042C189.969 149.042 189.793 149.023 189.618 148.982L175.78 145.784C174.53 145.495 173.75 144.247 174.039 142.996C174.328 141.745 175.577 140.967 176.827 141.254L188.812 144.024L190.004 141.4C190.452 140.413 191.522 139.866 192.584 140.083L208.737 143.372C209.995 143.628 210.807 144.855 210.551 146.113C210.295 147.371 209.069 148.183 207.81 147.927L193.471 145.007L192.258 147.678C191.874 148.523 191.037 149.042 190.142 149.042Z" fill="#2626BC"/>
</g>
<g opacity="0.15">
<g opacity="0.15">
<path opacity="0.15" d="M176.305 129.723C175.531 129.723 174.773 129.336 174.332 128.63C173.652 127.541 173.983 126.107 175.072 125.427L185.505 118.912L184.492 116.213C184.112 115.198 184.483 114.055 185.386 113.458L199.133 104.361C200.204 103.654 201.646 103.946 202.354 105.017C203.062 106.088 202.769 107.529 201.698 108.238L189.495 116.313L190.526 119.059C190.914 120.095 190.519 121.261 189.58 121.848L177.534 129.371C177.152 129.609 176.726 129.723 176.305 129.723Z" fill="#2626BC"/>
</g>
<g opacity="0.15">
<path opacity="0.15" d="M200.414 185.105C199.973 185.105 199.528 184.98 199.134 184.718L185.386 175.622C184.483 175.024 184.112 173.881 184.493 172.867L185.506 170.168L175.072 163.652C173.984 162.973 173.652 161.539 174.332 160.45C175.012 159.361 176.446 159.029 177.535 159.71L189.581 167.233C190.52 167.819 190.915 168.985 190.526 170.021L189.496 172.767L201.699 180.843C202.77 181.551 203.063 182.993 202.355 184.064C201.907 184.739 201.168 185.105 200.414 185.105Z" fill="#2626BC"/>
</g>
</g>
</g>
<path d="M145.098 126.933C145.098 136.797 137.256 144.834 127.462 145.132C127.09 139.312 126.895 133.213 126.895 126.933C126.895 120.653 127.09 114.554 127.462 108.734C137.256 109.032 145.098 117.069 145.098 126.933Z" fill="#C12566"/>
<path d="M175.78 134.628L189.618 137.826C189.793 137.867 189.969 137.886 190.142 137.886C191.037 137.886 191.875 137.367 192.258 136.523L193.471 133.852L207.81 136.771C209.068 137.028 210.295 136.215 210.551 134.957C210.807 133.7 209.995 132.472 208.737 132.216L192.584 128.928C191.522 128.711 190.452 129.258 190.004 130.244L188.812 132.869L176.827 130.099C175.577 129.81 174.328 130.59 174.039 131.84C173.75 133.091 174.529 134.339 175.78 134.628Z" fill="#CFD6E0"/>
<path d="M176.307 118.567C176.727 118.567 177.153 118.453 177.536 118.214L189.582 110.691C190.521 110.105 190.916 108.938 190.527 107.903L189.497 105.156L201.7 97.081C202.771 96.3726 203.064 94.9307 202.356 93.8601C201.647 92.7901 200.206 92.4968 199.135 93.2042L185.388 102.301C184.485 102.899 184.114 104.042 184.494 105.056L185.507 107.755L175.074 114.27C173.985 114.95 173.654 116.384 174.334 117.473C174.774 118.179 175.532 118.567 176.307 118.567Z" fill="#CFD6E0"/>
<path d="M185.386 164.466L199.134 173.563C199.528 173.824 199.973 173.949 200.414 173.949C201.168 173.949 201.907 173.583 202.354 172.907C203.063 171.837 202.769 170.395 201.699 169.687L189.495 161.611L190.526 158.865C190.915 157.829 190.52 156.663 189.581 156.077L177.535 148.554C176.445 147.874 175.012 148.205 174.332 149.294C173.652 150.383 173.984 151.817 175.072 152.496L185.506 159.012L184.493 161.711C184.112 162.725 184.483 163.868 185.386 164.466Z" fill="#CFD6E0"/>
</svg>
