<svg width="188" height="136" viewBox="0 0 188 136" fill="none" xmlns="http://www.w3.org/2000/svg">
<rect x="30" width="136" height="136" rx="22.1978" fill="#F0F4F9"/>
<path d="M1 91.251L186.043 50.9999" stroke="#AFBCD0" stroke-width="2" stroke-linecap="round" stroke-linejoin="round"/>
<path d="M52 22C60.7579 22 68 29.2421 68 38C68 46.7579 60.7579 54 52 54C43.2421 54 36 46.7579 36 38C36 29.2421 43.2421 22 52 22Z" fill="#AFBCD0"/>
<path d="M37 10C39.1895 10 41 11.8105 41 14C41 16.1895 39.1895 18 37 18C34.8105 18 33 16.1895 33 14C33 11.8105 34.8105 10 37 10Z" fill="#AFBCD0"/>
<rect x="18" y="65" width="30" height="30" rx="10" fill="#3C4352"/>
<rect x="32" y="100" width="10" height="10" rx="3" fill="#3C4352"/>
<path d="M121 36L109 24L109 36H121Z" fill="#96A4BB"/>
<path d="M58 32C58 29.7909 59.7909 28 62 28H105V40H117V98.7333C117 100.942 115.209 102.733 113 102.733H62C59.7909 102.733 58 100.942 58 98.7333V32Z" fill="#96A4BB"/>
<path d="M62 28C62 25.7909 63.7909 24 66 24H109V36H121V94.7333C121 96.9425 119.209 98.7333 117 98.7333H66C63.7909 98.7333 62 96.9425 62 94.7333V28Z" fill="#AFBCD0"/>
<rect x="68" y="33" width="18" height="4" rx="2" fill="white"/>
<rect x="68" y="55" width="40" height="4" rx="2" fill="white"/>
<rect x="68" y="63" width="20" height="4" rx="2" fill="white"/>
<rect x="68" y="78" width="4" height="4" rx="2" fill="white"/>
<rect x="68" y="86" width="4" height="4" rx="2" fill="white"/>
<rect x="75" y="78" width="33" height="4" rx="2" fill="white"/>
<rect x="75" y="86" width="23" height="4" rx="2" fill="white"/>
<rect x="91" y="63" width="10" height="4" rx="2" fill="white"/>
<path d="M110 103C110 102.448 110.448 102 111 102H119C119.552 102 120 102.448 120 103V117.523C120 118.23 119.285 118.714 118.629 118.451L115.371 117.149C115.133 117.053 114.867 117.053 114.629 117.149L111.371 118.451C110.715 118.714 110 118.23 110 117.523V103Z" fill="#3C4352"/>
<path d="M131 11C131 10.4477 131.448 10 132 10H140C140.552 10 141 10.4477 141 11V25.523C141 26.2304 140.285 26.7142 139.629 26.4514L136.371 25.1486C136.133 25.0532 135.867 25.0532 135.629 25.1486L132.371 26.4514C131.715 26.7142 131 26.2304 131 25.523V11Z" fill="#AFBCD0"/>
<path d="M115 88C121.021 88 126 92.9789 126 99C126 105.021 121.021 110 115 110C108.979 110 104 105.021 104 99C104 92.9789 108.979 88 115 88Z" fill="#F03382"/>
<path d="M115 93C118.284 93 121 95.7158 121 99C121 102.284 118.284 105 115 105C111.716 105 109 102.284 109 99C109 95.7158 111.716 93 115 93Z" fill="#D82E75"/>
</svg>
