<svg width="130" height="118" viewBox="0 0 130 118" fill="none" xmlns="http://www.w3.org/2000/svg">
<path d="M17 31C17 18.8497 26.8497 9 39 9H118V88C118 100.15 108.15 110 96 110H17V31Z" fill="#343A44"/>
<path d="M79.2628 117.518L49.8862 117.518C47.662 117.518 46.2313 115.158 47.2602 113.186L61.9485 85.0332C63.0559 82.9107 66.0931 82.9107 67.2005 85.0332L81.8888 113.186C82.9177 115.158 81.4871 117.518 79.2628 117.518Z" fill="#AFBCD0"/>
<path d="M1.40576 50.1868L127.948 77.0866" stroke="#3C4352" stroke-width="2" stroke-linecap="round" stroke-linejoin="round"/>
<path d="M110 32C101.242 32 94 24.7579 94 16C94 7.2421 101.242 -2.1644e-06 110 -1.39876e-06C118.758 -6.33125e-07 126 7.24211 126 16C126 24.7579 118.758 32 110 32Z" fill="#AFBCD0"/>
<path d="M16.5 83C22.2474 83 27 87.7526 27 93.5C27 99.2474 22.2474 104 16.5 104C10.7526 104 6 99.2474 6 93.5C6 87.7526 10.7526 83 16.5 83Z" fill="#F03382"/>
<path d="M27 81C28.0947 81 29 81.9053 29 83C29 84.0947 28.0947 85 27 85C25.9053 85 25 84.0947 25 83C25 81.9053 25.9053 81 27 81Z" fill="#F03382"/>
<path d="M125 44C122.811 44 121 42.1895 121 40C121 37.8105 122.811 36 125 36C127.189 36 129 37.8105 129 40C129 42.1895 127.189 44 125 44Z" fill="#AFBCD0"/>
<rect x="86" y="11" width="18" height="4" rx="2" transform="rotate(-180 86 11)" fill="#9EAABE"/>
<rect x="40" y="28" width="17" height="17" rx="3" fill="#3C4352"/>
<rect x="30" y="18" width="10" height="10" rx="2" fill="#3C4352"/>
<rect x="103" y="87" width="4" height="4" rx="2" fill="#9EAABE"/>
<rect x="103" y="95" width="4" height="4" rx="2" fill="#9EAABE"/>
</svg>
