<svg width="175" height="155" viewBox="0 0 175 155" fill="none" xmlns="http://www.w3.org/2000/svg">
<path d="M78.7329 9.30274C115.808 4.23023 150.66 30.6937 155.733 67.7686C160.805 104.843 134.342 139.696 97.2671 144.769C60.1922 149.841 25.3396 123.378 20.2671 86.3027C15.1946 49.2279 41.6581 14.3752 78.7329 9.30274Z" fill="#F0F4F9"/>
<path d="M44 42.0356C44 50.7935 36.7579 58.0356 28 58.0356C19.2421 58.0356 12 50.7935 12 42.0356C12 33.2777 19.2421 26.0356 28 26.0356C36.7579 26.0356 44 33.2778 44 42.0356Z" fill="#AFBCD0"/>
<path d="M56 27.0356C56 29.2251 54.1895 31.0356 52 31.0356C49.8105 31.0356 48 29.2251 48 27.0356C48 24.8462 49.8105 23.0356 52 23.0356C54.1895 23.0356 56 24.8462 56 27.0356Z" fill="#AFBCD0"/>
<rect x="23" y="66.0356" width="18" height="4" rx="2" transform="rotate(90 23 66.0356)" fill="#F03382"/>
<path d="M1 109.036H58" stroke="#3C4352" stroke-width="2" stroke-linecap="round" stroke-linejoin="round"/>
<path d="M117 109.036H174" stroke="#3C4352" stroke-width="2" stroke-linecap="round" stroke-linejoin="round"/>
<path d="M68 109.036H108" stroke="#3C4352" stroke-width="2" stroke-linecap="round" stroke-linejoin="round"/>
<path d="M114 47.5356C114.167 55.7023 114.5 72.1356 114.5 72.5356L112.5 73.5356L110 77.0356L110.5 83.0356L109 81.5356L106 79.0356L100 78.5356H90H78.5L71 79.0356L66.5 82.5356L66 80.0356L65 74.5356L61.5 72.5356V69.5356L62 57.0356L61.5 49.5356L65 43.0356L70 39.0356L75.5 38.5356H87.5L97.5 37.5356L105.5 39.0356L108.5 40.0356L114 47.5356Z" fill="#CFD6E0"/>
<path d="M72.2445 54.4335C72.6537 54.0243 73.3171 54.0243 73.7263 54.4335L81.8766 62.5838C82.2858 62.993 82.2858 63.6565 81.8766 64.0657C81.4674 64.4749 80.804 64.4749 80.3948 64.0657L72.2445 55.9154C71.8353 55.5062 71.8353 54.8427 72.2445 54.4335Z" fill="#AFBCD0"/>
<path d="M81.8766 54.4335C82.2858 54.8427 82.2858 55.5062 81.8766 55.9154L73.7263 64.0657C73.3171 64.4749 72.6537 64.4749 72.2445 64.0657C71.8353 63.6565 71.8353 62.993 72.2445 62.5838L80.3948 54.4335C80.804 54.0243 81.4674 54.0243 81.8766 54.4335Z" fill="#AFBCD0"/>
<path d="M94.5521 54.4335C94.9613 54.0243 95.6247 54.0243 96.034 54.4335L104.184 62.5838C104.593 62.993 104.593 63.6565 104.184 64.0657C103.775 64.4749 103.112 64.4749 102.702 64.0657L94.5521 55.9154C94.1429 55.5062 94.1429 54.8427 94.5521 54.4335Z" fill="#AFBCD0"/>
<path d="M104.184 54.4335C104.593 54.8427 104.593 55.5062 104.184 55.9154L96.034 64.0657C95.6247 64.4749 94.9613 64.4749 94.5521 64.0657C94.1429 63.6565 94.1429 62.993 94.5521 62.5838L102.702 54.4335C103.112 54.0243 103.775 54.0243 104.184 54.4335Z" fill="#AFBCD0"/>
<path d="M63.2575 116.019L69.5049 105.826C70.2289 104.645 69.3789 103.127 67.9935 103.127H62.5537C61.857 103.127 61.2249 103.535 60.9381 104.17L56.3347 114.363C55.8048 115.536 56.6629 116.865 57.9503 116.865H61.746C62.3628 116.865 62.9352 116.545 63.2575 116.019Z" stroke="#96A4BB" stroke-width="3"/>
<path d="M112.902 115.928L106.654 105.735C105.93 104.554 106.78 103.036 108.166 103.036H113.605C114.302 103.036 114.934 103.444 115.221 104.079L119.824 114.272C120.354 115.445 119.496 116.775 118.209 116.775H114.413C113.796 116.775 113.224 116.454 112.902 115.928Z" stroke="#96A4BB" stroke-width="3"/>
<path d="M49 77.0359C49 73.7222 51.6863 71.0359 55 71.0359H61.7955C65.2221 71.0359 68 73.8138 68 77.2404V105.036H55C51.6863 105.036 49 102.35 49 99.0359V77.0359Z" fill="#CFD6E0"/>
<path d="M128 77.0359C128 73.7222 125.314 71.0359 122 71.0359H115C111.686 71.0359 109 73.7222 109 77.0359V105.036H122C125.314 105.036 128 102.35 128 99.0359V77.0359Z" fill="#CFD6E0"/>
<path d="M55 72.5359H61.7955C64.3937 72.5359 66.5 74.6422 66.5 77.2404V103.536H55C52.5147 103.536 50.5 101.521 50.5 99.0359V77.0359C50.5 74.5506 52.5147 72.5359 55 72.5359Z" stroke="#96A4BB" stroke-width="3"/>
<path d="M73.8636 78.5359H103.136C107.203 78.5359 110.5 81.8327 110.5 85.8995V103.536H66.5V85.8995C66.5 81.8327 69.7968 78.5359 73.8636 78.5359Z" fill="#CFD6E0" stroke="#96A4BB" stroke-width="3"/>
<path d="M114 74.0359V51.3313C114 43.9885 108.047 38.0359 100.705 38.0359H75.2955C67.9526 38.0359 62 43.9885 62 51.3313V74.0359" stroke="#96A4BB" stroke-width="3"/>
<path d="M122 72.5359H115C112.515 72.5359 110.5 74.5506 110.5 77.0359V103.536H122C124.485 103.536 126.5 101.521 126.5 99.0359V77.0359C126.5 74.5506 124.485 72.5359 122 72.5359Z" stroke="#96A4BB" stroke-width="3"/>
</svg>
