<svg width="177" height="164" viewBox="0 0 177 164" fill="none" xmlns="http://www.w3.org/2000/svg">
<path fill-rule="evenodd" clip-rule="evenodd" d="M108.385 0.627483C141.851 3.66555 158.537 37.0217 168.631 69.0727C178.336 99.8863 183.574 137.174 157.322 156.003C131.364 174.62 99.2535 155.5 72.5309 137.997C38.5773 115.759 -8.82906 93.1655 1.42133 53.8931C12.5425 11.2845 64.5298 -3.35382 108.385 0.627483Z" fill="#F0F4F9"/>
<path d="M17 24C20.2842 24 23 26.7158 23 30C23 33.2842 20.2842 36 17 36C13.7158 36 11 33.2842 11 30C11 26.7158 13.7158 24 17 24Z" fill="#AFBCD0"/>
<path d="M62 32.5C62 31.6716 62.6716 31 63.5 31C64.3284 31 65 31.6716 65 32.5C65 33.3284 64.3284 34 63.5 34C62.6716 34 62 33.3284 62 32.5Z" fill="#3C4352"/>
<path d="M52 28.5C52 27.6716 52.6716 27 53.5 27C54.3284 27 55 27.6716 55 28.5C55 29.3284 54.3284 30 53.5 30C52.6716 30 52 29.3284 52 28.5Z" fill="#3C4352"/>
<path d="M57 30.5C57 29.6716 57.6716 29 58.5 29C59.3284 29 60 29.6716 60 30.5C60 31.3284 59.3284 32 58.5 32C57.6716 32 57 31.3284 57 30.5Z" fill="#3C4352"/>
<path d="M47 31.5C47 30.6716 47.6716 30 48.5 30C49.3284 30 50 30.6716 50 31.5C50 32.3284 49.3284 33 48.5 33C47.6716 33 47 32.3284 47 31.5Z" fill="#3C4352"/>
<path d="M96.6612 70.7032L89.4094 75.4797C88.9789 75.7616 88.492 75.9 88 75.9C87.508 75.9 87.0211 75.7616 86.5906 75.4797L79.3388 70.6981L47.1641 91.0495C47.5587 93.4838 49.5779 95.375 52.1251 95.375H123.875C126.422 95.375 128.441 93.4838 128.836 91.0495L96.6612 70.7032Z" fill="#AFBCD0"/>
<path d="M47 49.3936V85.084L74.6442 67.6078L47 49.3936Z" fill="#AFBCD0"/>
<path d="M101.356 67.6078L129 85.084V49.3936L101.356 67.6078Z" fill="#AFBCD0"/>
<path d="M123.875 39H52.1251C49.5677 39 47.5382 40.9065 47.1538 43.3614L88 70.2727L128.846 43.3614C128.462 40.9065 126.432 39 123.875 39Z" fill="#AFBCD0"/>
<circle cx="129" cy="39" r="12.5714" fill="#F03382" stroke="white" stroke-width="3.14286"/>
<path d="M125.604 41.4547C125.604 41.1339 125.65 40.8497 125.741 40.6022C125.833 40.3456 125.961 40.1164 126.126 39.9147C126.291 39.7131 126.484 39.5343 126.704 39.3785C126.924 39.2135 127.167 39.0622 127.433 38.9247C126.938 38.6406 126.553 38.3152 126.278 37.9485C126.012 37.5818 125.879 37.1235 125.879 36.5735C125.879 36.2252 125.948 35.8952 126.085 35.5835C126.232 35.2718 126.438 35.0014 126.704 34.7722C126.979 34.5339 127.309 34.3506 127.694 34.2222C128.088 34.0847 128.533 34.016 129.028 34.016C129.477 34.016 129.885 34.0756 130.251 34.1947C130.618 34.3047 130.93 34.4652 131.186 34.676C131.452 34.8777 131.654 35.1252 131.791 35.4185C131.938 35.7027 132.011 36.0143 132.011 36.3535C132.011 36.8943 131.883 37.3527 131.626 37.7285C131.379 38.0952 130.994 38.4343 130.471 38.746C131.058 39.0668 131.507 39.4152 131.819 39.791C132.13 40.1668 132.286 40.6527 132.286 41.2485C132.286 41.661 132.204 42.0368 132.039 42.376C131.874 42.7152 131.64 43.0085 131.338 43.256C131.044 43.4943 130.687 43.6822 130.265 43.8197C129.853 43.9572 129.394 44.026 128.89 44.026C128.395 44.026 127.941 43.9618 127.529 43.8335C127.125 43.7143 126.782 43.5402 126.498 43.311C126.213 43.0818 125.993 42.8114 125.838 42.4997C125.682 42.1789 125.604 41.8306 125.604 41.4547ZM130.444 41.2622C130.444 41.0606 130.384 40.8772 130.265 40.7122C130.155 40.5472 130.008 40.396 129.825 40.2585C129.651 40.121 129.454 39.9927 129.234 39.8735C129.014 39.7543 128.794 39.6443 128.574 39.5435C128.115 39.7818 127.799 40.0431 127.625 40.3272C127.46 40.6114 127.378 40.8818 127.378 41.1385C127.378 41.496 127.51 41.7985 127.776 42.046C128.051 42.2935 128.436 42.4172 128.931 42.4172C129.39 42.4172 129.756 42.321 130.031 42.1285C130.306 41.9268 130.444 41.6381 130.444 41.2622ZM127.721 36.601C127.721 36.821 127.767 37.0135 127.859 37.1785C127.96 37.3435 128.088 37.4902 128.244 37.6185C128.4 37.7377 128.574 37.8477 128.766 37.9485C128.968 38.0493 129.174 38.1456 129.385 38.2372C129.963 37.7789 130.251 37.2793 130.251 36.7385C130.251 36.3718 130.128 36.0968 129.88 35.9135C129.633 35.721 129.335 35.6247 128.986 35.6247C128.546 35.6247 128.225 35.721 128.024 35.9135C127.822 36.106 127.721 36.3352 127.721 36.601Z" fill="white"/>
<path d="M52 112.784C52 110.694 53.9511 109 56.3579 109H75.2421C77.6489 109 79.6 110.694 79.6 112.784V124.765C79.6 126.855 77.6489 128.549 75.2421 128.549H56.3579C53.9511 128.549 52 126.855 52 124.765V112.784Z" fill="#96A4BB"/>
<path d="M63.4194 120.08C68 133.5 49.3343 133.873 53 130.5C56.4132 127.359 56.7275 124.141 55.9228 123.265L63.4194 120.08Z" fill="#96A4BB"/>
<rect x="101" y="109" width="57" height="4" rx="2" fill="#3C4352"/>
<rect x="101" y="117" width="27" height="4" rx="2" fill="#3C4352"/>
<rect x="101" y="125" width="37" height="4" rx="2" fill="#3C4352"/>
<rect x="131" y="117" width="8" height="4" rx="2" fill="#3C4352"/>
<rect x="142" y="117" width="16" height="4" rx="2" fill="#3C4352"/>
</svg>
