<svg width="147" height="114" viewBox="0 0 147 114" fill="none" xmlns="http://www.w3.org/2000/svg">
<path d="M107.204 35.073C107.204 24.485 110.734 16.1027 117.793 9.92634C125.292 3.30879 134.778 0 146.248 0C160.366 0 171.615 4.19113 179.998 12.5734C188.821 20.9556 193.233 33.3084 193.233 49.6317C193.233 65.0727 190.806 78.3078 185.953 89.337C181.101 100.366 175.145 109.631 168.086 117.131C161.468 124.631 154.41 130.587 146.91 134.998C139.41 138.969 133.013 141.836 127.719 143.601L109.19 116.469C119.778 111.616 128.381 105.44 134.998 97.9399C142.057 89.9988 145.366 80.293 144.925 68.8226C133.454 71.0284 124.19 68.8226 117.131 62.2051C110.513 55.5875 107.204 46.5435 107.204 35.073ZM0 35.073C0 24.485 3.52936 16.1027 10.5881 9.92634C18.088 3.30879 27.5732 0 39.0436 0C53.1611 0 64.4109 4.19113 72.7932 12.5734C81.6166 20.9556 86.0283 33.3084 86.0283 49.6317C86.0283 65.0727 83.6018 78.3078 78.7489 89.337C73.8961 100.366 67.9403 109.631 60.8815 117.131C54.264 124.631 47.2052 130.587 39.7053 134.998C32.2054 138.969 25.8085 141.836 20.5144 143.601L1.98527 116.469C12.5734 111.616 21.1762 105.44 27.7937 97.9399C34.8525 89.9988 38.1613 80.293 37.7201 68.8226C26.2496 71.0284 16.9851 68.8226 9.92634 62.2051C3.30878 55.5875 0 46.5435 0 35.073Z" fill="#F5F7F9"/>
</svg>
