<svg width="50" height="50" viewBox="0 0 50 50" fill="none" xmlns="http://www.w3.org/2000/svg">
<mask id="mask0" mask-type="alpha" maskUnits="userSpaceOnUse" x="0" y="0" width="50" height="50">
<rect width="50" height="50" rx="11" fill="#C4C4C4"/>
</mask>
<g mask="url(#mask0)">
<rect width="50" height="50" rx="11" fill="#2E343F"/>
</g>
<path d="M22.6223 17.3778C22.6223 16.0646 23.6869 15 25.0001 15H41.889C43.2022 15 44.2668 16.0646 44.2668 17.3778V25.8691C44.2668 27.1564 43.2232 28.2 41.9359 28.2C41.0447 28.2 40.2124 28.6454 39.7181 29.3869L39.0844 30.3374C38.8117 30.7465 38.2107 30.7465 37.938 30.3374L37.3113 29.3974C36.8126 28.6493 35.973 28.2 35.074 28.2H25.0001C23.6869 28.2 22.6223 27.1354 22.6223 25.8222V17.3778Z" fill="#AFBCD0" stroke="white" stroke-width="2"/>
<path d="M32 22C32 20.3431 30.6569 19 29 19H9C7.34315 19 6 20.3431 6 22V32.0555C6 33.6817 7.31829 35 8.94449 35C9.93827 35 10.8663 35.4967 11.4175 36.3235L12.1679 37.4491C12.5638 38.0429 13.4362 38.0429 13.8321 37.4492L14.5742 36.3359C15.1306 35.5013 16.0673 35 17.0704 35H29C30.6569 35 32 33.6569 32 32V22Z" fill="#F03382" stroke="white" stroke-width="2"/>
</svg>
