<svg width="100" height="101" viewBox="0 0 100 101" fill="none" xmlns="http://www.w3.org/2000/svg">
<path d="M0 75.0927V75.0972C0.0598953 77.3165 0.0783698 79.5486 0.453104 81.7544C0.850203 84.0879 1.41785 86.3634 2.50082 88.4813C3.96495 91.3479 5.97572 93.7687 8.51388 95.7461C10.3362 97.166 12.327 98.2932 14.5306 99.0042C17.744 100.04 21.059 100.437 24.4225 100.456C26.521 100.469 28.6181 100.522 30.7173 100.513C45.9624 100.449 61.2079 100.623 76.4534 100.419C78.4765 100.391 80.4664 100.145 82.4519 99.7822C86.2574 99.0864 89.6207 97.4642 92.4982 94.8997C95.8517 91.9117 98.1143 88.2548 99.1357 83.8412C99.804 80.9563 99.9713 78.0295 99.9999 75.0923V74.5064C99.9999 74.2791 99.9133 24.6005 99.9054 23.9439C99.883 22.1401 99.75 20.3499 99.4114 18.5751C98.9997 16.4123 98.4181 14.3049 97.3814 12.3482C96.2868 10.281 94.9156 8.42227 93.2197 6.798C90.6218 4.30942 87.6239 2.54955 84.1339 1.61862C80.9816 0.778021 77.7657 0.591913 74.5263 0.594827C74.521 0.59405 74.5088 0.561218 74.508 0.545288H25.4763C25.4753 0.561995 25.4748 0.578702 25.4736 0.594827C23.6351 0.628435 21.7939 0.614642 19.9648 0.841158C17.961 1.09002 15.9765 1.46476 14.0799 2.16451C11.0925 3.26834 8.49697 4.98762 6.27987 7.28289C3.76796 9.88336 1.99735 12.8908 1.05789 16.3929C0.219746 19.5175 0.0373386 22.7043 0.0328659 25.9136" fill="#04B5EF"/>
<path d="M52.0023 69.6265C48.6617 69.8181 45.3211 69.8728 42.2452 68.2672C37.2709 65.6855 34.5692 61.6168 34.414 55.9517C34.3775 54.7201 34.414 53.4886 34.4049 52.257C34.4049 51.9195 34.4597 51.6185 34.6514 51.3539C35.7558 49.876 36.057 48.2249 35.9657 46.3912C35.847 44.0102 36.5224 41.7843 37.8368 39.7864C40.2007 36.183 43.5413 34.1852 47.8676 33.948C49.7935 33.8385 51.7285 33.7838 53.6361 34.2217C53.9281 34.2855 54.2293 34.3311 54.5032 34.4862C54.3936 34.5501 54.348 34.6687 54.4393 34.7508C54.7222 34.9971 54.6674 35.3255 54.6674 35.6357C54.6674 36.9219 54.6492 38.2082 54.6766 39.4854C54.6857 39.9233 54.6036 40.2061 54.1381 40.2791C53.5357 39.9963 52.915 39.7317 52.2578 39.6131C50.6423 39.3212 49.0177 39.3212 47.4021 39.5493C44.4723 39.9598 42.1266 42.3408 41.6793 45.2691C41.4968 46.4642 41.6428 47.6684 41.6063 48.8634C41.5972 49.1645 41.8163 49.1006 41.9805 49.1006C43.6235 49.1006 45.2664 49.1006 46.9001 49.1006C48.3605 49.1006 49.8209 49.1097 51.2721 49.1189C51.2904 49.1918 51.2812 49.3104 51.3177 49.3287C51.6737 49.5294 51.6463 49.8578 51.6372 50.1953C51.6281 51.1167 51.6372 52.0381 51.6372 52.9595C51.6372 53.443 51.7558 53.9721 51.263 54.3188C51.1078 54.2731 50.9435 54.2275 50.7884 54.1728C49.2732 53.6984 47.4204 54.2002 46.5259 55.4773C44.883 57.831 45.9418 60.3032 47.8585 61.2702C48.1323 61.407 48.2236 61.5621 48.2145 61.8631C48.1871 62.894 48.1962 63.934 48.1871 64.9648C48.1871 65.0925 48.2236 65.202 48.2784 65.3024C48.5978 65.8953 49.3462 66.242 49.976 66.0869C50.6606 65.9227 51.0896 65.3662 51.0987 64.6182C51.1078 63.861 51.1534 63.0947 51.0804 62.3375C51.0165 61.6624 51.2356 61.2519 51.8654 61.0421C51.8836 61.033 51.8928 61.033 51.911 61.033C51.9566 61.2702 52.1027 61.4526 52.1027 61.7172C52.0844 64.0891 52.0844 66.4609 52.1118 68.8328C52.1027 69.1339 51.8289 69.3437 52.0023 69.6265Z" fill="white"/>
<path d="M51.2537 54.3371C51.7466 53.9813 51.6188 53.4613 51.6279 52.9778C51.6371 52.0564 51.6279 51.1351 51.6279 50.2137C51.6279 49.8761 51.6645 49.5477 51.3085 49.347C51.2629 49.3197 51.272 49.2102 51.2629 49.1372C53.2526 49.1281 55.2423 49.1098 57.2321 49.1281C57.6519 49.1281 57.7341 49.0004 57.725 48.6172C57.6976 47.8144 57.725 47.0116 57.7158 46.1997C57.7067 45.5611 57.6063 44.9317 57.4146 44.3205C56.8487 42.5416 55.717 41.237 54.1197 40.2883C54.5852 40.2153 54.6673 39.9325 54.6582 39.4946C54.6217 38.2083 54.6491 36.922 54.6491 35.6449C54.6491 35.3347 54.7038 35.0154 54.4209 34.76C54.3296 34.6779 54.3844 34.5593 54.4848 34.4954C56.5384 35.134 58.373 36.1557 59.8334 37.7431C61.1385 39.1662 62.1152 40.79 62.7358 42.651C63.3747 44.5485 63.3291 46.4825 63.3291 48.4256C63.3291 48.8362 63.4021 49.1919 63.612 49.5477C63.9315 50.0768 64.1871 50.6516 64.5248 51.1715C64.826 51.6277 64.899 52.1112 64.8807 52.6403C64.826 54.2824 64.9903 55.9244 64.7712 57.5574C64.4974 59.6282 63.8311 61.5439 62.6263 63.2864C61.1477 65.421 59.3496 67.1543 56.9948 68.2764C55.4888 68.988 53.9098 69.4259 52.2486 69.5901C52.2121 69.5536 52.1847 69.5627 52.1573 69.5992C52.0934 69.5992 52.0387 69.6083 51.9748 69.6083C51.8014 69.3255 52.0843 69.1157 52.0843 68.842C52.0569 66.4701 52.0661 64.0983 52.0752 61.7264C52.0752 61.4618 51.9291 61.2703 51.8835 61.0422C52.8327 60.2759 53.4534 59.3271 53.5173 58.0865C53.6177 56.3532 52.7689 55.1399 51.2537 54.3371Z" fill="white"/>
<circle cx="49.9997" cy="50.9999" r="32.4074" stroke="white" stroke-width="5.55556"/>
</svg>
