<svg width="1541" height="277" viewBox="0 0 1541 277" fill="none" xmlns="http://www.w3.org/2000/svg">
<path d="M24.6488 238.253C83.2686 238.253 126.1 200.892 129.539 147.275H65.4482C61.3839 169.785 45.7519 183.854 24.8051 183.854C-2.70713 183.854 -19.746 159.78 -19.746 118.981C-19.746 78.6505 -2.55081 54.5773 24.6488 54.5773C45.5956 54.5773 61.3839 68.8023 65.1356 90.8434H129.227C125.631 38.1637 81.8618 0.17805 24.6488 0.17805C-44.2881 0.17805 -87.276 44.7291 -87.276 119.137C-87.276 193.545 -44.4445 238.253 24.6488 238.253ZM271.634 232V59.1105H331.035V6.43083H145.953V59.1105H205.354V232H271.634ZM397.002 234.501C444.211 234.501 466.877 209.177 484.854 167.44L553.947 6.43083H483.759L449.057 111.009H447.806L409.82 6.43083H339.633L412.321 172.599C405.443 180.727 396.22 181.978 385.591 181.978C374.336 181.978 370.584 180.415 370.584 180.415V232C370.584 232 382.777 234.501 397.002 234.501ZM635.389 125.859L639.923 58.7979H696.041V179.32H621.164V178.07C630.231 167.909 633.67 150.557 635.389 125.859ZM599.436 232H731.057V276.551H790.458V179.32H762.321V6.43083H581.928L574.894 119.45C572.862 151.026 569.892 166.346 554.885 179.32H540.034V276.551H599.436V232ZM958.033 232H1024.31V6.43083H961.159L878.31 131.955H877.059V6.43083H810.78V232H873.933L956.782 106.475H958.033V232ZM1185.48 111.009H1157.34C1138.74 111.009 1127.33 100.379 1127.33 83.3401C1127.33 66.6139 1139.36 55.3589 1157.18 55.3589H1185.48V111.009ZM1166.09 155.872H1185.48V232H1250.98V6.43083H1151.24C1093.09 6.43083 1059.64 36.9132 1059.64 83.0274C1059.64 112.884 1077.93 135.551 1104.04 146.337L1050.11 232H1121.07L1166.09 155.872ZM1540.64 232V6.43083H1464.04L1413.7 138.052H1412.45L1361.96 6.43083H1285.37V232H1343.2V101.317H1344.46L1395.26 229.343H1430.74L1481.55 101.317H1482.8V232H1540.64Z" fill="#EAEFF5"/>
</svg>
