<svg width="826" height="800" viewBox="0 0 826 800" fill="none" xmlns="http://www.w3.org/2000/svg">
<path fill-rule="evenodd" clip-rule="evenodd" d="M1183.02 511.986C1153.04 612.704 989.891 588.923 914.781 662.42C825.494 749.789 834.118 928.977 715.828 969.143C600.745 1008.22 471.063 926.968 383.301 842.89C302.996 765.957 306.024 643.054 266.816 538.985C227.957 435.844 117.032 340.017 154.833 236.484C193.087 131.709 350.744 143.128 437.115 72.5502C524.15 1.42907 545.461 -152.5 655.97 -173.022C765.506 -193.364 869.162 -103.535 944.791 -21.729C1009.87 48.6656 1000.8 154.692 1039.88 242.235C1082.41 337.52 1212.8 411.978 1183.02 511.986Z" fill="url(#paint0_linear)"/>
<defs>
<linearGradient id="paint0_linear" x1="823" y1="545" x2="147.403" y2="262.244" gradientUnits="userSpaceOnUse">
<stop stop-color="#161535"/>
<stop offset="1" stop-color="#792481" stop-opacity="0"/>
</linearGradient>
</defs>
</svg>
