<svg width="1165" height="234" viewBox="0 0 1165 234" fill="none" xmlns="http://www.w3.org/2000/svg">
<path d="M114.368 0.522844C44.6498 0.522844 0.723969 45.2302 0.723969 117.294C0.723969 189.357 44.4935 233.908 114.368 233.908C184.087 233.908 228.013 189.357 228.013 117.294C228.013 45.2302 184.087 0.522844 114.368 0.522844ZM114.368 53.3589C142.037 53.3589 160.483 78.2137 160.483 117.294C160.483 156.217 142.193 181.072 114.368 181.072C86.5434 181.072 68.254 156.217 68.254 117.294C68.254 78.2137 86.6997 53.3589 114.368 53.3589ZM443.89 155.592C443.89 111.979 408.718 83.9975 356.976 83.9975H323.211V56.9542H424.819V4.43083H256.932V230H359.946C410.125 230 443.89 201.081 443.89 155.592ZM323.211 179.978V130.737H343.377C364.011 130.737 376.36 139.022 376.36 155.436C376.36 171.693 364.011 179.978 343.845 179.978H323.211ZM724.171 230V4.43083H647.574L597.24 136.052H595.989L545.498 4.43083H468.901V230H526.739V99.3168H527.99L578.794 227.343H614.278L665.082 99.3168H666.333V230H724.171ZM917.851 177.32H824.997V141.054H912.067V93.533H824.997V57.1105H917.851V4.43083H758.718V230H917.851V177.32ZM1164.21 230V4.43083H1097.93V90.094H1018.52V4.43083H952.241V230H1018.52V142.774H1097.93V230H1164.21Z" fill="#EAEFF5"/>
</svg>
