<svg width="118" height="31" viewBox="0 0 118 31" fill="none" xmlns="http://www.w3.org/2000/svg">
<path d="M3.64198 21.7148C2.47654 21.0593 1.60247 20.258 0.946914 19.1654C0.291358 18.0729 0 16.8346 0 15.5235C0 14.2124 0.291358 12.9741 0.946914 11.8815C1.60247 10.7889 2.47654 9.91482 3.64198 9.33211C4.80741 8.67655 6.11852 8.38519 7.50247 8.38519C8.95926 8.38519 10.1975 8.67655 11.363 9.33211C12.5284 9.98766 13.4025 10.7889 14.058 11.8815C14.7136 12.9741 15.0778 14.2124 15.0778 15.5235C15.0778 16.8346 14.7136 18.0729 14.058 19.1654C13.4025 20.258 12.5284 21.1321 11.363 21.7148C10.1975 22.3704 8.88642 22.6617 7.50247 22.6617C6.04568 22.6617 4.80741 22.2975 3.64198 21.7148ZM9.68766 19.3111C10.3432 18.9469 10.8531 18.4371 11.2173 17.7087C11.5815 17.0531 11.8 16.2519 11.8 15.3778C11.8 14.5037 11.5815 13.7753 11.2173 13.0469C10.8531 12.3914 10.3432 11.8815 9.68766 11.4445C9.0321 11.0803 8.30371 10.8617 7.50247 10.8617C6.70124 10.8617 5.97284 11.0803 5.31729 11.4445C4.66173 11.8087 4.15185 12.3185 3.78766 13.0469C3.42346 13.7025 3.20494 14.5037 3.20494 15.3778C3.20494 16.2519 3.42346 16.9803 3.78766 17.7087C4.15185 18.3642 4.66173 18.8741 5.31729 19.3111C5.97284 19.6753 6.70124 19.8938 7.50247 19.8938C8.30371 19.8938 9.0321 19.7482 9.68766 19.3111Z" fill="#353535"/>
<path d="M20.3222 21.7148C19.1567 21.0593 18.2826 20.258 17.6271 19.1654C16.9715 18.0729 16.6802 16.8346 16.6802 15.5235C16.6802 14.2124 16.9715 12.9741 17.6271 11.8815C18.2826 10.7889 19.1567 9.91482 20.3222 9.33211C21.4876 8.67655 22.7987 8.38519 24.1826 8.38519C25.6394 8.38519 26.8777 8.67655 28.0431 9.33211C29.2086 9.98766 30.0826 10.7889 30.7382 11.8815C31.3938 12.9741 31.758 14.2124 31.758 15.5235C31.758 16.8346 31.3938 18.0729 30.7382 19.1654C30.0826 20.258 29.2086 21.1321 28.0431 21.7148C26.8777 22.3704 25.5666 22.6617 24.1826 22.6617C22.7987 22.6617 21.4876 22.2975 20.3222 21.7148ZM26.4407 19.3111C27.0962 18.9469 27.6061 18.4371 27.9703 17.7087C28.3345 17.0531 28.553 16.2519 28.553 15.3778C28.553 14.5037 28.3345 13.7753 27.9703 13.0469C27.6061 12.3914 27.0962 11.8815 26.4407 11.4445C25.7851 11.0803 25.0567 10.8617 24.2555 10.8617C23.4543 10.8617 22.7259 11.0803 22.0703 11.4445C21.4147 11.8087 20.9049 12.3185 20.5407 13.0469C20.1765 13.7025 19.958 14.5037 19.958 15.3778C19.958 16.2519 20.1765 16.9803 20.5407 17.7087C20.9049 18.3642 21.4147 18.8741 22.0703 19.3111C22.7259 19.6753 23.4543 19.8938 24.2555 19.8938C25.0567 19.8938 25.7851 19.7482 26.4407 19.3111Z" fill="#353535"/>
<path d="M43.4124 9.18641C44.2864 9.62344 45.0148 10.2062 45.5247 10.9346C46.0346 11.6629 46.2531 12.6099 46.2531 13.6296C46.2531 14.6494 46.0346 15.5234 45.5247 16.3247C45.0148 17.0531 44.3593 17.6358 43.4124 18.0728C42.5383 18.5099 41.4457 18.6555 40.2074 18.6555H37.4395V22.4432H34.1617V8.60369H40.1346C41.4457 8.53085 42.4654 8.74937 43.4124 9.18641ZM42.2469 15.3778C42.7568 14.9407 42.9753 14.358 42.9753 13.6296C42.9753 12.8284 42.7568 12.2457 42.2469 11.8086C41.7371 11.3716 41.0087 11.1531 40.0617 11.1531H37.4395V15.9605H39.9889C41.0087 15.9605 41.7371 15.742 42.2469 15.3778Z" fill="#353535"/>
<path d="M50.0407 22.2247C49.0209 21.9333 48.2197 21.5691 47.5641 21.0593L48.6567 18.6556C49.2395 19.0926 49.9679 19.4568 50.7691 19.6753C51.5703 19.9667 52.3716 20.0395 53.2456 20.0395C54.1197 20.0395 54.8481 19.8938 55.2851 19.6025C55.7222 19.3111 55.9407 18.9469 55.9407 18.5099C55.9407 18.1457 55.795 17.9272 55.5765 17.7086C55.2851 17.4901 54.9938 17.3444 54.5567 17.1988C54.1197 17.0531 53.6098 16.9074 52.9543 16.7617C51.9345 16.5432 51.0604 16.2518 50.332 16.0333C49.6765 15.8148 49.0938 15.3778 48.5839 14.7951C48.074 14.2123 47.8555 13.4839 47.8555 12.6099C47.8555 11.8086 48.074 11.0802 48.5111 10.4247C48.9481 9.76913 49.6037 9.25925 50.4777 8.89506C51.3518 8.53086 52.4444 8.31234 53.6827 8.31234C54.5567 8.31234 55.4308 8.38518 56.3049 8.6037C57.179 8.82222 57.9074 9.11357 58.4901 9.47777L57.4703 11.8815C56.1592 11.1531 54.9209 10.7889 53.6098 10.7889C52.7358 10.7889 52.0802 10.9346 51.6432 11.2259C51.2061 11.5173 50.9876 11.8815 50.9876 12.3914C50.9876 12.9012 51.2061 13.1926 51.716 13.4839C52.2259 13.7025 52.9543 13.921 53.974 14.1395C54.9938 14.358 55.8679 14.6494 56.5962 14.8679C57.2518 15.0864 57.8345 15.5235 58.3444 16.0333C58.8543 16.5432 59.0728 17.2716 59.0728 18.2185C59.0728 19.0197 58.8543 19.7481 58.4172 20.4037C57.9802 21.0593 57.3246 21.5691 56.4506 21.9333C55.5765 22.2975 54.4839 22.516 53.2456 22.516C52.153 22.6617 51.0604 22.516 50.0407 22.2247Z" fill="#353535"/>
<path d="M7.35685 22.6617C6.77413 22.6617 6.3371 22.2247 6.3371 21.642V21.2049C6.3371 20.6222 6.77413 20.1852 7.35685 20.1852C7.93957 20.1852 8.3766 20.6222 8.3766 21.2049V21.5691C8.3766 22.1519 7.93957 22.6617 7.35685 22.6617Z" fill="#353535"/>
<path d="M24.474 22.6617C23.8913 22.6617 23.4543 22.2247 23.4543 21.642V21.2049C23.4543 20.6222 23.8913 20.1852 24.474 20.1852C25.0568 20.1852 25.4938 20.6222 25.4938 21.2049V21.5691C25.5666 22.1519 25.0568 22.6617 24.474 22.6617Z" fill="#353535"/>
<path d="M111.609 0.572612C115.137 0.582957 117.986 3.45473 117.969 6.98231L117.886 23.862C117.868 27.3834 115.001 30.2245 111.479 30.209L74.6166 30.0466C71.0988 30.0311 68.2577 27.1704 68.2664 23.6525L68.3078 6.82703C68.3165 3.30319 71.181 0.454055 74.7049 0.464389L111.609 0.572612Z" fill="url(#paint0_linear)"/>
<path d="M93.3074 8.74937L87.5531 21.7876H84.9309L79.4679 8.74937H82.3815L86.3877 18.7284L90.4667 8.74937H93.3074Z" fill="white"/>
<path d="M94.6913 21.7876V8.74937H100.664C103.359 8.74937 104.67 9.9148 104.67 12.2457C104.67 13.8481 103.651 15.1592 101.538 16.179L105.69 21.8605H102.631L98.6247 16.179V15.0136C100.956 14.6494 102.121 13.7025 102.121 12.3185C102.121 11.3716 101.611 10.8617 100.519 10.8617H97.1679V21.7876H94.6913Z" fill="white"/>
<defs>
<linearGradient id="paint0_linear" x1="93.1795" y1="-5.76345" x2="93.0122" y2="43.6801" gradientUnits="userSpaceOnUse">
<stop stop-color="#FF0000"/>
<stop offset="1" stop-color="#BC0000"/>
</linearGradient>
</defs>
</svg>
