<svg width="178" height="179" viewBox="0 0 178 179" fill="none" xmlns="http://www.w3.org/2000/svg">
<path d="M78.2887 10.8546C121.141 4.99158 161.426 35.5792 167.289 78.432C173.152 121.285 142.564 161.569 99.7113 167.432C56.8585 173.295 16.5743 142.707 10.7113 99.8546C4.84828 57.0019 35.4359 16.7176 78.2887 10.8546Z" fill="#343A44"/>
<path d="M36.0503 10.121L143.076 129.539" stroke="#3C4352" stroke-width="2.34295"/>
<path d="M33.5004 57.5L138.724 174.602" stroke="#3C4352" stroke-width="2.34295"/>
<rect x="68.7217" y="109.26" width="36.0506" height="20.2785" rx="4.68591" fill="#4B5565"/>
<rect x="30.4635" y="57.4825" width="111.442" height="62.9988" rx="3.51443" fill="#AFBCD0" stroke="#AFBCD0" stroke-width="2.34295"/>
<path d="M29.292 111.514H143.077V116.967C143.077 119.555 140.979 121.653 138.391 121.653H33.9779C31.3899 121.653 29.292 119.555 29.292 116.967V111.514Z" fill="#96A4BB"/>
<path d="M146.089 34.3178C148.26 34.0208 150.3 35.5701 150.597 37.7407C150.894 39.9113 149.345 41.9517 147.175 42.2487C145.004 42.5457 142.964 40.9964 142.667 38.8258C142.37 36.6552 143.919 34.6148 146.089 34.3178Z" fill="#F03382"/>
<path d="M123.387 6.57272C131.726 5.4318 139.565 11.384 140.706 19.723C141.847 28.062 135.895 35.9012 127.556 37.0421C119.217 38.183 111.378 32.2308 110.237 23.8918C109.096 15.5528 115.048 7.71365 123.387 6.57272Z" fill="#F03382"/>
<path d="M152.482 78.8427C153.941 78.8427 155.172 77.6559 155.172 76.1965C155.172 74.7372 153.941 73.5063 152.482 73.5063C151.023 73.5063 149.836 74.7372 149.836 76.1965C149.836 77.6559 151.023 78.8427 152.482 78.8427Z" fill="white"/>
<path d="M150.496 69.5158H151.816C155.825 69.5158 159.163 72.8537 159.163 76.8629V78.1828C159.163 78.5473 159.458 78.8427 159.823 78.8427H161.143C161.507 78.8427 161.803 78.5473 161.803 78.1828V76.8629C161.803 71.3959 157.283 66.8761 151.816 66.8761H150.496C150.131 66.8761 149.836 67.1715 149.836 67.536V68.8559C149.836 69.2204 150.131 69.5158 150.496 69.5158Z" fill="white"/>
<path d="M150.496 64.2337H151.816C158.742 64.2337 164.445 69.9364 164.445 76.8625V78.1826C164.445 78.5472 164.74 78.8426 165.105 78.8426H166.425C166.79 78.8426 167.085 78.5472 167.085 78.1826V76.8625C167.085 68.4783 160.2 61.5935 151.816 61.5935H150.496C150.131 61.5935 149.836 61.889 149.836 62.2536V63.5737C149.836 63.9382 150.131 64.2337 150.496 64.2337Z" fill="white"/>
<path d="M151.816 56.311H150.496C150.131 56.311 149.836 56.6065 149.836 56.9711V58.2914C149.836 58.656 150.131 58.9515 150.496 58.9515H151.816C161.66 58.9515 169.727 67.019 169.727 76.8624V78.1826C169.727 78.5472 170.023 78.8427 170.387 78.8427H171.707C172.072 78.8427 172.368 78.5472 172.368 78.1826V76.8624C172.368 65.5608 163.118 56.311 151.816 56.311Z" fill="white"/>
<path d="M56.8537 146.886C62.7488 145.35 68.8931 148.955 70.4284 154.851C71.9638 160.746 68.3587 166.89 62.4636 168.425C56.5686 169.961 50.4243 166.355 48.8889 160.46C47.3536 154.565 50.9587 148.421 56.8537 146.886Z" fill="white"/>
<path d="M37.4366 144.301C39.5905 143.74 41.8768 145.082 42.4378 147.236C42.9987 149.39 41.6573 151.676 39.5034 152.237C37.3494 152.798 35.0631 151.456 34.5022 149.303C33.9412 147.149 35.2826 144.862 37.4366 144.301Z" fill="white"/>
<rect x="31.6348" y="59.0048" width="110.119" height="7.02886" rx="3.51443" fill="#2E343F"/>
<circle cx="35.149" cy="62.5193" r="1.17148" fill="white"/>
<circle cx="38.6637" cy="62.5193" r="1.17148" fill="white"/>
<circle cx="42.1773" cy="62.5193" r="1.17148" fill="white"/>
<rect x="124.182" y="61.3478" width="15.2292" height="2.34295" rx="1.17148" fill="white"/>
<path d="M53.7016 30.4163C54.1591 29.9588 54.9008 29.9588 55.3583 30.4163L64.4703 39.5283C64.9278 39.9858 64.9278 40.7275 64.4703 41.185C64.0128 41.6425 63.271 41.6425 62.8136 41.185L53.7016 32.073C53.2441 31.6155 53.2441 30.8738 53.7016 30.4163Z" fill="#F03382"/>
<path d="M64.4703 30.4163C64.9278 30.8738 64.9278 31.6155 64.4703 32.073L55.3583 41.185C54.9008 41.6425 54.1591 41.6425 53.7016 41.185C53.2441 40.7275 53.2441 39.9858 53.7016 39.5283L62.8136 30.4163C63.271 29.9588 64.0128 29.9588 64.4703 30.4163Z" fill="#F03382"/>
<g filter="url(#filter0_d)">
<path d="M122.798 116.762V97.9945L136.375 111.607H128.433L122.798 116.762Z" fill="white"/>
<path d="M123.969 100.818V113.927L127.952 110.401H133.528L123.969 100.818Z" fill="#3C4352"/>
</g>
<path d="M86.4869 90.8434C87.0023 90.8434 87.4201 90.4255 87.4201 89.9101C87.4201 89.3947 87.0023 88.9769 86.4869 88.9769C85.9715 88.9769 85.5537 89.3947 85.5537 89.9101C85.5537 90.4255 85.9715 90.8434 86.4869 90.8434Z" fill="#2E343F"/>
<path d="M86.4863 102.042C93.1755 102.042 98.618 96.5993 98.618 89.91C98.618 85.6265 96.3806 81.8006 93.0187 79.6414V89.91C93.0187 93.5116 90.0879 96.4425 86.4863 96.4425C82.8846 96.4425 79.9538 93.5116 79.9538 89.91V79.6414C76.592 81.8006 74.3545 85.6265 74.3545 89.91C74.3545 96.5993 79.797 102.042 86.4863 102.042Z" fill="#2E343F"/>
<path d="M86.4864 94.5761C89.0591 94.5761 91.1524 92.4828 91.1524 89.91V78.652C89.715 78.0507 88.1393 77.7161 86.4864 77.7161C84.8334 77.7161 83.2577 78.0507 81.8203 78.652V89.91C81.8203 92.4828 83.9136 94.5761 86.4864 94.5761ZM86.4864 87.1104C88.0302 87.1104 89.286 88.3663 89.286 89.91C89.286 91.4538 88.0302 92.7097 86.4864 92.7097C84.9426 92.7097 83.6867 91.4538 83.6867 89.91C83.6867 88.3663 84.9426 87.1104 86.4864 87.1104Z" fill="#2E343F"/>
<defs>
<filter id="filter0_d" x="120.455" y="97.9945" width="18.2633" height="23.453" filterUnits="userSpaceOnUse" color-interpolation-filters="sRGB">
<feFlood flood-opacity="0" result="BackgroundImageFix"/>
<feColorMatrix in="SourceAlpha" type="matrix" values="0 0 0 0 0 0 0 0 0 0 0 0 0 0 0 0 0 0 127 0"/>
<feOffset dy="2.34295"/>
<feGaussianBlur stdDeviation="1.17148"/>
<feColorMatrix type="matrix" values="0 0 0 0 0 0 0 0 0 0 0 0 0 0 0 0 0 0 0.25 0"/>
<feBlend mode="normal" in2="BackgroundImageFix" result="effect1_dropShadow"/>
<feBlend mode="normal" in="SourceGraphic" in2="effect1_dropShadow" result="shape"/>
</filter>
</defs>
</svg>
