<svg width="544" height="681" viewBox="0 0 544 681" fill="none" xmlns="http://www.w3.org/2000/svg">
<path d="M148.751 93.9014C148.751 145.55 100.578 182.447 53.1613 167.401C22.834 157.845 0.754883 128.506 0.754883 93.9014C0.754883 37.143 57.8681 0.479399 106.466 24.4626C131.341 36.7245 148.751 63.1197 148.751 93.9014Z" fill="white"/>
<path d="M180.121 17.3737C180.121 29.0399 168.813 37.3739 157.684 33.9755C150.565 31.817 145.383 25.1899 145.383 17.3737C145.383 4.55346 158.789 -3.72789 170.196 1.68929C176.034 4.45894 180.121 10.4209 180.121 17.3737Z" fill="white"/>
<path d="M524.583 592.398C524.583 614.368 503.724 630.063 483.192 623.663C470.06 619.598 460.5 607.118 460.5 592.398C460.5 568.256 485.23 552.66 506.274 562.862C517.045 568.078 524.583 579.305 524.583 592.398Z" fill="#212328"/>
<path d="M460 628.709C460 633.481 455.47 636.889 451.011 635.499C448.159 634.616 446.083 631.906 446.083 628.709C446.083 623.466 451.454 620.079 456.024 622.295C458.363 623.427 460 625.866 460 628.709Z" fill="#212328"/>
<path d="M276.531 78.3437L506.312 177.5V235.687V309.312L484.344 415L443.969 501.687L394.688 559.875L321.062 613.906L270 634.687L221.312 613.906L173.812 577.094L122.156 526.625L80 467.844L57.4375 415L43.1875 309.312V172.75L276.531 78.3437Z" fill="#212328"/>
<path opacity="0.6" d="M273.562 637.656V83.6874H267.031L49.125 169.781L42 189.375L39.625 295.656C44.7708 328.708 55.0625 395.287 55.0625 397.187C55.0625 399.087 60.2083 411.042 62.7812 416.781L101.375 492.781L170.844 578.281L273.562 637.656Z" fill="#121315"/>
<path d="M318.742 378.095C336.717 378.095 350.256 367.948 353.112 352.548C353.719 349.277 350.964 346.545 347.637 346.545H338.119C334.986 346.545 332.51 349.025 331.39 351.952C329.28 357.466 324.658 360.787 318.794 360.787C309.646 360.787 303.981 352.782 303.981 339.216C303.981 325.806 309.698 317.801 318.742 317.801C324.586 317.801 329.214 321.116 331.3 326.489C332.447 329.446 334.937 331.991 338.109 331.991H347.55C350.87 331.991 353.624 329.268 353.01 326.005C350.126 310.676 336.343 300.493 318.742 300.493C295.82 300.493 281.526 314.527 281.526 339.268C281.526 364.009 295.768 378.095 318.742 378.095Z" fill="#F03382"/>
<path d="M405.152 372.313C405.842 374.953 408.228 376.796 410.957 376.796H421.547C425.627 376.796 428.517 372.812 427.251 368.934L406.687 305.931C405.881 303.463 403.579 301.793 400.983 301.793H382.037C379.441 301.793 377.139 303.463 376.333 305.931L355.769 368.934C354.503 372.812 357.393 376.796 361.473 376.796H371.024C373.753 376.796 376.138 374.953 376.829 372.313L378.384 366.361C379.074 363.72 381.459 361.878 384.189 361.878H397.792C400.521 361.878 402.907 363.72 403.597 366.361L405.152 372.313ZM390.729 319.302C390.761 319.183 390.868 319.101 390.99 319.101C391.113 319.101 391.22 319.183 391.252 319.302L396.517 339.153C397.48 342.781 394.744 346.337 390.99 346.337C387.236 346.337 384.501 342.781 385.463 339.153L390.729 319.302Z" fill="#F03382"/>
<path d="M109.197 301.793C105.884 301.793 103.197 304.479 103.197 307.793V370.796C103.197 374.109 105.884 376.796 109.197 376.796H135.267C157.981 376.796 171.391 362.762 171.391 338.748C171.391 314.735 158.033 301.793 135.267 301.793H109.197ZM125.236 325.309C125.236 321.995 127.922 319.309 131.236 319.309H132.149C142.7 319.309 148.937 326.118 148.937 338.748C148.937 352.574 143.168 359.279 132.149 359.279H131.236C127.922 359.279 125.236 356.593 125.236 353.279V325.309Z" fill="#D82E75"/>
<path d="M258.898 376.796C262.212 376.796 264.898 374.109 264.898 370.796V307.793C264.898 304.479 262.212 301.793 258.898 301.793H243.559C241.072 301.793 238.843 303.327 237.955 305.649L222.767 345.363C222.722 345.48 222.61 345.557 222.485 345.557C222.36 345.557 222.247 345.48 222.203 345.363L206.966 305.644C206.076 303.324 203.848 301.793 201.364 301.793H186.02C182.706 301.793 180.02 304.479 180.02 307.793V370.796C180.02 374.109 182.706 376.796 186.02 376.796H193.251C196.565 376.796 199.251 374.109 199.251 370.796V333.59C199.251 333.454 199.362 333.343 199.499 333.343C199.6 333.343 199.692 333.405 199.729 333.499L215.057 372.125C215.964 374.411 218.174 375.912 220.634 375.912H224.284C226.744 375.912 228.954 374.411 229.861 372.125L245.189 333.499C245.226 333.405 245.318 333.343 245.419 333.343C245.556 333.343 245.667 333.454 245.667 333.59V370.796C245.667 374.109 248.353 376.796 251.667 376.796H258.898Z" fill="#D82E75"/>
<path d="M273.325 645.019C272.375 645.019 271.544 644.9 270.713 644.544C200.294 615.806 140.8 567.356 98.4062 504.3C56.1313 441.125 33.6875 367.619 33.6875 291.619V174.175C33.6875 171.325 35.35 168.831 37.9625 167.762L270.713 71.0999C271.544 70.7437 272.494 70.6249 273.325 70.6249C274.275 70.6249 275.106 70.7437 275.938 71.0999L508.688 167.762C511.3 168.831 512.962 171.325 512.962 174.175V291.619C512.962 367.619 490.519 441.125 448.244 504.181C405.969 567.237 346.356 615.687 275.938 644.425C275.106 644.781 274.275 645.019 273.325 645.019ZM47.5813 178.806V291.619C47.5813 437.087 133.556 569.019 266.675 627.562L273.444 630.531L280.213 627.562C413.212 569.019 499.188 437.087 499.188 291.619V178.806L273.325 84.9937L47.5813 178.806Z" fill="#212328"/>
<path d="M273.562 681C272.494 681 271.559 680.866 270.624 680.466C191.411 648.146 124.488 593.656 76.8006 522.739C29.2464 451.688 4 369.018 4 283.544V151.459C4 148.254 5.87011 145.449 8.80885 144.247L270.624 35.5341C271.559 35.1335 272.627 34.9999 273.562 34.9999C274.631 34.9999 275.566 35.1335 276.501 35.5341L538.316 144.247C541.255 145.449 543.125 148.254 543.125 151.459V283.544C543.125 369.018 517.879 451.688 470.324 522.605C422.77 593.522 355.714 648.012 276.501 680.332C275.566 680.733 274.631 681 273.562 681ZM19.6287 156.667V283.544C19.6287 447.147 116.34 595.525 266.082 661.367L273.696 664.706L281.31 661.367C430.919 595.525 527.63 447.147 527.63 283.544V156.667L273.562 51.1599L19.6287 156.667Z" fill="#212328"/>
</svg>
