<svg width="50" height="50" viewBox="0 0 50 50" fill="none" xmlns="http://www.w3.org/2000/svg">
<mask id="mask0" mask-type="alpha" maskUnits="userSpaceOnUse" x="0" y="0" width="50" height="50">
<rect width="50" height="50" rx="11" fill="#C4C4C4"/>
</mask>
<g mask="url(#mask0)">
<rect width="50" height="50" rx="11" fill="#2E343F"/>
</g>
<path d="M25.244 25.7273C26.0185 25.7273 26.6464 25.0994 26.6464 24.3249C26.6464 23.5504 26.0185 22.9225 25.244 22.9225C24.4694 22.9225 23.8416 23.5504 23.8416 24.3249C23.8416 25.0994 24.4694 25.7273 25.244 25.7273Z" fill="white"/>
<path d="M25.244 42.5563C35.2965 42.5563 43.4754 34.3774 43.4754 24.3249C43.4754 17.8878 40.113 12.1383 35.0609 8.89343V24.3249C35.0609 29.7374 30.6565 34.1418 25.244 34.1418C19.8316 34.1418 15.4272 29.7374 15.4272 24.3249V8.89343C10.3751 12.1383 7.0127 17.8878 7.0127 24.3249C7.0127 34.3774 15.1916 42.5563 25.244 42.5563Z" fill="white"/>
<path d="M25.244 31.3369C29.1103 31.3369 32.2561 28.1911 32.2561 24.3248V7.40653C30.096 6.50281 27.728 6 25.244 6C22.7599 6 20.392 6.50281 18.2319 7.40653V24.3248C18.2319 28.1911 21.3777 31.3369 25.244 31.3369ZM25.244 20.1176C27.564 20.1176 29.4512 22.0049 29.4512 24.3248C29.4512 26.6448 27.564 28.5321 25.244 28.5321C22.924 28.5321 21.0368 26.6448 21.0368 24.3248C21.0368 22.0049 22.924 20.1176 25.244 20.1176Z" fill="white"/>
</svg>
