<svg width="83" height="36" viewBox="0 0 83 36" fill="none" xmlns="http://www.w3.org/2000/svg">
<path d="M22.6287 12.3509H28.4965C28.6921 12.3509 28.6921 12.5502 28.7573 12.6831V13.0152C28.7573 13.1481 28.6921 13.2145 28.4965 13.2145H21.9767C21.7811 13.2145 21.7159 13.0816 21.7159 12.9488V0.327429C21.7159 0.261001 21.7811 0.128144 21.9767 0.0617161H22.3679C22.5635 0.0617161 22.6287 0.128144 22.6287 0.327429V12.3509Z" fill="#CD0000"/>
<path d="M33.4516 0.128144H33.8428C33.908 0.128144 34.1036 0.261001 34.1036 0.393857V13.0152C34.1036 13.2145 34.0384 13.2809 33.8428 13.2809H33.4516C33.256 13.2809 33.1908 13.2145 33.1908 13.0152V0.393857C33.1908 0.194572 33.256 0.128144 33.4516 0.128144Z" fill="#CD0000"/>
<path d="M49.6208 0.128144H50.1424C50.338 0.128144 50.4032 0.261001 50.338 0.393857L44.6657 13.2145C44.6005 13.3473 44.4701 13.4138 44.4049 13.4138H44.3397C44.2093 13.4138 44.1441 13.2809 44.1441 13.2145L38.4719 0.327429C38.4067 0.128144 38.4719 0.0617161 38.6675 0.0617161H39.1891C39.3195 0.0617161 39.3847 0.194572 39.3847 0.261001L44.4701 11.8859L49.4252 0.327429C49.4252 0.194572 49.5556 0.128144 49.6208 0.128144Z" fill="#CD0000"/>
<path d="M55.0975 0.128144H62.5301C62.5953 0.128144 62.7909 0.261001 62.7909 0.327429V0.65957C62.7909 0.858854 62.7257 0.925282 62.5301 0.925282H55.7495V6.04025H61.6173C61.8129 6.04025 61.8781 6.10668 61.8781 6.30596V6.70453C61.8781 6.90382 61.8129 6.97025 61.6173 6.97025H55.7495V12.4174H62.5301C62.7257 12.4174 62.7909 12.4838 62.7909 12.6831V13.0152C62.7909 13.2145 62.7257 13.2809 62.5301 13.2809H55.0975C54.9019 13.2809 54.8367 13.2145 54.8367 13.0152V0.393857C54.8367 0.194572 54.9019 0.128144 55.0975 0.128144Z" fill="#CD0000"/>
<path d="M7.30205 21.7997H4.943C4.73484 21.7997 4.59607 22.0118 4.59607 22.1532V31.4846C4.59607 32.4743 3.97162 32.9692 3.48593 32.9692C2.93086 32.9692 2.72271 32.7571 2.51455 32.545C2.3064 32.333 2.16764 32.333 1.95948 32.545L0.641186 33.8882C0.571802 34.1003 0.433034 34.2417 0.641186 34.4537C0.988106 34.8779 1.95948 35.8676 3.6247 35.8676C5.91437 35.8676 7.85713 34.2417 7.85713 31.4846V22.1532C7.64898 21.9411 7.44082 21.7997 7.30205 21.7997ZM18.5423 21.7997C18.5423 21.729 18.3341 21.5877 18.1953 21.5877H17.9872C17.779 21.5877 17.7097 21.6583 17.6403 21.7997L11.5345 35.2314C11.4651 35.5141 11.5345 35.7969 11.8814 35.7969H14.1017C14.4486 35.7969 14.7262 35.5141 14.7955 35.3727L15.4894 33.7468H20.8319L21.5258 35.3727C21.7339 35.7262 21.8727 35.9383 22.2196 35.9383H24.4399C24.7175 35.9383 24.8562 35.6555 24.7868 35.3727L18.5423 21.7997ZM16.5995 30.8484L18.0566 27.5965L19.5137 30.9191H16.5301V30.8484H16.5995ZM33.2517 27.2431C31.6559 26.6068 31.1702 26.112 31.1702 25.2637C31.1702 24.6981 31.7252 24.274 32.4191 24.274C33.668 24.274 35.0557 25.3344 35.1945 25.4051C35.4026 25.6171 35.7495 25.4051 35.8883 25.1223L36.8597 23.6377C36.9291 23.4257 36.9291 23.0722 36.7903 23.0015C36.1658 22.648 34.57 21.5877 32.5579 21.5877C29.505 21.5877 27.9785 23.5671 27.9785 25.5464C27.9785 27.95 30.06 29.2932 31.864 29.9294C33.1823 30.4949 33.8762 31.0605 33.8762 31.9088C33.8762 32.6157 33.2517 33.0399 32.5579 33.0399C31.2396 33.0399 29.8519 31.9795 29.7825 31.9795C29.5743 31.9088 29.2274 31.7674 29.0887 32.0502L28.1173 33.6761C27.9091 33.9589 28.0479 34.0296 28.1867 34.2417C28.603 34.6658 30.06 35.7262 32.6272 35.7262C35.5414 35.7262 37.276 33.6761 37.276 31.626C37.276 29.0811 34.8475 27.8086 33.2517 27.2431ZM54.4138 21.5877H54.0669C53.9975 21.5877 53.7894 21.6583 53.72 21.7997L49.1406 30.3536L44.5613 21.7997C44.5613 21.729 44.3531 21.5877 44.2838 21.5877H43.9368C43.7287 21.5877 43.5899 21.7997 43.5899 21.9411L41.3696 35.2314C41.3696 35.5141 41.5778 35.6555 41.7165 35.6555H44.0062C44.2144 35.6555 44.3531 35.4434 44.3531 35.302L45.2551 29.1518L48.5856 35.5848C48.655 35.6555 48.7937 35.7969 48.9325 35.7969H49.2794C49.3488 35.7969 49.557 35.7262 49.6263 35.5848L52.9568 29.1518L53.8588 35.302C53.8588 35.5141 54.0669 35.6555 54.2057 35.6555H56.4954C56.7729 35.6555 56.9117 35.4434 56.8423 35.2314L54.622 21.9411C54.7608 21.7997 54.5526 21.5877 54.4138 21.5877ZM64.8214 21.7997H62.4624C62.2542 21.7997 62.1155 22.0118 62.1155 22.1532V35.302C62.1155 35.5141 62.3236 35.6555 62.4624 35.6555H64.8214C65.0296 35.6555 65.1684 35.4434 65.1684 35.302V22.1532C65.1684 21.9411 65.0296 21.7997 64.8214 21.7997ZM82.6532 21.7997H80.2941C80.0859 21.7997 79.9472 22.0118 79.9472 22.1532V29.2225L72.0374 21.5877H71.4823C71.2742 21.5877 71.1354 21.7997 71.1354 21.9411V35.3727C71.1354 35.5848 71.3435 35.7262 71.4823 35.7262H73.8414C74.0495 35.7262 74.1883 35.5141 74.1883 35.3727V27.95L82.0287 35.7969C82.0287 35.7969 82.2368 35.8676 82.3062 35.8676H82.6532C82.8613 35.8676 83.0001 35.6555 83.0001 35.5141V22.0825C83.0001 21.9411 82.7919 21.7997 82.6532 21.7997Z" fill="#CD0000"/>
</svg>
