<svg width="1616" height="275" viewBox="0 0 1616 275" fill="none" xmlns="http://www.w3.org/2000/svg">
<path d="M255.465 230V4.43083H178.868L128.534 136.052H127.283L76.7918 4.43083H0.195155V230H58.0334V99.3168H59.284L110.088 227.343H145.572L196.376 99.3168H197.627V230H255.465ZM398.185 0.522844C328.466 0.522844 284.54 45.2302 284.54 117.294C284.54 189.357 328.31 233.908 398.185 233.908C467.903 233.908 511.829 189.357 511.829 117.294C511.829 45.2302 467.903 0.522844 398.185 0.522844ZM398.185 53.3589C425.853 53.3589 444.299 78.2137 444.299 117.294C444.299 156.217 426.01 181.072 398.185 181.072C370.36 181.072 352.071 156.217 352.071 117.294C352.071 78.2137 370.516 53.3589 398.185 53.3589ZM615.782 123.859L620.315 56.7979H676.434V177.32H601.557V176.07C610.623 165.909 614.062 148.557 615.782 123.859ZM579.828 230H711.449V274.551H770.851V177.32H742.713V4.43083H562.32L555.286 117.45C553.254 149.026 550.284 164.346 535.277 177.32H520.427V274.551H579.828V230ZM950.306 177.32H857.452V141.054H944.522V93.533H857.452V57.1105H950.306V4.43083H791.172V230H950.306V177.32ZM1185.72 230V4.43083H1011.58L1006.27 131.05C1005.17 155.279 1000.48 174.038 980.006 174.038C974.379 174.038 970.158 173.1 967.501 172.631V230C970.783 230.938 979.381 232.501 990.48 232.501C1044.1 232.501 1063.95 192.952 1066.61 136.208L1070.36 56.9542H1119.44V230H1185.72ZM1346.89 109.009H1318.75C1300.15 109.009 1288.74 98.3789 1288.74 81.3401C1288.74 64.6139 1300.77 53.3589 1318.59 53.3589H1346.89V109.009ZM1327.5 153.872H1346.89V230H1412.39V4.43083H1312.65C1254.5 4.43083 1221.05 34.9132 1221.05 81.0274C1221.05 110.884 1239.34 133.551 1265.45 144.337L1211.52 230H1282.48L1327.5 153.872ZM1702.05 230V4.43083H1625.45L1575.12 136.052H1573.86L1523.37 4.43083H1446.78V230H1504.61V99.3168H1505.87L1556.67 227.343H1592.15L1642.96 99.3168H1644.21V230H1702.05Z" fill="#EAEFF5"/>
</svg>
