<svg width="123" height="31" viewBox="0 0 123 31" fill="none" xmlns="http://www.w3.org/2000/svg">
<path fill-rule="evenodd" clip-rule="evenodd" d="M123 10.8691C123 16.7495 117.207 20.9623 112.819 20.348C111.854 23.0687 107.904 27.8082 104.744 26.4917C107.465 23.332 108.08 19.5581 107.816 18.2415C107.377 16.1351 102.287 19.3825 102.287 19.3825C101.497 17.2761 106.588 14.8186 108.782 15.6963C110.362 16.3107 110.186 19.9969 108.518 22.981C111.327 21.2256 112.556 16.8373 112.556 16.8373C114.223 17.1883 119.402 14.9942 119.402 9.72814C119.402 5.86639 116.242 2.70677 111.678 2.70677C107.202 2.70677 103.955 5.95415 102.024 9.72814C101.848 9.99144 100.707 9.46484 100.707 8.58717C100.707 6.04192 105.447 1.21473 111.503 1.0392C116.417 1.0392 123 3.05784 123 10.8691ZM97.1965 11.0446C97.372 13.6777 101.936 20.1724 99.1274 22.1911C97.021 23.7709 93.6858 21.1379 92.7204 19.207C92.7204 19.207 92.8081 22.3666 91.6672 22.3666C90.0874 22.3666 89.3852 21.2256 89.6485 20.5235C90.614 18.066 91.3161 11.7468 89.8241 11.7468C88.2442 11.7468 87.5421 19.5581 87.8054 21.84C87.8932 22.1911 87.7176 22.6299 87.1033 22.6299C85.5235 22.6299 84.3825 21.84 84.7336 20.699C85.1724 19.2948 86.5767 10.6058 85.1724 10.6058C83.1538 10.6058 82.6272 18.9437 82.8905 21.7522C82.8905 21.9278 82.7149 22.4544 82.1005 22.5421C80.0819 22.6299 79.292 21.3134 79.4675 20.699C80.3452 17.8905 80.5207 13.5021 80.1697 13.5021C79.8186 15.0819 78.2388 22.1033 75.518 22.1033C73.9382 22.1033 73.1483 20.348 72.7972 19.0315C72.6217 19.6458 71.4807 22.1033 69.9887 22.1033C68.1456 22.1033 67.7068 19.7336 67.7068 19.7336C67.3557 20.348 65.7759 23.1565 63.4062 23.1565C58.93 23.0687 58.0524 16.574 58.1401 13.8532C58.2279 5.42755 62.4407 0.512596 65.9514 0.512596C67.8823 0.512596 69.0233 2.18017 68.76 4.72542C68.4967 6.56852 66.2147 9.55261 64.5471 9.20154C64.1961 9.11377 64.2838 9.026 64.3716 8.67493C65.9514 6.56852 66.8291 2.79454 65.6881 2.79454C64.7227 2.79454 61.2998 6.48076 61.212 14.3798C61.212 16.0474 61.5631 20.9623 63.4062 20.9623C65.9514 20.9623 67.5312 15.8718 67.5312 15.8718C69.4621 8.41163 73.3238 7.18289 75.6058 8.58717C76.0446 8.85047 76.0446 9.55261 76.0446 9.55261C76.4835 9.81591 76.7468 10.0792 76.8345 10.6058C75.4303 12.8878 74.8159 18.1538 75.7813 18.3293C77.0101 18.5926 79.0287 12.8878 79.0287 8.67493C79.0287 8.06056 80.0819 7.62173 80.5207 7.62173C82.1883 7.62173 82.5394 9.46484 82.5394 11.3957C82.7149 9.64037 83.9437 7.62173 85.699 7.62173C87.2788 7.62173 87.9809 9.99144 87.8932 12.0979C87.8932 12.0979 88.5953 8.41163 90.7895 8.41163C92.4571 8.41163 92.8959 12.1856 92.4571 15.7841C92.4571 15.8718 92.4571 15.9596 92.6326 15.7841C93.5103 14.6431 94.6512 10.9569 94.6512 10.167C94.739 8.14833 95.6167 7.18289 96.4944 7.18289C97.372 7.18289 97.7231 8.06056 97.5476 8.41163C97.372 9.026 97.1965 10.2547 97.1965 11.0446ZM74.026 11.0446C72.0073 10.2547 69.7254 15.9596 69.9887 17.9782C70.0765 18.6804 70.8664 18.8559 72.0951 16.4862C73.0605 14.7309 73.7627 12.4489 74.026 11.0446ZM95.7044 12.9755C95.6167 13.1511 94.1246 16.7495 93.9491 17.2761C93.7736 17.8027 95.7922 20.1724 96.9332 19.2948C98.2497 18.2415 95.7044 12.9755 95.7044 12.9755ZM55.6827 9.20154C53.9273 13.7654 53.8396 20.699 54.8928 21.9278C55.2438 22.3666 55.1561 23.0687 54.3662 23.0687C51.9087 23.0687 51.4698 18.3293 51.4698 17.4516C51.4698 17.4516 50.1533 22.1911 48.3102 22.1911C46.1161 22.1911 46.1161 16.8373 46.2038 15.7841C45.9405 15.8718 45.4139 16.2229 45.1506 16.3984C45.3261 17.3639 46.6427 23.7709 45.6772 26.755C45.1506 28.4225 44.2729 30.3534 42.1665 30.3534C40.0601 30.3534 38.217 28.4225 38.217 25.614C38.217 21.3134 41.7277 16.925 42.6054 16.1351C42.6931 16.0474 42.6931 15.7841 42.6931 15.6963C42.4298 14.2043 41.7277 12.2734 41.7277 12.1856C41.6399 12.3612 38.7436 22.0155 36.8127 22.0155C35.4962 22.0155 34.7941 20.699 34.7063 20.1724C34.7063 20.1724 33.9164 22.4544 32.5122 22.4544C30.9323 22.4544 30.9323 20.7868 30.8446 20.4357C30.9323 19.1192 31.8978 12.0101 30.0547 12.0101C28.1238 12.0101 27.5094 16.2229 26.9828 22.4544C26.9828 22.6299 26.544 22.8932 26.3685 22.8932C24.8764 23.0687 23.9987 22.1033 23.911 21.9278C24.7887 17.3639 25.403 11.4835 23.7354 9.20154C23.7354 9.11377 24.0865 8.2361 25.052 8.2361C26.8951 8.2361 27.5094 11.0446 27.4217 11.9223C27.4217 11.9223 28.2993 9.11377 30.318 9.11377C34.2675 9.11377 33.2143 18.4171 33.6531 18.4171C34.1797 18.4171 34.1797 17.3639 34.1797 17.1006C34.5308 13.5899 36.0228 9.20154 38.3925 8.7627C38.8314 8.67493 39.5335 8.7627 39.7968 8.85047C40.0601 8.93824 40.2357 8.93824 40.2357 8.58717C40.2357 8.32387 40.6745 8.06056 40.9378 8.06056C43.132 8.06056 44.4485 13.5021 44.5362 13.941L44.624 14.3798C45.3261 13.941 46.3794 13.6777 46.3794 13.6777C46.4671 13.2388 47.7836 8.2361 51.2065 8.2361C51.8209 8.2361 52.6986 8.4994 52.6986 8.4994C52.8741 8.58717 52.9619 8.4994 52.9619 8.32387C53.1374 7.79726 54.7172 7.4462 55.946 8.14833C56.3848 8.41163 55.8582 8.85047 55.6827 9.20154ZM39.4458 10.7813C37.2516 10.7813 35.4085 18.5048 36.4617 18.5048C37.6904 18.5048 39.5335 11.4835 39.6213 11.0446C39.7091 10.8691 39.6213 10.7813 39.4458 10.7813ZM43.483 18.6804C43.2197 19.0315 41.0256 22.5421 41.2011 26.1406C41.2011 26.5794 41.4644 27.6326 42.1665 27.6326C42.8687 27.6326 43.5708 26.755 43.8341 25.0874C44.0974 22.3666 43.5708 19.1192 43.483 18.6804ZM52.2597 10.6936C48.9246 10.4303 47.4326 17.5394 48.5735 17.8027C50.1533 18.2415 51.8209 13.1511 52.2597 10.6936ZM22.2434 9.81591C22.5067 10.167 24.0865 12.0101 23.7354 15.8718C23.3844 19.0315 21.9801 23.0687 19.4349 23.0687C17.0651 23.0687 15.8364 19.8214 16.0119 16.2229C15.7486 16.1351 15.5731 16.3107 15.4853 16.4862C13.5545 20.1724 9.07835 24.473 6.70863 24.473C5.39213 24.473 4.95329 22.1033 4.95329 21.9278C4.95329 20.4357 12.1502 15.2575 13.73 14.5553C13.73 14.5553 14.9587 12.6245 14.9587 11.0446C14.9587 9.64037 14.2566 9.2893 13.8178 9.2893C11.7991 9.2893 8.72728 12.1856 7.23524 15.2575C7.0597 15.6085 6.7964 15.6963 6.35757 15.6963C5.04106 15.6963 4.16339 13.8532 4.42669 13.5899C4.86553 13.0633 5.39213 12.7122 5.65543 12.0979C8.46397 7.27066 8.63951 2.26794 7.67407 2.26794C6.09426 2.26794 3.11018 7.4462 3.11018 15.8718C3.11018 19.7336 3.98785 22.0155 4.60222 22.5421C4.77776 22.7177 4.60222 23.332 3.90009 23.5953C2.58358 24.0342 0.301637 22.5421 0.0383362 18.5926C-0.488266 9.55261 4.51446 -0.277308 8.90281 0.512596C9.86825 0.68813 11.4481 2.61901 9.86825 8.32387C9.86825 8.32387 10.7459 7.53396 12.0624 7.18289C15.0465 6.39299 17.3284 8.14833 17.2407 10.8691C17.2407 10.8691 18.2061 7.9728 19.8737 7.9728C21.5413 7.9728 22.2434 9.81591 22.2434 9.81591ZM20.9269 11.3957C20.2248 11.3957 19.7859 12.5367 19.7859 12.6245C21.0147 12.6245 21.1024 14.292 20.9269 14.292C19.8737 14.292 19.1716 14.6431 18.996 14.8186C18.2061 15.6963 18.1184 19.8214 18.7327 20.0847C19.8737 20.4357 21.0147 17.3639 21.3657 15.6085C21.8923 13.2388 21.3657 11.3079 20.9269 11.3957ZM107.026 6.74406C106.412 7.53396 106.675 9.55261 107.114 9.99144C107.377 9.90367 113.433 8.93824 114.487 8.41163C115.013 8.14833 115.277 7.79726 115.364 7.18289C114.662 7.00736 107.114 6.65629 107.026 6.74406ZM108.343 10.6936C107.816 11.3079 108.08 13.0633 108.431 13.4144C108.694 13.3266 113.784 12.5367 114.662 12.0979C115.101 11.9223 115.277 11.5712 115.452 11.1324C114.838 10.9569 108.431 10.6936 108.343 10.6936Z" fill="#F72E6C"/>
</svg>
