<svg width="105" height="23" viewBox="0 0 105 23" fill="none" xmlns="http://www.w3.org/2000/svg">
<path d="M10.5448 0.348389C12.5845 0.348389 14.6051 0.348389 16.6448 0.348389C16.9499 0.405577 17.2549 0.462765 17.5599 0.558078C19.1039 0.996519 20.7433 1.2634 22.173 1.94965C25.1277 3.37935 26.5002 5.97187 26.9196 9.26971C24.0221 9.26971 21.2008 9.28877 18.3796 9.25064C18.1889 9.25064 17.922 8.9647 17.8458 8.75502C17.0261 6.4675 15.8252 5.6478 13.3279 5.70499C10.9451 5.74312 9.42011 6.86781 8.77198 9.02189C8.33354 10.5278 8.33354 12.0338 8.67666 13.5397C9.17229 15.7129 10.6211 16.952 12.7179 17.1235C15.3105 17.3332 16.8927 16.4563 17.7124 14.2641C17.922 13.7113 18.208 13.6351 18.6846 13.6351C21.2008 13.6541 23.698 13.616 26.2143 13.6541C26.8243 13.6541 27.0912 13.4635 27.3199 12.9107C28.8259 9.15533 30.37 5.39999 31.8759 1.64465C32.1047 1.09183 32.3715 0.882143 32.9815 0.901205C35.6884 0.939331 38.3763 0.939331 41.0832 0.901205C41.7504 0.882143 42.0744 1.09183 42.3222 1.7209C44.0951 6.1625 45.906 10.585 47.717 15.0266C47.9076 15.5032 48.1173 15.9798 48.327 16.4563C48.4032 16.4373 48.4795 16.4182 48.5367 16.4182C48.5367 11.2713 48.5367 6.12437 48.5367 0.977456C52.5208 0.977456 56.3905 0.977456 60.2792 0.977456C61.4039 4.92342 62.5096 8.8122 63.6152 12.701C63.6915 12.701 63.7677 12.6819 63.8249 12.6819C64.9305 8.77408 66.0552 4.86624 67.1418 0.977456C71.1068 0.977456 74.9575 0.977456 78.8653 0.977456C78.8653 7.97345 78.8653 14.8932 78.8653 21.8129C76.2919 21.8129 73.8328 21.8129 71.2975 21.8129C71.2975 16.9901 71.2975 12.2244 71.2975 7.47782C71.2593 7.47782 71.2021 7.47782 71.164 7.45876C69.7343 12.2625 68.3237 17.0663 66.894 21.8511C64.7208 21.8511 62.6621 21.8511 60.5271 21.8511C59.0974 17.0473 57.6867 12.2435 56.257 7.43969C56.1808 7.45876 56.1045 7.45876 56.0283 7.47782C56.0283 12.2625 56.0283 17.0473 56.0283 21.8701C51.5676 21.8701 47.1832 21.8701 42.7988 21.8701C42.551 21.8701 42.3032 21.8701 42.0172 21.8701C41.7122 21.0314 41.4263 20.2307 41.1213 19.392C38.5478 19.392 36.0125 19.3729 33.4772 19.411C33.2484 19.411 32.829 19.8685 32.829 19.8685L31.6305 21.8892L27.3009 21.8701H23.6408C23.6408 21.8701 24.3271 20.1164 24.5749 19.5063C23.1833 20.1926 21.7918 21.1839 20.2286 21.6223C15.9777 22.8232 11.6123 22.8042 7.32322 21.7748C3.66319 20.936 1.20411 18.6295 0.365349 14.836C0.136598 13.7685 0.0412844 12.6438 0.00315907 11.5382C-0.111217 5.60968 2.55755 2.06403 8.00947 0.805892C8.84823 0.615266 9.70605 0.50089 10.5448 0.348389ZM34.7734 14.1879C36.3366 14.1879 37.8425 14.1879 39.4056 14.1879C38.6431 11.9004 37.8997 9.72721 37.0991 7.30625C36.2603 9.74627 35.5169 11.9575 34.7734 14.1879Z" fill="black"/>
<path d="M101.264 1.64468C101.264 5.68597 101.264 9.72725 101.264 13.8829C102.56 13.8829 103.742 13.8829 105 13.8829C105 15.5604 105 17.1236 105 18.782C104.047 18.782 103.132 18.8392 102.217 18.7629C101.435 18.7058 101.226 19.0298 101.264 19.7542C101.302 20.4023 101.283 21.0695 101.283 21.7748C98.862 21.7748 96.5554 21.7748 94.1344 21.7748C94.1344 20.8408 94.1344 19.8686 94.1344 18.8011C89.121 18.8011 84.2219 18.8011 79.1893 18.8011C79.1893 17.0854 79.1703 15.4842 79.2084 13.8829C79.2084 13.6542 79.4562 13.3873 79.6468 13.1776C83.2306 9.46037 86.8335 5.72409 90.4363 2.02594C90.665 1.77812 91.0654 1.54937 91.3894 1.54937C94.5538 1.51125 97.7373 1.53031 100.902 1.53031C100.978 1.54937 101.054 1.5875 101.264 1.64468ZM94.0201 6.84879C91.6944 9.19349 89.2925 11.5954 87.005 13.8829C89.1782 13.8829 91.5801 13.8829 94.0201 13.8829C94.0201 11.4238 94.0201 9.02193 94.0201 6.84879Z" fill="#E95224"/>
</svg>
