<svg width="300" height="163" viewBox="0 0 300 163" fill="none" xmlns="http://www.w3.org/2000/svg">
<path d="M151 19.8367C151 9.38763 142.529 0.916992 132.08 0.916992H34.4302C23.9811 0.916992 15.5105 9.38763 15.5105 19.8367V64.3895C15.5105 74.8386 23.9811 83.3093 34.4302 83.3093H132.08C142.529 83.3093 151 74.8386 151 64.3895V19.8367Z" fill="#E6EEF8"/>
<path d="M2.88976 81.7931C12.8793 77.2305 20.289 59.03 22.7451 50.5001L42 81.7931C24.7307 84.512 -7.09981 86.3557 2.88976 81.7931Z" fill="#E6EEF8"/>
<path d="M58 50C58 32.8792 71.8792 19 89 19H249C266.121 19 280 32.8792 280 50V123C280 140.121 266.121 154 249 154H89C71.8792 154 58 140.121 58 123V50Z" fill="#F0F4F9"/>
<path d="M296.679 148.516C280.311 141.04 268.17 111.218 264.146 97.2421L231 150.5C259.296 154.955 313.047 155.992 296.679 148.516Z" fill="#F0F4F9"/>
<path fill-rule="evenodd" clip-rule="evenodd" d="M110 108.441H217V113.704C217 117.018 214.314 119.704 211 119.704H116C112.686 119.704 110 117.018 110 113.704V108.441Z" fill="#E73625"/>
<path fill-rule="evenodd" clip-rule="evenodd" d="M110 97.1775H217V108.441H110V97.1775Z" fill="white"/>
<path fill-rule="evenodd" clip-rule="evenodd" d="M171.947 85.9143H217V97.1775H171.947V85.9143Z" fill="#E73625"/>
<path fill-rule="evenodd" clip-rule="evenodd" d="M171.947 74.6511H217V85.9143H171.947V74.6511Z" fill="white"/>
<path fill-rule="evenodd" clip-rule="evenodd" d="M171.947 63.388H217V74.6512H171.947V63.388Z" fill="#E73625"/>
<path fill-rule="evenodd" clip-rule="evenodd" d="M171.947 52.1248H211C214.314 52.1248 217 54.8111 217 58.1248V63.388H171.947V52.1248Z" fill="white"/>
<path fill-rule="evenodd" clip-rule="evenodd" d="M110 58.1249C110 54.8112 112.686 52.1249 116 52.1249H171.947V97.1775H110V58.1249Z" fill="#2E52B2"/>
<path fill-rule="evenodd" clip-rule="evenodd" d="M160.684 80.2827H166.316V85.9143H160.684V80.2827Z" fill="white"/>
<path fill-rule="evenodd" clip-rule="evenodd" d="M149.421 69.0196H155.053V74.6512H149.421V69.0196Z" fill="white"/>
<path fill-rule="evenodd" clip-rule="evenodd" d="M149.421 80.2827H155.053V85.9143H149.421V80.2827Z" fill="white"/>
<path fill-rule="evenodd" clip-rule="evenodd" d="M138.158 80.2827H143.789V85.9143H138.158V80.2827Z" fill="white"/>
<path fill-rule="evenodd" clip-rule="evenodd" d="M126.895 80.2827H132.526V85.9143H126.895V80.2827Z" fill="white"/>
<path fill-rule="evenodd" clip-rule="evenodd" d="M115.631 80.2827H121.263V85.9143H115.631V80.2827Z" fill="white"/>
<path fill-rule="evenodd" clip-rule="evenodd" d="M160.684 69.0196H166.316V74.6512H160.684V69.0196Z" fill="white"/>
<path fill-rule="evenodd" clip-rule="evenodd" d="M138.158 69.0196H143.789V74.6512H138.158V69.0196Z" fill="white"/>
<path fill-rule="evenodd" clip-rule="evenodd" d="M126.895 69.0196H132.526V74.6512H126.895V69.0196Z" fill="white"/>
<path fill-rule="evenodd" clip-rule="evenodd" d="M115.631 69.0196H121.263V74.6512H115.631V69.0196Z" fill="white"/>
<path fill-rule="evenodd" clip-rule="evenodd" d="M160.684 57.7564H166.316V63.388H160.684V57.7564Z" fill="white"/>
<path fill-rule="evenodd" clip-rule="evenodd" d="M149.421 57.7564H155.053V63.388H149.421V57.7564Z" fill="white"/>
<path fill-rule="evenodd" clip-rule="evenodd" d="M138.158 57.7564H143.789V63.388H138.158V57.7564Z" fill="white"/>
<path fill-rule="evenodd" clip-rule="evenodd" d="M126.895 57.7564H132.526V63.388H126.895V57.7564Z" fill="white"/>
<path fill-rule="evenodd" clip-rule="evenodd" d="M115.631 57.7564H121.263V63.388H115.631V57.7564Z" fill="white"/>
<path d="M235 118C235 119.105 234.105 120 233 120C231.895 120 231 119.105 231 118C231 116.895 231.895 116 233 116C234.105 116 235 116.895 235 118Z" fill="#AFBCD0"/>
<path d="M246 116C246 117.105 245.105 118 244 118C242.895 118 242 117.105 242 116C242 114.895 242.895 114 244 114C245.105 114 246 114.895 246 116Z" fill="#AFBCD0"/>
<path d="M257 118C257 119.105 256.105 120 255 120C253.895 120 253 119.105 253 118C253 116.895 253.895 116 255 116C256.105 116 257 116.895 257 118Z" fill="#AFBCD0"/>
<g filter="url(#filter0_d)">
<path d="M46.625 96.2186H79.9531C82.0047 96.2186 83.6562 97.8702 83.6562 99.9218V134.484C83.6562 136.536 82.0047 138.187 79.9531 138.187H56.5L46.625 96.2186Z" fill="#E6E7E8"/>
<path d="M63.9229 130.8L56.5 138.187L54.7582 130.784L63.9229 130.8Z" fill="#376AD7"/>
<path fill-rule="evenodd" clip-rule="evenodd" d="M58.9532 104.86C58.7896 104.857 58.6272 104.888 58.4754 104.949C58.3236 105.01 58.1855 105.1 58.069 105.215C57.9525 105.33 57.86 105.467 57.7969 105.618C57.7337 105.768 57.7012 105.93 57.7012 106.094C57.7012 106.258 57.7337 106.42 57.7969 106.57C57.86 106.721 57.9525 106.858 58.069 106.973C58.1855 107.088 58.3236 107.178 58.4754 107.239C58.6272 107.3 58.7896 107.331 58.9532 107.328H76.2344C76.398 107.331 76.5604 107.3 76.7122 107.239C76.864 107.178 77.0021 107.088 77.1186 106.973C77.2351 106.858 77.3276 106.721 77.3907 106.57C77.4539 106.42 77.4864 106.258 77.4864 106.094C77.4864 105.93 77.4539 105.768 77.3907 105.618C77.3276 105.467 77.2351 105.33 77.1186 105.215C77.0021 105.1 76.864 105.01 76.7122 104.949C76.5604 104.888 76.398 104.857 76.2344 104.86H58.9532Z" fill="#5F7987"/>
<path d="M63.852 104.937C63.6902 104.949 63.5323 104.993 63.3875 105.066C63.2427 105.139 63.1138 105.24 63.0081 105.364C62.9024 105.487 62.8221 105.629 62.7717 105.784C62.7212 105.938 62.7016 106.101 62.7141 106.263C63.2006 113.935 67.6244 120.816 74.4021 124.445C74.5453 124.528 74.7037 124.581 74.8678 124.602C75.032 124.622 75.1985 124.609 75.3576 124.564C75.5166 124.519 75.6649 124.442 75.7938 124.338C75.9226 124.234 76.0294 124.106 76.1076 123.96C76.1858 123.815 76.234 123.655 76.2491 123.49C76.2643 123.325 76.2462 123.159 76.1959 123.002C76.1457 122.844 76.0644 122.698 75.9567 122.572C75.849 122.447 75.7171 122.344 75.569 122.271C69.5415 119.043 65.6107 112.932 65.178 106.108C65.1701 105.943 65.1292 105.782 65.0578 105.633C64.9864 105.485 64.8861 105.352 64.7625 105.242C64.6388 105.133 64.4945 105.05 64.3381 104.997C64.1818 104.945 64.0165 104.924 63.852 104.937Z" fill="#5F7987"/>
<path d="M71.3305 104.922C71.1684 104.914 71.0063 104.939 70.8536 104.994C70.7009 105.049 70.5603 105.133 70.4403 105.242C70.3203 105.352 70.223 105.483 70.154 105.63C70.085 105.777 70.0457 105.936 70.0383 106.099C69.6532 112.226 66.4436 117.823 61.3494 121.249C61.0777 121.432 60.8898 121.715 60.827 122.036C60.7642 122.358 60.8316 122.691 61.0145 122.963C61.1973 123.235 61.4806 123.423 61.8021 123.485C62.1235 123.548 62.4567 123.481 62.7285 123.298C68.4576 119.445 72.0691 113.143 72.5022 106.253C72.5153 106.088 72.4952 105.922 72.443 105.765C72.3908 105.608 72.3074 105.464 72.1981 105.34C72.0888 105.215 71.9557 105.114 71.8067 105.043C71.6576 104.971 71.4957 104.93 71.3305 104.922Z" fill="#5F7987"/>
<path fill-rule="evenodd" clip-rule="evenodd" d="M67.589 99.9219C67.4269 99.9244 67.2669 99.9588 67.1181 100.023C66.9693 100.088 66.8347 100.181 66.7219 100.297C66.609 100.414 66.5203 100.551 66.4606 100.702C66.4009 100.852 66.3714 101.013 66.3739 101.176V106.113C66.3716 106.277 66.4018 106.439 66.4628 106.591C66.5238 106.743 66.6144 106.881 66.7292 106.997C66.8441 107.114 66.9809 107.206 67.1319 107.269C67.2828 107.333 67.4447 107.365 67.6083 107.365C67.7719 107.365 67.9338 107.333 68.0848 107.269C68.2357 107.206 68.3725 107.114 68.4874 106.997C68.6022 106.881 68.6928 106.743 68.7538 106.591C68.8148 106.439 68.845 106.277 68.8427 106.113V101.176C68.8453 101.01 68.8147 100.846 68.7526 100.693C68.6905 100.54 68.5981 100.4 68.4812 100.283C68.3643 100.166 68.2251 100.074 68.0718 100.012C67.9185 99.9499 67.7544 99.9193 67.589 99.9219Z" fill="#5F7987"/>
<path d="M63.9062 130.781H30.5781C28.5266 130.781 26.875 129.13 26.875 127.078V92.5155C26.875 90.464 28.5266 88.8124 30.5781 88.8124H54.0312L63.9062 130.781Z" fill="#518FF5"/>
<path d="M39.4877 95.0471C37.9104 95.2545 36.3989 95.9662 35.2156 97.1494C32.849 99.5157 32.3657 103.196 34.0391 106.094C35.7125 108.992 39.1385 110.412 42.3711 109.546C45.6038 108.68 47.8583 105.738 47.8583 102.391V101.156H40.4521V103.625H44.9701C44.5098 105.275 43.4504 106.698 41.7298 107.159C39.5649 107.739 37.2958 106.8 36.1752 104.859C35.0545 102.919 35.3764 100.48 36.9611 98.8949C38.546 97.31 40.9798 96.9932 42.9208 98.1138L44.1552 95.9729C42.706 95.1363 41.065 94.8395 39.4877 95.0471Z" fill="#F9F9F9"/>
</g>
<defs>
<filter id="filter0_d" x="1" y="58" width="119" height="119" filterUnits="userSpaceOnUse" color-interpolation-filters="sRGB">
<feFlood flood-opacity="0" result="BackgroundImageFix"/>
<feColorMatrix in="SourceAlpha" type="matrix" values="0 0 0 0 0 0 0 0 0 0 0 0 0 0 0 0 0 0 127 0"/>
<feOffset dx="4" dy="4"/>
<feGaussianBlur stdDeviation="10"/>
<feColorMatrix type="matrix" values="0 0 0 0 0.161146 0 0 0 0 0.34386 0 0 0 0 0.991667 0 0 0 0.2 0"/>
<feBlend mode="normal" in2="BackgroundImageFix" result="effect1_dropShadow"/>
<feBlend mode="normal" in="SourceGraphic" in2="effect1_dropShadow" result="shape"/>
</filter>
</defs>
</svg>
