<svg width="130" height="39" viewBox="0 0 130 39" fill="none" xmlns="http://www.w3.org/2000/svg">
<path d="M21.9189 29.134C15.5684 29.134 11.452 24.3491 11.452 16.9608C11.452 16.0636 11.5224 15.1664 11.6455 14.2869C4.30997 13.3721 9.15527e-05 10.8566 9.15527e-05 7.39108C9.15527e-05 5.10421 1.84718 3.0988 5.6645 1.2693L8.12729 0.0730896L8.23283 2.81734C8.35597 6.35319 10.9067 8.07714 13.1056 8.88634C15.3749 3.59135 19.5265 0.372142 24.2585 0.372142C29.2721 0.372142 31.5062 3.16916 31.5062 5.94859C31.5062 9.57241 27.7064 13.5305 20.4412 14.4276C19.8607 15.8701 19.5265 17.3478 19.5265 18.5264C19.5265 20.7781 20.5468 20.7781 21.1449 20.7781C22.0068 20.7781 24.0826 19.0365 24.3993 17.1015L24.6455 15.5886H26.176C29.1313 15.5886 31.0312 17.4005 31.0312 20.1976C31.0312 23.8566 27.4953 29.134 21.9189 29.134Z" fill="url(#paint0_linear)"/>
<path d="M39.2815 30.207C37.7686 30.207 36.0623 29.7321 35.0772 27.885L34.9716 27.9026C34.0393 28.0609 33.1069 28.1488 32.1746 28.1664C29.272 28.1664 27.812 26.636 27.812 23.6103C27.7944 20.3559 27.9879 17.1191 28.4277 13.8823C27.1435 13.249 26.9148 12.2639 26.9148 11.6482C26.9148 11.1204 27.0907 10.6103 27.4074 10.1881L28.111 9.30853L29.2544 9.5724C31.1543 2.14886 34.3735 0.530457 36.8187 0.530457C40.0731 0.530457 42.3424 2.8701 42.3424 6.21246C42.3424 8.28823 41.3925 10.4696 39.563 12.088C40.7592 12.7388 41.7971 14.0934 41.7971 16.8552C41.7795 17.8931 41.7091 18.9134 41.586 19.9337C41.4804 20.9012 41.3749 21.9039 41.3749 22.7659C41.3749 24.9648 41.9906 25.0176 42.659 25.0879L46.8282 25.5101L43.6441 28.2192C43.2747 28.571 41.2341 30.207 39.2815 30.207Z" fill="url(#paint1_linear)"/>
<path d="M50.2408 30.1894C48.0947 30.1894 46.9864 28.8349 46.4059 27.1813C45.544 27.9553 44.4181 28.3775 43.2571 28.3775C40.4073 28.3775 38.5778 25.8444 38.5778 21.9039C38.5778 16.7497 41.4452 11.1732 46.0717 11.1732C47.479 11.1732 48.6224 11.8769 49.3965 13.1786H49.5724C51.5778 13.1786 52.4573 14.4804 52.4573 15.7821C52.4573 16.82 52.4398 17.77 52.4222 18.6143C52.4046 19.3004 52.4046 19.9513 52.4046 20.5318C52.4046 24.0677 52.774 24.613 54.2517 25.2111L57.0487 26.3369L54.709 28.2544C54.322 28.571 52.2463 30.1894 50.2408 30.1894Z" fill="url(#paint2_linear)"/>
<path d="M53.425 28.659C51.5779 28.659 50.3465 27.4452 50.3465 25.6333C50.3465 24.2612 50.4872 22.203 50.6455 19.8458C50.7511 18.2977 50.8566 16.609 50.9446 14.9554L50.4696 14.9378C49.1151 14.9202 47.567 13.5481 47.567 11.7889C47.567 11.2964 47.6902 10.8214 47.9189 10.3816L48.3938 9.44929L49.4493 9.39652C49.9947 9.37893 50.5048 9.34375 51.0325 9.29097C50.9094 7.14483 50.6455 6.63468 50.6103 6.56432L49.0271 4.5589L51.4723 3.78489C52.7213 3.36269 53.7592 3.16919 54.6388 3.16919C56.996 3.16919 58.4561 4.68204 58.4561 7.10965C58.4561 7.25038 58.4385 7.42629 58.4209 7.69016H58.7375C60.4615 7.69016 61.7808 10.5224 61.7808 11.9473C61.7808 13.3722 60.8133 14.973 58.1746 14.973H57.8404C57.7876 16.2571 57.7524 17.4709 57.7524 18.544C57.7524 22.6428 58.245 24.3667 58.5264 25.0352L59.1773 26.5305L57.7524 27.3221C57.3302 27.5332 55.1841 28.659 53.425 28.659Z" fill="url(#paint3_linear)"/>
<path d="M66.9878 30.5061C65.7916 30.5061 64.3491 29.9608 63.3288 27.8498C62.7835 28.272 62.0975 28.5183 61.4114 28.5183C59.3708 28.5183 55.9405 27.3924 55.9405 19.8633C55.9581 18.1218 56.0988 16.3978 56.3803 14.6915L56.3979 14.6211L56.4155 14.5508C56.5034 14.1637 57.1543 12.2815 60.4263 12.2815C61.1475 12.2815 61.8688 12.3518 62.5724 12.4926L63.5575 12.6685C64.0677 12.2815 64.8769 11.9824 66.1083 11.9824C66.9175 11.9824 68.9229 12.1232 69.8728 13.4249L70.682 14.5508L69.8904 15.5007C69.6441 16.1164 69.1164 18.4736 69.1164 20.866C69.1164 21.8512 69.2219 25.088 70.6996 25.4398L73.1976 26.0379L71.7727 28.1664C71.6495 28.4303 70.1543 30.5061 66.9878 30.5061Z" fill="url(#paint4_linear)"/>
<path d="M71.8254 28.1665C68.9228 28.1665 67.4627 26.636 67.4627 23.6103C67.4979 22.3085 67.6035 20.9892 67.797 19.705C67.9553 18.6495 68.0432 17.5941 68.0784 16.521C68.0784 15.3776 67.8497 15.0961 67.8497 15.0961C67.7442 15.0609 67.621 15.0433 67.5155 15.0433C67.2516 15.0609 66.9702 15.0785 66.7239 15.1489L64.4722 15.5711L64.5953 13.2842C64.7537 10.3464 67.4451 8.60489 69.9607 8.60489C71.2976 8.60489 72.5994 9.11504 73.5669 10.065C74.9039 7.90124 76.4695 7.33832 77.7712 7.33832C80.0933 7.33832 81.6061 8.83358 81.6061 11.1205C81.6061 11.7186 81.5182 12.3167 81.3247 12.8972L80.9377 14.0406L79.7239 14.111C75.5899 14.3573 74.9742 19.4236 74.9742 22.4141C74.9742 23.5399 75.3436 24.3315 75.8714 25.1935L77.3139 27.4804L74.6224 27.9026C73.6901 28.0609 72.7577 28.1489 71.8254 28.1665Z" fill="url(#paint5_linear)"/>
<path d="M82.2572 28.2192C81.835 28.2192 81.3953 28.1665 80.9907 28.0609C80.3574 28.1489 79.7065 28.2016 79.0556 28.2016C74.9744 28.2016 74.9744 24.7537 74.9744 23.6279C74.9568 20.3735 75.1679 17.1367 75.5901 13.8999C74.306 13.2666 74.0773 12.2815 74.0773 11.6658C74.0773 11.138 74.2532 10.6279 74.5698 10.2057L75.2735 9.32614L76.4169 9.59001C78.3168 2.16647 81.536 0.548065 83.9812 0.548065C87.2356 0.548065 89.5049 2.88771 89.5049 6.23006C89.5049 8.34102 88.5197 10.5927 86.6023 12.2111C88.3262 13.0555 89.3817 15.1313 89.3817 17.9811C89.3817 22.2558 86.9013 28.2192 82.2572 28.2192Z" fill="url(#paint6_linear)"/>
<path d="M97.6495 30.1894C95.5034 30.1894 94.3951 28.8349 93.8146 27.1813C92.9526 27.9553 91.8092 28.3775 90.6482 28.3775C87.7984 28.3775 85.9689 25.8444 85.9689 21.9039C85.9689 16.7497 88.8363 11.1732 93.4628 11.1732C94.8701 11.1732 96.0135 11.8769 96.7875 13.1786H96.9635C98.9689 13.1786 99.8484 14.498 99.8484 15.7821C99.8484 16.82 99.8308 17.77 99.8132 18.6143C99.7957 19.3004 99.7956 19.9513 99.7956 20.5318C99.7956 24.0677 100.165 24.613 101.643 25.2111L104.44 26.3369L102.1 28.2544C101.731 28.571 99.6549 30.1894 97.6495 30.1894Z" fill="url(#paint7_linear)"/>
<path d="M100.904 28.659C99.0569 28.659 97.8255 27.4452 97.8255 25.6333C97.8255 24.2964 97.9662 22.3086 98.1245 20.0041C98.2828 17.6996 98.4412 15.1489 98.5115 12.8268C97.2977 13.1083 96.6293 13.5129 96.2598 13.8471L94.9581 15.0609L93.7443 13.7592C92.9879 12.95 92.1083 11.8417 92.1083 10.54C92.1083 7.58462 95.7497 7.10966 98.2301 7.0217C98.1949 6.84579 98.1421 6.68747 98.0542 6.52915L96.5413 4.54132L98.9337 3.76731C100.183 3.34511 101.221 3.15161 102.1 3.15161C104.457 3.15161 105.917 4.66446 105.917 7.09207C105.917 7.14484 105.917 7.21521 105.917 7.28557L106.586 7.32075C108.38 7.44389 110.069 7.54944 111.318 7.54944C117.985 7.54944 122.137 6.19491 124.388 3.30993L125.338 2.09613L126.675 2.85256C128.645 3.99599 130 6.33564 130 8.69288C130 11.5251 127.924 14.3749 123.28 14.3749C119.604 14.3749 115.769 13.8647 112.057 13.3722C109.735 13.0555 107.518 12.7565 105.46 12.6157C105.337 14.3925 105.231 16.521 105.231 18.5616C105.231 22.6604 105.724 24.3843 106.005 25.0528L106.656 26.5481L105.231 27.3397C104.809 27.5332 102.663 28.659 100.904 28.659Z" fill="url(#paint8_linear)"/>
<path d="M110.597 28.5007C107.149 28.5007 103.138 26.4073 103.138 20.5142C103.138 15.8173 106.973 11.5426 111.177 11.5426C111.986 11.5426 112.778 11.701 113.517 12C113.746 11.9472 113.992 11.9121 114.221 11.9121C116.103 11.9121 117.405 13.8295 117.405 16.5738C117.405 18.3681 116.806 20.2327 115.575 21.5521C116.472 22.1502 117.018 23.1353 117.018 24.226C117.018 26.8647 113.693 28.5007 110.597 28.5007Z" fill="url(#paint9_linear)"/>
<path d="M20.7755 38.686C15.7443 37.9472 11.0826 36.8213 11.0826 33.5845C11.0826 28.5534 23.0447 27.4979 33.0718 27.4979C42.2545 27.4979 52.2639 28.0433 61.9568 28.571C71.2274 29.0812 79.9879 29.5561 87.6753 29.5561C97.0339 29.5561 103.261 28.7997 106.709 27.2341L107.202 27.023L107.729 27.0933C112.145 27.7618 117.422 29.2571 117.422 32.5994C117.422 35.7483 113.288 36.1881 111.3 36.3992C108.081 36.751 103.314 36.8038 96.1543 36.8038C90.226 36.8038 82.5386 36.2936 74.4114 35.7307C65.088 35.0974 54.5156 34.3937 45.1394 34.3937C35.6225 34.3937 26.8093 36.5575 21.7254 38.5805L21.2856 38.7564L20.7755 38.686Z" fill="url(#paint10_linear)"/>
<path d="M21.1626 22.5899C23.08 22.5899 25.7539 20.0392 26.1761 17.4181C28.1815 17.4181 29.2546 18.4736 29.2546 20.2327C29.2546 22.9945 26.3872 27.3572 21.919 27.3572C15.8676 27.3572 13.2465 22.4668 13.2465 16.9783C13.2641 15.5534 13.4224 14.1109 13.739 12.7212C6.8784 12.1759 1.77692 10.1001 1.77692 7.40861C1.77692 6.0189 3.16663 4.45327 6.43862 2.88764C6.59694 7.28547 9.85134 10.0473 14.1964 11.0676C15.7972 6.2124 19.3682 2.1488 24.2586 2.1488C27.8824 2.1488 29.7295 3.89035 29.7295 5.93094C29.7295 8.74555 26.2816 12.1935 19.2451 12.7388C18.3479 14.5859 17.7498 16.7144 17.7498 18.5263C17.7498 20.8308 18.6822 22.5899 21.1626 22.5899ZM19.9839 11.4722C23.5022 11.2083 24.7336 10.1001 24.7336 9.30847C24.7336 8.86869 24.3114 8.49927 23.7133 8.49927C22.4291 8.49927 21.057 9.73067 19.9839 11.4722Z" fill="url(#paint11_linear)"/>
<path d="M30.4508 12.6332C29.0083 12.4221 28.7093 11.9824 28.7093 11.6657C28.7093 11.5426 28.7445 11.4194 28.8148 11.3315C29.4657 11.4898 30.0814 11.5954 30.6267 11.6657C31.8405 5.71985 34.0395 2.34232 36.8365 2.34232C39.2817 2.34232 40.5658 4.13663 40.5658 6.23C40.5658 8.95665 38.3845 12.1935 33.6525 12.7036C33.5469 13.6711 33.4765 14.6738 33.4414 15.6765C34.6728 14.0933 36.3087 13.3721 37.2235 13.3721C39.4928 13.3721 40.0029 14.8673 40.0029 16.8903C40.0029 18.7022 39.5807 20.9188 39.5807 22.801C39.5807 24.9296 40.1261 26.6711 42.4657 26.8998C42.4657 26.8998 40.6538 28.4478 39.2641 28.4478C36.5902 28.4478 36.0273 26.3545 36.0273 23.8565C36.0273 22.2205 36.2736 20.4614 36.2736 19.0189C36.2736 17.3301 35.9569 16.1339 34.6376 16.1339C34.2154 16.1339 33.7756 16.3978 33.371 16.9255V18.0514C33.371 21.4993 33.8108 25.1934 34.6903 26.1786C33.8635 26.3193 33.0192 26.4073 32.1748 26.4248C30.3277 26.4248 29.6064 25.7388 29.6064 23.663C29.624 19.4059 29.9055 15.7293 30.4508 12.6332ZM33.7932 11.4018C35.7986 10.7158 36.3967 9.00943 36.3967 7.61971C36.3967 6.51146 36.0097 5.6143 35.6403 5.6143C34.9014 5.6143 34.2154 8.12986 33.7932 11.4018Z" fill="url(#paint12_linear)"/>
<path d="M48.306 15.1489C48.7106 15.0433 49.1328 14.9906 49.5726 14.973C50.2059 14.973 50.6808 15.1489 50.6808 15.7822C50.6808 17.682 50.6281 19.2301 50.6281 20.5318C50.6281 24.1556 50.9975 25.8092 53.601 26.8647C53.601 26.8647 51.7363 28.3952 50.2586 28.3952C48.0773 28.3952 47.7079 25.774 47.4968 22.7483H47.3913C45.7904 26.0203 44.4535 26.5832 43.2573 26.5832C41.2871 26.5832 40.3723 24.4723 40.3723 21.904C40.3723 17.9635 42.5009 12.9676 46.0719 12.9676C47.4264 12.9676 48.0421 14.2517 48.306 15.1489ZM46.8635 17.0839C46.7931 16.7673 46.7052 16.4682 46.5996 16.1692C45.1572 17.4533 44.3304 20.7077 44.3304 22.4317C44.3304 23.0826 44.4711 23.5399 44.7174 23.5399C45.4034 23.5399 47.0042 21.7984 47.0042 18.7903C47.0042 18.2098 46.9515 17.6469 46.8635 17.0839Z" fill="url(#paint13_linear)"/>
<path d="M59.969 11.9471C59.969 12.6332 59.5292 13.1785 58.1571 13.1785H56.134C56.0285 14.8849 55.9581 16.7496 55.9581 18.5439C55.9581 21.4289 56.1868 24.1731 56.8729 25.7388C56.8729 25.7388 54.8323 26.8646 53.425 26.8646C52.6862 26.8646 52.1408 26.5831 52.1408 25.6332C52.1408 23.0825 52.6686 17.7523 52.8269 13.1785C51.5075 13.1785 50.5224 13.1434 50.5224 13.1434C50.1354 13.1434 49.3614 12.5628 49.3614 11.7712C49.3614 11.5601 49.4142 11.349 49.5197 11.1731C50.6456 11.1204 51.7538 11.0148 52.8621 10.8565C52.8269 8.30574 52.6158 6.22997 52.0001 5.47354C53.0204 5.13931 53.8999 4.9458 54.6036 4.9458C55.923 4.9458 56.6266 5.59668 56.6266 7.09194C56.6266 7.42618 56.4859 8.58721 56.3627 10.1704C57.1719 10.0121 57.946 9.78342 58.7024 9.46677C58.8959 9.46677 59.969 10.8741 59.969 11.9471Z" fill="url(#paint14_linear)"/>
<path d="M66.9879 28.7117C65.2816 28.7117 64.4196 26.4248 64.0502 23.6454C63.3114 25.598 62.3438 26.7415 61.4291 26.7415C58.4386 26.7415 57.7525 23.1353 57.7525 19.8809C57.7701 18.2449 57.9108 16.6089 58.1747 14.9905C58.1747 14.9905 58.4034 14.0757 60.4616 14.0757C61.0773 14.0757 61.693 14.1461 62.3087 14.2516C61.9217 15.8173 61.7106 17.4181 61.6754 19.0365C61.6754 21.253 62.2031 22.5547 62.8892 22.5547C63.2058 22.5547 63.5752 22.2733 63.9095 21.6048C63.8919 21.1298 63.8919 20.6373 63.8919 20.1623C63.8919 17.8051 64.1557 15.571 64.49 14.3748C64.5428 13.9878 65.2992 13.7767 66.1788 13.7767C67.1287 13.7767 68.149 14.0054 68.4832 14.4803C68.1138 14.9201 67.4101 17.893 67.4101 20.866C67.4101 23.751 68.061 26.6183 70.3479 27.1637C70.3303 27.1813 69.2924 28.7117 66.9879 28.7117Z" fill="url(#paint15_linear)"/>
<path d="M69.9257 10.3992C71.6321 10.3992 73.3208 11.525 73.3208 14.2868C73.3208 14.8674 73.3032 15.4655 73.2681 16.046C74.0245 12.3166 75.4494 9.11499 77.7363 9.11499C79.425 9.11499 79.7768 10.1881 79.7768 11.1204C79.7768 11.525 79.7241 11.9296 79.6009 12.3342C73.9189 12.6684 73.1625 19.0893 73.1625 22.4316C73.1625 23.9621 73.6551 25.0879 74.3411 26.161C73.5143 26.3017 72.6699 26.3897 71.8256 26.4073C69.9785 26.4073 69.2572 25.7212 69.2572 23.6454C69.2572 21.3937 69.8553 18.6319 69.8553 16.5561C69.8553 14.6563 69.3628 13.3017 67.4981 13.3017C67.1111 13.3193 66.7417 13.3545 66.3723 13.4425C66.4602 11.525 68.2193 10.3992 69.9257 10.3992Z" fill="url(#paint16_linear)"/>
<path d="M81.1665 26.2137C80.4628 26.3193 79.7592 26.3897 79.0379 26.3897C77.2788 26.3897 76.751 25.7036 76.751 23.6102C76.751 19.4059 77.0325 15.7293 77.5954 12.6332C76.1529 12.4221 75.8539 11.9824 75.8539 11.6657C75.8539 11.5426 75.8891 11.4194 75.9594 11.3315C76.6103 11.4898 77.226 11.5954 77.7713 11.6657C78.9851 5.71985 81.1841 2.34232 83.9811 2.34232C86.4263 2.34232 87.7104 4.13663 87.7104 6.23C87.7104 8.95666 85.5291 12.1935 80.797 12.7036C80.6915 13.7591 80.6211 14.8849 80.5508 16.0108C82.0284 13.8822 83.7172 13.6008 84.7375 13.6008C86.7077 13.6008 87.5697 15.5886 87.5697 17.981C87.5697 21.7104 85.4939 26.4424 82.2395 26.4424C81.8877 26.4424 81.5183 26.3721 81.1665 26.2137ZM80.5508 19.3531C80.5684 21.3409 80.6563 23.3464 80.9202 24.6833C82.5562 24.5778 83.2246 21.4465 83.2246 19.1068C83.2246 17.7171 82.996 16.6089 82.5738 16.6089C82.046 16.6265 81.0081 17.594 80.5508 19.3531ZM80.9378 11.3843C82.9432 10.6982 83.5413 8.99184 83.5413 7.60212C83.5413 6.49387 83.1543 5.59671 82.7849 5.59671C82.0108 5.6143 81.36 8.12986 80.9378 11.3843Z" fill="url(#paint17_linear)"/>
<path d="M95.697 15.1489C96.1016 15.0433 96.5238 14.9906 96.9636 14.973C97.5968 14.973 98.0718 15.1489 98.0718 15.7822C98.0718 17.682 98.019 19.2301 98.019 20.5318C98.019 24.1556 98.3884 25.8092 100.992 26.8647C100.992 26.8647 99.1273 28.3952 97.6496 28.3952C95.4683 28.3952 95.0989 25.774 94.8878 22.7483H94.7822C93.1814 26.0203 91.8445 26.5832 90.6659 26.5832C88.6956 26.5832 87.7809 24.4723 87.7809 21.904C87.7809 17.9635 89.9094 12.9676 93.4805 12.9676C94.835 12.9676 95.4331 14.2517 95.697 15.1489ZM94.2545 17.0839C94.1665 16.7673 94.0962 16.4506 93.9906 16.1692C92.5481 17.4533 91.7389 20.7077 91.7389 22.4317C91.7389 23.0826 91.8621 23.5399 92.1259 23.5399C92.812 23.5399 94.4128 21.7984 94.4128 18.7903C94.4128 18.2098 94.36 17.6469 94.2545 17.0839Z" fill="url(#paint18_linear)"/>
<path d="M93.8851 10.5575C93.8851 9.18538 96.3303 8.81597 99.4791 8.81597H100.236C100.13 7.23275 99.9013 6.03654 99.4791 5.47361C100.499 5.13938 101.379 4.94587 102.083 4.94587C103.402 4.94587 104.106 5.59675 104.106 7.09202C104.106 7.3207 104.018 8.00677 103.947 8.9567C106.674 9.11502 109.383 9.34371 111.283 9.34371C117.088 9.34371 122.682 8.37618 125.761 4.40054C127.256 5.24493 128.206 7.00406 128.206 8.65764C128.206 10.6631 126.816 12.5453 123.263 12.5453C116.771 12.5453 109.541 10.8566 103.789 10.6806C103.613 12.8972 103.42 15.7821 103.42 18.5088C103.42 21.3938 103.648 24.138 104.334 25.7036C104.334 25.7036 102.276 26.8295 100.886 26.8295C100.148 26.8295 99.6023 26.548 99.6023 25.5981C99.6023 22.6603 100.306 16.0108 100.306 11.0677V10.7334C98.0191 10.9093 96.1544 11.4723 95.0285 12.5277C94.2545 11.7009 93.8851 11.0677 93.8851 10.5575Z" fill="url(#paint19_linear)"/>
<path d="M108.785 21.2706C108.82 23.5575 109.858 24.5778 110.966 24.5778C111.881 24.5778 112.831 23.8741 113.288 22.6076C114.608 22.7307 115.223 23.4168 115.223 24.2084C115.223 25.5277 112.989 26.7063 110.597 26.7063C107.87 26.7063 104.915 25.1583 104.915 20.4966C104.915 16.7321 108.011 13.3193 111.177 13.3193C111.969 13.3193 112.761 13.5304 113.429 13.9526C113.658 13.7943 113.939 13.7063 114.221 13.6888C115.03 13.6888 115.61 15.0081 115.61 16.5561C115.61 18.8078 114.397 21.6049 111.019 21.6049C110.263 21.6049 109.524 21.4993 108.785 21.2706ZM111.846 16.6265C110.315 16.9256 109.119 18.6495 108.855 20.4438C111.424 20.2679 112.145 19.0013 112.145 17.8755C112.127 17.4357 112.022 17.0135 111.846 16.6265Z" fill="url(#paint20_linear)"/>
<path d="M87.6753 31.3329C96.2775 31.3329 103.296 30.7347 107.448 28.8525C112.761 29.6617 115.628 31.1393 115.628 32.5818C115.628 34.7456 110.034 35.0094 96.1367 35.0094C83.383 35.0094 62.6077 32.5994 45.1219 32.5994C35.517 32.5994 26.4927 34.7456 21.0394 36.9093C15.6036 36.1177 12.877 35.027 12.877 33.5845C12.877 31.4208 19.034 29.2923 33.0894 29.2923C50.8391 29.3099 71.7728 31.3329 87.6753 31.3329Z" fill="url(#paint21_linear)"/>
<g opacity="0.4">
<path opacity="0.4" d="M21.8134 23.8917C24.0123 23.8917 26.6334 21.3762 27.3547 18.7375C27.7065 18.7727 28.0407 18.8782 28.3398 19.0541C28.0407 18.5088 27.4954 18.1922 26.7038 18.0866C25.9825 20.7253 23.3614 23.2409 21.1625 23.2409C20.1598 23.2409 19.333 22.977 18.6821 22.502C19.3682 23.3992 20.4413 23.8917 21.8134 23.8917Z" fill="white"/>
<path opacity="0.4" d="M25.2435 8.728C25.3315 8.9215 25.3842 9.11501 25.3842 9.3261C25.3842 9.88902 25.05 10.5223 24.2232 11.0325C24.8389 10.7862 25.4546 10.5047 26.0175 10.1529C26.0175 10.1001 26.0351 10.0298 26.0351 9.97698C26.0351 9.43165 25.7185 8.95668 25.2435 8.728Z" fill="white"/>
<path opacity="0.4" d="M14.5481 17.6116C14.5657 16.2219 14.724 14.8498 15.0406 13.4952C15.1286 13.1434 14.8999 12.7916 14.5481 12.7036C14.5129 12.7036 14.4953 12.686 14.4601 12.686H14.4073C14.4073 12.7388 14.4073 12.7916 14.3897 12.8268C14.0731 14.1989 13.9148 15.5886 13.8972 16.9783C13.8972 19.9688 14.7416 23.0825 16.8877 24.9648C15.2341 23.0473 14.5481 20.2855 14.5481 17.6116Z" fill="white"/>
<path opacity="0.4" d="M3.09616 8.05954C3.09616 7.07443 4.13405 5.94858 6.0691 4.82274C5.98114 4.52369 5.92837 4.20704 5.87559 3.90799C3.65908 5.1042 2.44528 6.33559 2.44528 7.40866C2.44528 8.02436 2.83229 8.62247 3.51835 9.1678C3.25448 8.85115 3.11375 8.46414 3.09616 8.05954Z" fill="white"/>
<path opacity="0.4" d="M13.5103 12.0352L13.8093 12.0703C13.95 12.0879 14.0908 12.1407 14.2139 12.2463C14.3722 12.2814 14.5481 12.3342 14.7065 12.387C14.7592 12.4046 14.812 12.4046 14.8648 12.4046C15.1463 12.4046 15.3925 12.2287 15.4805 11.9472C16.835 7.86602 20.0191 3.48578 24.927 3.48578C26.4927 3.48578 27.7592 3.83761 28.6036 4.47089C27.8648 3.4506 26.3343 2.8349 24.2762 2.8349C19.3682 2.8349 16.1841 7.19755 14.8296 11.2963C14.7417 11.5602 14.4954 11.7537 14.2139 11.7537C14.1611 11.7537 14.1084 11.7537 14.0556 11.7361C11.8391 11.2084 9.992 10.2584 8.61987 9.00946C9.79849 10.3288 11.4697 11.3667 13.5103 12.0352Z" fill="white"/>
<path opacity="0.4" d="M40.8296 27.2341L40.9879 27.1461C40.7944 27.0582 40.6185 26.935 40.4426 26.8119C40.5657 26.9526 40.6888 27.0933 40.8296 27.2341Z" fill="white"/>
<path opacity="0.4" d="M37.6983 8.27062C37.6983 7.12718 37.3289 5.96615 36.6252 5.68469C36.9243 6.2828 37.065 6.95127 37.0474 7.61974C37.0474 9.66033 35.9744 11.2787 34.1624 11.9648C35.1124 11.8241 36.0271 11.5074 36.8715 11.0325C37.4344 10.2233 37.7335 9.25573 37.6983 8.27062Z" fill="white"/>
<path opacity="0.4" d="M37.364 24.4722C37.364 23.663 37.4344 22.7834 37.4871 21.9567C37.5399 21.1299 37.5927 20.3558 37.5927 19.6346C37.5927 18.9134 37.5927 17.0663 36.3965 16.3626C36.9242 17.2246 36.9242 18.4384 36.9242 18.9837C36.9242 19.705 36.8715 20.479 36.8187 21.3058C36.7659 22.1326 36.6955 23.0121 36.6955 23.8213C36.6955 26.0027 37.1529 27.023 37.9093 27.4627C37.5751 26.8646 37.364 25.9323 37.364 24.4722Z" fill="white"/>
<path opacity="0.4" d="M37.8918 14.6387C38.2788 14.6211 38.6658 14.6914 39.0176 14.8498C38.701 14.2341 38.1205 13.9702 37.2233 13.9702C36.678 13.9702 35.5345 14.3748 34.4791 15.4303C34.5318 15.4303 34.5846 15.4303 34.6374 15.4303C34.9892 15.4303 35.3234 15.5006 35.6225 15.659C36.5548 14.9377 37.4344 14.6387 37.8918 14.6387Z" fill="white"/>
<path opacity="0.4" d="M30.9256 24.2611C30.9256 20.1448 31.207 16.4858 31.7523 13.3897C31.7875 13.2138 31.7348 13.0379 31.6468 12.8971L31.6292 12.8795C31.7875 12.7916 31.9107 12.6333 31.9458 12.4398C33.0893 6.84571 35.1123 3.6265 37.5047 3.6265C38.1556 3.6089 38.7889 3.78482 39.3166 4.15424C38.8416 3.46817 38.05 2.97562 36.8362 2.97562C34.4438 2.97562 32.4208 6.17724 31.2774 11.7889C31.2422 11.9648 31.1191 12.1231 30.9607 12.2287L30.9783 12.2462C31.0839 12.387 31.1191 12.5629 31.0839 12.7388C30.5385 15.8349 30.2571 19.4939 30.2571 23.6102C30.2571 24.824 30.4858 25.3694 31.0839 25.5805C30.9607 25.1583 30.908 24.7185 30.9256 24.2611Z" fill="white"/>
<path opacity="0.4" d="M48.3234 15.9933C48.4289 16.3275 48.7632 16.521 49.115 16.4506C49.414 16.3803 49.7131 16.3275 50.0121 16.2923C50.0121 16.134 50.0121 15.9581 50.0121 15.7822C50.0121 15.7294 50.0121 15.6942 50.0121 15.6942C49.8714 15.6238 49.7131 15.6062 49.5724 15.6238C49.2029 15.6414 48.8335 15.6942 48.4641 15.7822C48.4113 15.7998 48.3586 15.7998 48.3058 15.7998C48.2882 15.7998 48.2882 15.7998 48.2706 15.7998C48.2882 15.8525 48.3058 15.9229 48.3234 15.9933Z" fill="white"/>
<path opacity="0.4" d="M52.1935 27.0405L52.3167 26.9702C52.1408 26.847 51.9649 26.7239 51.7889 26.5832C51.9121 26.7415 52.0528 26.8998 52.1935 27.0405Z" fill="white"/>
<path opacity="0.4" d="M41.6739 22.5548C41.6739 18.6319 43.7497 14.2693 46.7226 14.2693C46.9161 14.2693 47.1096 14.3221 47.2855 14.41C46.9689 13.8823 46.5643 13.6184 46.0717 13.6184C43.0988 13.6184 41.023 17.9811 41.023 21.9039C41.023 23.4696 41.3924 25.1055 42.3951 25.7037C41.885 24.912 41.6739 23.7158 41.6739 22.5548Z" fill="white"/>
<path opacity="0.4" d="M48.7984 23.3464C48.7808 23.0122 48.4994 22.7307 48.1476 22.7307C48.3411 25.4398 48.6577 27.111 49.6076 27.5859C49.1327 26.7767 48.9392 25.3518 48.7984 23.3464Z" fill="white"/>
<path opacity="0.4" d="M48.1476 17.6292C48.1476 17.6116 48.1476 17.5941 48.13 17.5765C48.0596 17.2422 47.9541 16.908 47.8485 16.5914C47.7782 16.3803 47.6022 16.2395 47.3911 16.1867C47.356 16.1692 47.3032 16.1692 47.268 16.1692C47.356 16.4154 47.4087 16.6793 47.4791 16.9256C47.4791 16.9432 47.4791 16.9608 47.4967 16.9784C47.6022 17.5765 47.6726 18.1746 47.6726 18.7727C47.6726 22.0271 45.8959 24.1908 44.7349 24.1908C44.6645 24.1908 44.5765 24.1732 44.5062 24.1556C44.6997 24.6834 45.0515 24.8241 45.3154 24.8417C45.9135 24.1204 46.406 23.3112 46.793 22.4669C46.8986 22.2382 47.1273 22.0974 47.3735 22.0974H47.4791C47.6022 22.0974 47.7254 22.1326 47.8309 22.203C48.1476 21.3234 48.3059 20.3735 48.3059 19.4411C48.3235 18.8254 48.2707 18.2273 48.1476 17.6292Z" fill="white"/>
<path opacity="0.4" d="M56.3802 10.839C56.3802 11.1908 56.6617 11.4898 57.0311 11.4898C57.0839 11.4898 57.1191 11.4898 57.1719 11.4723C57.8051 11.3315 58.4208 11.1732 59.0365 10.9621C58.9134 10.6982 58.7551 10.452 58.5968 10.2233C57.9283 10.4695 57.2246 10.663 56.5386 10.8038C56.4682 10.8214 56.4154 10.839 56.3802 10.839Z" fill="white"/>
<path opacity="0.4" d="M53.7415 20.6725C53.8822 18.5263 54.0581 16.0987 54.1285 13.8646C54.1461 13.4952 53.8646 13.1962 53.4952 13.1962H53.4776V13.2138C53.4073 15.4479 53.2313 17.8755 53.0906 20.0216C52.9323 22.3437 52.7916 24.3491 52.7916 25.6508C52.7916 26.0906 52.8795 26.2313 53.4249 26.2313H53.4424C53.46 24.9296 53.5832 22.9418 53.7415 20.6725Z" fill="white"/>
<path opacity="0.4" d="M50.6631 12.475C51.6659 12.4222 52.6334 12.3166 53.6009 12.1759C53.9175 12.1231 54.1638 11.8417 54.1638 11.525C54.1462 9.1326 53.9703 7.53179 53.6009 6.54668C54.1462 6.38835 54.7092 6.3004 55.2721 6.28281C55.4832 6.28281 55.6943 6.3004 55.8878 6.35317C55.6943 5.77266 55.2545 5.63193 54.6212 5.63193C54.0583 5.64952 53.4954 5.73748 52.95 5.8958C53.3018 6.8985 53.4778 8.49931 53.5129 10.8741C53.5129 11.2084 53.2843 11.4722 52.95 11.525C51.9825 11.6658 51.015 11.7713 50.0123 11.8241C50.0475 12.1231 50.2585 12.387 50.54 12.5101H50.6807C50.6632 12.4925 50.6631 12.475 50.6631 12.475Z" fill="white"/>
<path opacity="0.4" d="M63.2586 23.839C63.3114 23.6982 63.3817 23.5575 63.4345 23.3992C63.5225 23.1529 63.7688 22.977 64.0502 22.977H64.1206C64.3317 22.9946 64.5076 23.1177 64.6131 23.3112C64.8066 23.0825 64.9826 22.8363 65.1233 22.5548C65.1761 22.4493 65.1937 22.3261 65.1937 22.2206C65.1761 21.7632 65.1761 21.2882 65.1761 20.8133C65.1761 18.3681 65.4575 16.2571 65.739 15.2544C66.0732 15.1137 66.4426 15.0609 66.7945 15.0785C67.0232 15.0785 67.2518 15.0961 67.4805 15.1313C67.5333 14.9729 67.5861 14.8146 67.6388 14.6739C67.1639 14.498 66.6537 14.41 66.1436 14.4276C65.7742 14.41 65.4223 14.4628 65.0881 14.6035C64.8066 15.6238 64.5252 17.7172 64.5252 20.1624C64.5252 20.6374 64.5252 21.1123 64.5428 21.5697C64.5428 21.6928 64.5252 21.7984 64.4724 21.9039C63.9095 22.977 63.2938 23.2057 62.8716 23.2057C62.6781 23.2057 62.5022 23.1529 62.3263 23.065C62.5198 23.452 62.854 23.7334 63.2586 23.839Z" fill="white"/>
<path opacity="0.4" d="M69.0635 27.4627L69.1514 27.4099C69.0283 27.3396 68.9052 27.2516 68.7996 27.1637C68.8876 27.2692 68.9755 27.3748 69.0635 27.4627Z" fill="white"/>
<path opacity="0.4" d="M59.0365 20.5318C59.0541 18.9661 59.1772 17.3829 59.4411 15.8349C59.5115 15.7293 59.8633 15.3775 61.0947 15.3775C61.1827 15.3775 61.2706 15.3775 61.3762 15.3951C61.4113 15.2016 61.4465 15.0081 61.4817 14.797C61.1299 14.7442 60.7781 14.7266 60.4262 14.7266C59.1948 14.7266 58.843 15.0784 58.7726 15.184C58.5264 16.732 58.3856 18.3153 58.368 19.8809C58.368 22.1502 58.7023 24.7537 60.1096 25.7036C59.2652 24.4722 59.0365 22.3964 59.0365 20.5318Z" fill="white"/>
<path opacity="0.4" d="M65.3519 24.2084C65.3167 23.9093 65.0705 23.6806 64.7714 23.6454H64.701C65.0177 25.9675 65.6334 27.4628 66.4426 27.9201C65.95 27.1637 65.563 25.8971 65.3519 24.2084Z" fill="white"/>
<path opacity="0.4" d="M73.2856 16.8904C73.3032 16.82 73.3207 16.7496 73.3559 16.6793C73.3207 16.6793 73.2856 16.6793 73.268 16.6793C73.2504 16.7672 73.268 16.82 73.2856 16.8904Z" fill="white"/>
<path opacity="0.4" d="M70.5765 11.7009C71.1218 11.7009 71.6496 11.8593 72.1069 12.1407C71.4385 11.1556 70.3478 11.0325 69.908 11.0325C68.8174 11.0325 67.6563 11.613 67.1814 12.5981C67.2693 12.5981 67.3573 12.5805 67.4628 12.5805C67.7267 12.5805 67.9906 12.5981 68.2368 12.6509C68.8701 12.0528 69.7145 11.7009 70.5765 11.7009Z" fill="white"/>
<path opacity="0.4" d="M75.6428 13.1962C76.4168 11.4019 77.3667 10.3992 78.4046 10.3992C78.6333 10.3992 78.8444 10.4168 79.0731 10.4871C78.9148 9.97698 78.4926 9.74829 77.7537 9.74829C76.3288 9.74829 75.0622 11.613 74.2179 14.9201C74.5873 14.2693 75.0622 13.6887 75.6428 13.1962Z" fill="white"/>
<path opacity="0.4" d="M70.5589 24.2611C70.594 23.0473 70.6996 21.8511 70.8579 20.6373C71.0162 19.4763 71.1218 18.3152 71.157 17.1542C71.157 15.4303 70.7172 14.2868 69.8376 13.6887C70.2774 14.3396 70.5061 15.2719 70.5061 16.4857C70.4709 17.6468 70.3829 18.8078 70.207 19.9688C70.0311 21.165 69.9256 22.3788 69.8904 23.5926C69.8904 24.8064 70.1191 25.3518 70.7172 25.5629C70.594 25.1583 70.5237 24.7185 70.5589 24.2611Z" fill="white"/>
<path opacity="0.4" d="M83.77 5.68469C84.0691 6.2828 84.2098 6.95127 84.1922 7.61974C84.1922 9.66033 83.1191 11.2787 81.3072 11.9648C82.2572 11.8241 83.1719 11.5074 84.0163 11.0325C84.5792 10.2233 84.8607 9.25573 84.8431 8.25303C84.8431 7.12718 84.4737 5.96615 83.77 5.68469Z" fill="white"/>
<path opacity="0.4" d="M84.5263 19.7754C84.5263 17.9283 84.1745 16.8904 83.506 16.6617C83.7523 17.1895 83.8755 17.9987 83.8755 19.1069C83.8755 21.341 83.2598 25.1759 80.9553 25.3342H80.9025C80.9025 25.3694 80.9201 25.4222 80.9201 25.4574C80.9201 25.4926 80.9377 25.5277 80.9553 25.5629L81.0784 25.5453C81.1136 25.5453 81.1488 25.5453 81.184 25.5453C81.2895 25.5453 81.3775 25.5629 81.483 25.6157C81.7293 25.7212 81.9932 25.774 82.2747 25.7564C82.3274 25.7564 82.3978 25.7564 82.4506 25.7564C84.069 24.8769 84.5263 21.728 84.5263 19.7754Z" fill="white"/>
<path opacity="0.4" d="M82.5738 15.9756C82.609 15.9756 82.6441 15.9756 82.6617 15.9756C83.4006 15.272 84.3857 14.885 85.406 14.885C85.7226 14.885 86.0217 14.9553 86.2855 15.1137C85.9689 14.5683 85.3884 14.2165 84.7375 14.2341C83.2774 14.2341 82.0988 14.9377 81.0961 16.3626C80.973 16.5386 80.7795 16.6441 80.5684 16.6441C80.5684 16.8552 80.6739 17.0487 80.8322 17.1718C81.36 16.433 81.9933 15.9756 82.5738 15.9756Z" fill="white"/>
<path opacity="0.4" d="M78.0704 24.2611C78.0704 20.1448 78.3519 16.4858 78.8972 13.3897C78.9324 13.2138 78.8796 13.0379 78.7917 12.8971L78.7741 12.8795C78.9324 12.7916 79.0555 12.6333 79.0907 12.4398C80.2342 6.84571 82.2572 3.6265 84.6496 3.6265C85.3005 3.6089 85.9338 3.78482 86.4615 4.15424C85.9865 3.46817 85.1949 2.97562 83.9987 2.97562C81.6063 2.97562 79.5833 6.17724 78.4399 11.7889C78.4047 11.9648 78.2815 12.1231 78.1232 12.2287L78.1408 12.2462C78.2463 12.387 78.2815 12.5629 78.2463 12.7388C77.701 15.8349 77.4196 19.4939 77.4196 23.6102C77.4196 25.0351 77.6482 25.5101 78.2288 25.6684C78.1056 25.2111 78.0528 24.7361 78.0704 24.2611Z" fill="white"/>
<path opacity="0.4" d="M99.6021 27.0405L99.7252 26.9702C99.5493 26.847 99.3734 26.7239 99.1975 26.5832C99.3031 26.7415 99.4438 26.8998 99.6021 27.0405Z" fill="white"/>
<path opacity="0.4" d="M95.7321 15.9933C95.8201 16.2747 96.0664 16.4682 96.3654 16.4682C96.4182 16.4682 96.471 16.4682 96.5237 16.4506C96.8228 16.3803 97.1218 16.3275 97.4209 16.2923C97.4209 16.134 97.4209 15.9581 97.4209 15.7822C97.4209 15.7294 97.4209 15.6942 97.4209 15.6942C97.2802 15.6238 97.1218 15.6062 96.9811 15.6238C96.6117 15.6414 96.2423 15.6942 95.8729 15.7822C95.8201 15.7998 95.7673 15.7998 95.7145 15.7998C95.6969 15.7998 95.6969 15.7998 95.6794 15.7998C95.6969 15.8525 95.7145 15.9229 95.7321 15.9933Z" fill="white"/>
<path opacity="0.4" d="M96.1893 23.3464C96.1717 23.0122 95.8727 22.7307 95.5384 22.7307C95.7319 25.4398 96.0486 27.111 96.9985 27.5859C96.5411 26.7767 96.33 25.3518 96.1893 23.3464Z" fill="white"/>
<path opacity="0.4" d="M89.0826 22.5548C89.0826 18.6319 91.1584 14.2693 94.1313 14.2693C94.3249 14.2693 94.5184 14.3221 94.6943 14.41C94.3776 13.8823 93.973 13.6184 93.4805 13.6184C90.5075 13.6184 88.4318 17.9811 88.4318 21.9039C88.4318 23.4696 88.8012 25.1055 89.8039 25.7037C89.2937 24.912 89.0826 23.7158 89.0826 22.5548Z" fill="white"/>
<path opacity="0.4" d="M95.5561 17.6468C95.5561 17.6292 95.5561 17.6116 95.5385 17.594C95.4682 17.2774 95.3802 16.9431 95.2571 16.6089C95.1867 16.3978 95.0108 16.2571 94.7997 16.2043C94.7645 16.1867 94.7118 16.1867 94.6766 16.1867C94.7645 16.4506 94.8349 16.6969 94.8877 16.9431C94.8877 16.9607 94.8877 16.9783 94.9053 16.9959C95.0108 17.594 95.0812 18.1921 95.0812 18.7902C95.0812 22.0446 93.3044 24.2084 92.1434 24.2084C92.0731 24.2084 91.9851 24.1908 91.9147 24.1732C92.1082 24.7009 92.4601 24.8416 92.7239 24.8592C93.322 24.138 93.8146 23.3288 94.2016 22.4844C94.3072 22.2557 94.5358 22.115 94.7821 22.115H94.8877C95.0108 22.115 95.134 22.1502 95.2395 22.2205C95.5561 21.341 95.7145 20.391 95.7145 19.4587C95.732 18.8254 95.6617 18.2273 95.5561 17.6468Z" fill="white"/>
<path opacity="0.4" d="M95.2043 11.2084C95.2043 10.9621 95.5561 10.1353 100.13 10.1177L100.288 10.1001H100.341C100.394 10.1001 100.429 10.1001 100.482 10.1177H100.921C101.291 10.1177 101.572 9.81866 101.572 9.46683C101.572 9.44924 101.572 9.43165 101.572 9.41406C101.484 8.14748 101.326 7.19755 101.08 6.51149C101.625 6.35317 102.188 6.26521 102.751 6.24762C102.962 6.24762 103.173 6.26521 103.367 6.31799C103.173 5.73747 102.733 5.59674 102.1 5.59674C101.537 5.61433 100.974 5.70229 100.429 5.86061C100.675 6.52908 100.834 7.47901 100.921 8.76318C100.957 9.11501 100.675 9.43165 100.323 9.46683C100.306 9.46683 100.288 9.46683 100.271 9.46683H99.5142C94.9228 9.46683 94.571 10.2936 94.571 10.5399C94.571 10.7334 94.6765 11.0501 95.1515 11.6306C95.2043 11.5954 95.257 11.5602 95.3098 11.525C95.2395 11.4371 95.2043 11.3315 95.2043 11.2084Z" fill="white"/>
<path opacity="0.4" d="M104.123 10.0474C105.988 10.1353 107.94 10.3464 109.999 10.6103C110.702 10.6455 111.371 10.6631 111.951 10.6631C119.093 10.6631 123.773 9.16782 126.57 5.94861L126.605 5.9662C126.411 5.71992 126.183 5.49123 125.919 5.29773C123.122 8.51694 118.46 10.0122 111.3 10.0122C109.963 10.0122 108.239 9.88907 106.41 9.78352C105.618 9.73074 104.792 9.67797 103.982 9.6252C103.965 9.78352 104.018 9.94184 104.123 10.0474Z" fill="white"/>
<path opacity="0.4" d="M101.221 20.8308C101.414 17.8931 101.643 14.5683 101.643 11.7713V11.4195C101.643 11.05 101.361 10.7686 100.992 10.7686V11.1204C100.992 13.935 100.763 17.2598 100.57 20.1799C100.411 22.4316 100.288 24.3843 100.288 25.6508C100.288 26.0906 100.376 26.2314 100.921 26.2314H100.939C100.939 24.9472 101.062 23.0473 101.221 20.8308Z" fill="white"/>
<path opacity="0.4" d="M112.549 16.6265C112.69 17.0135 112.778 17.4357 112.778 17.8579C112.778 18.6319 112.497 20.3031 110.122 20.9012C110.421 20.9364 110.72 20.9716 111.019 20.9716C111.512 20.9716 111.987 20.9012 112.444 20.7429C113.077 20.18 113.447 19.3708 113.429 18.5264C113.429 17.9986 113.306 17.4709 113.077 16.9959C112.989 16.7848 112.778 16.6441 112.549 16.6265Z" fill="white"/>
<path opacity="0.4" d="M113.675 23.3464C113.095 24.5075 112.074 25.2463 110.966 25.2463C110.474 25.2463 109.981 25.088 109.576 24.7889C110.034 25.4574 110.79 25.8796 111.617 25.8796C112.725 25.8796 113.746 25.1583 114.326 23.9797C114.396 23.9973 114.484 24.0325 114.555 24.0501C114.484 23.7334 114.185 23.4872 113.675 23.3464Z" fill="white"/>
<path opacity="0.4" d="M106.234 21.1651C106.234 17.8051 108.961 14.6387 111.828 14.6387C112.497 14.6387 113.165 14.8146 113.746 15.1664C113.957 15.2896 114.221 15.2896 114.414 15.1664C114.502 15.1136 114.608 15.0609 114.713 15.0257C114.555 14.5859 114.344 14.3396 114.221 14.3396C114.062 14.3572 113.904 14.4276 113.763 14.5155C113.552 14.6387 113.288 14.6387 113.095 14.5155C112.514 14.1637 111.846 13.9878 111.177 13.9878C108.292 13.9878 105.583 17.1542 105.583 20.5142C105.583 22.889 106.375 24.2611 107.36 25.0351C106.691 24.2084 106.234 22.977 106.234 21.1651Z" fill="white"/>
<path opacity="0.4" d="M14.161 34.253C14.161 32.8457 19.4736 30.6116 33.7226 30.6116C42.8349 30.6116 52.8268 31.1569 62.4668 31.6846C71.7726 32.1948 80.5683 32.6698 88.3261 32.6698C98.0189 32.6698 104.352 31.8957 108.204 30.207C111.793 30.7699 113.886 31.5791 114.889 32.3003C114.449 31.4911 112.338 30.2949 107.553 29.5561C103.701 31.2449 97.3856 32.0189 87.6752 32.0189C79.9174 32.0189 71.1218 31.5439 61.8159 31.0338C52.1583 30.506 42.184 29.9607 33.0717 29.9607C18.8227 29.9607 13.5102 32.1948 13.5102 33.6021C13.5102 33.7604 13.5981 34.0595 14.1962 34.4289C14.1786 34.3761 14.161 34.3057 14.161 34.253Z" fill="white"/>
</g>
<defs>
<linearGradient id="paint0_linear" x1="15.7566" y1="6.8651" x2="15.7566" y2="25.0457" gradientUnits="userSpaceOnUse">
<stop stop-color="#02729D"/>
<stop offset="1" stop-color="#00333F"/>
</linearGradient>
<linearGradient id="paint1_linear" x1="36.882" y1="6.86509" x2="36.882" y2="25.0457" gradientUnits="userSpaceOnUse">
<stop stop-color="#02729D"/>
<stop offset="1" stop-color="#00333F"/>
</linearGradient>
<linearGradient id="paint2_linear" x1="47.8159" y1="6.8651" x2="47.8159" y2="25.0457" gradientUnits="userSpaceOnUse">
<stop stop-color="#02729D"/>
<stop offset="1" stop-color="#00333F"/>
</linearGradient>
<linearGradient id="paint3_linear" x1="54.6669" y1="6.86513" x2="54.6669" y2="25.0458" gradientUnits="userSpaceOnUse">
<stop stop-color="#02729D"/>
<stop offset="1" stop-color="#00333F"/>
</linearGradient>
<linearGradient id="paint4_linear" x1="64.5972" y1="6.86511" x2="64.5972" y2="25.0457" gradientUnits="userSpaceOnUse">
<stop stop-color="#02729D"/>
<stop offset="1" stop-color="#00333F"/>
</linearGradient>
<linearGradient id="paint5_linear" x1="73.004" y1="6.86511" x2="73.004" y2="25.0457" gradientUnits="userSpaceOnUse">
<stop stop-color="#02729D"/>
<stop offset="1" stop-color="#00333F"/>
</linearGradient>
<linearGradient id="paint6_linear" x1="81.7858" y1="6.86511" x2="81.7858" y2="25.0457" gradientUnits="userSpaceOnUse">
<stop stop-color="#02729D"/>
<stop offset="1" stop-color="#00333F"/>
</linearGradient>
<linearGradient id="paint7_linear" x1="95.2105" y1="6.8651" x2="95.2105" y2="25.0457" gradientUnits="userSpaceOnUse">
<stop stop-color="#02729D"/>
<stop offset="1" stop-color="#00333F"/>
</linearGradient>
<linearGradient id="paint8_linear" x1="111.05" y1="6.86514" x2="111.05" y2="25.0458" gradientUnits="userSpaceOnUse">
<stop stop-color="#02729D"/>
<stop offset="1" stop-color="#00333F"/>
</linearGradient>
<linearGradient id="paint9_linear" x1="110.272" y1="6.8651" x2="110.272" y2="25.0457" gradientUnits="userSpaceOnUse">
<stop stop-color="#02729D"/>
<stop offset="1" stop-color="#00333F"/>
</linearGradient>
<linearGradient id="paint10_linear" x1="64.2392" y1="6.86332" x2="64.2392" y2="25.0457" gradientUnits="userSpaceOnUse">
<stop stop-color="#02729D"/>
<stop offset="1" stop-color="#00333F"/>
</linearGradient>
<linearGradient id="paint11_linear" x1="19.4605" y1="40.9941" x2="16.1815" y2="10.5892" gradientUnits="userSpaceOnUse">
<stop stop-color="#FFE5BE"/>
<stop offset="0.58" stop-color="#FEBE1D"/>
<stop offset="0.69" stop-color="#FCAE1E"/>
<stop offset="0.92" stop-color="#F58420"/>
<stop offset="1" stop-color="#F37321"/>
</linearGradient>
<linearGradient id="paint12_linear" x1="37.694" y1="39.027" x2="34.4149" y2="8.6239" gradientUnits="userSpaceOnUse">
<stop stop-color="#FFE5BE"/>
<stop offset="0.58" stop-color="#FEBE1D"/>
<stop offset="0.69" stop-color="#FCAE1E"/>
<stop offset="0.92" stop-color="#F58420"/>
<stop offset="1" stop-color="#F37321"/>
</linearGradient>
<linearGradient id="paint13_linear" x1="48.4021" y1="37.8713" x2="45.1231" y2="7.46819" gradientUnits="userSpaceOnUse">
<stop stop-color="#FFE5BE"/>
<stop offset="0.58" stop-color="#FEBE1D"/>
<stop offset="0.69" stop-color="#FCAE1E"/>
<stop offset="0.92" stop-color="#F58420"/>
<stop offset="1" stop-color="#F37321"/>
</linearGradient>
<linearGradient id="paint14_linear" x1="57.3649" y1="36.9054" x2="54.0876" y2="6.50232" gradientUnits="userSpaceOnUse">
<stop stop-color="#FFE5BE"/>
<stop offset="0.58" stop-color="#FEBE1D"/>
<stop offset="0.69" stop-color="#FCAE1E"/>
<stop offset="0.92" stop-color="#F58420"/>
<stop offset="1" stop-color="#F37321"/>
</linearGradient>
<linearGradient id="paint15_linear" x1="65.3243" y1="36.0486" x2="62.0452" y2="5.64378" gradientUnits="userSpaceOnUse">
<stop stop-color="#FFE5BE"/>
<stop offset="0.58" stop-color="#FEBE1D"/>
<stop offset="0.69" stop-color="#FCAE1E"/>
<stop offset="0.92" stop-color="#F58420"/>
<stop offset="1" stop-color="#F37321"/>
</linearGradient>
<linearGradient id="paint16_linear" x1="75.5312" y1="34.9472" x2="72.2522" y2="4.54234" gradientUnits="userSpaceOnUse">
<stop stop-color="#FFE5BE"/>
<stop offset="0.58" stop-color="#FEBE1D"/>
<stop offset="0.69" stop-color="#FCAE1E"/>
<stop offset="0.92" stop-color="#F58420"/>
<stop offset="1" stop-color="#F37321"/>
</linearGradient>
<linearGradient id="paint17_linear" x1="84.283" y1="34.0033" x2="81.0039" y2="3.60017" gradientUnits="userSpaceOnUse">
<stop stop-color="#FFE5BE"/>
<stop offset="0.58" stop-color="#FEBE1D"/>
<stop offset="0.69" stop-color="#FCAE1E"/>
<stop offset="0.92" stop-color="#F58420"/>
<stop offset="1" stop-color="#F37321"/>
</linearGradient>
<linearGradient id="paint18_linear" x1="95.2565" y1="32.8194" x2="91.9792" y2="2.41459" gradientUnits="userSpaceOnUse">
<stop stop-color="#FFE5BE"/>
<stop offset="0.58" stop-color="#FEBE1D"/>
<stop offset="0.69" stop-color="#FCAE1E"/>
<stop offset="0.92" stop-color="#F58420"/>
<stop offset="1" stop-color="#F37321"/>
</linearGradient>
<linearGradient id="paint19_linear" x1="113.353" y1="30.8667" x2="110.074" y2="0.463622" gradientUnits="userSpaceOnUse">
<stop stop-color="#FFE5BE"/>
<stop offset="0.58" stop-color="#FEBE1D"/>
<stop offset="0.69" stop-color="#FCAE1E"/>
<stop offset="0.92" stop-color="#F58420"/>
<stop offset="1" stop-color="#F37321"/>
</linearGradient>
<linearGradient id="paint20_linear" x1="111.614" y1="31.0549" x2="108.335" y2="0.651821" gradientUnits="userSpaceOnUse">
<stop stop-color="#FFE5BE"/>
<stop offset="0.58" stop-color="#FEBE1D"/>
<stop offset="0.69" stop-color="#FCAE1E"/>
<stop offset="0.92" stop-color="#F58420"/>
<stop offset="1" stop-color="#F37321"/>
</linearGradient>
<linearGradient id="paint21_linear" x1="64.5697" y1="36.1282" x2="61.2907" y2="5.7251" gradientUnits="userSpaceOnUse">
<stop stop-color="#FFE5BE"/>
<stop offset="0.58" stop-color="#FEBE1D"/>
<stop offset="0.69" stop-color="#FCAE1E"/>
<stop offset="0.92" stop-color="#F58420"/>
<stop offset="1" stop-color="#F37321"/>
</linearGradient>
</defs>
</svg>
