<svg width="79" height="800" viewBox="0 0 79 800" fill="none" xmlns="http://www.w3.org/2000/svg">
<path d="M79.0001 748.754L-56.3184 707.68L-56.3184 751.567L41.3022 773.229L41.3022 773.98L-56.3184 795.642L-56.3184 841.404L79.0001 800.331L79.0001 748.754Z" fill="#F0F4F9"/>
<path d="M-26.9665 655.728L-26.9666 639.224C-26.9666 628.533 -19.7458 621.313 -9.71181 621.313C0.509756 621.313 7.35539 628.158 7.35539 639.318L7.35539 655.728L-26.9665 655.728ZM33.6126 655.728L33.6126 642.694L79.0001 621.313L79.0001 576.863L27.7047 602.558C20.9529 588.397 5.57365 580.708 -10.3682 580.708C-39.345 580.708 -56.3184 599.275 -56.3184 635.379L-56.3184 695.489L79.0001 695.489L79.0001 655.728L33.6126 655.728Z" fill="#F0F4F9"/>
<path d="M79.0001 411.442L-56.3184 411.443L-56.3184 457.393L22.6408 487.588L22.6408 488.339L-56.3184 518.628L-56.3184 564.578L79.0001 564.578L79.0001 529.881L0.603525 529.881L0.603525 529.131L77.4059 498.654L77.4059 477.367L0.603521 446.89L0.603521 446.14L79.0001 446.14L79.0001 411.442Z" fill="#F0F4F9"/>
<path d="M47.3976 297.13L47.3976 352.833L25.6417 352.833L25.6417 300.6L-2.86619 300.6L-2.86619 352.833L-24.7159 352.833L-24.7159 297.13L-56.3184 297.13L-56.3184 392.594L79.0001 392.594L79.0001 297.13L47.3976 297.13Z" fill="#F0F4F9"/>
<path d="M-56.3184 278.562L79.0001 278.562L79.0001 220.703C79.0001 179.723 53.6806 155.528 10.3562 155.528C-32.9682 155.528 -56.3184 179.629 -56.3184 220.703L-56.3184 278.562ZM-24.7159 238.801L-24.7159 226.329C-24.7159 207.293 -12.4313 196.04 10.3562 196.04C35.3006 196.04 47.3976 206.449 47.3976 226.329L47.3976 238.801L-24.7159 238.801Z" fill="#F0F4F9"/>
<path d="M79.0001 100.201L-56.3184 100.201L-56.3184 139.962L79.0001 139.962L79.0001 100.201Z" fill="#F0F4F9"/>
<path d="M79.0001 -7.82899L79.0001 -50.2156L-56.3184 -6.04724L-56.3184 43.8414L79.0001 88.0098L79.0001 47.4987L52.0864 40.4655L52.0864 -0.795842L79.0001 -7.82899ZM-25.0911 20.21L-25.0911 19.4597L24.0474 6.42492L24.0475 33.2448L-25.0911 20.21Z" fill="#F0F4F9"/>
</svg>
