<svg width="115" height="37" viewBox="0 0 115 37" fill="none" xmlns="http://www.w3.org/2000/svg">
<path d="M93.5148 2.12369C95.6125 0.900547 98.1551 0.51429 100.571 0.900547C103.24 1.35118 105.719 2.8962 107.372 5.08499C108.707 6.88752 109.533 9.14068 109.47 11.4582C109.47 11.7157 109.533 12.0376 109.788 12.102C112.14 13.0032 114.047 15.0633 114.682 17.5096C114.936 18.2821 114.936 19.119 115 19.9559C114.936 21.4365 114.555 22.9172 113.729 24.2047C112.521 26.136 110.423 27.5522 108.198 27.8741C108.008 27.9385 107.817 27.9385 107.563 28.0029C106.8 29.6766 105.402 30.9642 103.749 31.6079C103.177 31.8011 102.605 31.8654 102.033 31.9942C101.016 32.8311 99.8714 33.7323 98.5365 33.9255C98.6 33.9255 98.7272 33.9898 98.7907 33.9898C97.7101 34.2473 96.6295 34.4405 95.5489 34.183C95.0404 34.1186 94.5318 33.8611 94.0233 33.7323C93.1334 33.9898 92.1799 34.2473 91.2264 34.2473C90.2094 34.183 89.1288 33.9255 88.1753 33.4748C87.8575 33.2817 87.5396 33.5392 87.2854 33.6036C85.8233 34.3117 84.0435 34.3761 82.5179 33.7967C82.2001 33.668 81.8187 33.4105 81.4373 33.6036C79.1489 34.6336 76.2249 34.3761 74.2544 32.7023C73.9366 32.3804 73.6187 32.7667 73.3645 32.9598C71.7118 34.1186 69.6141 34.4405 67.7071 34.1186C66.8172 33.8611 65.8637 33.6036 65.1009 33.0242C64.9102 32.8955 64.7195 32.7023 64.5288 32.8955C62.1133 34.7624 58.9986 35.5992 55.9475 35.5992C53.4684 35.5349 50.9258 34.8911 48.8281 33.4105C48.5739 33.2173 48.256 32.9598 47.9382 33.153C46.2855 34.0542 44.3785 34.3761 42.5351 34.0542C42.0266 33.9898 41.5816 33.5392 41.0731 33.7967C40.1196 34.183 39.039 34.2473 38.0219 34.1186C37.4499 34.0542 36.8778 33.668 36.2421 33.8611C35.2251 34.2473 34.1444 34.2473 33.1274 34.0542C32.6189 33.9898 32.1739 33.5392 31.6654 33.7967C30.2034 34.3761 28.6142 34.4405 27.1522 33.8611C26.5166 33.5392 25.9445 34.0542 25.3088 34.0542C25.3724 34.0542 25.4995 34.1186 25.5631 34.1186C24.4189 34.183 23.2111 34.3117 22.067 33.9898C21.5584 33.8611 21.1135 33.6036 20.605 33.4105C20.3507 33.2817 20.16 33.4748 19.9693 33.6036C17.7445 35.1486 15.0747 35.9855 12.3414 36.243C10.498 36.3074 8.59104 36.3718 6.87477 35.6636C4.07788 34.5692 1.85308 32.1873 0.836026 29.3548C0.0732382 27.4235 -0.0538932 25.2991 0.0732382 23.239C0.391067 20.4065 1.34455 17.7671 2.61587 15.2564C3.63292 13.3251 4.9678 11.5226 6.49337 9.97757C8.33678 8.23942 10.5616 6.88752 13.0406 6.37251C14.1848 6.11501 15.329 6.43689 16.4096 6.30814C15.5833 6.24376 14.6933 6.37251 13.867 6.24376C16.2189 5.98626 18.7615 6.56564 20.605 8.11067C21.9398 9.14068 22.8933 10.6857 23.4654 12.2951C23.8468 13.3251 23.9104 14.4195 23.9104 15.5139C25.3724 14.8702 26.9615 14.677 28.4871 15.0633C29.1228 15.192 29.6313 15.707 30.3305 15.8358C30.7755 15.9002 31.1569 16.2221 31.6018 16.2221C32.6189 15.192 34.1444 14.8058 35.5429 14.8702C36.3057 14.8058 37.0049 15.0633 37.7041 15.192C38.6576 14.8702 39.7382 14.7414 40.7553 14.9989C41.2002 15.0633 41.6452 15.3208 42.0902 15.1277C43.1072 14.8058 44.1878 14.8058 45.2049 15.0633C45.9041 15.192 46.4762 15.6427 47.1118 15.9002C47.1118 13.4539 48.1925 11.1363 49.9723 9.52694C51.6886 7.91754 54.0405 7.01627 56.3289 6.69439C58.1723 6.56564 60.0792 6.50126 61.8591 7.14502C64.3381 7.91754 66.5629 9.65569 67.7071 11.9732C68.2157 12.9389 68.4063 13.9689 68.5335 15.0633C69.3598 15.1277 70.1862 14.8702 71.0125 14.9989C72.9195 15.0633 74.7629 15.7714 76.2885 16.8014C76.5428 16.6727 76.797 16.5439 77.0513 16.4152C77.4962 14.5483 77.8776 12.617 78.704 10.8788C79.5303 9.07631 80.7381 7.27378 82.3908 6.11501C84.3613 4.63436 87.3489 4.37685 89.383 5.8575C90.7179 4.31248 91.9257 2.96058 93.5148 2.12369ZM94.5954 3.02496C92.6884 3.86185 91.1629 5.47125 90.2094 7.27378C90.0822 7.46691 90.0187 7.72441 89.828 7.91754C89.4466 7.53128 89.1288 7.14502 88.7474 6.82314C87.7303 6.17938 86.459 5.8575 85.3148 6.17938C83.4714 6.56564 82.0094 7.98191 81.0559 9.52694C79.5939 11.7801 79.0854 14.4839 78.5133 16.9946C77.8776 17.2521 77.3691 17.7027 76.797 18.0246C76.3521 18.2177 76.0342 17.7671 75.6528 17.5096C74.4451 16.7371 73.1738 16.1577 71.7753 16.0289C70.2498 15.7714 68.6606 16.1577 67.1986 16.7371C67.7707 14.5483 67.0715 12.102 65.4823 10.4926C64.0203 8.88318 61.9226 7.98191 59.7614 7.72441C57.8544 7.59566 55.9475 7.72441 54.1676 8.49692C51.7521 9.39819 49.6545 11.4582 49.1459 14.0333C48.7645 15.5139 49.0188 16.9946 49.5909 18.4108C49.1459 18.9902 48.701 19.5052 48.256 20.0202C48.256 18.4752 47.4297 16.8658 45.9677 16.2864C45.1413 15.8358 44.2514 15.9002 43.3615 15.9645C42.7894 16.0933 42.2808 16.6083 41.7088 16.2221C40.5646 15.707 39.1661 15.8358 38.0219 16.3508C37.132 15.7714 36.0514 15.8358 35.0979 15.9002C33.8902 16.0289 32.8731 16.7371 32.301 17.8315C31.8561 17.5096 31.4747 17.1233 30.9662 16.9302C30.4576 16.7371 29.8855 16.7371 29.4406 16.4152C28.9321 16.0933 28.2964 15.8358 27.6607 15.8358C25.5631 15.707 23.5925 16.8658 22.1305 18.2821C23.084 16.1577 23.2111 13.647 22.2577 11.5226C21.4313 9.59132 19.6515 8.04629 17.6174 7.53128C16.6639 7.2094 15.7104 7.27378 14.6933 7.33815C13.1678 7.46691 11.7058 8.04629 10.3709 8.8188C8.01895 10.2351 6.23911 12.3595 4.84066 14.677C3.50578 16.9946 2.48873 19.634 2.10734 22.2734C1.72595 24.9772 2.10734 27.8741 3.63292 30.1917C5.03136 32.3161 7.25616 33.8611 9.73522 34.183C11.7693 34.3761 13.8034 34.183 15.774 33.6036C17.6174 33.0886 19.2065 32.0586 20.7321 30.9642C22.3212 32.3161 24.6732 32.5736 26.5801 31.7367C26.7708 31.6079 27.0251 31.5436 27.2794 31.7367C28.6778 32.5092 30.4576 32.4448 31.9196 31.7367C32.3646 31.4148 32.746 31.8654 33.1274 31.9942C34.3351 32.4448 35.7971 32.3161 36.9413 31.6079C37.9584 32.3161 39.2933 32.3804 40.4374 32.0586C40.8824 31.9942 41.2638 31.6079 41.7088 31.6079C43.5522 32.7667 45.9041 32.2517 47.6839 31.2861C48.0018 31.1573 48.3196 30.771 48.6374 30.8354C49.0824 31.1573 49.4638 31.6079 49.9087 31.8654C51.5614 33.0242 53.5955 33.5392 55.5661 33.668C56.0746 33.668 56.5196 33.668 57.0281 33.668L57.1552 33.6036C59.8885 33.5392 62.6219 32.4448 64.5288 30.5135C64.656 30.3848 64.8467 30.5779 64.9738 30.6423C65.5459 31.2217 66.2451 31.6723 66.9443 31.9298C67.9614 32.3161 69.042 32.3161 70.1226 32.2517C71.6482 31.9942 73.0466 31.1573 74.0637 29.9985C74.6358 30.6423 75.2079 31.3504 76.0342 31.7367C77.6869 32.6379 79.7846 32.4448 81.3737 31.6079C81.8187 31.3504 82.2001 31.7367 82.5815 31.9298C83.9164 32.5736 85.4419 32.4448 86.7768 31.8011C87.0947 31.6723 87.4125 31.4148 87.8575 31.4148C88.4295 31.6079 88.8745 31.9942 89.383 32.1229C90.845 32.6379 92.4342 32.3804 93.8326 31.7367C94.7861 32.2517 95.8667 32.5736 96.8838 32.3804C98.4729 32.1873 99.9349 31.2217 101.079 30.1273C103.304 30.256 105.592 28.5823 106.037 26.3291C106.101 26.2647 106.228 26.2003 106.291 26.136C107.817 26.2003 109.406 25.6853 110.614 24.7197C112.902 22.9815 113.792 19.634 112.648 16.9946C111.822 14.8702 109.851 13.1964 107.563 12.8745C108.326 8.62567 105.719 4.11935 101.715 2.70308C99.4264 1.86619 96.8202 1.99494 94.5954 3.02496Z" fill="#FEFEFE"/>
<path d="M97.5831 4.76304C99.4265 4.37678 101.461 4.82741 102.986 6.05056C105.338 7.91747 106.101 11.5869 104.639 14.2263C103.749 15.9645 102.033 17.1876 100.126 17.5739C98.918 17.7026 97.5831 17.7026 96.4389 17.1232C94.6591 16.3507 93.197 14.7413 92.7521 12.81C92.2436 10.8788 92.6885 8.68998 93.8963 7.14495C94.7862 5.92181 96.1211 5.08492 97.5831 4.76304ZM98.2823 5.85743C98.028 6.05056 97.9645 6.37244 97.8373 6.62994C97.9645 6.88745 98.0916 7.33808 98.473 7.27371C99.6172 7.27371 100.888 7.46683 101.651 8.3681C102.223 8.94748 102.033 10.1063 102.923 10.3638C103.24 10.235 103.495 10.0419 103.749 9.78437C103.685 8.81873 103.304 7.91747 102.605 7.20933C101.524 6.11494 99.8714 5.59993 98.2823 5.85743Z" fill="#FEFEFE"/>
<path d="M84.2343 10.2994C84.9335 9.33374 86.2048 8.43247 87.4125 8.94748C88.2389 9.59124 88.4932 10.6856 88.4932 11.6513C88.5567 13.0032 88.4296 14.4195 87.9846 15.707C87.349 17.4451 86.904 19.312 86.0141 20.9858C85.5691 22.0802 84.9335 23.1102 84.6792 24.269C84.5521 25.0415 84.4885 25.8784 84.7428 26.5865C84.8699 26.7153 84.9971 26.844 85.1242 26.9728C85.3785 26.9084 85.6963 26.844 85.9505 26.7797C87.0947 26.1359 88.1753 25.299 89.0653 24.3334C89.5738 23.0458 90.1459 21.7583 91.0358 20.7283C91.9893 19.6339 93.3242 18.7326 94.7862 18.7326C95.1676 18.9258 95.3583 19.3764 95.7397 19.5695C96.1846 19.6339 96.6296 19.6339 97.0745 19.6339C97.2017 19.827 97.2652 20.0202 97.3924 20.2777C97.3288 21.6939 97.011 23.0458 96.7567 24.3977C96.566 25.2346 96.3753 26.1359 96.7567 26.9728C97.0745 26.9728 97.4559 26.9728 97.7102 26.7797C98.2823 26.3934 98.7908 25.9428 99.2358 25.4278C99.49 25.1059 99.49 24.7196 99.6172 24.3334C99.935 23.4321 100.888 22.724 101.842 22.8527C102.859 22.9815 103.812 23.8827 103.812 24.9771C103.876 25.9428 103.177 26.7797 102.35 27.1015C101.715 27.2303 101.016 27.1659 100.444 26.9084C99.7443 27.874 98.8544 28.7109 97.7738 29.2259C97.011 29.6122 95.9304 29.6122 95.4218 28.8397C95.104 28.5178 94.9769 28.0672 94.659 27.7453C93.8327 28.5178 92.8792 29.2259 91.735 29.3547C90.4001 29.5478 89.0653 28.4534 88.811 27.1015C87.794 27.8097 86.7769 28.6466 85.5691 29.0972C84.2978 29.741 82.8358 28.6466 82.3909 27.4234C82.3273 27.4234 82.2002 27.4234 82.1366 27.4234C81.3103 28.2603 80.3568 28.9684 79.2126 29.2903C78.2591 29.5478 77.1785 29.1616 76.67 28.3247C75.9707 27.4234 75.8436 26.1359 76.0343 25.0415C76.0979 24.5909 76.2886 24.2046 76.2886 23.754C75.3351 22.7883 74.4452 21.8227 73.301 21.1146C73.1738 21.0502 73.0467 20.9858 72.9196 20.9858C73.7459 22.6596 73.8095 24.7196 73.0467 26.3934C72.6018 27.4878 71.839 28.4534 70.8219 28.9684C69.932 29.4834 68.7242 29.4835 67.7708 29.0328C66.9444 28.4534 66.2452 27.6165 65.9909 26.5865C65.7367 25.814 65.8002 24.9771 65.8002 24.1402C65.7367 22.209 66.7537 20.2133 68.47 19.312C69.6777 18.6683 71.1397 18.6039 72.4111 18.9902C73.5552 19.3764 74.6359 20.0202 75.4622 20.9214C75.9707 21.5008 76.4157 22.0802 76.9242 22.6596C77.687 20.8571 79.2761 19.1833 81.3103 19.1833C81.5009 18.4108 81.4374 17.5739 81.6281 16.8014C82.3273 14.6126 82.7087 12.1663 84.2343 10.2994ZM86.0141 11.3294C85.442 11.6513 85.3149 12.3594 85.1242 12.9388C84.8699 13.9688 84.5521 14.9988 84.4885 16.0289C84.2978 17.767 84.0436 19.5695 84.2343 21.3077C84.9971 19.1833 85.8234 17.0589 86.3319 14.8701C86.5226 13.7113 86.7769 12.5525 86.5226 11.3938C86.3319 11.3938 86.1412 11.2006 86.0141 11.3294ZM70.1227 20.9858C68.9149 21.5652 68.47 23.0458 68.2793 24.269C68.2157 25.1059 68.1522 26.0071 68.5335 26.7153C68.8514 27.1659 69.4235 27.5522 69.9956 27.359C70.6312 27.0372 70.949 26.2646 71.2033 25.6209C71.5211 24.5265 71.7118 23.3677 71.5211 22.209C71.394 21.5652 70.8855 20.7283 70.1227 20.9858ZM80.1661 21.9515C79.4668 22.7883 79.2126 23.8184 78.8312 24.8484C78.6405 25.5565 78.4498 26.4578 79.0219 26.9728C79.5304 26.9728 80.1025 27.1659 80.4839 26.7797C80.9924 26.329 81.3738 25.6853 81.6916 25.0415C81.5009 23.6896 81.6281 22.2733 81.5645 20.9214C80.9924 21.1146 80.5475 21.5008 80.1661 21.9515ZM92.5614 22.6596C91.9257 23.8184 91.4172 25.1703 91.6079 26.5865C91.6079 26.9728 91.9257 27.2303 92.2435 27.4234C92.3707 27.4234 92.6249 27.4234 92.7521 27.359C93.642 26.6509 94.0234 25.4278 94.2141 24.3334C94.4683 23.1746 94.8497 22.0158 94.9133 20.7927C93.7691 20.9214 93.0699 21.8227 92.5614 22.6596Z" fill="#FEFEFE"/>
<path d="M12.5322 11.0719C14.0578 10.3638 15.9647 10.1063 17.4903 10.9432C18.4438 11.4582 19.143 12.3594 19.5244 13.3894C20.2872 16.0289 18.8888 18.797 16.9182 20.4064C16.4733 20.5996 16.0919 20.1489 16.0919 19.7627C16.0283 18.8614 16.5368 18.0245 16.9182 17.252C17.4268 16.2864 17.681 14.9988 17.1725 13.9688C16.8547 13.1963 15.9647 12.8744 15.202 12.8744C14.3756 12.8101 13.6764 13.1319 12.9772 13.5826C11.388 14.6126 10.371 16.2864 9.48105 17.9601C8.40043 20.2133 7.63764 22.6596 7.70121 25.1703C7.76477 26.329 8.14617 27.4878 8.97252 28.2603C9.67174 28.9041 10.6252 29.0972 11.5151 29.0972C13.3586 29.1616 15.0748 28.3891 16.5368 27.3591C18.3167 26.1359 19.9694 24.6553 22.0035 23.754C22.7027 21.9515 23.8469 20.2133 25.6267 19.2477C26.1353 18.9258 26.7709 18.797 27.4066 18.7327C27.7244 18.797 27.9787 19.1189 28.1694 19.4408C28.6143 19.6983 29.1228 19.5695 29.6314 19.6339C29.9492 19.7627 30.1399 20.0846 30.1399 20.4064C30.1399 21.3721 29.8856 22.4021 29.6949 23.3677C29.5042 24.5265 29.0593 25.7497 29.4407 26.9728C30.2035 27.1659 30.8391 26.5222 31.3476 26.0072C32.1104 25.2346 32.7461 24.269 33.4453 23.4321C33.9538 22.9171 33.8267 22.209 34.0174 21.5652C34.2081 20.6639 34.3352 19.6339 34.9073 18.8614C35.2251 18.797 35.4794 18.7327 35.7972 18.7327C36.0515 18.797 36.3058 18.8614 36.56 18.8614C36.6236 18.9902 36.6872 19.1833 36.7507 19.312C36.7507 19.5695 36.7507 19.8271 36.7507 20.0846C36.6236 21.179 36.4965 22.3377 36.2422 23.4321C36.3058 23.4321 36.4329 23.4321 36.4965 23.3677C37.005 22.1446 37.7042 20.9858 38.467 19.8914C38.7213 19.4408 39.1026 19.1189 39.484 18.797C39.8654 18.797 40.1833 18.797 40.5647 18.797C40.6918 18.9258 40.8825 19.1189 41.0096 19.2477C41.2003 20.7283 40.5011 22.0802 40.4375 23.5609C40.8825 22.9815 41.1367 22.2733 41.5181 21.694C42.1538 20.7283 42.6623 19.6339 43.5522 18.9258C44.0608 18.4752 44.76 18.797 45.205 19.1833C45.5228 20.3421 45.0778 21.5652 45.0143 22.724L44.9507 22.8527C44.76 23.9471 44.6329 25.1059 44.76 26.2647C44.8236 26.5222 44.9507 26.7153 45.0778 26.9084C45.2685 26.9084 45.5228 26.9084 45.6499 26.7797C46.5398 26.329 47.3026 25.6209 48.129 24.9771C48.8918 24.3978 49.7181 23.8184 50.4809 23.1102C50.9259 22.6596 51.6251 22.5308 52.2607 22.7884C52.6421 23.6252 52.1336 24.4621 52.1972 25.299C52.1336 26.329 52.7693 27.2947 53.7228 27.7453C55.0576 28.3891 56.6468 28.3891 58.0452 28.0672C59.253 27.8097 60.3971 27.1659 61.0964 26.1359C61.4778 25.5565 61.4142 24.8484 61.3506 24.2046C61.1599 23.4321 60.5878 22.9171 60.0158 22.4021C57.8545 20.7927 55.1848 20.1489 53.2142 18.2177C52.3879 17.4451 51.8158 16.3507 51.9429 15.192C51.9429 13.7113 52.8964 12.4238 54.1041 11.6513C55.6933 10.6213 57.6003 10.2994 59.4437 10.4281C61.1599 10.6213 62.8762 11.3294 63.8933 12.6813C64.7832 13.7113 64.9103 15.2564 64.4018 16.5439C64.0204 17.4451 63.5119 18.3464 62.6219 18.797C62.3041 18.9902 61.8592 18.9258 61.5413 18.9258C61.4142 18.797 61.3506 18.7327 61.2235 18.6039C61.0328 17.5095 61.8592 16.737 62.177 15.7714C62.3677 15.0632 62.3677 14.162 61.732 13.7113C60.8421 12.8744 59.5708 12.8744 58.4266 12.7457C57.2824 12.8101 56.0747 13.0032 55.2483 13.8401C54.4855 14.4838 54.422 15.8357 55.1212 16.5439C56.2018 17.8314 57.791 18.4108 59.1894 19.1833C60.5878 19.8914 61.9863 20.6639 63.0033 21.8227C63.194 22.0802 63.3212 22.4021 63.5754 22.5952C64.2111 23.9471 64.2747 25.6853 63.5754 27.0372C63.0669 28.1316 62.1134 28.9685 61.0964 29.5478C59.0623 30.6422 56.6468 30.8354 54.422 30.4491C52.7693 30.1272 51.1166 29.3547 50.1631 27.8741C49.7817 27.3591 49.591 26.7153 49.4639 26.0715C48.0018 27.2947 46.6034 28.8397 44.6329 29.226C44.2515 29.226 43.9336 29.226 43.5522 29.2903C43.1073 28.9685 42.853 28.5178 42.7259 28.0672C42.4081 26.4578 42.5352 24.784 42.7259 23.1102C42.6623 23.1102 42.5352 23.1102 42.4716 23.0459C41.8995 24.784 41.2003 26.3934 40.5647 28.1316C40.4375 28.6466 39.9926 29.0328 39.484 29.226C39.2298 29.226 38.9755 29.226 38.6577 29.226C38.3399 28.9685 38.022 28.5822 38.022 28.1316C37.7678 27.1016 38.0856 26.0715 38.2127 25.0415C38.2763 24.269 38.5306 23.4965 38.467 22.724C37.3864 24.5909 36.6236 26.6509 35.6065 28.5178C35.2887 29.226 34.2717 29.4191 33.6996 28.9041C33.1275 28.2603 33.2546 27.3591 33.1275 26.5865C32.4283 27.4878 31.6019 28.3247 30.5849 28.9041C29.9492 29.2903 29.1228 29.3547 28.4236 29.0328C27.9151 28.711 27.5973 28.1316 27.343 27.5522C26.326 28.5822 24.9275 29.4191 23.4019 29.226C22.1306 28.8397 21.3043 27.5522 21.3043 26.2003C20.4779 26.7797 19.7787 27.5522 19.0159 28.1959C16.5368 30.5779 12.9772 31.5435 9.60818 31.2216C8.464 30.9641 7.31981 30.4491 6.55703 29.5478C4.90432 27.8741 4.33223 25.299 4.58649 22.9815C4.90432 20.4064 5.8578 18.0245 7.19268 15.8357C8.59113 13.9688 10.2438 12.1019 12.5322 11.0719ZM26.8345 20.9858C25.3725 21.8871 24.6097 23.5609 24.2283 25.1703C24.1647 25.8784 23.974 26.7797 24.6097 27.2947C24.9275 27.6166 25.436 27.3591 25.6903 27.0372C26.3895 26.2647 26.6438 25.2346 26.8345 24.2046C27.0887 23.1102 27.343 21.9515 27.5973 20.8571C27.343 20.9214 27.0887 20.9214 26.8345 20.9858Z" fill="#FEFEFE"/>
<path d="M104.003 17.7026C104.575 16.737 105.529 16.0289 106.609 15.7714C107.436 15.6426 108.326 15.7714 109.025 16.1576C110.233 16.8014 111.123 18.2176 111.059 19.6339C111.059 20.7927 110.423 21.8871 109.533 22.5952C108.707 23.1746 107.626 23.4965 106.609 23.239C105.529 23.0459 104.575 22.3377 104.003 21.3077C103.368 20.2777 103.368 18.8614 104.003 17.7026Z" fill="#FEFEFE"/>
<path d="M94.5955 3.02496C96.8203 1.99494 99.4265 1.86619 101.715 2.83183C105.719 4.2481 108.326 8.75443 107.563 13.0032C109.851 13.3251 111.822 14.9989 112.648 17.1233C113.729 19.7627 112.839 23.1103 110.614 24.8484C109.406 25.8141 107.817 26.3291 106.292 26.2647C106.228 26.3291 106.101 26.3935 106.037 26.4578C105.592 28.711 103.304 30.3848 101.079 30.256C99.935 31.3504 98.5366 32.3161 96.8839 32.5092C95.8032 32.7023 94.7226 32.3804 93.8327 31.8654C92.4342 32.5092 90.8451 32.7667 89.3831 32.2517C88.811 32.1229 88.3661 31.7367 87.8575 31.5436C87.4761 31.5436 87.1583 31.8011 86.7769 31.9298C85.5056 32.5736 83.9165 32.7023 82.5816 32.0586C82.2002 31.9298 81.7552 31.5436 81.3738 31.7367C79.7211 32.638 77.687 32.7667 76.0343 31.8654C75.2715 31.4792 74.6359 30.771 74.0638 30.1273C73.0467 31.2861 71.6483 32.1229 70.1227 32.3804C69.0421 32.5092 67.9615 32.4448 66.9444 32.0586C66.1816 31.8011 65.546 31.2861 64.9739 30.771C64.8467 30.7067 64.7196 30.5135 64.5289 30.6423C62.622 32.5736 59.8886 33.668 57.1553 33.7323L57.0282 33.7967C56.5196 33.7967 56.0747 33.7967 55.5662 33.7967C53.5956 33.668 51.5615 33.153 49.9088 31.9942C49.4639 31.6723 49.0825 31.2861 48.6375 30.9642C48.2561 30.8998 48.0018 31.2861 47.684 31.4148C45.9042 32.4448 43.5522 32.8955 41.7088 31.7367C41.2639 31.8011 40.8825 32.1229 40.4375 32.1873C39.2933 32.5092 37.9585 32.4448 36.9414 31.7367C35.7972 32.4448 34.3352 32.5736 33.1275 32.1229C32.7461 31.9942 32.3647 31.5436 31.9197 31.8654C30.5213 32.638 28.7414 32.7023 27.2794 31.8654C27.0887 31.6723 26.8345 31.8011 26.5802 31.8654C24.6732 32.7667 22.3213 32.5092 20.7322 31.0929C19.2066 32.1873 17.5539 33.2173 15.774 33.7323C13.8035 34.3117 11.7694 34.5049 9.7353 34.3117C7.25624 33.9898 4.96787 32.4448 3.63299 30.3204C2.10742 28.0029 1.72602 25.106 2.10742 22.4022C2.48881 19.6984 3.50586 17.1233 4.84074 14.8058C6.23919 12.4882 8.08259 10.3638 10.371 8.94756C11.7058 8.17504 13.1678 7.59566 14.6934 7.46691C15.6469 7.46691 16.664 7.40253 17.6174 7.66003C19.6515 8.17504 21.4314 9.72007 22.2577 11.6514C23.2112 13.7758 23.0841 16.2864 22.1306 18.4108C23.5926 16.9946 25.5632 15.8358 27.6608 15.9645C28.2965 15.9002 28.9321 16.1577 29.4407 16.5439C29.8856 16.8658 30.4577 16.8014 30.9662 17.0589C31.4748 17.2521 31.9197 17.6383 32.3011 17.9602C32.8096 16.8658 33.8903 16.0933 35.098 16.0289C36.0515 15.9645 37.1321 15.9002 38.022 16.4796C39.1662 15.9645 40.5011 15.7714 41.7088 16.3508C42.2809 16.7371 42.853 16.1577 43.3615 16.0933C44.2515 16.0289 45.1414 16.0289 45.9677 16.4152C47.4297 16.9946 48.2561 18.604 48.2561 20.149C48.7011 19.5696 49.146 19.0546 49.591 18.5396C49.0189 17.1877 48.7646 15.6427 49.146 14.162C49.7181 11.587 51.7522 9.52694 54.1677 8.62567C55.9476 7.91754 57.8545 7.72441 59.7615 7.85316C61.9227 8.11067 64.0204 9.01193 65.4824 10.6213C67.0715 12.2307 67.7708 14.677 67.1987 16.8658C68.6607 16.2864 70.2498 15.9002 71.7754 16.1577C73.1739 16.2864 74.5087 16.8658 75.6529 17.6383C76.0343 17.8315 76.3521 18.3465 76.7971 18.1533C77.3692 17.7671 77.8777 17.3164 78.5134 17.1233C79.149 14.5483 79.594 11.8445 81.056 9.65569C82.0095 8.11067 83.4715 6.69439 85.3149 6.30814C86.4591 5.98626 87.794 6.24376 88.7474 6.9519C89.1924 7.2094 89.5102 7.66003 89.8281 8.04629C90.0188 7.85316 90.0823 7.59566 90.2094 7.40253C91.0994 5.40687 92.6885 3.86184 94.5955 3.02496ZM97.5831 4.76311C96.1211 5.08499 94.7862 5.92188 93.8963 7.14502C92.6885 8.69005 92.2436 10.8788 92.7521 12.8101C93.2606 14.7414 94.659 16.3508 96.4389 17.1233C97.5831 17.6383 98.8544 17.7027 100.126 17.574C102.033 17.2521 103.749 15.9645 104.639 14.2264C106.164 11.587 105.402 7.91754 102.986 6.05063C101.461 4.82749 99.4265 4.31248 97.5831 4.76311ZM84.2343 10.2995C82.7087 12.1664 82.2637 14.6127 81.7552 16.9302C81.5645 17.7027 81.6281 18.5396 81.4374 19.3121C79.4033 19.3121 77.8141 20.9859 77.0514 22.7884C76.6064 22.209 76.0979 21.6296 75.5893 21.0503C74.763 20.149 73.6824 19.5052 72.5382 19.119C71.2669 18.7327 69.8049 18.7971 68.5971 19.4409C66.8809 20.3421 65.8638 22.3378 65.9274 24.2691C65.9274 25.106 65.8638 25.9428 66.1181 26.7154C66.3723 27.7454 67.008 28.5823 67.8979 29.1616C68.8514 29.6123 69.9956 29.6123 70.9491 29.0973C72.0297 28.5823 72.7289 27.6166 73.1739 26.5222C73.8731 24.7841 73.8731 22.7884 73.0467 21.1146C73.1739 21.179 73.301 21.179 73.4281 21.2434C74.5723 21.9515 75.4622 22.9815 76.4157 23.8828C76.4157 24.3334 76.225 24.7197 76.1614 25.1703C75.9707 26.3291 76.0979 27.5522 76.7971 28.4535C77.3692 29.2904 78.3862 29.6767 79.3397 29.4191C80.4839 29.0973 81.501 28.4535 82.2637 27.5522C82.3273 27.5522 82.4544 27.5522 82.518 27.5522C82.8994 28.7754 84.425 29.8698 85.6963 29.226C86.904 28.7754 87.8575 27.9385 88.9381 27.2304C89.1288 28.5823 90.4637 29.6767 91.8622 29.4835C93.0063 29.3548 93.9598 28.6466 94.7862 27.8741C95.104 28.1316 95.2311 28.6466 95.549 28.9685C96.1211 29.6767 97.2017 29.6767 97.9009 29.3548C98.9815 28.8398 99.8079 27.9385 100.571 27.0372C101.206 27.2304 101.842 27.3591 102.478 27.2304C103.368 26.9085 104.003 26.0716 103.94 25.106C103.94 24.0116 103.05 23.1103 101.969 22.9815C101.016 22.8528 99.9986 23.4965 99.7443 24.4622C99.6172 24.8484 99.6172 25.2991 99.3629 25.5566C98.9179 26.0716 98.4094 26.5866 97.8373 26.9085C97.5831 27.1016 97.2017 27.1016 96.8839 27.1016C96.566 26.2647 96.7567 25.3635 96.8839 24.5266C97.2017 23.1747 97.4559 21.8228 97.5195 20.4065C97.3924 20.2134 97.3288 20.0202 97.2017 19.7627C96.7567 19.7627 96.3118 19.7627 95.8668 19.6984C95.4854 19.5052 95.2947 19.0546 94.9133 18.8615C93.4513 18.8615 92.1164 19.7627 91.1629 20.8571C90.273 21.8871 89.7009 23.1747 89.1924 24.4622C88.3025 25.4278 87.2854 26.2647 86.0777 26.9085C85.8234 26.9729 85.5056 27.0372 85.2513 27.1016C85.1242 26.9729 84.9971 26.8441 84.8699 26.7154C84.6157 25.9428 84.6792 25.1703 84.8064 24.3978C84.9971 23.239 85.6963 22.209 86.1412 21.1146C87.0312 19.4409 87.4761 17.6383 88.1118 15.8358C88.5567 14.5483 88.6839 13.132 88.6203 11.7801C88.5567 10.8145 88.3661 9.72007 87.5397 9.07631C86.2048 8.43255 84.9335 9.33381 84.2343 10.2995ZM12.5322 11.072C10.3074 12.102 8.59112 13.9689 7.3198 16.0289C5.98492 18.2177 5.03144 20.664 4.71361 23.1747C4.39578 25.4922 4.96787 28.0673 6.68415 29.741C7.5105 30.6423 8.59112 31.1573 9.7353 31.4148C13.1043 31.8011 16.664 30.771 19.143 28.3891C19.9058 27.7454 20.605 26.9729 21.4314 26.3935C21.4314 27.7454 22.2577 28.9685 23.5291 29.4191C25.0546 29.6123 26.4531 28.7754 27.4701 27.7454C27.7244 28.3248 28.0422 28.9041 28.5507 29.226C29.1864 29.6123 30.0128 29.4835 30.712 29.0973C31.729 28.5179 32.5554 27.681 33.2546 26.7797C33.3817 27.5522 33.2546 28.4535 33.8267 29.0973C34.3988 29.6123 35.4158 29.4191 35.7337 28.711C36.7507 26.7797 37.5135 24.7841 38.5941 22.9172C38.5941 23.6897 38.4034 24.4622 38.3399 25.2347C38.2127 26.2647 37.9585 27.2947 38.1492 28.3248C38.1492 28.7754 38.4034 29.1616 38.7848 29.4191C39.0391 29.4191 39.2933 29.4191 39.6112 29.4191C40.1197 29.226 40.5647 28.8398 40.6918 28.3248C41.3274 26.651 42.0267 24.9772 42.5988 23.239C42.6623 23.239 42.7895 23.239 42.853 23.3034C42.6623 24.9128 42.5352 26.5866 42.853 28.2604C42.9802 28.7754 43.298 29.226 43.6794 29.4835C44.0608 29.4835 44.3786 29.4835 44.76 29.4191C46.7305 28.9685 48.0654 27.4879 49.591 26.2647C49.7181 26.9085 49.9088 27.5522 50.2902 28.0673C51.2437 29.5479 52.8964 30.3204 54.5491 30.6423C56.6468 31.0286 59.0623 30.771 61.0964 29.6767C62.1134 29.0973 63.0669 28.2604 63.5754 27.166C64.2747 25.8141 64.2111 24.0759 63.5754 22.724C63.3212 22.5309 63.194 22.209 63.0033 21.9515C61.9863 20.7928 60.5878 20.0202 59.1894 19.3121C57.791 18.5396 56.1382 17.9602 55.1212 16.6727C54.422 15.9645 54.4855 14.6127 55.2483 13.9689C56.0747 13.132 57.2824 12.9389 58.4266 12.8745C59.5708 12.9389 60.8421 13.0032 61.732 13.8401C62.3677 14.2908 62.3677 15.192 62.177 15.9002C61.8592 16.8658 61.0328 17.6383 61.2235 18.7327C61.3506 18.8615 61.4142 18.9258 61.5413 19.0546C61.9227 19.0546 62.3041 19.0546 62.622 18.9258C63.5119 18.4752 64.0204 17.574 64.4018 16.6727C64.9103 15.4495 64.7832 13.9045 63.8933 12.8101C62.8126 11.3938 61.0964 10.6857 59.4437 10.557C57.6003 10.4926 55.6933 10.7501 54.1041 11.7801C52.8964 12.5526 51.9429 13.8401 51.9429 15.3208C51.8158 16.4796 52.3879 17.5739 53.2142 18.3465C55.1212 20.2777 57.8545 20.9215 60.0158 22.5309C60.5878 22.9815 61.1599 23.5609 61.3506 24.3334C61.4142 24.9772 61.4778 25.6853 61.0964 26.2647C60.4607 27.2947 59.253 27.9385 58.0452 28.196C56.6468 28.5179 55.0576 28.5179 53.7228 27.8741C52.8328 27.4235 52.1336 26.4578 52.1972 25.4278C52.1972 24.5909 52.7057 23.6897 52.2607 22.9172C51.6887 22.6597 50.9894 22.7884 50.4809 23.239C49.7817 23.9472 48.9553 24.5266 48.129 25.106C47.3026 25.7497 46.5398 26.4578 45.6499 26.9085C45.4592 26.9729 45.2685 26.9729 45.0778 27.0372C44.9507 26.8441 44.76 26.651 44.76 26.3935C44.6329 25.2347 44.76 24.1403 44.9507 22.9815L45.0143 22.8528C45.0778 21.694 45.5228 20.4709 45.205 19.3121C44.76 18.9258 44.0608 18.604 43.5522 19.0546C42.6623 19.7627 42.1538 20.8571 41.5181 21.8228C41.0732 22.4022 40.8189 23.1103 40.4375 23.6897C40.5647 22.2734 41.2003 20.8571 41.0096 19.3765C40.8825 19.2477 40.6918 19.0546 40.5647 18.9258C40.1833 18.9258 39.8654 18.9258 39.484 18.9258C39.0391 19.2477 38.7213 19.5696 38.467 20.0202C37.7042 21.1146 37.005 22.2734 36.4965 23.4965C36.4329 23.4965 36.3058 23.4966 36.2422 23.5609C36.4965 22.4665 36.6236 21.3721 36.7507 20.2134C36.7507 19.9559 36.7507 19.6984 36.7507 19.4409C36.6871 19.3121 36.6236 19.119 36.56 18.9902C36.3058 18.9258 36.0515 18.9258 35.7972 18.8615C35.4794 18.8615 35.1616 18.9258 34.9073 18.9902C34.3352 19.7627 34.2081 20.7928 34.0174 21.694C33.8267 22.3378 33.8903 23.0459 33.4453 23.5609C32.7461 24.3978 32.1104 25.3635 31.3476 26.136C30.8391 26.651 30.2034 27.2304 29.4407 27.1016C29.0593 25.8785 29.5042 24.6553 29.6949 23.4965C29.8856 22.5309 30.1399 21.5653 30.1399 20.5352C30.1399 20.2134 29.9492 19.8915 29.6314 19.7627C29.1228 19.6984 28.6143 19.8271 28.1693 19.5696C27.9787 19.3121 27.788 18.9902 27.4066 18.8615C26.7709 18.8615 26.1352 18.9902 25.5632 19.3121C23.8469 20.2777 22.7027 21.9515 21.9399 23.8184C19.9058 24.7197 18.3167 26.2003 16.4733 27.4235C15.0113 28.3891 13.295 29.226 11.4516 29.1616C10.5617 29.226 9.60817 28.9685 8.90895 28.3248C8.01903 27.5522 7.7012 26.3291 7.63763 25.2347C7.57407 22.724 8.33685 20.2777 9.41747 18.0246C10.2438 16.3508 11.3244 14.677 12.9136 13.647C13.6128 13.2608 14.312 12.8745 15.1384 12.9389C15.9012 12.9389 16.7911 13.2608 17.1089 14.0333C17.6174 15.0633 17.4267 16.3508 16.8547 17.3164C16.4733 18.089 15.9647 18.9258 16.0283 19.8271C16.0283 20.2777 16.4097 20.664 16.8547 20.4709C18.8888 18.8615 20.2236 16.0933 19.4608 13.4539C19.0795 12.4239 18.3802 11.5226 17.4267 11.0076C15.9647 10.1063 14.0578 10.3638 12.5322 11.072ZM104.003 17.7027C103.368 18.7971 103.368 20.2777 104.003 21.3721C104.575 22.3378 105.529 23.1103 106.609 23.3034C107.626 23.4965 108.707 23.239 109.533 22.6597C110.423 21.9515 111.059 20.8571 111.059 19.6984C111.123 18.2821 110.296 16.8658 109.025 16.2221C108.262 15.8358 107.436 15.707 106.609 15.8358C105.529 16.0933 104.512 16.7371 104.003 17.7027Z" fill="#3C8DD9"/>
<path d="M98.2822 5.85747C99.8713 5.59997 101.524 6.11498 102.668 7.20937C103.304 7.91751 103.685 8.81877 103.812 9.78441C103.558 10.0419 103.304 10.235 102.986 10.3638C102.033 10.1063 102.287 8.94753 101.715 8.36814C100.952 7.4025 99.6806 7.27375 98.5364 7.27375C98.155 7.27375 98.0279 6.88749 97.9008 6.62999C97.9643 6.37248 98.0279 6.0506 98.2822 5.85747Z" fill="#3C8DD9"/>
<path d="M86.0141 11.3294C86.1412 11.2007 86.3319 11.3938 86.5226 11.3938C86.7769 12.5526 86.5862 13.7114 86.3319 14.8701C85.7598 17.0589 84.997 19.1833 84.2342 21.3077C84.1071 19.5696 84.2978 17.7671 84.4885 16.0289C84.5521 14.9989 84.8699 13.9689 85.1241 12.9388C85.2513 12.3595 85.442 11.6513 86.0141 11.3294Z" fill="#3C8DD9"/>
<path d="M26.8345 20.9859C27.0888 20.9859 27.343 20.9215 27.5337 20.9215C27.2795 22.0159 27.0252 23.1746 26.7709 24.269C26.5802 25.2347 26.326 26.3291 25.6268 27.1016C25.3725 27.4235 24.864 27.6166 24.5461 27.3591C23.9105 26.8441 24.1012 25.9428 24.1647 25.2347C24.6097 23.4965 25.3725 21.8227 26.8345 20.9859Z" fill="#3C8DD9"/>
<path d="M70.1226 20.9858C70.8854 20.7283 71.3939 21.5652 71.5211 22.209C71.7118 23.3677 71.5846 24.5265 71.2032 25.6209C70.949 26.2647 70.6311 27.0372 69.9955 27.359C69.4234 27.5522 68.8513 27.1659 68.5335 26.7153C68.0885 26.0071 68.2156 25.1059 68.2792 24.269C68.4699 22.9815 68.9149 21.5652 70.1226 20.9858Z" fill="#3C8DD9"/>
<path d="M80.1661 21.9515C80.5474 21.5009 81.056 21.1146 81.5645 20.8571C81.6281 22.209 81.5009 23.6253 81.6916 24.9772C81.4374 25.621 81.056 26.2647 80.4839 26.7154C80.1025 27.1016 79.5304 26.9085 79.0219 26.9085C78.3862 26.3935 78.6405 25.4922 78.8312 24.7841C79.149 23.8184 79.4668 22.724 80.1661 21.9515Z" fill="#3C8DD9"/>
<path d="M92.5613 22.6597C93.0699 21.8228 93.8327 20.9215 94.8497 20.8571C94.7862 22.0803 94.4048 23.1747 94.1505 24.3978C93.9598 25.4922 93.5784 26.651 92.6885 27.4235C92.5613 27.4235 92.3071 27.4235 92.18 27.4879C91.9257 27.2948 91.5443 27.0372 91.5443 26.651C91.3536 25.2347 91.8621 23.8828 92.5613 22.6597Z" fill="#3C8DD9"/>
</svg>
