<?xml version="1.0" encoding="utf-8"?>
  <!-- Generator: Adobe Illustrator 24.1.2, SVG Export Plug-In . SVG Version: 6.00 Build 0)  -->
<svg version="1.1" id="Слой_1" xmlns="http://www.w3.org/2000/svg" xmlns:xlink="http://www.w3.org/1999/xlink" x="0px" y="0px"
     viewBox="0 0 47 47" style="enable-background:new 0 0 47 47;" xml:space="preserve">
<style type="text/css">
	.st0{fill:#FFFFFF;}
	.st1{fill:#F03382;}
</style>
<circle class="st0" cx="23.5" cy="23.5" r="23.5"/>
<path class="st1" d="M26.6,27.9c-0.3-0.3-0.3-0.7,0-1c0.3-0.3,0.7-0.3,1,0L31,30c0.3,0.3,0.3,0.7,0,1c-0.3,0.3-0.7,0.3-1,0
	L26.6,27.9z"/>
<path class="st1" d="M28.5,21.5c0.8,3.6-1.4,7.2-5,8c-3.6,0.8-7.2-1.4-8-5c-0.8-3.6,1.4-7.2,5-8C24.1,15.6,27.7,17.9,28.5,21.5z
	 M17,24.1c0.6,2.7,3.3,4.4,6.1,3.8c2.7-0.6,4.4-3.3,3.8-6.1s-3.3-4.4-6.1-3.8C18.1,18.6,16.4,21.3,17,24.1z"/>
</svg>
