<?xml version="1.0" encoding="utf-8"?>
<!-- Generator: Adobe Illustrator 24.1.2, SVG Export Plug-In . SVG Version: 6.00 Build 0)  -->
<svg version="1.1" id="Слой_1" xmlns="http://www.w3.org/2000/svg" xmlns:xlink="http://www.w3.org/1999/xlink" x="0px" y="0px"
	 viewBox="0 0 291 276" style="enable-background:new 0 0 291 276;" xml:space="preserve">
<style type="text/css">
	.st0{fill-rule:evenodd;clip-rule:evenodd;fill:#F0F4F9;}
</style>
<path class="st0" d="M143.2,0.6C172.6,5,181.6,44,206.2,60.9C232,78.6,278,71,288.8,100.4c10.6,29.1-28.2,52.9-38.1,82.2
	c-9.7,28.8,5.9,69.5-18.9,87c-24.9,17.6-58.1-9.7-88.6-10.9c-28.6-1.1-57.6,16-83.7,4.1C31.3,250.1,5.7,224.6,0.6,194
	c-4.9-29.8,22.3-53.7,33.9-81.6c10.3-24.8,11.6-53.3,30.3-72.5C85.7,18.4,113.5-3.8,143.2,0.6z"/>
<image style="overflow:visible;" width="275" height="275" xlink:href="../Downloads/webcam_logitech.png"  transform="matrix(1 0 0 1 7.7944 0.5)">
</image>
</svg>
